<?xml version="1.0" encoding="UTF-8" standalone="no"?>
<!-- Created with Inkscape (http://www.inkscape.org/) -->
<svg
   xmlns:dc="http://purl.org/dc/elements/1.1/"
   xmlns:cc="http://web.resource.org/cc/"
   xmlns:rdf="http://www.w3.org/1999/02/22-rdf-syntax-ns#"
   xmlns:svg="http://www.w3.org/2000/svg"
   xmlns="http://www.w3.org/2000/svg"
   xmlns:xlink="http://www.w3.org/1999/xlink"
   xmlns:sodipodi="http://inkscape.sourceforge.net/DTD/sodipodi-0.dtd"
   xmlns:inkscape="http://www.inkscape.org/namespaces/inkscape"
   width="48px"
   height="48px"
   id="svg1319"
   sodipodi:version="0.32"
   inkscape:version="0.42"
   sodipodi:docbase="/home/andreas/projekt/tango/scalable"
   sodipodi:docname="help-faq.svg">
  <defs
     id="defs1321">
    <linearGradient
       inkscape:collect="always"
       id="linearGradient29433">
      <stop
         style="stop-color:#000000;stop-opacity:1;"
         offset="0"
         id="stop29435" />
      <stop
         style="stop-color:#000000;stop-opacity:0;"
         offset="1"
         id="stop29437" />
    </linearGradient>
    <radialGradient
       inkscape:collect="always"
       xlink:href="#linearGradient29433"
       id="radialGradient29455"
       gradientUnits="userSpaceOnUse"
       gradientTransform="matrix(1.000000,0.000000,0.000000,0.346491,-1.682915e-14,18.06653)"
       cx="29.496454"
       cy="27.645426"
       fx="29.496454"
       fy="27.645426"
       r="11.515739" />
    <linearGradient
       inkscape:collect="always"
       id="linearGradient21644">
      <stop
         style="stop-color:#000000;stop-opacity:1;"
         offset="0"
         id="stop21646" />
      <stop
         style="stop-color:#000000;stop-opacity:0;"
         offset="1"
         id="stop21648" />
    </linearGradient>
    <radialGradient
       inkscape:collect="always"
       xlink:href="#linearGradient21644"
       id="radialGradient21650"
       cx="25.125"
       cy="36.75"
       fx="25.125"
       fy="36.75"
       r="15.75"
       gradientTransform="matrix(1.000000,0.000000,0.000000,0.595238,4.037555e-16,14.87500)"
       gradientUnits="userSpaceOnUse" />
    <linearGradient
       id="linearGradient2431">
      <stop
         style="stop-color:#ffffff;stop-opacity:1;"
         offset="0"
         id="stop2433" />
      <stop
         style="stop-color:#b8b8b8;stop-opacity:1;"
         offset="1"
         id="stop2435" />
    </linearGradient>
    <linearGradient
       id="linearGradient29418">
      <stop
         style="stop-color:#f5f5f5;stop-opacity:1.0000000;"
         offset="0.0000000"
         id="stop29420" />
      <stop
         style="stop-color:#e9e9e9;stop-opacity:1.0000000;"
         offset="1.0000000"
         id="stop29422" />
    </linearGradient>
    <linearGradient
       inkscape:collect="always"
       xlink:href="#linearGradient29418"
       id="linearGradient29429"
       gradientUnits="userSpaceOnUse"
       x1="26.011957"
       y1="10.916001"
       x2="39.037319"
       y2="26.257807"
       gradientTransform="matrix(1.441562,0.000000,0.000000,1.401786,-23.50822,-2.448917)" />
  </defs>
  <sodipodi:namedview
     id="base"
     pagecolor="#ffffff"
     bordercolor="#666666"
     borderopacity="1.0"
     inkscape:pageopacity="0.0"
     inkscape:pageshadow="2"
     inkscape:zoom="1.4142136"
     inkscape:cx="33.431944"
     inkscape:cy="13.750705"
     inkscape:current-layer="layer1"
     showgrid="false"
     inkscape:grid-bbox="true"
     inkscape:document-units="px"
     stroke="#204a87"
     fill="#729fcf"
     inkscape:window-width="1280"
     inkscape:window-height="949"
     inkscape:window-x="0"
     inkscape:window-y="25" />
  <metadata
     id="metadata1324">
    <rdf:RDF>
      <cc:Work
         rdf:about="">
        <dc:format>image/svg+xml</dc:format>
        <dc:type
           rdf:resource="http://purl.org/dc/dcmitype/StillImage" />
      </cc:Work>
    </rdf:RDF>
  </metadata>
  <g
     id="layer1"
     inkscape:label="Layer 1"
     inkscape:groupmode="layer">
    <path
       transform="matrix(1.910429,0.000000,0.000000,1.253100,-32.35086,5.357514)"
       d="M 41.012194 27.645426 A 11.515739 3.9901025 0 1 1  17.980715,27.645426 A 11.515739 3.9901025 0 1 1  41.012194 27.645426 z"
       sodipodi:ry="3.9901025"
       sodipodi:rx="11.515739"
       sodipodi:cy="27.645426"
       sodipodi:cx="29.496454"
       id="path29453"
       style="opacity:0.12025315;color:#000000;fill:url(#radialGradient29455);fill-opacity:1.0000000;fill-rule:nonzero;stroke:none;stroke-width:1.0000000;stroke-linecap:butt;stroke-linejoin:miter;marker:none;marker-start:none;marker-mid:none;marker-end:none;stroke-miterlimit:4.0000000;stroke-dashoffset:0.0000000;stroke-opacity:1.0000000;visibility:visible;display:block;overflow:visible"
       sodipodi:type="arc" />
    <path
       style="color:#000000;fill:url(#linearGradient29429);fill-opacity:1.0000000;fill-rule:nonzero;stroke:#787878;stroke-width:1.0000002;stroke-linecap:butt;stroke-linejoin:miter;marker:none;marker-start:none;marker-mid:none;marker-end:none;stroke-miterlimit:4.0000000;stroke-dashoffset:0.0000000;stroke-opacity:1.0000000;visibility:visible;display:block;overflow:visible"
       d="M 9.2479778,6.4874714 C 7.7151831,6.4874714 6.5000001,7.7129314 6.5000001,9.2034323 L 6.5000001,30.866385 C 6.5000001,32.356886 7.7151831,33.538540 9.2479778,33.538540 L 27.441956,33.538540 C 28.667138,35.105047 31.051346,37.359209 36.767059,39.473254 C 34.222290,36.565173 34.227713,34.875997 34.514618,33.538540 L 38.659108,33.538540 C 40.191900,33.538540 41.452130,32.356886 41.452133,30.866385 L 41.452133,9.2034323 C 41.452133,7.7129316 40.191900,6.4874714 38.659108,6.4874714 L 9.2479778,6.4874714 z "
       id="rect29408"
       sodipodi:nodetypes="cccccccccccc" />
    <path
       id="path29445"
       d="M 9.3339112,7.4999996 C 7.9835420,7.4999996 7.4329675,8.1356314 7.4329675,9.4449456 L 7.4329675,30.191030 C 7.4329675,31.500344 8.5035250,32.538354 9.8538952,32.538354 L 27.971735,32.538354 C 28.693960,34.200150 30.960167,35.553653 34.212823,37.190281 C 33.605156,35.884813 33.403019,33.917708 33.816958,32.538354 L 38.953860,32.538354 C 40.304226,32.538354 40.448786,32.014680 40.448789,30.705367 L 40.448789,9.4449456 C 40.448789,8.1356317 40.081375,7.5734763 38.731009,7.5734763 L 9.3339112,7.4999996 z "
       style="color:#000000;fill:none;fill-opacity:1.0000000;fill-rule:nonzero;stroke:#ffffff;stroke-width:0.99999923;stroke-linecap:butt;stroke-linejoin:miter;marker:none;marker-start:none;marker-mid:none;marker-end:none;stroke-miterlimit:4.0000000;stroke-dashoffset:0.0000000;stroke-opacity:1.0000000;visibility:visible;display:block;overflow:visible"
       sodipodi:nodetypes="cccccccccccc" />
    <path
       sodipodi:type="inkscape:offset"
       inkscape:radius="0.13495015"
       inkscape:original="M -20.25 6 C -21.298341 6.000026 -22.372769 6.1244771 -23.5 6.34375 C -24.627244 6.563073 -25.886043 6.8832479 -27.25 7.34375 L -27.25 12.5 C -26.100219 11.776335 -24.997109 11.236862 -23.9375 10.875 C -22.877902 10.502213 -21.881822 10.312521 -20.96875 10.3125 C -19.999334 10.312521 -19.259834 10.530174 -18.71875 10.96875 C -18.177686 11.396402 -17.906262 12.013726 -17.90625 12.78125 C -17.906261 13.285654 -18.039408 13.776881 -18.34375 14.28125 C -18.636843 14.785651 -19.107484 15.33609 -19.75 15.90625 L -20.84375 16.84375 C -22.038631 17.918325 -22.815518 18.829509 -23.1875 19.53125 C -23.559495 20.22205 -23.750005 21.007137 -23.75 21.90625 L -23.75 22.71875 L -17.65625 22.71875 L -17.65625 21.96875 C -17.656262 21.475338 -17.517981 21.030712 -17.28125 20.625 C -17.044542 20.208345 -16.547785 19.648586 -15.78125 18.96875 L -14.71875 18.03125 C -13.659161 17.055386 -12.908389 16.156813 -12.46875 15.3125 C -12.029144 14.457253 -11.781268 13.480828 -11.78125 12.40625 C -11.781268 10.311973 -12.525902 8.7417969 -13.96875 7.65625 C -15.41163 6.559783 -17.499549 6.0000261 -20.25 6 z M -23.75 25.15625 L -23.75 31 L -17.65625 31 L -17.65625 25.15625 L -23.75 25.15625 z "
       xlink:href="#text2215"
       style="font-size:34.153229px;font-style:normal;font-variant:normal;font-weight:bold;font-stretch:normal;text-align:start;line-height:125.00000%;writing-mode:lr-tb;text-anchor:start;fill:#729fcf;fill-opacity:1.0000000;stroke:#204a87;stroke-width:1.2218008px;stroke-linecap:butt;stroke-linejoin:miter;stroke-opacity:1.0000000;font-family:Bitstream Vera Sans"
       id="path1554"
       d="M -20.250000,5.8750000 C -21.309019,5.8750263 -22.397637,5.9982356 -23.531250,6.2187500 C -24.664175,6.4391783 -25.911412,6.7562625 -27.281250,7.2187500 C -27.291632,7.2175400 -27.302118,7.2175400 -27.312500,7.2187500 C -27.324563,7.2273788 -27.335121,7.2379370 -27.343750,7.2500000 C -27.355813,7.2586288 -27.366371,7.2691870 -27.375000,7.2812500 C -27.376210,7.2916315 -27.376210,7.3021185 -27.375000,7.3125000 C -27.376210,7.3228815 -27.376210,7.3333685 -27.375000,7.3437500 L -27.375000,12.500000 C -27.376210,12.510382 -27.376210,12.520868 -27.375000,12.531250 C -27.376210,12.541632 -27.376210,12.552118 -27.375000,12.562500 C -27.366371,12.574563 -27.355813,12.585121 -27.343750,12.593750 C -27.335121,12.605813 -27.324563,12.616371 -27.312500,12.625000 C -27.302118,12.626210 -27.291632,12.626210 -27.281250,12.625000 C -27.270868,12.626210 -27.260382,12.626210 -27.250000,12.625000 C -27.239618,12.626210 -27.229132,12.626210 -27.218750,12.625000 C -27.208368,12.626210 -27.197882,12.626210 -27.187500,12.625000 C -26.045062,11.905957 -24.954148,11.357862 -23.906250,11.000000 C -22.858109,10.631244 -21.863134,10.437521 -20.968750,10.437500 C -20.019532,10.437521 -19.323825,10.648045 -18.812500,11.062500 C -18.303777,11.464590 -18.031262,12.045540 -18.031250,12.781250 C -18.031260,13.261907 -18.175438,13.732660 -18.468750,14.218750 C -18.751741,14.705766 -19.209015,15.249245 -19.843750,15.812500 L -20.937500,16.750000 C -22.138959,17.830490 -22.926743,18.741022 -23.312500,19.468750 C -23.695613,20.180196 -23.875005,20.988074 -23.875000,21.906250 L -23.875000,22.718750 C -23.876210,22.729132 -23.876210,22.739618 -23.875000,22.750000 C -23.876210,22.760382 -23.876210,22.770868 -23.875000,22.781250 C -23.866371,22.793313 -23.855813,22.803871 -23.843750,22.812500 C -23.835121,22.824563 -23.824563,22.835121 -23.812500,22.843750 C -23.802118,22.844960 -23.791632,22.844960 -23.781250,22.843750 C -23.770868,22.844960 -23.760382,22.844960 -23.750000,22.843750 L -17.656250,22.843750 C -17.645868,22.844960 -17.635382,22.844960 -17.625000,22.843750 C -17.614618,22.844960 -17.604132,22.844960 -17.593750,22.843750 C -17.581687,22.835121 -17.571129,22.824563 -17.562500,22.812500 C -17.550437,22.803871 -17.539879,22.793313 -17.531250,22.781250 C -17.530040,22.770868 -17.530040,22.760382 -17.531250,22.750000 C -17.530040,22.739618 -17.530040,22.729132 -17.531250,22.718750 L -17.531250,21.968750 C -17.531261,21.500554 -17.382880,21.075901 -17.156250,20.687500 C -16.933955,20.296216 -16.448177,19.737141 -15.687500,19.062500 L -14.625000,18.125000 C -13.558412,17.142690 -12.794341,16.240346 -12.343750,15.375000 C -11.894481,14.500954 -11.656268,13.501580 -11.656250,12.406250 C -11.656268,10.279985 -12.400019,8.6722224 -13.875000,7.5625000 C -15.350197,6.4414748 -17.481240,5.8750263 -20.250000,5.8750000 z M -23.812500,25.031250 C -23.824563,25.039879 -23.835121,25.050437 -23.843750,25.062500 C -23.855813,25.071129 -23.866371,25.081687 -23.875000,25.093750 C -23.876210,25.104132 -23.876210,25.114618 -23.875000,25.125000 C -23.876210,25.135382 -23.876210,25.145868 -23.875000,25.156250 L -23.875000,31.000000 C -23.876210,31.010382 -23.876210,31.020868 -23.875000,31.031250 C -23.876210,31.041632 -23.876210,31.052118 -23.875000,31.062500 C -23.866371,31.074563 -23.855813,31.085121 -23.843750,31.093750 C -23.835121,31.105813 -23.824563,31.116371 -23.812500,31.125000 C -23.802118,31.126210 -23.791632,31.126210 -23.781250,31.125000 C -23.770868,31.126210 -23.760382,31.126210 -23.750000,31.125000 L -17.656250,31.125000 C -17.645868,31.126210 -17.635382,31.126210 -17.625000,31.125000 C -17.614618,31.126210 -17.604132,31.126210 -17.593750,31.125000 C -17.581687,31.116371 -17.571129,31.105813 -17.562500,31.093750 C -17.550437,31.085121 -17.539879,31.074563 -17.531250,31.062500 C -17.530040,31.052118 -17.530040,31.041632 -17.531250,31.031250 C -17.530040,31.020868 -17.530040,31.010382 -17.531250,31.000000 L -17.531250,25.156250 C -17.530040,25.145868 -17.530040,25.135382 -17.531250,25.125000 C -17.530040,25.114618 -17.530040,25.104132 -17.531250,25.093750 C -17.539879,25.081687 -17.550437,25.071129 -17.562500,25.062500 C -17.571129,25.050437 -17.581687,25.039879 -17.593750,25.031250 C -17.604132,25.030040 -17.614618,25.030040 -17.625000,25.031250 C -17.635382,25.030040 -17.645868,25.030040 -17.656250,25.031250 L -23.750000,25.031250 C -23.760382,25.030040 -23.770868,25.030040 -23.781250,25.031250 C -23.791632,25.030040 -23.802118,25.030040 -23.812500,25.031250 z "
       transform="matrix(0.763752,0.000000,0.000000,0.752617,39.43932,6.086559)"
       inkscape:href="#text2215" />
  </g>
</svg>
