<?xml version="1.0" encoding="UTF-8" standalone="no"?>
<!-- Created with Inkscape (http://www.inkscape.org/) -->
<svg
   xmlns:svg="http://www.w3.org/2000/svg"
   xmlns="http://www.w3.org/2000/svg"
   xmlns:xlink="http://www.w3.org/1999/xlink"
   version="1.0"
   width="48"
   height="48"
   id="svg1800">
  <defs
     id="defs3">
    <linearGradient
       id="linearGradient3101">
      <stop
         id="stop3103"
         style="stop-color:#000000;stop-opacity:1"
         offset="0" />
      <stop
         id="stop3105"
         style="stop-color:#000000;stop-opacity:0"
         offset="1" />
    </linearGradient>
    <radialGradient
       cx="17.3125"
       cy="25.53125"
       r="9.6875"
       fx="17.3125"
       fy="25.53125"
       id="radialGradient3107"
       xlink:href="#linearGradient3101"
       gradientUnits="userSpaceOnUse"
       gradientTransform="matrix(1,0,0,0.351613,0,16.5541)" />
    <radialGradient
       cx="17.3125"
       cy="25.53125"
       r="9.6875"
       fx="17.3125"
       fy="25.53125"
       id="radialGradient3266"
       xlink:href="#linearGradient3101"
       gradientUnits="userSpaceOnUse"
       gradientTransform="matrix(2.18291,0,0,0.7675395,-13.5037,21.78601)" />
  </defs>
  <path
     d="M 45.43487,41.382321 C 45.43487,45.488855 35.967063,48.817858 24.287929,48.817858 C 12.608796,48.817858 3.1409888,45.488855 3.1409888,41.382321 C 3.1409888,37.275787 12.608796,33.946784 24.287929,33.946784 C 35.967063,33.946784 45.43487,37.275787 45.43487,41.382321 z"
     id="path3099"
     style="opacity:0.40909101;fill:url(#radialGradient3266);fill-opacity:1;fill-rule:nonzero;stroke:none;stroke-width:1.10534;stroke-linecap:butt;stroke-linejoin:miter;marker:none;stroke-miterlimit:4;stroke-dasharray:none;stroke-dashoffset:0;stroke-opacity:1;visibility:visible;display:inline;overflow:visible" />
  <path
     d="M 45.088187,21.403811 C 45.088187,32.885846 35.780153,42.193875 24.298109,42.193875 C 12.816066,42.193875 3.5080313,32.885846 3.5080314,21.403811 C 3.5080313,9.9217755 12.816066,0.61374686 24.298109,0.61374686 C 35.780153,0.61374686 45.088187,9.9217755 45.088187,21.403811 L 45.088187,21.403811 z"
     id="path1650"
     style="fill:#3499f1;fill-opacity:1;fill-rule:nonzero;stroke:#0869ae;stroke-width:0.94500268;stroke-linecap:round;stroke-linejoin:round;stroke-miterlimit:4;stroke-dasharray:none;stroke-dashoffset:0;stroke-opacity:1" />
  <path
     d="M 44.555336,21.312495 C 44.555336,32.42327 35.548271,41.430334 24.437492,41.430334 C 13.326713,41.430334 4.3196477,32.42327 4.3196478,21.312495 C 4.3196477,10.201719 13.326713,1.1946559 24.437492,1.1946559 C 35.548271,1.1946559 44.555336,10.201719 44.555336,21.312495 L 44.555336,21.312495 z"
     id="path3392"
     style="fill:none;fill-opacity:1;fill-rule:nonzero;stroke:#81acff;stroke-width:0.91444677;stroke-linecap:round;stroke-linejoin:round;stroke-miterlimit:4;stroke-dasharray:none;stroke-dashoffset:0;stroke-opacity:1" />
  <path
     d="M 43.676426,20.47678 C 43.676426,31.307396 37.624257,16.170581 25.001688,20.863168 C 12.279172,25.592912 4.4350535,31.307396 4.4350535,20.47678 C 4.4350535,9.6461627 13.22512,0.85609769 24.05574,0.85609769 C 34.886359,0.85609769 43.676426,9.6461627 43.676426,20.47678 z"
     id="path3068"
     style="fill:#fffeff;fill-opacity:0.21390399;fill-rule:nonzero;stroke:none;stroke-width:1;stroke-linecap:round;stroke-linejoin:round;stroke-miterlimit:4;stroke-dashoffset:0;stroke-opacity:1" />
  <g
     transform="translate(3.5036114,0)"
     id="g4675">
    <path
       d="M 32.659748,26.606817 C 32.665101,26.385683 32.686609,26.093966 32.724275,25.731666 C 32.761891,25.369381 32.7834,25.005072 32.788803,24.638738 C 32.79281,22.394413 32.228198,20.494896 31.094965,18.940183 C 29.961683,17.385497 28.235583,16.574875 25.916659,16.508316 C 24.802204,16.512366 23.796656,16.705946 22.900014,17.08906 C 22.003341,17.472205 21.223638,18.020686 20.560905,18.734503 L 20.496378,18.734503 C 19.961327,18.00657 19.24884,17.454056 18.358915,17.076961 C 17.468967,16.699896 16.417714,16.510348 15.20515,16.508316 C 13.856794,16.539251 12.681863,16.727455 11.680353,17.072928 C 10.678834,17.418432 9.907198,17.73569 9.365441,18.024704 L 10.43014,21.670488 C 10.941648,21.380801 11.572132,21.113282 12.321593,20.867932 C 13.071043,20.622606 13.87091,20.492208 14.721196,20.476736 C 15.809411,20.50834 16.544751,20.671003 16.927218,20.964724 C 17.309666,21.258467 17.48846,21.493722 17.463601,21.670488 L 17.463601,22.057651 C 14.734632,22.054302 12.52189,22.536912 10.825368,23.50548 C 9.12884,24.474068 8.255035,25.948781 8.203953,27.929624 C 8.220755,29.400981 8.727562,30.620274 9.724374,31.587507 C 10.721182,32.554742 12.10717,33.056171 13.882343,33.091797 C 15.259586,33.078353 16.425107,32.839065 17.378909,32.373932 C 18.33269,31.9088 19.135246,31.298481 19.786579,30.542974 L 19.915633,30.542974 C 20.513841,31.383173 21.341939,32.01769 22.399929,32.446525 C 23.45789,32.875363 24.640887,33.090453 25.948923,33.091797 C 26.912778,33.103223 27.921014,33.023908 28.973635,32.853853 C 30.026211,32.683798 31.050579,32.35444 32.046741,31.865781 L 31.304678,27.994151 C 30.627791,28.269067 29.940846,28.477436 29.243841,28.619257 C 28.546792,28.761087 27.73886,28.832335 26.82004,28.833004 C 25.663909,28.818893 24.74171,28.605148 24.053438,28.191766 C 23.365132,27.778393 22.97528,27.250077 22.883883,26.606817 L 32.659748,26.606817 z M 17.624919,26.929452 C 17.627597,27.108252 17.622219,27.274947 17.608787,27.429538 C 17.595333,27.58414 17.557692,27.718571 17.495865,27.832833 C 17.315715,28.166228 17.062984,28.451223 16.737669,28.687818 C 16.412337,28.924421 16.030552,29.048098 15.592313,29.058849 C 15.111712,29.060198 14.709762,28.93652 14.386461,28.687818 C 14.063147,28.439123 13.895107,28.057338 13.882343,27.542461 C 13.883009,26.908621 14.196234,26.417946 14.822021,26.070435 C 15.447791,25.722935 16.38209,25.54683 17.624919,25.542119 L 17.624919,26.929452 z M 22.851619,22.735187 C 22.842194,22.250571 23.022333,21.727632 23.392035,21.16637 C 23.761705,20.60513 24.377401,20.29997 25.239124,20.250892 C 26.192897,20.306021 26.809937,20.623279 27.090247,21.202667 C 27.370516,21.782078 27.495539,22.292917 27.465311,22.735187 L 22.851619,22.735187 z"
       id="path4118"
       style="font-size:36.55896759px;font-style:normal;font-weight:normal;line-height:125%;fill:#ffffff;fill-opacity:1;stroke:none;stroke-width:1px;stroke-linecap:butt;stroke-linejoin:miter;stroke-opacity:1;font-family:Bitstream Vera Sans" />
    <path
       d="M 16.963429,15.134709 C 17.688014,15.117251 18.279512,14.869898 18.737926,14.392647 C 19.196334,13.915434 19.432933,13.313181 19.447725,12.585887 C 19.432261,11.830401 19.197007,11.220082 18.741959,10.754927 C 18.286906,10.289816 17.704818,10.050529 16.995692,10.037063 C 16.237497,10.050529 15.616424,10.289817 15.13247,10.754928 C 14.648517,11.220083 14.398475,11.830402 14.382342,12.585887 C 14.399147,13.313182 14.647846,13.915434 15.128438,14.392647 C 15.609031,14.869897 16.220694,15.117251 16.963429,15.134709 L 16.963429,15.134709 z"
       id="path4112"
       style="font-size:36.55896759px;font-style:normal;font-weight:normal;line-height:125%;fill:#ffffff;fill-opacity:1;stroke:none;stroke-width:1px;stroke-linecap:butt;stroke-linejoin:miter;stroke-opacity:1;font-family:Bitstream Vera Sans" />
    <path
       d="M 24.125944,15.134709 C 24.850522,15.117251 25.44202,14.869898 25.900441,14.392647 C 26.358842,13.915434 26.595441,13.313181 26.61024,12.585887 C 26.595442,11.830401 26.358843,11.220082 25.900441,10.754927 C 25.44202,10.289816 24.850521,10.050529 24.125944,10.037063 C 23.369086,10.050529 22.75339,10.289817 22.278853,10.754928 C 21.804303,11.220083 21.559639,11.830402 21.544858,12.585887 C 21.560983,13.313182 21.80296,13.915434 22.270788,14.392647 C 22.738603,14.869897 23.335479,15.117251 24.061417,15.134709 L 24.125944,15.134709 z"
       id="path4107"
       style="font-size:36.55896759px;font-style:normal;font-weight:normal;line-height:125%;fill:#ffffff;fill-opacity:1;stroke:none;stroke-width:1px;stroke-linecap:butt;stroke-linejoin:miter;stroke-opacity:1;font-family:Bitstream Vera Sans" />
  </g>
</svg>
