<?xml version="1.0" encoding="UTF-8" standalone="no"?>
<!-- Created with Inkscape (http://www.inkscape.org/) -->

<svg
   xmlns:dc="http://purl.org/dc/elements/1.1/"
   xmlns:cc="http://creativecommons.org/ns#"
   xmlns:rdf="http://www.w3.org/1999/02/22-rdf-syntax-ns#"
   xmlns:svg="http://www.w3.org/2000/svg"
   xmlns="http://www.w3.org/2000/svg"
   xmlns:xlink="http://www.w3.org/1999/xlink"
   xmlns:sodipodi="http://sodipodi.sourceforge.net/DTD/sodipodi-0.dtd"
   xmlns:inkscape="http://www.inkscape.org/namespaces/inkscape"
   width="48px"
   height="48px"
   id="svg14900"
   version="1.1"
   inkscape:version="0.48.0 r9654"
   sodipodi:docname="Lightbulb.svg">
  <defs
     id="defs14902">
    <linearGradient
       inkscape:collect="always"
       id="linearGradient16212">
      <stop
         style="stop-color:#eeeeec;stop-opacity:1;"
         offset="0"
         id="stop16214" />
      <stop
         style="stop-color:#d3d7cf;stop-opacity:1"
         offset="1"
         id="stop16216" />
    </linearGradient>
    <linearGradient
       id="linearGradient20210-1">
      <stop
         id="stop20212-2"
         offset="0.0000000"
         style="stop-color:#000000;stop-opacity:0.51546389;" />
      <stop
         style="stop-color:#000000;stop-opacity:0.14432989;"
         offset="0.55172414"
         id="stop20218-8" />
      <stop
         id="stop20214-9"
         offset="1"
         style="stop-color:#000000;stop-opacity:0;" />
    </linearGradient>
    <linearGradient
       id="linearGradient4666"
       inkscape:collect="always">
      <stop
         id="stop4668"
         offset="0"
         style="stop-color:#ffffff;stop-opacity:1;" />
      <stop
         id="stop4670"
         offset="1"
         style="stop-color:#ffffff;stop-opacity:0;" />
    </linearGradient>
    <linearGradient
       id="linearGradient4694">
      <stop
         id="stop4696"
         offset="0"
         style="stop-color:#e9f1f8;stop-opacity:1;" />
      <stop
         id="stop4698"
         offset="1"
         style="stop-color:#376ba3;stop-opacity:0.8392157;" />
    </linearGradient>
    <linearGradient
       id="linearGradient4712">
      <stop
         id="stop4714"
         offset="0"
         style="stop-color:#5b8ccb;stop-opacity:1;" />
      <stop
         id="stop4716"
         offset="1"
         style="stop-color:#3465a4;stop-opacity:1;" />
    </linearGradient>
    <linearGradient
       id="linearGradient2990">
      <stop
         id="stop2992"
         offset="0"
         style="stop-color:#3465a4;stop-opacity:1;" />
      <stop
         id="stop2994"
         offset="1"
         style="stop-color:#3465a4;stop-opacity:0;" />
    </linearGradient>
    <radialGradient
       inkscape:collect="always"
       xlink:href="#linearGradient20210-1"
       id="radialGradient15117"
       gradientUnits="userSpaceOnUse"
       gradientTransform="scale(1.764278,0.566804)"
       cx="14.772334"
       cy="74.209934"
       fx="14.772334"
       fy="74.209934"
       r="7.8289826" />
    <linearGradient
       inkscape:collect="always"
       xlink:href="#linearGradient2990"
       id="linearGradient16149"
       gradientUnits="userSpaceOnUse"
       x1="26"
       y1="22.116529"
       x2="27.550253"
       y2="28.126938"
       gradientTransform="translate(-62.536092,-1.5e-6)" />
    <radialGradient
       inkscape:collect="always"
       xlink:href="#linearGradient4666"
       id="radialGradient16152"
       gradientUnits="userSpaceOnUse"
       gradientTransform="matrix(2.138401,0,0,2.530201,-91.856632,-16.453751)"
       cx="25.755905"
       cy="9.9372978"
       fx="25.755905"
       fy="9.9372978"
       r="12.139711" />
    <radialGradient
       inkscape:collect="always"
       xlink:href="#linearGradient4694"
       id="radialGradient16155"
       gradientUnits="userSpaceOnUse"
       gradientTransform="matrix(1.821341,0,0,2.156244,-83.690482,-13.791042)"
       cx="26.435322"
       cy="17.031229"
       fx="26.435322"
       fy="17.031229"
       r="13.244088" />
    <linearGradient
       inkscape:collect="always"
       xlink:href="#linearGradient4712"
       id="linearGradient16157"
       gradientUnits="userSpaceOnUse"
       x1="20.643551"
       y1="9.0398531"
       x2="25.755913"
       y2="26.8943"
       gradientTransform="translate(-62.536092,-1.5e-6)" />
    <radialGradient
       inkscape:collect="always"
       xlink:href="#linearGradient20210-1"
       id="radialGradient16171"
       gradientUnits="userSpaceOnUse"
       gradientTransform="scale(1.764278,0.566804)"
       cx="14.772334"
       cy="74.209934"
       fx="14.772334"
       fy="74.209934"
       r="7.8289826" />
    <linearGradient
       inkscape:collect="always"
       xlink:href="#linearGradient16212"
       id="linearGradient16218"
       x1="23"
       y1="34"
       x2="23"
       y2="24"
       gradientUnits="userSpaceOnUse" />
  </defs>
  <sodipodi:namedview
     id="base"
     pagecolor="#ffffff"
     bordercolor="#666666"
     borderopacity="1.0"
     inkscape:pageopacity="0.0"
     inkscape:pageshadow="2"
     inkscape:zoom="11.313708"
     inkscape:cx="20.383959"
     inkscape:cy="17.286186"
     inkscape:current-layer="layer1"
     showgrid="false"
     inkscape:grid-bbox="true"
     inkscape:document-units="px"
     inkscape:window-width="1400"
     inkscape:window-height="962"
     inkscape:window-x="0"
     inkscape:window-y="26"
     inkscape:window-maximized="1">
    <inkscape:grid
       type="xygrid"
       id="grid16210" />
  </sodipodi:namedview>
  <metadata
     id="metadata14905">
    <rdf:RDF>
      <cc:Work
         rdf:about="">
        <dc:format>image/svg+xml</dc:format>
        <dc:type
           rdf:resource="http://purl.org/dc/dcmitype/StillImage" />
        <dc:title></dc:title>
      </cc:Work>
    </rdf:RDF>
  </metadata>
  <g
     id="layer1"
     inkscape:label="Layer 1"
     inkscape:groupmode="layer">
    <g
       id="g16220">
      <path
         transform="matrix(1.197183,0,0,1.098591,-7.201582,-3.084482)"
         d="m 39.875,42.0625 a 13.8125,4.4375 0 1 1 -27.625,0 13.8125,4.4375 0 1 1 27.625,0 z"
         sodipodi:ry="4.4375"
         sodipodi:rx="13.8125"
         sodipodi:cy="42.0625"
         sodipodi:cx="26.0625"
         id="path15039"
         style="opacity:0.8;color:#000000;fill:url(#radialGradient15117);fill-opacity:1;fill-rule:nonzero;stroke:none;stroke-width:2;marker:none;visibility:visible;display:inline;overflow:visible"
         sodipodi:type="arc"
         inkscape:r_cx="true"
         inkscape:r_cy="true" />
      <path
         sodipodi:nodetypes="csssscssssssscssccscscsssssccccsscsssccssssssssscsssssssscsssssssssssssssss"
         style="fill:#e4edf6;fill-opacity:0.99607843"
         d="m 20.55724,23.309365 c 0.543417,-0.363139 -1.960813,-0.566214 -1.672627,-1.124552 0.119166,-0.230874 -0.26972,-0.714892 -0.737542,-0.917965 -2.486312,-1.079261 -3.149595,-1.781698 -3.149595,-3.33551 0,-0.831237 0.186063,-1.396816 0.635067,-1.930427 l 0.290865,-0.345674 -0.279819,-0.48345 c -0.653404,-1.128896 -0.649178,-2.022837 0.01421,-3.006527 0.389378,-0.577381 0.39892,-0.615645 0.222641,-0.892711 -1.402133,-2.203787 -0.898992,-3.54423 1.853393,-4.937715 0.961788,-0.486937 1.163767,-0.642348 1.507247,-1.159739 0.603376,-0.908878 1.554584,-1.53115 2.998183,-1.961385 1.332351,-0.397081 4.447677,-0.221339 5.32137,0.300189 0.191053,0.114044 0.519517,0.243782 0.72992,0.288307 0.210403,0.04453 0.583031,0.271667 0.828063,0.50476 0.512457,0.487488 0.704757,1.242411 0.480411,1.885971 -0.0709,0.203387 -0.106681,0.392026 -0.07951,0.419196 0.02717,0.02717 0.264036,0.09763 0.526368,0.156569 2.29569,0.515807 3.194765,2.332416 2.008127,4.057484 l -0.404978,0.588736 0.469426,0.478814 c 0.496295,0.506218 0.828066,1.252808 0.823841,1.853898 -0.0032,0.44939 -0.346374,1.215533 -0.675841,1.508651 -0.315471,0.280664 -0.311293,0.365428 0.0385,0.78113 0.384423,0.456861 0.562459,1.173665 0.49051,1.97489 -0.08552,0.952351 -0.497553,1.49506 -1.646327,2.168446 -0.881983,0.517001 -1.442009,1.059281 -1.611893,1.56082 -0.134285,0.396442 -0.128428,0.50928 0.04675,0.900541 z m 3.983838,-0.718395 c 0.02933,-0.143289 0.109184,-0.671217 0.17746,-1.173174 0.06827,-0.501956 0.258826,-1.231429 0.423448,-1.621053 0.490005,-1.159733 0.512379,-1.12317 -0.872821,-1.426348 -0.968556,-0.211987 -1.29475,-0.240651 -1.65,-0.144991 -0.243532,0.06558 -0.442786,0.162763 -0.442786,0.215971 0,0.05321 0.128905,0.327379 0.286456,0.609268 0.413614,0.740036 0.609751,1.3572 0.748613,2.355577 0.148097,1.064778 0.21504,1.812217 0.736471,1.817288 0.296454,0.0029 0.550906,-0.42609 0.593159,-0.632538 z m 3.772143,-0.73321 c 0,-0.408295 0.58407,-1.424182 1.046274,-1.819811 0.27537,-0.235707 0.540787,-0.428558 0.589816,-0.428558 0.217233,0 1.18605,-0.760058 1.385448,-1.086914 0.46065,-0.755106 0.371749,-1.743348 -0.189938,-2.111379 -0.489558,-0.32077 -0.716611,0.08594 -0.272403,0.487947 0.197587,0.178813 0.232774,0.314631 0.186916,0.721483 -0.06669,0.591712 -0.464326,1.062033 -1.198279,1.417333 -0.659946,0.319476 -1.361436,1.018838 -1.708074,1.702894 -0.326498,0.644313 -0.479627,1.323136 -0.364934,1.617764 0.07169,0.184148 0.100428,0.177504 0.302197,-0.06985 0.122637,-0.150345 0.222977,-0.344253 0.222977,-0.430909 z m 0.531478,-6.186911 c 2.301574,-0.586213 3.263381,-1.596383 2.649759,-2.782997 -0.123414,-0.238657 -0.263006,-0.341619 -0.463158,-0.341619 -0.292474,0 -0.398156,0.264695 -0.163569,0.409677 0.264756,0.16363 0.344371,0.635914 0.165506,0.981801 -0.257408,0.497774 -1.011411,0.879412 -2.435129,1.232543 -0.698003,0.173129 -1.288561,0.328671 -1.31235,0.345649 -0.02379,0.01698 -0.0124,0.111274 0.02531,0.209547 0.09115,0.237535 0.434674,0.225304 1.533631,-0.0546 z m 1.238031,-4.673513 c 0.204927,-0.08768 0.524529,-0.321003 0.710226,-0.51849 0.602453,-0.640706 0.515558,-2.216824 -0.122218,-2.216824 -0.143104,0 -0.166916,0.07146 -0.106104,0.318421 0.189201,0.7683451 0.192026,0.9438271 0.02053,1.275458 -0.108738,0.210276 -0.391175,0.452368 -0.704989,0.604282 -0.601273,0.291071 -0.737148,0.448555 -0.51074,0.59196 0.214349,0.135766 0.279613,0.130752 0.713295,-0.05481 z m -2.409978,-4.25378 c 0.48776,-0.287785 0.640469,-0.533109 0.640469,-1.028903 0,-0.457191 -0.184895,-0.810526 -0.424136,-0.810526 -0.15113,0 -0.17067,0.08592 -0.108278,0.476099 0.08815,0.551283 -0.02382,0.736607 -0.587315,0.972051 -0.360415,0.150591 -0.487065,0.380144 -0.308341,0.558868 0.133353,0.133352 0.358878,0.08537 0.787601,-0.167589 z"
         id="path15142"
         inkscape:connector-curvature="0" />
      <path
         sodipodi:nodetypes="ccsssssscssssssssccccsscsccccscccccsscsssscccscssssscsssssscscccssscscscscssscsccsssssssccsssscsssssssssscssssssssssssssssssssscs"
         style="fill:#5b8ccb;fill-opacity:1;stroke:#5b8ccb;stroke-width:0.5;stroke-linejoin:round;stroke-miterlimit:4;stroke-dasharray:none"
         d="m 18.222103,33.401407 0.02895,-10.059496 c 0.238816,-0.122829 0.434211,-0.276483 0.434211,-0.341452 0,-0.06497 0.115195,-0.273935 0.255989,-0.464369 0.254207,-0.343833 0.254473,-0.349064 0.03819,-0.75068 -0.226167,-0.419965 -0.816565,-0.86212 -1.151169,-0.86212 -0.293365,0 -1.283377,-0.533664 -1.749913,-0.943288 -1.057301,-0.928322 -1.241046,-2.414127 -0.44486,-3.597253 0.213734,-0.317607 0.387946,-0.637362 0.387139,-0.710568 -8.11e-4,-0.07321 -0.157122,-0.440049 -0.347369,-0.815208 -0.537434,-1.059803 -0.428519,-1.92391 0.354973,-2.816257 0.331433,-0.377482 0.342711,-0.419544 0.174966,-0.652563 -0.90271,-1.253972 -1.086422,-2.1146413 -0.6457,-3.0250483 0.316815,-0.654454 0.932041,-1.136847 2.43353,-1.908109 0.731464,-0.375727 1.169763,-0.672512 1.2181,-0.824811 0.222,-0.699459 1.486636,-1.660241 2.726857,-2.071676 1.50404,-0.498954 4.33051,-0.416762 5.43311,0.157989 0.28678,0.14949 0.69093,0.308718 0.89811,0.353841 0.20718,0.04512 0.53086,0.236208 0.71929,0.424633 0.48888,0.488885 0.56711,1.045459 0.28547,2.031171 -0.0651,0.227778 0.0152,0.27676 0.89458,0.546073 1.07816,0.330176 1.77012,0.816075 2.02257,1.420273 0.32898,0.787357 0.12801,1.7873853 -0.49858,2.4809433 l -0.41089,0.454804 0.58202,0.550159 c 0.42076,0.39773 0.62017,0.693909 0.71972,1.068994 0.2349,0.884977 0.0883,1.375614 -0.7457,2.49643 -0.0729,0.09796 -0.009,0.261765 0.19959,0.509309 0.39602,0.470642 0.58047,1.171123 0.52184,1.981726 -0.0623,0.861561 -0.36896,1.266672 -1.52935,2.02044 -1.25793,0.817139 -1.80567,1.429922 -1.80567,2.020103 l 0.30327,11.353157 z m 6.41974,-10.53546 c 0.0991,-0.141537 0.18115,-0.467195 0.18226,-0.723684 0.003,-0.763078 0.30491,-1.960969 0.68836,-2.733808 0.19757,-0.398201 0.31706,-0.766155 0.26554,-0.817675 -0.12103,-0.121028 -2.29058,-0.576075 -2.77172,-0.581347 -0.44271,-0.0049 -1.19472,0.228249 -1.19472,0.370326 0,0.05592 0.12799,0.290261 0.28441,0.520763 0.41078,0.605321 0.74294,1.565861 0.89325,2.583099 0.16512,1.117469 0.467236,2.037417 1.043216,2.037417 0.26654,0 0.484594,-0.476908 0.609404,-0.655091 z m -2.1693,-0.284838 c 0.13392,-0.349013 -0.17794,-1.966693 -0.52408,-2.718467 -0.18589,-0.403749 -0.524858,-0.911363 -0.75325,-1.128032 l -0.415258,-0.393944 -0.613142,0.180127 c -0.337229,0.09907 -0.858778,0.273867 -1.159,0.388437 -0.300222,0.11457 -0.586718,0.167449 -0.63666,0.117508 -0.374652,-0.374652 2.824475,-1.327209 8.40792,-2.503504 3.08497,-0.649925 3.77596,-0.863717 4.49086,-1.389462 1.10315,-0.811267 1.1037,-2.227506 10e-4,-2.899787 -0.44619,-0.272046 -0.77531,-0.291696 -0.77531,-0.04629 0,0.380872 -1.2239,0.732438 -6.42632,1.845977 -6.181264,1.323052 -7.597908,1.843019 -8.154649,2.993092 -0.584091,1.206572 -0.01411,2.399347 1.477712,3.092334 1.542924,0.716726 1.702348,0.813524 1.958515,1.189142 0.163657,0.239971 0.260526,0.555147 0.260526,0.847653 0,0.256103 0.03474,0.500379 0.07719,0.542835 0.04246,0.04246 0.669354,0.07719 1.393107,0.07719 1.126319,0 1.326689,-0.02807 1.390669,-0.194813 z m 6.10032,0.01166 c 0.0387,-0.100734 0.0703,-0.337796 0.0703,-0.526802 0,-0.786698 0.65042,-1.571764 2.06276,-2.489779 0.80318,-0.522057 1.010345,-0.710051 1.19757,-1.156603 0.138889,-0.331264 0.173776,-0.774429 0.1014,-1.060621 -0.16861,-0.669609 -0.4826,-1.113448 -0.91415,-1.292203 -0.28164,-0.116658 -0.45981,-0.101933 -1.07839,0.08912 -0.40755,0.12588 -1.80721,0.446931 -3.11036,0.713447 -1.30315,0.266515 -2.41692,0.530223 -2.47505,0.586016 -0.14215,0.136421 0.26247,0.274198 1.32778,0.452122 l 0.87471,0.146094 0.78142,-0.591453 c 0.70388,-0.532767 1.23231,-0.746904 1.23231,-0.499378 0,0.05064 -0.38334,0.358575 -0.85187,0.684298 -1.33172,0.925819 -2.17526,2.371068 -2.34374,4.015597 -0.11801,1.151759 -0.17185,1.113295 1.55853,1.113295 1.25781,0 1.50772,-0.02922 1.5668,-0.183155 z m -10.31111,-7.50718 c 0.710555,-0.217576 1.643628,-0.485836 2.073497,-0.596133 0.429868,-0.110295 0.781579,-0.241833 0.781579,-0.292307 0,-0.209077 -0.294507,-0.243117 -0.882661,-0.102022 -0.621653,0.149133 -0.942989,0.0835 -0.619249,-0.126487 0.45203,-0.293197 3.697714,-1.157885 7.175594,-1.911666 2.7959,-0.605969 3.37807,-0.76959 3.98385,-1.11968 0.65039,-0.375868 0.90854,-0.782284 0.97035,-1.5277073 0.078,-0.291105 -0.109872,-0.8008359 -0.33744,-1.028404 -0.56583,-0.56419 -1.57596,-0.911674 -2.70623,-0.93095 -0.77787,-0.01326 -1.39949,0.100247 -3.87895,0.708328 -4.028151,0.987894 -4.285712,1.079776 -3.907249,1.3938734 0.369617,0.3067549 0.802079,0.2639309 3.056899,-0.3027034 2.98303,-0.749633 5.79315,-1.330868 5.95395,-1.231492 0.26041,0.160946 -0.12246,0.299304 -1.75543,0.634352 -5.18815,1.064492 -10.217239,2.6220103 -11.414245,3.5350123 -0.803942,0.613195 -1.033094,1.356872 -0.679133,2.204017 0.218274,0.522406 0.621343,1.089565 0.774331,1.089565 0.06524,0 0.699982,-0.178018 1.410537,-0.395596 z m 5.94789,-1.461492 c 4.05722,-0.894013 5.19989,-1.17468 5.6953,-1.398903 0.50266,-0.2275 0.51833,-0.248035 0.27583,-0.36141 -0.28161,-0.131657 -1.40652,0.08421 -5.35868,1.028303 -2.81949,0.673521 -3.01053,0.727347 -3.01053,0.848229 0,0.10548 0.25225,0.198367 0.60334,0.222174 0.10895,0.0074 0.91658,-0.144889 1.79474,-0.338393 z m -6.32038,-2.4682 c 0.342267,-0.14996 1.130329,-0.440836 1.75125,-0.64639 0.620921,-0.205554 1.128947,-0.404414 1.128947,-0.441911 0,-0.165637 -0.403688,-0.4916746 -0.608776,-0.4916746 -0.124033,0 -0.477817,0.1418263 -0.786184,0.3151686 -0.56943,0.320092 -0.847705,0.304749 -0.56876,-0.03136 0.31389,-0.3782159 1.86083,-1.0275243 3.434803,-1.4417173 0.49643,-0.130637 1.83962,-0.449884 2.98486,-0.709439 2.4786,-0.561744 2.8431,-0.696158 3.30048,-1.217086 0.62851,-0.715831 0.35721,-1.628156 -0.56646,-1.904893 -1.56141,-0.467811 -8.571985,1.503362 -10.942241,3.076648 -1.382089,0.917378 -1.496867,2.1048053 -0.321991,3.3311003 0.228802,0.238816 0.451052,0.434211 0.493887,0.434211 0.04283,0 0.357918,-0.122696 0.700185,-0.272657 z m 4.17385,-5.9634443 c 0.87072,-0.257938 2.06914,-0.55669 2.66316,-0.663893 0.59401,-0.107203 1.28622,-0.244791 1.53823,-0.305751 0.40521,-0.09802 0.43265,-0.125128 0.23732,-0.23444 -0.33222,-0.185921 -2.32029,-0.247497 -3.38117,-0.104725 -1.41875,0.190933 -2.765108,0.898571 -3.178198,1.670437 -0.112338,0.209906 -0.09375,0.225077 0.207057,0.16898 0.18176,-0.0339 1.04288,-0.27267 1.913601,-0.530608 z"
         id="path15134"
         inkscape:connector-curvature="0" />
      <path
         inkscape:connector-curvature="0"
         inkscape:r_cy="true"
         inkscape:r_cx="true"
         id="path19509-2"
         d="m 21.518729,40.139579 0,1.10288 c 0,1.10288 1.12167,2.083218 2.383548,2.083218 1.261879,0 2.383547,-0.980338 2.383547,-2.083218 l 0,-1.10288 -4.767095,0 z"
         style="fill:#555753;fill-rule:nonzero;stroke:#2e3436;stroke-width:1;stroke-miterlimit:4;stroke-opacity:1" />
      <path
         inkscape:connector-curvature="0"
         style="color:#000000;fill:#aeae57;fill-opacity:1;fill-rule:nonzero;stroke:#c4a000;stroke-width:2.00000095;stroke-linecap:round;stroke-linejoin:round;stroke-miterlimit:4;stroke-opacity:1;stroke-dashoffset:0;marker:none;visibility:visible;display:inline;overflow:visible"
         d="m 23.771205,31.165033 c -2.597422,-0.0063 -5.542979,0.763146 -3.946849,2.217737 -0.39574,0.160842 -0.961421,0.52006 -0.894736,1.360632 0.03682,0.438993 0.498644,0.708465 1.130224,0.906318 -0.71599,0.505981 -1.171578,1.040662 -1.130224,1.53377 0.03639,0.433874 0.488493,0.730996 1.107158,0.929557 -0.697948,0.500158 -1.147946,1.047424 -1.107158,1.533769 0.06234,0.743299 1.653488,1.575893 5.098901,1.480001 2.480656,-0.06813 4.669698,-0.516101 4.842461,-1.480001 0.06784,-0.37849 -0.239613,-0.731638 -0.71504,-1.045751 0.355907,-0.361424 0.605242,-0.728008 0.576645,-1.068991 -0.03656,-0.435919 -0.483347,-0.73127 -1.107158,-0.929557 0.697948,-0.500158 1.147946,-1.047423 1.107158,-1.533769 -0.03656,-0.435919 -0.483347,-0.70803 -1.107158,-0.906319 0.70627,-0.502859 1.148209,-1.044294 1.107158,-1.533769 -0.04563,-0.544084 -2.520154,-1.457691 -4.961382,-1.463627 z"
         id="path3209-1"
         sodipodi:nodetypes="cccccccscccccccs"
         inkscape:r_cx="true"
         inkscape:r_cy="true" />
      <path
         inkscape:r_cy="true"
         inkscape:r_cx="true"
         transform="matrix(0.47400153,-0.10191121,0.05055343,0.60278224,28.968191,15.754791)"
         d="m -3.5355339,27.228739 a 10.341436,3.2703688 0 1 1 -20.6828731,0 10.341436,3.2703688 0 1 1 20.6828731,0 z"
         sodipodi:ry="3.2703688"
         sodipodi:rx="10.341436"
         sodipodi:cy="27.228739"
         sodipodi:cx="-13.87697"
         id="path4702-0"
         style="color:#000000;fill:#fce94f;fill-opacity:1;fill-rule:nonzero;stroke:none;stroke-width:0.13035245;marker:none;visibility:visible;display:inline;overflow:visible"
         sodipodi:type="arc" />
      <path
         inkscape:connector-curvature="0"
         style="color:#000000;fill:#fce94f;fill-opacity:1;fill-rule:nonzero;stroke:none;stroke-width:0.08828904;marker:none;visibility:visible;display:inline;overflow:visible"
         d="m 28.810907,39.611808 c -0.172764,0.9639 -2.617794,1.507847 -6.531204,1.310412 -2.478473,-0.12504 -2.620297,-0.823703 -2.447535,-1.787603 0.172764,-0.963901 2.324215,-1.639305 4.802347,-1.5076 2.478131,0.131704 4.349154,1.020892 4.176392,1.984791 z"
         id="path3183-5"
         sodipodi:nodetypes="csccc"
         inkscape:r_cx="true"
         inkscape:r_cy="true" />
      <path
         transform="matrix(0.47400153,-0.10191121,0.05055343,0.60278224,28.968191,20.724356)"
         d="m -3.5355339,27.228739 a 10.341436,3.2703688 0 1 1 -20.6828731,0 10.341436,3.2703688 0 1 1 20.6828731,0 z"
         sodipodi:ry="3.2703688"
         sodipodi:rx="10.341436"
         sodipodi:cy="27.228739"
         sodipodi:cx="-13.87697"
         id="path1603-1"
         style="color:#000000;fill:#fce94f;fill-opacity:1;fill-rule:nonzero;stroke:none;stroke-width:0.13035245;marker:none;visibility:visible;display:inline;overflow:visible"
         sodipodi:type="arc"
         inkscape:r_cx="true"
         inkscape:r_cy="true" />
      <path
         sodipodi:type="arc"
         style="color:#000000;fill:#fce94f;fill-opacity:1;fill-rule:nonzero;stroke:none;stroke-width:0.13035245;marker:none;visibility:visible;display:inline;overflow:visible"
         id="path2364-1"
         sodipodi:cx="-13.87697"
         sodipodi:cy="27.228739"
         sodipodi:rx="10.341436"
         sodipodi:ry="3.2703688"
         d="m -3.5355339,27.228739 a 10.341436,3.2703688 0 1 1 -20.6828731,0 10.341436,3.2703688 0 1 1 20.6828731,0 z"
         transform="matrix(0.47400153,-0.10191121,0.05055343,0.60278224,28.968191,18.271749)"
         inkscape:r_cx="true"
         inkscape:r_cy="true" />
      <path
         sodipodi:type="arc"
         style="color:#000000;fill:#ffffff;fill-opacity:1;fill-rule:nonzero;stroke:none;stroke-width:2;marker:none;visibility:visible;display:inline;overflow:visible"
         id="path20372-0"
         sodipodi:cx="27.75"
         sodipodi:cy="22.375"
         sodipodi:rx="3.25"
         sodipodi:ry="3.25"
         d="m 31,22.375 a 3.25,3.25 0 1 1 -6.5,0 3.25,3.25 0 1 1 6.5,0 z"
         transform="matrix(0.2638123,0,0,0.26579245,19.25698,30.814227)"
         inkscape:r_cx="true"
         inkscape:r_cy="true" />
      <path
         transform="matrix(0.2638123,0,0,0.26579245,19.25698,33.19723)"
         d="m 31,22.375 a 3.25,3.25 0 1 1 -6.5,0 3.25,3.25 0 1 1 6.5,0 z"
         sodipodi:ry="3.25"
         sodipodi:rx="3.25"
         sodipodi:cy="22.375"
         sodipodi:cx="27.75"
         id="path2435-8"
         style="color:#000000;fill:#ffffff;fill-opacity:1;fill-rule:nonzero;stroke:none;stroke-width:2;marker:none;visibility:visible;display:inline;overflow:visible"
         sodipodi:type="arc"
         inkscape:r_cx="true"
         inkscape:r_cy="true" />
      <path
         inkscape:r_cy="true"
         inkscape:r_cx="true"
         transform="matrix(0.2638123,0,0,0.26579245,19.25698,28.097905)"
         d="m 31,22.375 a 3.25,3.25 0 1 1 -6.5,0 3.25,3.25 0 1 1 6.5,0 z"
         sodipodi:ry="3.25"
         sodipodi:rx="3.25"
         sodipodi:cy="22.375"
         sodipodi:cx="27.75"
         id="path4708-5"
         style="color:#000000;fill:#ffffff;fill-opacity:1;fill-rule:nonzero;stroke:none;stroke-width:2;marker:none;visibility:visible;display:inline;overflow:visible"
         sodipodi:type="arc" />
      <path
         sodipodi:type="arc"
         style="color:#000000;fill:#fce94f;fill-opacity:1;fill-rule:nonzero;stroke:none;stroke-width:0.13035245;marker:none;visibility:visible;display:inline;overflow:visible"
         id="path4710-0"
         sodipodi:cx="-13.87697"
         sodipodi:cy="27.228739"
         sodipodi:rx="10.341436"
         sodipodi:ry="3.2703688"
         d="m -3.5355339,27.228739 a 10.341436,3.2703688 0 1 1 -20.6828731,0 10.341436,3.2703688 0 1 1 20.6828731,0 z"
         transform="matrix(0.48462564,0.0118688,-0.09112393,0.59796722,33.227339,16.578395)"
         inkscape:r_cx="true"
         inkscape:r_cy="true" />
      <path
         sodipodi:nodetypes="ccccc"
         inkscape:connector-curvature="0"
         id="path16030"
         d="m 19.067864,22.720074 4.059185,-0.008 0.810913,1.185231 0.866157,-1.201256 4.357495,-0.008"
         style="fill:none;stroke:#555753;stroke-width:1px;stroke-linecap:round;stroke-linejoin:miter;stroke-opacity:1" />
      <path
         style="fill:#d3d7cf;fill-opacity:1;fill-rule:nonzero;stroke:#888a85;stroke-width:3;stroke-linejoin:miter;stroke-miterlimit:4;stroke-opacity:1;stroke-dasharray:none"
         d="m 19.797961,24.169182 c 3.036534,0.513226 5.657629,0.299435 8.229786,0 1.100568,-0.128121 2,-0.243424 2,0.890446 l -0.90625,1.35848 0.90625,1.163616 0,3.944865 c 0,1.13387 -0.919513,0.983086 -2,1.234196 -2.704869,0.628625 -5.441688,0.734131 -8.229786,0 -1.073049,-0.282543 -2,-0.100326 -2,-1.234196 l 0,-3.944865 1.0625,-1.194866 -1.0625,-1.32723 c 0,-1.13387 0.907495,-1.075098 2,-0.890446 z"
         id="path16026"
         inkscape:connector-curvature="0"
         sodipodi:nodetypes="sssccsssscccs" />
      <path
         sodipodi:nodetypes="sscccsssscccs"
         inkscape:connector-curvature="0"
         id="rect16023"
         d="m 19.797961,24.169182 c 2.743262,0.503078 5.486524,0.312156 8.229786,0 1.100896,-0.125271 2,-0.243424 2,0.890446 l -1.21875,1.23348 1.21875,1.272991 0,3.96049 c 0,1.13387 -0.919513,0.983086 -2,1.234196 -2.704869,0.628625 -5.441688,0.734131 -8.229786,0 -1.073049,-0.282543 -2,-0.100326 -2,-1.234196 l 0,-3.96049 0.96875,-1.272991 -0.96875,-1.23348 c 0,-1.13387 0.910174,-1.090306 2,-0.890446 z"
         style="fill:#d3d7cf;fill-opacity:1;fill-rule:nonzero;stroke:url(#linearGradient16218);stroke-width:1;stroke-linejoin:miter;stroke-miterlimit:4;stroke-opacity:1" />
      <path
         inkscape:connector-curvature="0"
         id="path15246"
         d="m 27.393174,32.240253 c 0.704521,-0.451343 0.761667,-0.749031 0.695214,-3.621537 -0.03266,-1.411815 -0.09641,-2.697199 -0.141656,-2.85641 -0.122838,-0.432205 -0.503423,-0.796869 -0.964539,-0.924188 -0.538174,-0.148598 -0.652421,-0.01771 -0.4689,0.537213 0.172319,0.521043 0.164078,5.929601 -0.01,6.536434 -0.058,0.202247 -0.07784,0.41241 -0.04409,0.467026 0.10589,0.171333 0.553996,0.104862 0.933929,-0.138538 z"
         style="fill:#ffffff;fill-opacity:1" />
      <path
         sodipodi:nodetypes="cssccsscc"
         inkscape:connector-curvature="0"
         id="path15242"
         d="m 28.192121,21.416678 c 0.323263,-0.886581 0.895612,-1.532827 1.81086,-2.044662 0.993512,-0.555605 1.333373,-1.00655 1.333373,-1.769194 0,-0.581952 -0.333644,-1.240022 -0.529675,-1.044713 -0.04755,0.04737 0.0068,0.189217 0.120864,0.31521 0.16151,0.178468 0.194839,0.358893 0.150854,0.81665 -0.06606,0.687516 -0.390567,1.0922 -1.216396,1.516939 -1.011641,0.520307 -1.999331,1.799854 -1.999331,2.590122 0.07604,0.367655 0.281969,-0.267044 0.329451,-0.380352 z"
         style="fill:#ffffff;fill-opacity:1;stroke:#ffffff;stroke-width:0.40000001;stroke-linejoin:round;stroke-miterlimit:4;stroke-opacity:1;stroke-dasharray:none" />
      <path
         inkscape:connector-curvature="0"
         id="path15240"
         d="m 28.509937,15.602974 c 1.863587,-0.47238 2.709884,-1.005681 2.879681,-1.814651 0.07992,-0.38078 -0.181316,-1.079504 -0.403606,-1.079504 -0.148126,0 -0.143872,0.02977 0.06016,0.420975 0.516534,0.990411 -0.231617,1.663262 -2.479363,2.229815 -0.704699,0.177624 -1.246942,0.35728 -1.204983,0.399238 0.106277,0.106277 0.122721,0.104045 1.148116,-0.155873 z"
         style="fill:#ffffff;fill-opacity:1;stroke:#ffffff;stroke-width:0.40000001;stroke-linejoin:round;stroke-miterlimit:4;stroke-opacity:1;stroke-dasharray:none" />
      <path
         inkscape:connector-curvature="0"
         id="path15238"
         d="m 30.054627,10.802451 c 0.571042,-0.295297 0.934358,-0.8320463 0.934358,-1.3803859 0,-0.269521 -0.07594,-0.591181 -0.16875,-0.714801 -0.153056,-0.203859 -0.162552,-0.170152 -0.102112,0.362435 0.09083,0.8003429 -0.160054,1.2708709 -0.837359,1.5704749 -0.282057,0.124767 -0.512831,0.250464 -0.512831,0.279326 0,0.109277 0.371473,0.04596 0.686694,-0.117049 z"
         style="fill:#ffffff;fill-opacity:1;stroke:#ffffff;stroke-width:0.40000001;stroke-linejoin:round;stroke-miterlimit:4;stroke-opacity:1;stroke-dasharray:none" />
      <path
         inkscape:connector-curvature="0"
         id="path15144"
         d="m 27.599035,6.5751351 c 0.417461,-0.254536 0.567878,-0.655757 0.424427,-1.132107 -0.08974,-0.297989 -0.09839,-0.287056 -0.134839,0.170391 -0.03937,0.494119 -0.424173,0.958557 -0.7942,0.958557 -0.08694,0 -0.158069,0.05211 -0.158069,0.115789 0,0.179831 0.253756,0.136702 0.662681,-0.11263 z"
         style="fill:#ffffff;fill-opacity:1;stroke:#ffffff;stroke-width:0.40000001;stroke-linejoin:round;stroke-miterlimit:4;stroke-opacity:1;stroke-dasharray:none" />
    </g>
  </g>
</svg>
