<?xml version="1.0" encoding="UTF-8" standalone="no"?>
<!-- Created with Inkscape (http://www.inkscape.org/) -->
<svg
   xmlns:dc="http://purl.org/dc/elements/1.1/"
   xmlns:cc="http://creativecommons.org/ns#"
   xmlns:rdf="http://www.w3.org/1999/02/22-rdf-syntax-ns#"
   xmlns:svg="http://www.w3.org/2000/svg"
   xmlns="http://www.w3.org/2000/svg"
   xmlns:xlink="http://www.w3.org/1999/xlink"
   xmlns:sodipodi="http://sodipodi.sourceforge.net/DTD/sodipodi-0.dtd"
   xmlns:inkscape="http://www.inkscape.org/namespaces/inkscape"
   id="svg2488"
   sodipodi:version="0.32"
   inkscape:version="0.46"
   width="48"
   height="48"
   version="1.0"
   sodipodi:docbase="/home/vinicius/tango-icon-theme-code/FlagSet/scalable"
   sodipodi:docname="Flag-dk.svg"
   inkscape:export-filename="/home/vinicius/tango-icon-theme-code/flag-dk.png"
   inkscape:export-xdpi="90"
   inkscape:export-ydpi="90"
   inkscape:output_extension="org.inkscape.output.svg.inkscape">
  <metadata
     id="metadata2493">
    <rdf:RDF>
      <cc:Work
         rdf:about="">
        <dc:format>image/svg+xml</dc:format>
        <dc:type
           rdf:resource="http://purl.org/dc/dcmitype/StillImage" />
        <dc:title>Denmark Flag</dc:title>
        <dc:creator>
          <cc:Agent>
            <dc:title>Vinicius Depizzol</dc:title>
          </cc:Agent>
        </dc:creator>
        <dc:source>vdepizzol@gmail.com</dc:source>
        <dc:subject>
          <rdf:Bag>
            <rdf:li>Denmark flag dk</rdf:li>
          </rdf:Bag>
        </dc:subject>
        <cc:license
           rdf:resource="http://creativecommons.org/licenses/by-sa/2.0/" />
      </cc:Work>
      <cc:License
         rdf:about="http://creativecommons.org/licenses/by-sa/2.0/">
        <cc:permits
           rdf:resource="http://web.resource.org/cc/Reproduction" />
        <cc:permits
           rdf:resource="http://web.resource.org/cc/Distribution" />
        <cc:requires
           rdf:resource="http://web.resource.org/cc/Notice" />
        <cc:requires
           rdf:resource="http://web.resource.org/cc/Attribution" />
        <cc:permits
           rdf:resource="http://web.resource.org/cc/DerivativeWorks" />
        <cc:requires
           rdf:resource="http://web.resource.org/cc/ShareAlike" />
      </cc:License>
    </rdf:RDF>
  </metadata>
  <defs
     id="defs2491">
    <inkscape:perspective
       sodipodi:type="inkscape:persp3d"
       inkscape:vp_x="0 : 24 : 1"
       inkscape:vp_y="0 : 1000 : 0"
       inkscape:vp_z="48 : 24 : 1"
       inkscape:persp3d-origin="24 : 16 : 1"
       id="perspective49" />
    <linearGradient
       id="linearGradient5101">
      <stop
         style="stop-color:#ffffff;stop-opacity:1;"
         offset="0"
         id="stop5103" />
      <stop
         style="stop-color:#ffffff;stop-opacity:0.82203388;"
         offset="1"
         id="stop5105" />
    </linearGradient>
    <linearGradient
       inkscape:collect="always"
       id="linearGradient5060">
      <stop
         style="stop-color:black;stop-opacity:1;"
         offset="0"
         id="stop5062" />
      <stop
         style="stop-color:black;stop-opacity:0;"
         offset="1"
         id="stop5064" />
    </linearGradient>
    <linearGradient
       id="linearGradient5048">
      <stop
         style="stop-color:black;stop-opacity:0;"
         offset="0"
         id="stop5050" />
      <stop
         id="stop5056"
         offset="0.5"
         style="stop-color:black;stop-opacity:1;" />
      <stop
         style="stop-color:black;stop-opacity:0;"
         offset="1"
         id="stop5052" />
    </linearGradient>
    <linearGradient
       id="linearGradient16494">
      <stop
         style="stop-color:#204a87;stop-opacity:1;"
         offset="0"
         id="stop16496" />
      <stop
         id="stop16502"
         offset="0.21212122"
         style="stop-color:#3f7bd2;stop-opacity:1;" />
      <stop
         style="stop-color:#204a87;stop-opacity:1;"
         offset="1"
         id="stop16498" />
    </linearGradient>
    <linearGradient
       id="linearGradient16522">
      <stop
         style="stop-color:#edda00;stop-opacity:1;"
         offset="0"
         id="stop16524" />
      <stop
         id="stop16530"
         offset="0.27272728"
         style="stop-color:#fff491;stop-opacity:1;" />
      <stop
         style="stop-color:#ebd200;stop-opacity:1;"
         offset="1"
         id="stop16526" />
    </linearGradient>
    <linearGradient
       id="linearGradient3289">
      <stop
         style="stop-color:#ffffff;stop-opacity:1;"
         offset="0"
         id="stop3291" />
      <stop
         style="stop-color:#ffffff;stop-opacity:0.53389829;"
         offset="1"
         id="stop3293" />
    </linearGradient>
    <linearGradient
       id="linearGradient7336">
      <stop
         id="stop7338"
         offset="0"
         style="stop-color:#cc0000;stop-opacity:1;" />
      <stop
         style="stop-color:#ed3939;stop-opacity:1;"
         offset="0.17355372"
         id="stop7340" />
      <stop
         id="stop3298"
         offset="0.63636363"
         style="stop-color:#b02121;stop-opacity:1;" />
      <stop
         id="stop7342"
         offset="1"
         style="stop-color:#d91b1b;stop-opacity:1;" />
    </linearGradient>
    <linearGradient
       inkscape:collect="always"
       xlink:href="#linearGradient5048"
       id="linearGradient3523"
       gradientUnits="userSpaceOnUse"
       gradientTransform="matrix(3.781761,0,0,1.969706,-2104.846,-856.0366)"
       x1="302.85715"
       y1="366.64789"
       x2="302.85715"
       y2="609.50507" />
    <radialGradient
       inkscape:collect="always"
       xlink:href="#linearGradient5060"
       id="radialGradient3525"
       gradientUnits="userSpaceOnUse"
       gradientTransform="matrix(2.03716,0,0,1.969706,-1052.701,-856.2756)"
       cx="605.71429"
       cy="486.64789"
       fx="605.71429"
       fy="486.64789"
       r="117.14286" />
    <radialGradient
       inkscape:collect="always"
       xlink:href="#linearGradient5060"
       id="radialGradient3527"
       gradientUnits="userSpaceOnUse"
       gradientTransform="matrix(-2.03716,-1.450628e-15,-2.23555e-15,2.018058,-423.3185,-879.5624)"
       cx="605.71429"
       cy="486.64789"
       fx="605.71429"
       fy="486.64789"
       r="117.14286" />
    <linearGradient
       inkscape:collect="always"
       xlink:href="#linearGradient16494"
       id="linearGradient3543"
       gradientUnits="userSpaceOnUse"
       x1="82.585045"
       y1="28.112621"
       x2="92.954216"
       y2="28.112621" />
    <linearGradient
       inkscape:collect="always"
       xlink:href="#linearGradient16522"
       id="linearGradient3549"
       gradientUnits="userSpaceOnUse"
       x1="69.857536"
       y1="-19.37989"
       x2="86.576172"
       y2="-36.549217"
       gradientTransform="matrix(1.069802,0.713202,-1.069802,0.713202,-89.1816,-13.57388)" />
    <linearGradient
       inkscape:collect="always"
       xlink:href="#linearGradient3289"
       id="linearGradient3552"
       gradientUnits="userSpaceOnUse"
       gradientTransform="matrix(1.285742,0,0,1.285742,-13.28717,-14.93762)"
       x1="36.880539"
       y1="20.811714"
       x2="23.073864"
       y2="43.531128" />
    <linearGradient
       inkscape:collect="always"
       xlink:href="#linearGradient7336"
       id="linearGradient3555"
       gradientUnits="userSpaceOnUse"
       gradientTransform="matrix(1.285742,0,0,1.285742,-13.28717,-14.93762)"
       x1="11.002116"
       y1="29.756582"
       x2="46.998974"
       y2="29.756582" />
    <clipPath
       id="clipPath2256"
       clipPathUnits="userSpaceOnUse">
      <g
         id="g2258"
         transform="matrix(7.9516351,0,0,-7.9516351,54.651954,253.25681)">
        <path
           id="path2260"
           style="fill:#ffffff;stroke:#000000;stroke-width:0.01"
           d="M -3.38611,31.7261 L -3.39639,31.72194 L -3.42,31.70776 L -3.45222,31.69499 L -3.45667,31.69194 L -3.48139,31.67943 L -3.51167,31.67332 L -3.51861,31.67276 L -3.52639,31.6736 L -3.53972,31.67722 L -3.54778,31.67804 L -3.56916,31.6825 L -3.58778,31.68889 L -3.59583,31.68971 L -3.60194,31.69194 L -3.60917,31.69333 L -3.61639,31.6936 L -3.63055,31.69638 L -3.64639,31.70444 L -3.65083,31.70776 L -3.65694,31.70999 L -3.66305,31.71193 L -3.68528,31.71582 L -3.71472,31.71638 L -3.72111,31.71582 L -3.74555,31.71083 L -3.76267,31.70964 L -3.78528,31.70694 L -3.7975,31.70416 L -3.8025,31.70193 L -3.80861,31.70055 L -3.81833,31.69554 L -3.82583,31.68805 L -3.83083,31.67749 L -3.835,31.65027 L -3.83611,31.60027 L -3.83833,31.58665 L -3.83889,31.56166 L -3.84111,31.54193 L -3.84028,31.5361 L -3.84111,31.51138 L -3.84194,31.50444 L -3.84389,31.49832 L -3.84333,31.48665 L -3.84083,31.47581 L -3.83555,31.46693 L -3.83194,31.46304 L -3.83055,31.45804 L -3.82778,31.4536 L -3.8175,31.44194 L -3.81305,31.43889 L -3.80778,31.4361 L -3.80139,31.43416 L -3.79444,31.4325 L -3.77861,31.43082 L -3.76444,31.42776 L -3.75833,31.42554 L -3.7425,31.41777 L -3.73805,31.41444 L -3.72667,31.40332 L -3.725,31.39833 L -3.72472,31.39471 L -3.72861,31.3911 L -3.73306,31.38805 L -3.74417,31.38443 L -3.76222,31.37277 L -3.76611,31.36888 L -3.78416,31.35721 L -3.78805,31.35333 L -3.79722,31.34749 L -3.80111,31.3436 L -3.80389,31.33916 L -3.80416,31.33304 L -3.80194,31.3161 L -3.80194,31.30971 L -3.80305,31.30304 L -3.80333,31.28444 L -3.79778,31.25722 L -3.79639,31.24609 L -3.79472,31.2411 L -3.795,31.23471 L -3.79611,31.22165 L -3.79861,31.21638 L -3.80166,31.21193 L -3.81333,31.20082 L -3.81611,31.19611 L -3.82333,31.18805 L -3.82555,31.18277 L -3.82694,31.16971 L -3.82611,31.16388 L -3.82361,31.15944 L -3.82,31.15555 L -3.81555,31.15248 L -3.81889,31.15332 L -3.80833,31.14804 L -3.79472,31.14722 L -3.78889,31.14861 L -3.77444,31.15666 L -3.77083,31.16054 L -3.75694,31.16943 L -3.74555,31.18054 L -3.73667,31.18666 L -3.73139,31.18889 L -3.72416,31.1886 L -3.71528,31.18193 L -3.70778,31.16859 L -3.70611,31.1636 L -3.69778,31.15027 L -3.67444,31.12888 L -3.67,31.12555 L -3.66444,31.12277 L -3.65583,31.11638 L -3.61278,31.1011 L -3.60222,31.09555 L -3.59805,31.08611 L -3.59916,31.07916 L -3.59778,31.06804 L -3.59778,31.06166 L -3.59722,31.05611 L -3.59389,31.0461 L -3.59222,31.03471 L -3.5925,31.02859 L -3.59444,31.01498 L -3.59972,31.00444 L -3.60222,30.99138 L -3.61778,30.97665 L -3.62666,30.97055 L -3.64667,30.96111 L -3.67028,30.95555 L -3.69639,30.94444 L -3.70222,30.94304 L -3.70722,30.94083 L -3.71889,30.93805 L -3.74305,30.94083 L -3.7575,30.9411 L -3.78528,30.93999 L -3.80028,30.9411 L -3.84055,30.93805 L -3.85306,30.93582 L -3.88,30.93416 L -3.89222,30.93193 L -3.92528,30.9286 L -3.94278,30.92444 L -3.9875,30.91832 L -3.99278,30.91611 L -3.99917,30.91554 L -4.01694,30.9111 L -4.02722,30.90666 L -4.03944,30.89638 L -4.04333,30.89249 L -4.04555,30.88721 L -4.05167,30.87833 L -4.05555,30.87444 L -4.07361,30.86278 L -4.13139,30.80666 L -4.13416,30.80222 L -4.14944,30.78693 L -4.16083,30.77582 L -4.16555,30.77277 L -4.16917,30.76915 L -4.18333,30.76082 L -4.18861,30.75888 L -4.20639,30.74693 L -4.21166,30.74471 L -4.21611,30.74165 L -4.23167,30.73499 L -4.26111,30.72777 L -4.28611,30.71609 L -4.295,30.70999 L -4.32666,30.69749 L -4.3325,30.69611 L -4.34222,30.69083 L -4.36,30.67915 L -4.37889,30.66026 L -4.39694,30.64833 L -4.40222,30.6461 L -4.41389,30.64333 L -4.41889,30.6411 L -4.42472,30.63971 L -4.43,30.63721 L -4.46778,30.63165 L -4.495,30.62971 L -4.53111,30.63026 L -4.54417,30.62888 L -4.55861,30.62915 L -4.57805,30.62694 L -4.58555,30.62721 L -4.59194,30.62639 L -4.59722,30.62416 L -4.60083,30.62054 L -4.61,30.61444 L -4.61389,30.61082 L -4.62389,30.60748 L -4.63916,30.60081 L -4.65611,30.59583 L -4.67667,30.58693 L -4.6825,30.58554 L -4.69861,30.57944 L -4.71055,30.57666 L -4.71555,30.57443 L -4.75666,30.56415 L -4.76167,30.56194 L -4.77861,30.55693 L -4.80944,30.54332 L -4.81528,30.54193 L -4.825,30.53665 L -4.85056,30.52554 L -4.88028,30.51915 L -4.89139,30.51526 L -4.90972,30.51166 L -4.91472,30.50943 L -4.92055,30.50804 L -4.93417,30.49887 L -4.94222,30.49222 L -4.94527,30.48778 L -4.9525,30.48027 L -4.96472,30.46971 L -4.96778,30.46498 L -4.97472,30.45694 L -4.97694,30.45137 L -4.98,30.44693 L -4.98778,30.43193 L -4.99083,30.42722 L -4.99444,30.4236 L -5.0075,30.39861 L -5.01083,30.39388 L -5.0225,30.36749 L -5.02639,30.3636 L -5.02916,30.35916 L -5.04805,30.31665 L -5.05722,30.30304 L -5.05944,30.29776 L -5.06944,30.28499 L -5.07639,30.26915 L -5.08555,30.25554 L -5.11555,30.22527 L -5.12527,30.21249 L -5.1275,30.20721 L -5.13361,30.19804 L -5.14472,30.18666 L -5.14916,30.18388 L -5.15213,30.18047 L -5.16805,30.16499 L -5.17083,30.16026 L -5.22305,30.10748 L -5.2275,30.10443 L -5.24694,30.08638 L -5.25361,30.07805 L -5.27583,30.05527 L -5.29805,30.04027 L -5.31361,30.02582 L -5.33139,30.01387 L -5.34305,30.00333 L -5.35194,29.99721 L -5.37694,29.98471 L -5.39083,29.97638 L -5.40666,29.97028 L -5.41249,29.96887 L -5.42805,29.9622 L -5.44444,29.95694 L -5.44889,29.95389 L -5.45417,29.95166 L -5.47611,29.94415 L -5.48055,29.9411 L -5.49139,29.92972 L -5.49583,29.92665 L -5.50528,29.92137 L -5.52305,29.90944 L -5.53833,29.90248 L -5.54417,29.90109 L -5.56,29.89499 L -5.57444,29.89499 L -5.58349,29.8959 L -5.59361,29.89693 L -5.60083,29.89638 L -5.61222,29.89333 L -5.6275,29.89415 L -5.63416,29.8936 L -5.65833,29.88887 L -5.69444,29.88916 L -5.73333,29.8847 L -5.75722,29.87944 L -5.79055,29.87639 L -5.81361,29.87054 L -5.83222,29.86749 L -5.85972,29.8611 L -5.86583,29.86026 L -5.87389,29.8611 L -5.89832,29.85666 L -5.89833,29.85666 L -5.91027,29.85361 L -5.93555,29.84221 L -5.94694,29.83916 L -5.97166,29.83472 L -5.98305,29.83165 L -6.00278,29.82944 L -6.03278,29.8311 L -6.04528,29.83499 L -6.06083,29.84277 L -6.06694,29.84471 L -6.08111,29.84749 L -6.08889,29.84833 L -6.09555,29.84749 L -6.11111,29.84888 L -6.13277,29.84888 L -6.14583,29.84749 L -6.15722,29.84444 L -6.16666,29.83832 L -6.18444,29.8186 L -6.19111,29.80971 L -6.2,29.8036 L -6.205,29.8011 L -6.21722,29.79887 L -6.23167,29.79887 L -6.27028,29.80249 L -6.28917,29.80721 L -6.29944,29.81221 L -6.31166,29.81638 L -6.31805,29.81694 L -6.33611,29.81305 L -6.34972,29.81221 L -6.36833,29.80916 L -6.38583,29.80472 L -6.40028,29.80443 L -6.41333,29.80777 L -6.42389,29.81305 L -6.4475,29.82138 L -6.46166,29.83026 L -6.46778,29.83249 L -6.47416,29.83304 L -6.48361,29.82748 L -6.48666,29.82304 L -6.48889,29.81776 L -6.49028,29.81166 L -6.48944,29.79971 L -6.49083,29.78 L -6.4875,29.76999 L -6.48305,29.76054 L -6.48111,29.74304 L -6.48222,29.7361 L -6.48694,29.72554 L -6.49916,29.70804 L -6.5,29.69472 L -6.49667,29.67249 L -6.49805,29.66638 L -6.50389,29.65721 L -6.50611,29.65166 L -6.50861,29.63887 L -6.51389,29.62888 L -6.52111,29.62138 L -6.52416,29.61665 L -6.53139,29.60916 L -6.53583,29.60609 L -6.55416,29.58693 L -6.57528,29.57111 L -6.58,29.5686 L -6.58583,29.56721 L -6.5925,29.56638 L -6.63555,29.5661 L -6.66249,29.5722 L -6.69333,29.57443 L -6.70055,29.57582 L -6.72305,29.58472 L -6.72833,29.5872 L -6.73278,29.59055 L -6.745,29.59444 L -6.76611,29.59833 L -6.77833,29.6022 L -6.79222,29.605 L -6.80666,29.605 L -6.84083,29.61221 L -6.86389,29.6136 L -6.88444,29.61278 L -6.89027,29.6111 L -6.90889,29.60805 L -6.93111,29.6086 L -6.93722,29.61055 L -6.94527,29.61137 L -6.9575,29.60887 L -6.97166,29.61026 L -7.01278,29.61888 L -7.03139,29.62471 L -7.04166,29.62971 L -7.04778,29.63165 L -7.09777,29.64026 L -7.11222,29.64026 L -7.12389,29.63693 L -7.12861,29.6347 L -7.14999,29.61993 L -7.15916,29.61304 L -7.195,29.59776 L -7.21666,29.58221 L -7.23111,29.57471 L -7.24722,29.56082 L -7.25222,29.55832 L -7.26389,29.55527 L -7.27472,29.55138 L -7.29389,29.54138 L -7.29833,29.53831 L -7.31305,29.52304 L -7.31583,29.51833 L -7.31944,29.51443 L -7.32166,29.50916 L -7.33611,29.48637 L -7.35056,29.47083 L -7.35639,29.46165 L -7.36972,29.45248 L -7.37305,29.44859 L -7.38611,29.43944 L -7.39111,29.43721 L -7.405,29.42804 L -7.41944,29.41249 L -7.42611,29.40416 L -7.43389,29.39722 L -7.43889,29.39499 L -7.46194,29.3886 L -7.48778,29.38527 L -7.51833,29.38721 L -7.5325,29.38971 L -7.53944,29.38971 L -7.56055,29.3936 L -7.58972,29.39554 L -7.60333,29.39471 L -7.6225,29.39194 L -7.64,29.38721 L -7.64472,29.38499 L -7.65722,29.37498 L -7.66444,29.36722 L -7.66861,29.36415 L -7.69027,29.34109 L -7.69889,29.32721 L -7.70861,29.31444 L -7.71861,29.30971 L -7.72416,29.30804 L -7.74277,29.30472 L -7.75417,29.30165 L -7.75861,29.2986 L -7.76639,29.29166 L -7.77722,29.28 L -7.78,29.27554 L -7.78444,29.27249 L -7.78722,29.26776 L -7.79805,29.2561 L -7.80333,29.25388 L -7.8125,29.24832 L -7.81805,29.24693 L -7.82333,29.24443 L -7.85778,29.21971 L -7.87278,29.21277 L -7.88416,29.20943 L -7.89417,29.20471 L -7.90278,29.19859 L -7.91194,29.18832 L -7.92194,29.18359 L -7.93111,29.17804 L -7.94416,29.16888 L -7.9475,29.16499 L -7.9525,29.16277 L -7.96972,29.15027 L -7.97639,29.14166 L -7.97916,29.13721 L -7.98111,29.13194 L -7.98694,29.12277 L -7.99555,29.11638 L -8.00083,29.11415 L -8.01361,29.10471 L -8.03083,29.09999 L -8.04082,29.09528 L -8.04639,29.0936 L -8.05944,29.08443 L -8.07083,29.0811 L -8.075,29.07805 L -8.08,29.07582 L -8.08416,29.07249 L -8.08944,29.07027 L -8.10083,29.06694 L -8.12,29.06444 L -8.13721,29.05971 L -8.14722,29.05499 L -8.15277,29.05333 L -8.16777,29.0461 L -8.17694,29.04083 L -8.18583,29.03444 L -8.2,29.02666 L -8.21277,29.01749 L -8.21999,29.0097 L -8.22416,29.00804 L -8.24555,28.99249 L -8.25555,28.98778 L -8.26472,28.98221 L -8.27194,28.97443 L -8.28472,28.95749 L -8.28833,28.95389 L -8.30111,28.94444 L -8.31555,28.93582 L -8.3475,28.92387 L -8.35749,28.91916 L -8.36194,28.91611 L -8.36972,28.90915 L -8.38027,28.89749 L -8.39305,28.88054 L -8.40028,28.86526 L -8.40889,28.85138 L -8.41222,28.84749 L -8.4225,28.84277 L -8.44444,28.83554 L -8.45944,28.8286 L -8.46805,28.8222 L -8.47083,28.81776 L -8.48138,28.80611 L -8.48555,28.80304 L -8.48861,28.79832 L -8.49555,28.79054 L -8.52111,28.77943 L -8.55555,28.76971 L -8.57027,28.76277 L -8.57583,28.76109 L -8.58111,28.75861 L -8.58944,28.75249 L -8.60944,28.74304 L -8.62833,28.73277 L -8.63694,28.72638 L -8.64222,28.72415 L -8.65472,28.71471 L -8.66722,28.70943 L -8.6672,28.69943 L -8.66666,28.46609 L -8.66722,28.3997 L -8.66638,28.36665 L -8.66722,28.26639 L -8.66638,28.03278 L -8.66722,27.93332 L -8.66666,27.66666 L -9.3,27.66611 L -9.33361,27.66666 L -9.66722,27.66666 L -9.7,27.66611 L -9.83333,27.66666 L -9.86666,27.66611 L -9.93361,27.66666 L -10,27.66638 L -10.00031,27.6644 L -10.06724,27.66423 L -10.12051,27.66476 L -10.29974,27.66656 L -12.84109,27.66644 L -12.87235,27.66666 L -13.0675,27.66611 L -13.16694,27.66638 L -13.17496,27.66695 L -13.17278,27.67444 L -13.1675,27.68388 L -13.16638,27.68999 L -13.15889,27.6972 L -13.14388,27.70416 L -13.11583,27.71304 L -13.10777,27.71971 L -13.10139,27.72777 L -13.09639,27.73027 L -13.08361,27.73221 L -13.06777,27.7386 L -13.05083,27.75082 L -13.0461,27.75333 L -13.03361,27.76305 L -13.02361,27.77499 L -13.02111,27.77971 L -13.01722,27.79749 L -13.00777,27.81027 L -13.00249,27.81972 L -12.99555,27.84193 L -12.98528,27.86082 L -12.97722,27.88943 L -12.96805,27.90221 L -12.96583,27.91444 L -12.96111,27.92444 L -12.95805,27.9286 L -12.9525,27.93027 L -12.9325,27.93277 L -12.92777,27.93527 L -12.90749,27.95166 L -12.9025,27.95416 L -12.86388,27.95999 L -12.85278,27.96359 L -12.84639,27.96471 L -12.82417,27.97194 L -12.80861,27.9711 L -12.80138,27.97165 L -12.76444,27.97888 L -12.73778,27.98166 L -12.71278,27.98582 L -12.70472,27.98555 L -12.66249,27.98749 L -12.64055,27.98665 L -12.61472,27.99026 L -12.56472,27.99193 L -12.52333,28.00221 L -12.4975,28.00583 L -12.49055,28.0061 L -12.47778,28.00832 L -12.46666,28.01193 L -12.45416,28.01387 L -12.43083,28.02026 L -12.39944,28.02582 L -12.39444,28.02832 L -12.38805,28.02916 L -12.3825,28.0311 L -12.35749,28.03526 L -12.35194,28.03693 L -12.31944,28.04166 L -12.27861,28.04498 L -12.26055,28.04887 L -12.23249,28.05777 L -12.21972,28.05998 L -12.20583,28.06055 L -12.18666,28.06389 L -12.1636,28.07027 L -12.13,28.07332 L -12.11031,28.07693 L -12.08083,28.08304 L -12.07305,28.08276 L -12.06583,28.08304 L -12.06027,28.08472 L -12.05194,28.09109 L -12.04861,28.09528 L -12.03222,28.10805 L -12.02888,28.11194 L -12.02055,28.11861 L -12.01555,28.12109 L -12.00444,28.12444 L -11.99472,28.12971 L -11.99083,28.13277 L -11.97388,28.13887 L -11.9675,28.13971 L -11.94194,28.14804 L -11.92722,28.15555 L -11.92166,28.15749 L -11.89861,28.1636 L -11.8875,28.16721 L -11.86639,28.17583 L -11.85527,28.17943 L -11.84888,28.18027 L -11.84333,28.18221 L -11.82777,28.18889 L -11.81667,28.19249 L -11.79749,28.20248 L -11.77972,28.20694 L -11.75527,28.21944 L -11.73277,28.22638 L -11.72666,28.22749 L -11.69722,28.24249 L -11.69194,28.24416 L -11.67916,28.24609 L -11.66222,28.25139 L -11.65749,28.25388 L -11.64611,28.25749 L -11.64139,28.25999 L -11.61333,28.2686 L -11.59861,28.27609 L -11.58749,28.27971 L -11.56916,28.28333 L -11.55861,28.28777 L -11.54666,28.29054 L -11.53139,28.29721 L -11.51444,28.30249 L -11.50944,28.30499 L -11.50111,28.31137 L -11.4986,28.3161 L -11.49027,28.32249 L -11.48528,28.32498 L -11.46278,28.33194 L -11.45805,28.33443 L -11.44971,28.34082 L -11.43861,28.35194 L -11.43417,28.36194 L -11.42638,28.38361 L -11.41666,28.39471 L -11.405,28.40527 L -11.39139,28.42082 L -11.38861,28.42554 L -11.3875,28.43166 L -11.38277,28.44194 L -11.37583,28.44971 L -11.35777,28.46111 L -11.34999,28.46832 L -11.34138,28.48138 L -11.33778,28.48526 L -11.33111,28.50082 L -11.32417,28.50888 L -11.30333,28.5247 L -11.29861,28.52721 L -11.28611,28.53693 L -11.28139,28.53944 L -11.27277,28.54582 L -11.26111,28.55693 L -11.24722,28.57249 L -11.23528,28.58304 L -11.22861,28.59082 L -11.22444,28.59387 L -11.21222,28.6111 L -11.20805,28.61444 L -11.18833,28.62444 L -11.17916,28.62999 L -11.16249,28.64276 L -11.15472,28.65054 L -11.15277,28.6561 L -11.1475,28.66527 L -11.14027,28.67332 L -11.12639,28.68193 L -11.12308,28.68361 L -11.10667,28.69194 L -11.10139,28.7011 L -11.09944,28.70665 L -11.09389,28.71582 L -11.09166,28.72137 L -11.08639,28.72943 L -11.08444,28.73471 L -11.08111,28.7386 L -11.07139,28.74361 L -11.05944,28.75388 L -11.04944,28.75888 L -11.03833,28.76221 L -11.02555,28.76443 L -11.00305,28.7711 L -10.98333,28.7811 L -10.97472,28.78749 L -10.97139,28.79138 L -10.96305,28.79776 L -10.95555,28.80499 L -10.94639,28.81055 L -10.94055,28.81221 L -10.92528,28.81888 L -10.90889,28.82471 L -10.89916,28.82971 L -10.89361,28.83138 L -10.88361,28.83638 L -10.87944,28.83971 L -10.85999,28.84943 L -10.83722,28.85638 L -10.82471,28.86583 L -10.81944,28.86832 L -10.80277,28.8736 L -10.78361,28.8847 L -10.75388,28.89194 L -10.74416,28.89665 L -10.73555,28.90332 L -10.73222,28.90721 L -10.72028,28.9175 L -10.70777,28.92694 L -10.7025,28.92943 L -10.69694,28.93111 L -10.69222,28.93359 L -10.68083,28.93694 L -10.65111,28.94415 L -10.64444,28.94499 L -10.63472,28.94998 L -10.63055,28.95332 L -10.62055,28.95804 L -10.61639,28.96138 L -10.60667,28.96609 L -10.58138,28.98526 L -10.56166,28.995 L -10.5575,28.99832 L -10.55055,29.0061 L -10.54194,29.01248 L -10.5386,29.01639 L -10.52583,29.02582 L -10.52111,29.02832 L -10.505,29.04193 L -10.50139,29.04582 L -10.49694,29.04887 L -10.48249,29.06389 L -10.46222,29.08055 L -10.45083,29.09138 L -10.44167,29.09721 L -10.43833,29.1011 L -10.43222,29.11722 L -10.42944,29.12193 L -10.42583,29.12582 L -10.42305,29.13054 L -10.40916,29.1461 L -10.40083,29.15999 L -10.39767,29.16425 L -10.39444,29.16859 L -10.38055,29.18416 L -10.37277,29.19138 L -10.36749,29.20055 L -10.35777,29.21304 L -10.34944,29.2272 L -10.34583,29.23109 L -10.32555,29.24777 L -10.31694,29.25388 L -10.31139,29.26054 L -10.3025,29.2661 L -10.2875,29.27361 L -10.28166,29.27527 L -10.26194,29.28499 L -10.25333,29.29138 L -10.24667,29.29915 L -10.24249,29.30222 L -10.23167,29.31389 L -10.22749,29.31721 L -10.22472,29.32193 L -10.21139,29.33832 L -10.20611,29.34749 L -10.2025,29.35138 L -10.19666,29.36082 L -10.18583,29.38693 L -10.18527,29.39388 L -10.18305,29.39915 L -10.17416,29.40471 L -10.16833,29.40637 L -10.15833,29.41138 L -10.14139,29.42415 L -10.13805,29.42804 L -10.12944,29.44194 L -10.12333,29.45804 L -10.12055,29.46277 L -10.11694,29.46666 L -10.11166,29.47581 L -10.11083,29.48277 L -10.10889,29.48804 L -10.08778,29.51166 L -10.08361,29.51471 L -10.08055,29.51944 L -10.07444,29.54305 L -10.07278,29.56389 L -10.06361,29.58443 L -10.06027,29.58832 L -10.04527,29.59583 L -10.04111,29.59888 L -10.0375,29.60277 L -10.03611,29.60887 L -10.03278,29.61278 L -10.01972,29.62222 L -10.01444,29.63165 L -10,29.64763 L -9.99472,29.65666 L -9.98694,29.6636 L -9.97472,29.68138 L -9.96777,29.68915 L -9.95861,29.70248 L -9.955,29.70638 L -9.9525,29.71111 L -9.93472,29.73055 L -9.91777,29.74332 L -9.89916,29.75444 L -9.88611,29.76387 L -9.88277,29.76776 L -9.87722,29.77693 L -9.86749,29.78944 L -9.84972,29.80888 L -9.84555,29.81221 L -9.83833,29.81999 L -9.82194,29.83333 L -9.80778,29.84888 L -9.80499,29.85361 L -9.79444,29.86526 L -9.79138,29.87 L -9.78944,29.87527 L -9.78916,29.88083 L -9.7875,29.88693 L -9.78139,29.89554 L -9.77694,29.89861 L -9.76972,29.90637 L -9.76972,29.90639 L -9.75583,29.93721 L -9.75027,29.94638 L -9.73972,29.95804 L -9.73694,29.96277 L -9.73055,29.97888 L -9.71638,30.00221 L -9.71222,30.01305 L -9.70667,30.02222 L -9.70111,30.02859 L -9.69917,30.03278 L -9.69666,30.04498 L -9.6925,30.05582 L -9.6825,30.06804 L -9.67805,30.07138 L -9.66666,30.08971 L -9.66027,30.10609 L -9.65778,30.11832 L -9.65361,30.12888 L -9.65028,30.14055 L -9.64166,30.16193 L -9.64027,30.16805 L -9.63833,30.18111 L -9.63833,30.18721 L -9.63861,30.1936 L -9.64083,30.20471 L -9.64139,30.21721 L -9.63805,30.22888 L -9.63499,30.23332 L -9.63389,30.24721 L -9.62805,30.27165 L -9.62778,30.27832 L -9.62611,30.28444 L -9.62416,30.29749 L -9.62389,30.31055 L -9.62111,30.33055 L -9.61694,30.34888 L -9.6086,30.37027 L -9.60777,30.37721 L -9.60806,30.38332 L -9.60694,30.39722 L -9.60777,30.40277 L -9.61194,30.41277 L -9.61472,30.41499 L -9.64166,30.42722 L -9.65527,30.43637 L -9.66306,30.45499 L -9.66611,30.45915 L -9.66805,30.46416 L -9.66917,30.4761 L -9.67027,30.48027 L -9.67777,30.48778 L -9.67972,30.49277 L -9.69167,30.50943 L -9.70167,30.53915 L -9.70833,30.54721 L -9.71361,30.54971 L -9.73499,30.55304 L -9.74027,30.55554 L -9.74389,30.55916 L -9.74944,30.56804 L -9.7561,30.5761 L -9.75806,30.5811 L -9.77277,30.59583 L -9.78999,30.6086 L -9.79361,30.61249 L -9.80138,30.61304 L -9.81416,30.61665 L -9.8186,30.61971 L -9.82583,30.62694 L -9.83305,30.62833 L -9.84027,30.62804 L -9.84583,30.62639 L -9.85333,30.6261 L -9.85916,30.62444 L -9.86639,30.62416 L -9.87416,30.62471 L -9.88611,30.62776 L -9.88805,30.63277 L -9.88889,30.65749 L -9.88777,30.67137 L -9.88611,30.67749 L -9.87805,30.69138 L -9.87639,30.69749 L -9.87167,30.70749 L -9.85388,30.72694 L -9.84666,30.74249 L -9.84305,30.74638 L -9.83749,30.75554 L -9.83666,30.76248 L -9.83472,30.76776 L -9.82694,30.7747 L -9.82389,30.77943 L -9.81916,30.79721 L -9.81361,30.81389 L -9.81222,30.82027 L -9.8125,30.82637 L -9.81444,30.82999 L -9.81805,30.8336 L -9.82444,30.83554 L -9.8275,30.83832 L -9.82833,30.84387 L -9.82667,30.85555 L -9.81805,30.86943 L -9.81667,30.87555 L -9.81726,30.88235 L -9.81638,30.88887 L -9.81667,30.89499 L -9.82111,30.9175 L -9.82139,30.92972 L -9.82361,30.9411 L -9.82555,30.94611 L -9.82555,30.95221 L -9.82694,30.95776 L -9.82805,30.96971 L -9.82611,30.98248 L -9.81916,30.99805 L -9.8175,31.00415 L -9.825,31.03082 L -9.82527,31.03722 L -9.82361,31.04332 L -9.82333,31.04999 L -9.82417,31.07498 L -9.82555,31.08415 L -9.8275,31.08916 L -9.83333,31.09776 L -9.84055,31.105 L -9.84361,31.10944 L -9.84444,31.11499 L -9.84333,31.12109 L -9.84111,31.12665 L -9.84305,31.13165 L -9.84222,31.13832 L -9.83611,31.15443 L -9.83416,31.17499 L -9.82777,31.1911 L -9.82639,31.1972 L -9.82777,31.20915 L -9.82361,31.22749 L -9.82305,31.23444 L -9.82166,31.24054 L -9.81667,31.25055 L -9.8125,31.26138 L -9.81166,31.26805 L -9.8075,31.27888 L -9.80611,31.28499 L -9.80222,31.3186 L -9.8025,31.32471 L -9.8036,31.33055 L -9.80416,31.34277 L -9.8111,31.36333 L -9.81777,31.37776 L -9.82083,31.38194 L -9.82527,31.38499 L -9.83888,31.38666 L -9.84361,31.38971 L -9.84499,31.40027 L -9.84194,31.40471 L -9.83472,31.41249 L -9.83194,31.41721 L -9.82777,31.42804 L -9.82056,31.43582 L -9.81611,31.43889 L -9.80917,31.44666 L -9.8025,31.45526 L -9.79694,31.46471 L -9.79333,31.46832 L -9.7875,31.47777 L -9.77528,31.50304 L -9.77583,31.51555 L -9.77722,31.5211 L -9.77499,31.52527 L -9.76194,31.53471 L -9.74833,31.55083 L -9.73528,31.56055 L -9.73249,31.56499 L -9.72749,31.58276 L -9.69861,31.61388 L -9.69277,31.62305 L -9.68916,31.62694 L -9.68722,31.64749 L -9.68777,31.65999 L -9.68722,31.66554 L -9.685,31.67082 L -9.68388,31.67694 L -9.68195,31.69749 L -9.68222,31.70389 L -9.67916,31.7086 L -9.66833,31.72083 L -9.6625,31.73 L -9.65889,31.73387 L -9.65611,31.7386 L -9.65222,31.74249 L -9.64305,31.75583 L -9.62583,31.77582 L -9.58555,31.80415 L -9.58194,31.80804 L -9.57278,31.82111 L -9.55888,31.83749 L -9.55611,31.84221 L -9.53722,31.86082 L -9.50222,31.88609 L -9.495,31.89388 L -9.48333,31.91249 L -9.47833,31.92249 L -9.47472,31.9261 L -9.47194,31.93082 L -9.45444,31.94333 L -9.43999,31.95915 L -9.43555,31.9622 L -9.42833,31.96999 L -9.42388,31.97304 L -9.40583,31.99249 L -9.40583,31.99249 L -9.39694,31.99887 L -9.39333,32.00275 L -9.38805,32.00497 L -9.38444,32.00888 L -9.375,32.01443 L -9.36388,32.02609 L -9.36,32.02914 L -9.35333,32.03775 L -9.35194,32.04385 L -9.34611,32.05997 L -9.34333,32.0722 L -9.34138,32.09274 L -9.33361,32.11499 L -9.32972,32.11887 L -9.32389,32.1283 L -9.30944,32.14386 L -9.30499,32.14691 L -9.29778,32.15469 L -9.28111,32.17554 L -9.27444,32.19165 L -9.2725,32.20471 L -9.265,32.22748 L -9.26583,32.24637 L -9.26694,32.25192 L -9.26972,32.25607 L -9.27166,32.26108 L -9.27111,32.26804 L -9.26305,32.29025 L -9.26167,32.29636 L -9.26055,32.31638 L -9.26167,32.32053 L -9.26722,32.32913 L -9.27555,32.33609 L -9.28666,32.34082 L -9.29028,32.3447 L -9.29166,32.34747 L -9.29194,32.35999 L -9.29527,32.37054 L -9.28999,32.38052 L -9.27916,32.39221 L -9.26444,32.41525 L -9.2625,32.42053 L -9.25944,32.42526 L -9.24638,32.45749 L -9.24555,32.46414 L -9.24694,32.46997 L -9.25083,32.47971 L -9.25639,32.48859 L -9.26028,32.49219 L -9.265,32.50137 L -9.27083,32.51025 L -9.28139,32.53442 L -9.28139,32.54053 L -9.27861,32.55276 L -9.27638,32.55832 L -9.27277,32.56219 L -9.26833,32.56525 L -9.25806,32.56998 L -9.24416,32.57858 L -9.24055,32.58249 L -9.23167,32.58887 L -9.21444,32.60748 L -9.17027,32.63885 L -9.16499,32.64139 L -9.14722,32.65387 L -9.14,32.66165 L -9.13555,32.6647 L -9.12444,32.67636 L -9.12,32.67941 L -9.11639,32.68332 L -9.08972,32.70221 L -9.08611,32.70609 L -9.08167,32.70914 L -9.06361,32.72858 L -9.05316,32.73477 L -9.04527,32.74026 L -9.04138,32.74414 L -9.035,32.76025 L -9.03139,32.76413 L -9.02222,32.77054 L -9.01861,32.77441 L -8.99667,32.78998 L -8.98083,32.79721 L -8.97666,32.80026 L -8.95472,32.8233 L -8.95,32.82663 L -8.9361,32.83582 L -8.93055,32.83832 L -8.92194,32.84442 L -8.90194,32.85471 L -8.8975,32.85803 L -8.89222,32.86026 L -8.88861,32.86414 L -8.88416,32.86719 L -8.85833,32.89441 L -8.84888,32.90747 L -8.84166,32.91525 L -8.83861,32.91971 L -8.83389,32.92303 L -8.82305,32.93442 L -8.81499,32.94165 L -8.79722,32.95389 L -8.79333,32.95776 L -8.78139,32.97638 L -8.75639,32.98886 L -8.75194,32.99191 L -8.73722,33.00748 L -8.73416,33.01221 L -8.72694,33.01999 L -8.71444,33.02997 L -8.70833,33.03915 L -8.70305,33.04913 L -8.68916,33.06387 L -8.68472,33.0672 L -8.6625,33.09027 L -8.65444,33.0972 L -8.64916,33.0997 L -8.64027,33.1058 L -8.63139,33.11221 L -8.62778,33.11581 L -8.615,33.13361 L -8.61361,33.13971 L -8.615,33.15164 L -8.61666,33.15637 L -8.61972,33.1608 L -8.62055,33.16638 L -8.61555,33.17636 L -8.6125,33.18109 L -8.60416,33.18802 L -8.58639,33.20053 L -8.56777,33.2197 L -8.55333,33.23526 L -8.55,33.23972 L -8.54778,33.24527 L -8.53833,33.25052 L -8.53694,33.25665 L -8.53361,33.26135 L -8.52861,33.26358 L -8.51944,33.26999 L -8.51305,33.26804 L -8.50944,33.26581 L -8.50555,33.25583 L -8.49833,33.25388 L -8.47527,33.2533 L -8.45611,33.25665 L -8.44666,33.25943 L -8.41528,33.27359 L -8.41083,33.27692 L -8.40028,33.28165 L -8.38027,33.29941 L -8.36694,33.30859 L -8.35583,33.32025 L -8.34225,33.32941 L -8.34222,33.32941 L -8.33861,33.33331 L -8.32972,33.3472 L -8.31555,33.36331 L -8.3125,33.36804 L -8.30499,33.37552 L -8.29472,33.38025 L -8.27666,33.38525 L -8.27,33.38608 L -8.255,33.39386 L -8.24249,33.39636 L -8.22222,33.39886 L -8.20361,33.40305 L -8.19028,33.40469 L -8.17889,33.4086 L -8.16333,33.41583 L -8.15138,33.41885 L -8.13721,33.41971 L -8.12305,33.42081 L -8.10694,33.42441 L -8.1011,33.42609 L -8.06972,33.43997 L -8.05472,33.44775 L -8.05028,33.45108 L -8.03472,33.45804 L -8.03097,33.45932 L -8.02333,33.46191 L -8.01083,33.46442 L -8.00305,33.46442 L -7.99,33.46609 L -7.98472,33.4686 L -7.97111,33.47775 L -7.95028,33.48721 L -7.93027,33.48972 L -7.9225,33.48972 L -7.91056,33.49304 L -7.91055,33.49304 L -7.90028,33.49774 L -7.87777,33.51303 L -7.87389,33.51691 L -7.86055,33.52637 L -7.85527,33.52859 L -7.83361,33.5358 L -7.82027,33.53748 L -7.81444,33.53915 L -7.78722,33.54248 L -7.77639,33.54636 L -7.76416,33.54941 L -7.75389,33.55414 L -7.74778,33.55582 L -7.73278,33.5636 L -7.72833,33.56665 L -7.7075,33.57611 L -7.70277,33.57913 L -7.68777,33.59442 L -7.68333,33.59747 L -7.67972,33.60138 L -7.66611,33.61053 L -7.66083,33.61276 L -7.65472,33.61444 L -7.65222,33.60999 L -7.64639,33.60748 L -7.64222,33.61053 L -7.63667,33.61304 L -7.63,33.61386 L -7.62278,33.61249 L -7.6125,33.60693 L -7.60611,33.60635 L -7.58361,33.61414 L -7.56778,33.62109 L -7.56166,33.62274 L -7.53555,33.62665 L -7.51028,33.63913 L -7.49667,33.64832 L -7.49,33.65692 L -7.47861,33.6683 L -7.44333,33.6922 L -7.43944,33.69611 L -7.42972,33.70135 L -7.42611,33.70526 L -7.41222,33.71469 L -7.40472,33.7222 L -7.40028,33.72525 L -7.38916,33.72916 L -7.39055,33.72388 L -7.38861,33.71887 L -7.38333,33.71637 L -7.37583,33.71637 L -7.35611,33.71942 L -7.35611,33.71942 L -7.3375,33.73111 L -7.33139,33.74026 L -7.3275,33.74414 L -7.32166,33.74554 L -7.31172,33.75 L -7.31111,33.75027 L -7.2825,33.76721 L -7.25611,33.77887 L -7.24639,33.78415 L -7.22833,33.79636 L -7.20053,33.80783 L -7.19896,33.80835 L -7.19055,33.81192 L -7.1725,33.81665 L -7.16222,33.82111 L -7.15028,33.82443 L -7.13639,33.82581 L -7.11833,33.83054 L -7.11389,33.83359 L -7.10861,33.83582 L -7.10028,33.84274 L -7.08666,33.85193 L -7.08666,33.85193 L -7.08083,33.85358 L -7.065,33.86053 L -7.04694,33.86526 L -7.03111,33.87219 L -7.02278,33.87888 L -7.01139,33.89053 L -7.00694,33.89359 L -6.99639,33.89804 L -6.99166,33.90109 L -6.96889,33.91638 L -6.96528,33.92026 L -6.93333,33.94165 L -6.92583,33.94943 L -6.91666,33.96304 L -6.90833,33.96997 L -6.89444,33.97916 L -6.89083,33.98276 L -6.88611,33.98581 L -6.8825,33.98972 L -6.86417,34.00192 L -6.85889,34.00415 L -6.84972,34.01025 L -6.84305,34.01859 L -6.82472,34.0386 L -6.82,34.04166 L -6.81639,34.04526 L -6.80639,34.05081 L -6.79889,34.05832 L -6.79333,34.06693 L -6.79139,34.0722 L -6.785,34.09637 L -6.7725,34.11472 L -6.75805,34.13052 L -6.755,34.13525 L -6.75305,34.14139 L -6.75027,34.14581 L -6.73805,34.15637 L -6.72944,34.17081 L -6.72472,34.18164 L -6.72277,34.18414 L -6.71638,34.19611 L -6.70694,34.20972 L -6.70472,34.21497 L -6.69222,34.23331 L -6.69,34.23859 L -6.68278,34.24692 L -6.66444,34.27414 L -6.655,34.29553 L -6.63972,34.31833 L -6.62861,34.33054 L -6.59777,34.3761 L -6.5825,34.39108 L -6.57777,34.39413 L -6.56555,34.405 L -6.55028,34.42636 L -6.54639,34.42996 L -6.54417,34.43555 L -6.53527,34.44971 L -6.51889,34.48691 L -6.51583,34.49164 L -6.50639,34.51276 L -6.50305,34.51721 L -6.50111,34.52249 L -6.49472,34.53165 L -6.49222,34.53693 L -6.48833,34.54083 L -6.47889,34.55441 L -6.47055,34.56888 L -6.44611,34.62109 L -6.44278,34.62582 L -6.4325,34.64609 L -6.425,34.65387 L -6.41333,34.67136 L -6.40805,34.68137 L -6.39555,34.69943 L -6.38833,34.70776 L -6.37917,34.72137 L -6.37111,34.73666 L -6.35861,34.75552 L -6.34916,34.77664 L -6.33416,34.80026 L -6.32722,34.8161 L -6.32083,34.82526 L -6.31527,34.83499 L -6.29361,34.88275 L -6.28583,34.89777 L -6.27944,34.90692 L -6.27555,34.9183 L -6.26222,34.96664 L -6.26,34.97192 L -6.25361,34.98111 L -6.24555,34.99637 L -6.2425,35.0083 L -6.23583,35.02499 L -6.22639,35.04608 L -6.22083,35.0636 L -6.21833,35.06888 L -6.21166,35.09302 L -6.20667,35.10388 L -6.20361,35.11581 L -6.20111,35.12109 L -6.19944,35.1272 L -6.18889,35.14777 L -6.1875,35.15359 L -6.1825,35.16415 L -6.17139,35.18387 L -6.16444,35.1922 L -6.15583,35.20663 L -6.15083,35.21719 L -6.14222,35.23166 L -6.1325,35.25275 L -6.12917,35.26498 L -6.12444,35.27554 L -6.12278,35.28165 L -6.11611,35.29831 L -6.11305,35.31024 L -6.11055,35.31555 L -6.10883,35.32187 L -6.10722,35.32776 L -6.10472,35.33304 L -6.10305,35.33914 L -6.09972,35.3436 L -6.09528,35.35416 L -6.09,35.37219 L -6.08361,35.38885 L -6.0775,35.39804 L -6.06944,35.40552 L -6.06639,35.40997 L -6.06389,35.41525 L -6.06222,35.42136 L -6.06139,35.42831 L -6.05639,35.43887 L -6.055,35.44498 L -6.05222,35.45026 L -6.04611,35.45914 L -6.03194,35.4758 L -6.02888,35.48026 L -6.02639,35.48581 L -6.02111,35.50388 L -6.01861,35.52414 L -6.01333,35.54248 L -6.01028,35.54694 L -6.00861,35.55304 L -5.99667,35.57941 L -5.99333,35.58386 L -5.98611,35.5997 L -5.98528,35.60526 L -5.98305,35.62027 L -5.97667,35.64441 L -5.96611,35.6647 L -5.95,35.68802 L -5.9475,35.69333 L -5.94583,35.69943 L -5.94416,35.71304 L -5.94416,35.71915 L -5.94139,35.73221 L -5.9375,35.75943 L -5.93444,35.77136 L -5.93194,35.77664 L -5.92805,35.78052 L -5.92361,35.78748 L -5.91874,35.79062 L -5.91417,35.79361 L -5.89583,35.79803 L -5.88889,35.79886 L -5.88139,35.79749 L -5.86833,35.79361 L -5.86,35.79276 L -5.84833,35.79663 L -5.83389,35.79581 L -5.8275,35.79385 L -5.79778,35.7883 L -5.79139,35.78638 L -5.77639,35.7836 L -5.76861,35.7836 L -5.7625,35.78525 L -5.75777,35.78802 L -5.75389,35.79193 L -5.74444,35.80554 L -5.71638,35.82358 L -5.70555,35.82803 L -5.6925,35.83026 L -5.67833,35.82831 L -5.67138,35.82922 L -5.65694,35.82971 L -5.64111,35.82748 L -5.62861,35.83054 L -5.62111,35.83054 L -5.61444,35.82858 L -5.60416,35.82275 L -5.59583,35.82193 L -5.59583,35.82193 L -5.57972,35.82858 L -5.57361,35.83026 L -5.56889,35.83331 L -5.5525,35.83997 L -5.54639,35.84137 L -5.54111,35.8436 L -5.53,35.8558 L -5.52583,35.85944 L -5.51305,35.86777 L -5.505,35.87524 L -5.49222,35.89331 L -5.48444,35.90109 L -5.47889,35.90332 L -5.46666,35.9061 L -5.45861,35.9136 L -5.4525,35.91525 L -5.44694,35.91248 L -5.44305,35.90887 L -5.43639,35.90942 L -5.42167,35.91776 L -5.41528,35.91916 L -5.40778,35.91916 L -5.39555,35.91632 L -5.39555,35.90915 L -5.39139,35.89691 L -5.38861,35.89191 L -5.38694,35.88693 L -5.37861,35.8736 L -5.37583,35.86942 L -5.37111,35.86609 L -5.36833,35.86166 L -5.35444,35.8472 L -5.34583,35.84164 L -5.345,35.82999 L -5.33889,35.79053 L -5.33694,35.78552 L -5.33444,35.76886 L -5.33083,35.75888 L -5.32972,35.7533 L -5.32972,35.73749 L -5.32583,35.72748 L -5.32417,35.71609 L -5.32222,35.71109 L -5.32166,35.70554 L -5.31944,35.70053 L -5.31889,35.69498 L -5.31583,35.69055 L -5.30861,35.68304 L -5.30333,35.68054 L -5.29472,35.67969 L -5.28166,35.68192 L -5.275,35.68109 L -5.27416,35.67554 L -5.27666,35.67026 L -5.27833,35.66415 L -5.2775,35.65247 L -5.27555,35.64749 L -5.275,35.64191 L -5.27111,35.63193 L -5.26555,35.62305 L -5.26222,35.59442 L -5.25666,35.58081 L -5.25305,35.57693 L -5.24528,35.57138 L -5.24083,35.56833 L -5.22944,35.56302 L -5.22028,35.55664 L -5.21666,35.55276 L -5.20472,35.54831 L -5.18944,35.54803 L -5.18361,35.54694 L -5.18083,35.54248 L -5.17139,35.53748 L -5.16861,35.53305 L -5.16139,35.52527 L -5.15222,35.51276 L -5.11555,35.4747 L -5.10611,35.46832 L -5.1025,35.46442 L -5.09694,35.46191 L -5.09333,35.45804 L -5.09055,35.45358 L -5.08889,35.44858 L -5.08583,35.44415 L -5.08528,35.4386 L -5.07528,35.42053 L -5.07528,35.42053 L -5.06333,35.4097 L -5.04667,35.40164 L -5.04,35.39969 L -5.01611,35.39664 L -5.00944,35.39471 L -5.00417,35.39191 L -4.97194,35.36942 L -4.96638,35.36691 L -4.94333,35.3508 L -4.93611,35.34332 L -4.93333,35.33887 L -4.92972,35.33499 L -4.92139,35.32166 L -4.91222,35.31525 L -4.90028,35.31082 L -4.88472,35.30222 L -4.86805,35.30054 L -4.86166,35.29858 L -4.85333,35.29138 L -4.84222,35.28 L -4.83333,35.27359 L -4.8275,35.27109 L -4.80944,35.25803 L -4.80278,35.25607 L -4.79166,35.25082 L -4.78722,35.24747 L -4.77694,35.24304 L -4.76694,35.23721 L -4.75861,35.23636 L -4.75305,35.23386 L -4.74722,35.23111 L -4.73833,35.2247 L -4.72166,35.21692 L -4.69583,35.20886 L -4.68916,35.20804 L -4.66944,35.21082 L -4.65361,35.20859 L -4.64722,35.20663 L -4.63805,35.19998 L -4.62694,35.19498 L -4.60194,35.1922 L -4.57083,35.18774 L -4.55583,35.18469 L -4.53111,35.18219 L -4.51901,35.17996 L -4.50139,35.17664 L -4.48222,35.17026 L -4.45805,35.16721 L -4.45166,35.16525 L -4.44694,35.16193 L -4.43055,35.15414 L -4.42416,35.15192 L -4.41666,35.15054 L -4.40916,35.15054 L -4.39611,35.15247 L -4.38861,35.15247 L -4.38277,35.15109 L -4.3775,35.14859 L -4.37,35.14722 L -4.36194,35.14609 L -4.35389,35.14609 L -4.33028,35.15277 L -4.32361,35.15332 L -4.31805,35.15552 L -4.30472,35.16525 L -4.28749,35.17108 L -4.28305,35.17386 L -4.27916,35.17776 L -4.27444,35.18054 L -4.27055,35.18442 L -4.25944,35.18887 L -4.21555,35.1897 L -4.19694,35.19388 L -4.18555,35.19775 L -4.16444,35.19885 L -4.14833,35.19775 L -4.12778,35.19971 L -4.11083,35.20554 L -4.10583,35.20859 L -4.09528,35.21304 L -4.09055,35.21609 L -4.07861,35.2272 L -4.06139,35.23303 L -4.05472,35.23358 L -4.0425,35.23636 L -4.02083,35.24527 L -4.0125,35.24442 L -3.99889,35.23471 L -3.99055,35.23358 L -3.97972,35.23804 L -3.97278,35.23859 L -3.96667,35.24026 L -3.96194,35.24304 L -3.95805,35.24692 L -3.94861,35.25275 L -3.93778,35.2572 L -3.93083,35.25775 L -3.92528,35.25998 L -3.91833,35.26053 L -3.90944,35.25415 L -3.90667,35.24969 L -3.90722,35.23111 L -3.90555,35.2261 L -3.90278,35.22165 L -3.89277,35.21582 L -3.87083,35.20499 L -3.86528,35.20248 L -3.85055,35.19943 L -3.8275,35.19916 L -3.81389,35.20026 L -3.80166,35.20303 L -3.79083,35.20749 L -3.77917,35.21109 L -3.76833,35.21555 L -3.76361,35.21832 L -3.76056,35.22275 L -3.75861,35.22888 L -3.7575,35.23581 L -3.75555,35.24164 L -3.75472,35.2486 L -3.75111,35.26053 L -3.74861,35.26581 L -3.74444,35.26941 L -3.73972,35.27249 L -3.72389,35.27637 L -3.71861,35.27859 L -3.70889,35.28442 L -3.69305,35.28333 L -3.6825,35.28775 L -3.67472,35.28748 L -3.66722,35.2861 L -3.66389,35.2822 L -3.65916,35.27277 L -3.65028,35.26639 L -3.64472,35.26361 L -3.6375,35.26221 L -3.62555,35.25748 L -3.62194,35.2536 L -3.61722,35.25024 L -3.61389,35.24637 L -3.60917,35.24304 L -3.60389,35.24054 L -3.58917,35.23135 L -3.58361,35.22858 L -3.57722,35.22665 L -3.50166,35.21277 L -3.49611,35.20999 L -3.48972,35.20804 L -3.48139,35.20691 L -3.46833,35.20914 L -3.45472,35.21027 L -3.44722,35.20886 L -3.43055,35.20081 L -3.41055,35.19498 L -3.38639,35.19302 L -3.37972,35.19388 L -3.36416,35.19357 L -3.34,35.19138 L -3.3325,35.19138 L -3.32639,35.19275 L -3.32111,35.19498 L -3.30639,35.19525 L -3.30166,35.1983 L -3.29361,35.20581 L -3.27722,35.21219 L -3.27111,35.21359 L -3.24889,35.22137 L -3.24194,35.22192 L -3.22028,35.2308 L -3.19944,35.23248 L -3.19416,35.23471 L -3.18805,35.23608 L -3.17778,35.24109 L -3.16833,35.24692 L -3.15639,35.25803 L -3.14222,35.26691 L -3.13805,35.27054 L -3.13305,35.2811 L -3.12972,35.28552 L -3.125,35.2886 L -3.11805,35.28915 L -3.11167,35.28693 L -3.10167,35.2811 L -3.09417,35.27942 L -3.08139,35.28137 L -3.07583,35.2836 L -3.06639,35.28943 L -3.06305,35.29385 L -3.05944,35.29636 L -3.05667,35.30164 L -3.04028,35.32385 L -3.03611,35.32748 L -3.03028,35.33719 L -3.02361,35.3461 L -3.02111,35.35138 L -3.01361,35.37552 L -3.01028,35.37997 L -3.00778,35.38525 L -2.99472,35.40305 L -2.98611,35.41803 L -2.98417,35.42416 L -2.985,35.42969 L -2.98389,35.43637 L -2.98,35.43887 L -2.97389,35.44025 L -2.95722,35.43832 L -2.9525,35.43497 L -2.95389,35.42831 L -2.95889,35.41776 L -2.95861,35.40582 L -2.95583,35.40137 L -2.95694,35.39471 L -2.96028,35.39026 L -2.96444,35.38666 L -2.9675,35.38193 L -2.96889,35.37524 L -2.96611,35.37082 L -2.96444,35.36581 L -2.96083,35.36191 L -2.94694,35.32913 L -2.95861,35.32498 L -2.96278,35.32138 L -2.96917,35.31247 L -2.97111,35.30637 L -2.97083,35.29471 L -2.96722,35.28442 L -2.96278,35.27499 L -2.95944,35.27109 L -2.95028,35.26471 L -2.94444,35.26331 L -2.93694,35.26303 L -2.92528,35.26663 L -2.91472,35.27359 L -2.90139,35.25916 L -2.90528,35.25525 L -2.91028,35.25247 L -2.91333,35.24805 L -2.91194,35.23666 L -2.90916,35.23221 L -2.90222,35.22443 L -2.90278,35.22055 L -2.91055,35.20471 L -2.91361,35.19193 L -2.90944,35.17636 L -2.90167,35.16302 L -2.8925,35.15637 L -2.88194,35.14471 L -2.87639,35.14221 L -2.87194,35.13885 L -2.84167,35.12692 L -2.83444,35.12552 L -2.82805,35.12332 L -2.805,35.11942 L -2.79222,35.11499 L -2.7775,35.11191 L -2.76111,35.11026 L -2.75416,35.11081 L -2.74861,35.11276 L -2.74722,35.11554 L -2.75166,35.11887 L -2.76472,35.12305 L -2.77,35.12582 L -2.77472,35.12915 L -2.78167,35.13666 L -2.79083,35.14331 L -2.79416,35.14722 L -2.80778,35.15692 L -2.82333,35.16583 L -2.83027,35.17358 L -2.83305,35.17804 L -2.83778,35.18109 L -2.84111,35.18497 L -2.84583,35.18832 L -2.84916,35.1922 L -2.85389,35.19553 L -2.8575,35.19943 L -2.86083,35.20331 L -2.86611,35.21219 L -2.87333,35.21997 L -2.88333,35.2258 L -2.89028,35.23358 L -2.88833,35.23972 L -2.88556,35.24277 L -2.87916,35.24054 L -2.86917,35.23471 L -2.86555,35.2308 L -2.85639,35.22415 L -2.84222,35.20859 L -2.83389,35.20163 L -2.82333,35.19611 L -2.81416,35.1897 L -2.81055,35.18582 L -2.80139,35.17914 L -2.79778,35.17526 L -2.79528,35.17081 L -2.78639,35.16415 L -2.78083,35.16165 L -2.77639,35.15833 L -2.76917,35.15054 L -2.7675,35.14554 L -2.76389,35.14163 L -2.755,35.13498 L -2.72083,35.12552 L -2.67639,35.11081 L -2.64778,35.10388 L -2.635,35.0997 L -2.61944,35.0972 L -2.54972,35.09387 L -2.53528,35.09442 L -2.51694,35.0983 L -2.51139,35.10052 L -2.48694,35.10611 L -2.47583,35.11026 L -2.46167,35.11887 L -2.42944,35.14832 L -2.42444,35.15137 L -2.41916,35.15332 L -2.41194,35.15192 L -2.40639,35.14914 L -2.39277,35.13913 L -2.38194,35.13388 L -2.36722,35.1322 L -2.34305,35.1236 L -2.34057,35.12308 L -2.32833,35.12054 L -2.32,35.11969 L -2.29278,35.11221 L -2.28639,35.10999 L -2.27722,35.10358 L -2.25805,35.09692 L -2.24444,35.09332 L -2.23611,35.0925 L -2.22889,35.09082 L -2.21694,35.08582 L -2.20944,35.08582 L -2.2075,35.06802 L -2.20778,35.06192 L -2.20527,35.05136 L -2.20667,35.04443 L -2.20333,35.03442 L -2.19639,35.02664 L -2.18361,35.01608 L -2.18028,35.01221 L -2.17028,35.00638 L -2.16472,35.0036 L -2.1575,35.00192 L -2.14917,35.0011 L -2.13833,34.99554 L -2.13194,34.99332 L -2.105,34.9736 L -2.08639,34.95471 L -2.08194,34.95135 L -2.075,34.94357 L -2.06583,34.93692 L -2.05861,34.93524 L -2.04305,34.93277 L -2.01917,34.93054 L -1.99833,34.93219 L -1.99305,34.92941 L -1.98417,34.92276 L -1.9825,34.91776 L -1.98389,34.905 L -1.9825,34.89359 L -1.98083,34.88861 L -1.97389,34.88083 L -1.96139,34.87027 L -1.93444,34.85666 L -1.92805,34.85443 L -1.91694,34.84888 L -1.90028,34.83527 L -1.89778,34.83054 L -1.88972,34.8233 L -1.87917,34.81165 L -1.85639,34.80136 L -1.83833,34.79443 L -1.82833,34.7883 L -1.81222,34.78 L -1.80417,34.77277 L -1.79889,34.76999 L -1.78417,34.76691 L -1.765,34.76053 L -1.75444,34.75497 L -1.75,34.75165 L -1.74722,34.74719 L -1.74917,34.74109 L -1.77305,34.72665 L -1.77639,34.7222 L -1.77917,34.71692 L -1.78139,34.70358 L -1.78944,34.68774 L -1.79583,34.67053 L -1.80583,34.6572 L -1.81472,34.65082 L -1.82472,34.64581 L -1.84889,34.6236 L -1.85389,34.62082 L -1.85694,34.61636 L -1.8575,34.61026 L -1.85667,34.60443 L -1.85305,34.60052 L -1.835,34.5936 L -1.81972,34.58472 L -1.80944,34.57303 L -1.80472,34.5697 L -1.80222,34.56525 L -1.79167,34.55359 L -1.78722,34.55026 L -1.76889,34.53137 L -1.76,34.52469 L -1.7425,34.50525 L -1.73805,34.50192 L -1.73278,34.49915 L -1.71694,34.49664 L -1.69639,34.49109 L -1.69083,34.48859 L -1.68671,34.4855 L -1.7325,34.44025 L -1.79333,34.3783 L -1.75055,34.34943 L -1.71917,34.26663 L -1.70667,34.23026 L -1.65833,34.09998 L -1.65333,34.08499 L -1.65444,34.08359 L -1.6875,33.96637 L -1.70639,33.89914 L -1.71028,33.88248 L -1.7075,33.85553 L -1.70583,33.85052 L -1.70389,33.83359 L -1.7,33.81802 L -1.69944,33.81219 L -1.69667,33.80777 L -1.69639,33.80222 L -1.69306,33.79221 L -1.69055,33.78748 L -1.68361,33.77969 L -1.68083,33.77527 L -1.68055,33.76971 L -1.6825,33.76361 L -1.68555,33.75916 L -1.68944,33.75552 L -1.69444,33.75275 L -1.69722,33.75 L -1.69833,33.74887 L -1.7125,33.74026 L -1.72639,33.7233 L -1.72889,33.71802 L -1.73028,33.71136 L -1.73056,33.70499 L -1.72951,33.70151 L -1.72639,33.69553 L -1.71861,33.68832 L -1.70139,33.68054 L -1.68889,33.67636 L -1.66722,33.67136 L -1.65639,33.66608 L -1.65222,33.66275 L -1.64167,33.65082 L -1.63917,33.64636 L -1.63444,33.63138 L -1.63389,33.62552 L -1.63139,33.62109 L -1.62833,33.61804 L -1.62611,33.61359 L -1.61278,33.60358 L -1.60667,33.59528 L -1.60611,33.58942 L -1.60444,33.58441 L -1.60417,33.57275 L -1.60111,33.56247 L -1.60028,33.55692 L -1.60222,33.55081 L -1.60472,33.5372 L -1.59916,33.52277 L -1.60055,33.5097 L -1.61139,33.49719 L -1.62333,33.48608 L -1.62583,33.4808 L -1.62639,33.4686 L -1.62389,33.45776 L -1.62528,33.45108 L -1.63139,33.44138 L -1.63305,33.43524 L -1.64889,33.4122 L -1.65167,33.40692 L -1.66472,33.38913 L -1.66667,33.3833 L -1.66806,33.37637 L -1.66972,33.35721 L -1.66833,33.3522 L -1.66555,33.34775 L -1.66417,33.34247 L -1.66166,33.33749 L -1.66028,33.32608 L -1.66083,33.31387 L -1.66694,33.27969 L -1.66806,33.26108 L -1.66528,33.25665 L -1.66083,33.2533 L -1.6575,33.24942 L -1.65,33.23581 L -1.64611,33.22638 L -1.63722,33.2197 L -1.63194,33.21692 L -1.61194,33.21109 L -1.60778,33.20776 L -1.60083,33.19998 L -1.59333,33.18637 L -1.58694,33.16608 L -1.58639,33.16052 L -1.58333,33.15027 L -1.58055,33.14581 L -1.57611,33.14249 L -1.56583,33.13083 L -1.56361,33.12637 L -1.55917,33.12305 L -1.54889,33.11136 L -1.54278,33.10275 L -1.53333,33.09665 L -1.52694,33.0947 L -1.52139,33.09192 L -1.51722,33.08859 L -1.49583,33.07748 L -1.49167,33.07416 L -1.48639,33.07138 L -1.48278,33.06747 L -1.48028,33.06302 L -1.47889,33.05804 L -1.4775,33.04663 L -1.47639,33.03525 L -1.47667,33.02914 L -1.47778,33.02219 L -1.47833,33.00998 L -1.48222,32.98944 L -1.48722,32.97916 L -1.49055,32.9747 L -1.49305,32.96942 L -1.5425,32.93942 L -1.41056,32.76276 L -1.38278,32.72443 L -1.37778,32.72525 L -1.37055,32.7236 L -1.36,32.71802 L -1.35389,32.71582 L -1.33778,32.71387 L -1.33055,32.71219 L -1.30555,32.70331 L -1.30028,32.70053 L -1.28389,32.68665 L -1.27361,32.67499 L -1.26917,32.67163 L -1.26694,32.66721 L -1.01028,32.5083 L -1.01167,32.50497 L -1.015,32.50052 L -1.02305,32.49332 L -1.02944,32.48444 L -1.04028,32.47192 L -1.06389,32.44998 L -1.07806,32.44138 L -1.09944,32.43304 L -1.10778,32.42664 L -1.11528,32.4183 L -1.12,32.41553 L -1.14389,32.41052 L -1.15055,32.40997 L -1.16611,32.4111 L -1.18,32.4108 L -1.18611,32.4097 L -1.19611,32.40469 L -1.20389,32.39749 L -1.21111,32.38913 L -1.22083,32.37582 L -1.22889,32.35193 L -1.23139,32.34665 L -1.23472,32.34219 L -1.24667,32.33136 L -1.24972,32.32693 L -1.25111,32.31998 L -1.24944,32.31497 L -1.245,32.31165 L -1.24167,32.30777 L -1.24028,32.30249 L -1.24778,32.27859 L -1.25055,32.27332 L -1.25167,32.26663 L -1.25556,32.25443 L -1.25805,32.24081 L -1.25778,32.22888 L -1.25361,32.21469 L -1.255,32.21136 L -1.25772,32.20801 L -1.26833,32.19357 L -1.27222,32.18997 L -1.28139,32.18414 L -1.29,32.17749 L -1.29333,32.17303 L -1.29341,32.1727 L -1.29583,32.16302 L -1.2925,32.15915 L -1.28722,32.15637 L -1.28028,32.15469 L -1.27361,32.15524 L -1.26405,32.15805 L -1.26222,32.1586 L -1.24167,32.16776 L -1.2125,32.17526 L -1.20083,32.17026 L -1.19583,32.16248 L -1.17805,32.14359 L -1.17389,32.13388 L -1.17556,32.12082 L -1.1775,32.11499 L -1.18055,32.11053 L -1.18861,32.10248 L -1.2025,32.09387 L -1.21305,32.08969 L -1.23861,32.08582 L -1.25917,32.08527 L -1.28055,32.08997 L -1.28666,32.09219 L -1.29722,32.09775 L -1.30417,32.09943 L -1.32028,32.10138 L -1.34611,32.0986 L -1.36222,32.1008 L -1.36972,32.1008 L -1.39278,32.10471 L -1.40694,32.10776 L -1.42305,32.10999 L -1.45306,32.11163 L -1.4725,32.10944 L -1.47972,32.10971 L -1.4925,32.10776 L -1.53778,32.11081 L -1.56528,32.10944 L -1.61667,32.11108 L -1.62333,32.11053 L -1.64611,32.11221 L -1.65944,32.11108 L -1.67417,32.11163 L -1.70528,32.11609 L -1.72722,32.11691 L -1.74,32.11499 L -1.76,32.11331 L -1.8,32.11832 L -1.82222,32.11914 L -1.83028,32.12027 L -1.85222,32.12082 L -1.87222,32.11914 L -1.88778,32.12054 L -1.90167,32.11996 L -1.93111,32.12109 L -1.94639,32.1236 L -1.97639,32.12527 L -1.98278,32.12469 L -2.01333,32.1286 L -2.02861,32.13107 L -2.04278,32.13443 L -2.05555,32.1358 L -2.09833,32.13553 L -2.10639,32.13666 L -2.135,32.14304 L -2.16639,32.14609 L -2.19722,32.14859 L -2.21194,32.14886 L -2.22722,32.15027 L -2.2425,32.15277 L -2.24889,32.15219 L -2.26417,32.15469 L -2.28639,32.15524 L -2.3025,32.1572 L -2.33111,32.15747 L -2.33778,32.15665 L -2.34528,32.15692 L -2.37722,32.15192 L -2.38444,32.15219 L -2.39055,32.15082 L -2.40444,32.15027 L -2.41194,32.15054 L -2.41778,32.14914 L -2.46389,32.14359 L -2.48861,32.13885 L -2.50166,32.13776 L -2.53833,32.13052 L -2.5575,32.12802 L -2.58083,32.12164 L -2.60555,32.11636 L -2.61222,32.11581 L -2.62389,32.11304 L -2.62944,32.11081 L -2.66528,32.10248 L -2.72694,32.09137 L -2.76444,32.09302 L -2.7775,32.09164 L -2.78528,32.09192 L -2.81916,32.08969 L -2.83361,32.08997 L -2.85389,32.08832 L -2.85889,32.08609 L -2.865,32.08469 L -2.86944,32.08163 L -2.87472,32.07971 L -2.87944,32.07663 L -2.89,32.07248 L -2.89444,32.06943 L -2.89833,32.0658 L -2.9075,32.05997 L -2.91444,32.05164 L -2.92639,32.03998 L -2.93083,32.03693 L -2.93805,32.02887 L -2.9425,32.01749 L -2.94444,32.00525 L -2.94472,31.99277 L -2.94833,31.96609 L -2.94861,31.95999 L -2.94694,31.94859 L -2.94583,31.93111 L -2.94861,31.905 L -2.95139,31.89221 L -2.95389,31.88693 L -2.95944,31.86888 L -2.97222,31.85081 L -2.98055,31.84416 L -2.99055,31.83916 L -2.99944,31.83333 L -3.01583,31.82748 L -3.045,31.81999 L -3.09694,31.79666 L -3.10889,31.79416 L -3.11389,31.79193 L -3.12083,31.79138 L -3.15972,31.77832 L -3.20694,31.76721 L -3.23472,31.75804 L -3.24667,31.75526 L -3.2625,31.7486 L -3.2875,31.74471 L -3.29944,31.74193 L -3.31278,31.74054 L -3.34222,31.7336 L -3.34778,31.73138 L -3.36805,31.73027 L -3.38611,31.7261 z " />
      </g>
    </clipPath>
    <inkscape:perspective
       id="perspective2440"
       inkscape:persp3d-origin="540 : 243.33333 : 1"
       inkscape:vp_z="1080 : 365 : 1"
       inkscape:vp_y="0 : 1000 : 0"
       inkscape:vp_x="0 : 365 : 1"
       sodipodi:type="inkscape:persp3d" />
  </defs>
  <sodipodi:namedview
     inkscape:window-height="711"
     inkscape:window-width="1014"
     inkscape:pageshadow="2"
     inkscape:pageopacity="0.0"
     borderopacity="1.0"
     bordercolor="#666666"
     pagecolor="#ffffff"
     id="base"
     showgrid="false"
     showborder="false"
     showguides="true"
     inkscape:guide-bbox="true"
     inkscape:zoom="5.7826087"
     inkscape:cx="51.484425"
     inkscape:cy="11.240687"
     inkscape:window-x="115"
     inkscape:window-y="51"
     inkscape:current-layer="svg2488"
     fill="#a40000" />
  <g
     transform="matrix(1.971468e-2,0,0,3.343226e-2,-22.45038,36.48228)"
     id="g2612">
    <g
       transform="translate(1.031397e-13,-59.82244)"
       id="g2623">
      <g
         id="g3518"
         transform="matrix(1.043479,0,0,1,3126.228,-59.82246)">
        <rect
           style="opacity:0.40206185;color:#000000;fill:url(#linearGradient3523);fill-opacity:1;fill-rule:nonzero;stroke:none;stroke-width:1;stroke-linecap:round;stroke-linejoin:miter;marker:none;marker-start:none;marker-mid:none;marker-end:none;stroke-miterlimit:4;stroke-dasharray:none;stroke-dashoffset:0;stroke-opacity:1;visibility:visible;display:inline;overflow:visible"
           id="rect6709"
           width="1826.0504"
           height="478.35718"
           x="-1651.0347"
           y="-133.84804" />
        <path
           style="opacity:0.40206185;color:#000000;fill:url(#radialGradient3525);fill-opacity:1;fill-rule:nonzero;stroke:none;stroke-width:1;stroke-linecap:round;stroke-linejoin:miter;marker:none;marker-start:none;marker-mid:none;marker-end:none;stroke-miterlimit:4;stroke-dasharray:none;stroke-dashoffset:0;stroke-opacity:1;visibility:visible;display:inline;overflow:visible"
           d="M 175.01578,-134.07052 C 175.01578,-134.07052 175.01578,344.26027 175.01578,344.26027 C 279.92447,345.16072 428.63395,237.09061 428.63389,105.06409 C 428.63389,-26.962449 311.56369,-134.0705 175.01578,-134.07052 z "
           id="path6711"
           sodipodi:nodetypes="cccc" />
        <path
           sodipodi:nodetypes="cccc"
           id="path6713"
           d="M -1651.0346,-133.82723 C -1651.0346,-133.82723 -1651.0346,344.50356 -1651.0346,344.50356 C -1755.9433,345.40401 -1904.6528,237.3339 -1904.6528,105.30739 C -1904.6528,-26.719152 -1787.5825,-133.82721 -1651.0346,-133.82723 z "
           style="opacity:0.40206185;color:#000000;fill:url(#radialGradient3527);fill-opacity:1;fill-rule:nonzero;stroke:none;stroke-width:1;stroke-linecap:round;stroke-linejoin:miter;marker:none;marker-start:none;marker-mid:none;marker-end:none;stroke-miterlimit:4;stroke-dasharray:none;stroke-dashoffset:0;stroke-opacity:1;visibility:visible;display:inline;overflow:visible" />
      </g>
    </g>
  </g>
  <path
     style="color:#000000;fill:url(#linearGradient3555);fill-opacity:1;fill-rule:evenodd;stroke:#5e1919;stroke-width:1.00000024;stroke-linecap:butt;stroke-linejoin:miter;marker:none;marker-start:none;marker-mid:none;marker-end:none;stroke-miterlimit:4;stroke-dashoffset:0;stroke-opacity:1;visibility:visible;display:block;overflow:visible"
     d="M 1.5015853,8.4106625 C 13.307709,0.00096089264 34.469635,10.910843 46.49851,8.4106625 L 46.49851,40.685732 C 34.915145,44.549649 14.867007,32.50332 1.5015853,40.685732 L 1.5015853,8.4106625 z "
     id="path6459"
     sodipodi:nodetypes="ccccc" />
  <path
     style="opacity:0.62921346;color:#000000;fill:none;fill-opacity:1;fill-rule:evenodd;stroke:url(#linearGradient3552);stroke-width:1.00000072;stroke-linecap:butt;stroke-linejoin:miter;marker:none;marker-start:none;marker-mid:none;marker-end:none;stroke-miterlimit:4;stroke-dashoffset:0;stroke-opacity:1;visibility:visible;display:block;overflow:visible"
     d="M 2.4200049,8.9831044 C 12.676559,1.6180695 33.709704,11.483286 45.541057,9.6259754 L 45.535014,39.959195 C 36.647887,43.028447 15.874652,32.449287 2.5003638,39.087261 L 2.4200049,8.9831044 z "
     id="path16506"
     sodipodi:nodetypes="ccccc" />
  <g
     transform="matrix(0.3845594,0,0,0.3845594,19.144366,33.552035)"
     id="g2262">
    <g
       id="g2172"
       clip-path="url(#clipPath2256)" />
    <g
       style="fill:#008400;stroke:#000000;stroke-width:1.99176335;stroke-linecap:square"
       id="g5"
       transform="matrix(0.452,0,0,0.498,-74.223216,-91.352566)">
      <path
         id="path7"
         d="M 181.25,113.1875 L 146.46875,113.21875 L 186.0625,141.96875 L 192,137.65625 L 168,120.21875 L 178.96875,120.1875 L 181.25,113.1875 z"
         style="stroke-width:1.99176335" />
      <path
         id="path9"
         d="M 202.76559,113.19883 L 191.98787,80.129551 L 176.88014,126.66968 L 182.81636,130.98395 L 191.984,102.77011 L 195.40325,113.19235 L 202.76559,113.19883 z"
         style="stroke-width:1.99176335" />
      <path
         id="path11"
         d="M 209.40356,133.66496 L 237.52382,113.19577 L 188.59298,113.20916 L 186.32426,120.18802 L 215.99017,120.18841 L 207.13464,126.66096 L 209.40356,133.66496 z"
         style="stroke-width:1.99176335" />
      <path
         id="path13"
         d="M 191.99045,146.30222 L 220.14744,166.72085 L 205.01425,120.18899 L 197.67588,120.1879 L 206.84278,148.40198 L 197.95051,141.97999 L 191.99045,146.30222 z"
         style="stroke-width:1.99176335" />
      <path
         id="path15"
         d="M 174.59078,133.64658 L 163.8725,166.73517 L 203.45052,137.96351 L 201.18387,130.98397 L 177.18341,148.42084 L 180.54323,137.97929 L 174.59078,133.64658 z"
         style="stroke-width:1.99176335" />
    </g>
  </g>
</svg>
