<?xml version="1.0" encoding="UTF-8" standalone="no"?>
<!-- Created with Inkscape (http://www.inkscape.org/) -->

<svg
   xmlns:dc="http://purl.org/dc/elements/1.1/"
   xmlns:cc="http://creativecommons.org/ns#"
   xmlns:rdf="http://www.w3.org/1999/02/22-rdf-syntax-ns#"
   xmlns:svg="http://www.w3.org/2000/svg"
   xmlns="http://www.w3.org/2000/svg"
   xmlns:xlink="http://www.w3.org/1999/xlink"
   xmlns:sodipodi="http://sodipodi.sourceforge.net/DTD/sodipodi-0.dtd"
   xmlns:inkscape="http://www.inkscape.org/namespaces/inkscape"
   width="48"
   height="48"
   id="svg2985"
   version="1.1"
   inkscape:version="0.48.0 r9654"
   sodipodi:docname="leaf.svg">
  <defs
     id="defs2987">
    <linearGradient
       inkscape:collect="always"
       xlink:href="#linearGradient9434"
       id="linearGradient9428"
       gradientUnits="userSpaceOnUse"
       x1="35.210938"
       y1="43.210938"
       x2="29.820312"
       y2="9.0859375"
       gradientTransform="translate(-18.007811,-2.3106274)" />
    <linearGradient
       id="linearGradient9434"
       inkscape:collect="always">
      <stop
         id="stop9436"
         offset="0"
         style="stop-color:#3465a4;stop-opacity:1" />
      <stop
         id="stop9438"
         offset="1"
         style="stop-color:#729fcf;stop-opacity:1" />
    </linearGradient>
    <linearGradient
       inkscape:collect="always"
       xlink:href="#linearGradient9434"
       id="linearGradient7084"
       gradientUnits="userSpaceOnUse"
       x1="35.210938"
       y1="43.210938"
       x2="29.820312"
       y2="9.0859375"
       gradientTransform="translate(56.242188,1.3398437)" />
    <linearGradient
       inkscape:collect="always"
       xlink:href="#linearGradient9296"
       id="linearGradient9432"
       gradientUnits="userSpaceOnUse"
       x1="35.210938"
       y1="43.210938"
       x2="29.820312"
       y2="9.0859375"
       gradientTransform="translate(56.242188,1.3398437)" />
    <linearGradient
       inkscape:collect="always"
       id="linearGradient9296">
      <stop
         style="stop-color:#edd400;stop-opacity:1"
         offset="0"
         id="stop9298" />
      <stop
         style="stop-color:#fce94f;stop-opacity:1"
         offset="1"
         id="stop9300" />
    </linearGradient>
    <linearGradient
       inkscape:collect="always"
       xlink:href="#linearGradient9296"
       id="linearGradient7096"
       gradientUnits="userSpaceOnUse"
       x1="35.210938"
       y1="43.210938"
       x2="29.820312"
       y2="9.0859375"
       gradientTransform="translate(56.242188,1.3398437)" />
    <linearGradient
       y2="9.0859375"
       x2="29.820312"
       y1="43.210938"
       x1="35.210938"
       gradientTransform="translate(-18.007811,-2.3106274)"
       gradientUnits="userSpaceOnUse"
       id="linearGradient7108"
       xlink:href="#linearGradient9296"
       inkscape:collect="always" />
    <radialGradient
       inkscape:collect="always"
       xlink:href="#linearGradient20210-1-8"
       id="radialGradient8228"
       gradientUnits="userSpaceOnUse"
       gradientTransform="scale(1.764278,0.566804)"
       cx="14.772334"
       cy="74.20993"
       fx="14.772334"
       fy="74.20993"
       r="7.8289828" />
    <linearGradient
       id="linearGradient20210-1-8">
      <stop
         style="stop-color:#000000;stop-opacity:0.51546389;"
         offset="0.0000000"
         id="stop20212-2-9" />
      <stop
         style="stop-color:#000000;stop-opacity:0.14432989;"
         offset="0.55172414"
         id="stop20218-1-8" />
      <stop
         style="stop-color:#000000;stop-opacity:0;"
         offset="1"
         id="stop20214-4-9" />
    </linearGradient>
    <radialGradient
       r="7.8289828"
       fy="74.20993"
       fx="14.772334"
       cy="74.20993"
       cx="14.772334"
       gradientTransform="scale(1.764278,0.566804)"
       gradientUnits="userSpaceOnUse"
       id="radialGradient7126"
       xlink:href="#linearGradient20210-1-8"
       inkscape:collect="always" />
    <radialGradient
       r="7.8289828"
       fy="74.20993"
       fx="14.772334"
       cy="74.20993"
       cx="14.772334"
       gradientTransform="scale(1.764278,0.566804)"
       gradientUnits="userSpaceOnUse"
       id="radialGradient9355"
       xlink:href="#linearGradient20210-1-8-1"
       inkscape:collect="always" />
    <linearGradient
       id="linearGradient20210-1-8-1">
      <stop
         style="stop-color:#000000;stop-opacity:0.51546389;"
         offset="0.0000000"
         id="stop20212-2-9-7" />
      <stop
         style="stop-color:#000000;stop-opacity:0.14432989;"
         offset="0.55172414"
         id="stop20218-1-8-4" />
      <stop
         style="stop-color:#000000;stop-opacity:0;"
         offset="1"
         id="stop20214-4-9-0" />
    </linearGradient>
    <radialGradient
       r="7.8289828"
       fy="74.20993"
       fx="14.772334"
       cy="74.20993"
       cx="14.772334"
       gradientTransform="scale(1.764278,0.566804)"
       gradientUnits="userSpaceOnUse"
       id="radialGradient7144"
       xlink:href="#linearGradient20210-1-8-1"
       inkscape:collect="always" />
    <linearGradient
       inkscape:collect="always"
       xlink:href="#linearGradient9712"
       id="linearGradient9718"
       x1="28.207861"
       y1="13.759514"
       x2="40.520397"
       y2="48.938076"
       gradientUnits="userSpaceOnUse"
       gradientTransform="translate(-67.75,-49.25)" />
    <linearGradient
       inkscape:collect="always"
       id="linearGradient9712">
      <stop
         style="stop-color:#adcf71;stop-opacity:1;"
         offset="0"
         id="stop9714" />
      <stop
         style="stop-color:#8eba3f;stop-opacity:1"
         offset="1"
         id="stop9716" />
    </linearGradient>
  </defs>
  <sodipodi:namedview
     id="base"
     pagecolor="#ffffff"
     bordercolor="#666666"
     borderopacity="1.0"
     inkscape:pageopacity="0.0"
     inkscape:pageshadow="2"
     inkscape:zoom="22.4"
     inkscape:cx="35.357715"
     inkscape:cy="35.430801"
     inkscape:document-units="px"
     inkscape:current-layer="layer1"
     showgrid="true"
     inkscape:showpageshadow="false"
     borderlayer="true"
     inkscape:window-width="1920"
     inkscape:window-height="1033"
     inkscape:window-x="-4"
     inkscape:window-y="-4"
     inkscape:window-maximized="1"
     inkscape:snap-global="false">
    <inkscape:grid
       type="xygrid"
       id="grid6994" />
  </sodipodi:namedview>
  <metadata
     id="metadata2990">
    <rdf:RDF>
      <cc:Work
         rdf:about="">
        <dc:format>image/svg+xml</dc:format>
        <dc:type
           rdf:resource="http://purl.org/dc/dcmitype/StillImage" />
        <dc:title></dc:title>
      </cc:Work>
    </rdf:RDF>
  </metadata>
  <g
     inkscape:groupmode="layer"
     id="layer1"
     inkscape:label="icon">
    <path
       transform="matrix(1.2152826,0,0,1.098591,-0.37010797,-2.1023386)"
       style="opacity:0.8;color:#000000;fill:url(#radialGradient7144);fill-opacity:1;fill-rule:nonzero;stroke:none;stroke-width:2;marker:none;visibility:visible;display:inline;overflow:visible"
       sodipodi:type="arc"
       sodipodi:ry="4.4375"
       sodipodi:rx="13.8125"
       sodipodi:cy="42.0625"
       sodipodi:cx="26.0625"
       inkscape:r_cy="true"
       inkscape:r_cx="true"
       id="path20208-9"
       d="m 39.875,42.0625 a 13.8125,4.4375 0 1 1 -27.625,0 13.8125,4.4375 0 1 1 27.625,0 z" />
    <g
       transform="matrix(1,0,0,0.91569166,60.33334,43.189436)"
       style="display:inline"
       id="g7370">
      <path
         inkscape:connector-curvature="0"
         style="fill:#487612;fill-opacity:1;fill-rule:evenodd;stroke:#487612;stroke-width:3;stroke-miterlimit:4;stroke-dasharray:none"
         d="m -48.32786,-45.498926 c -0.283296,0.177496 -0.119778,0.459223 -0.141948,0.709139 -0.06857,0.778788 -0.240278,1.599631 -0.283658,2.339859 -0.04302,0.73336 0.0423,1.478167 -0.07073,2.198272 -0.148695,0.946162 -0.575505,1.82858 -0.638286,2.765222 -0.03808,0.570324 0.04941,1.209815 0.07098,1.843763 0.04061,1.200416 0.0635,2.297563 0.283655,3.61631 0.109053,0.653227 0.131465,1.330193 0.283655,1.843641 0.158098,0.533693 0.562974,0.973757 0.709019,1.488892 0.241604,0.852052 0.20509,1.924016 0.425363,2.836317 0.231842,0.959899 0.680222,2.039574 1.063649,2.90717 0.358246,0.810841 0.706852,1.370561 1.134503,2.127178 0.471878,0.835423 0.882658,1.669279 1.347426,2.552781 0.525741,1.000266 0.903987,1.623851 1.772429,2.339859 0.414999,0.342339 0.913626,0.660578 1.347426,1.063769 0.221956,0.206054 0.367399,0.481998 0.567066,0.638286 0.898325,0.701307 1.969807,1.191016 2.907414,1.914497 0.881092,0.679737 1.645057,1.568781 2.552662,2.268884 1.840992,1.4204449 3.94684,2.6726779 6.168971,3.4743599 1.126669,1.71953 0.896393,4.822509 0.141947,6.59457405 0.353182,0.07531 1.099919,-0.02157 1.559866,-0.07097 0.383911,-1.20837205 0.355232,-2.56447305 0.212679,-4.18350505 -0.06832,-0.777099 -0.307994,-1.666506 -0.212679,-2.340098 0.06736,-0.475971 0.657445,-1.326218 0.921701,-1.843521 0.152671,-0.298478 0.350169,-0.609366 0.496334,-0.921698 0.631057,-1.3481509 0.85037,-3.3520559 0.709261,-5.3180059 -0.06639,-0.923869 -0.214848,-2.258762 -0.07097,-3.403507 0.0335,-0.267509 0.170026,-0.511762 0.212681,-0.780234 0.290887,-1.831472 0.004,-3.718373 0.07097,-5.743367 -0.253529,-0.344628 -0.256303,-0.785656 -0.354629,-1.134623 -0.213407,-0.759147 -0.476816,-1.471781 -0.638046,-2.339859 -0.07856,-0.422471 -0.04446,-0.874103 -0.141947,-1.347425 -0.08616,-0.418013 -0.306914,-0.910374 -0.425363,-1.347185 -0.374031,-1.379598 -0.831806,-2.62255 -1.559988,-3.758137 -0.72758,-1.134745 -1.205965,-2.25768 -2.056207,-3.261681 -0.576952,-0.681184 -1.090039,-1.146673 -1.843763,-1.701814 -1.0234,-0.753725 -2.160074,-1.443704 -3.261559,-2.198031 -0.753121,-0.515497 -1.475278,-0.981709 -2.269005,-1.347184 -0.859885,-0.395721 -1.770621,-0.55225 -2.69461,-0.921701 -0.656,-0.262568 -1.210415,-0.639611 -1.843763,-0.921941 -1.125464,-0.502122 -2.347328,-0.762642 -3.899845,-0.70914 -0.874585,0.03025 -1.76122,0.05459 -2.552661,0.07085 z m 3.616189,0.212682 c 1.870152,0.163156 3.02261,1.017618 4.396306,1.559986 0.787343,0.311009 1.64614,0.54044 2.410832,0.850847 0.781198,0.317154 1.401407,0.667808 2.056442,1.134623 0.649733,0.462958 1.396831,0.827469 1.914497,1.347184 0.73312,0.220032 1.296935,0.818553 1.914495,1.276451 0.619727,0.459344 1.258736,0.887237 1.77267,1.489012 0.718539,0.841809 1.285727,2.011498 1.843522,2.978144 0.201716,0.349208 0.476932,0.665278 0.638284,0.992675 0.546223,1.10968 0.824817,2.317446 1.205354,3.545336 0.275341,0.88796 0.509594,1.651687 0.354393,2.481807 0.593457,1.168484 0.918565,2.534948 1.063648,4.183501 0.108447,1.23271 0.133027,2.624358 0,3.97094 -0.05025,0.509592 -0.248231,1.021233 -0.283656,1.560107 -0.128332,1.947512 0.347398,3.935392 0.212679,5.530684 -0.128451,1.52396 -0.689739,2.7360609 -1.205234,3.7580199 -0.230637,0.457534 -0.43235,0.980981 -0.638045,1.276449 -0.219913,0.315709 -0.597437,0.476816 -0.779993,0.779751 0.72119,0.284258 0.474647,1.286935 0.567311,2.269366 0.05085,0.538995 0.127007,1.100402 0.141708,1.630601 0.03073,1.103532 0.148214,2.74907505 -1.063529,2.48180505 -0.111221,-0.485249 0.27269,-0.88193305 0.354388,-1.41815705 0.277271,-1.817253 0.10399,-3.983711 -0.779993,-5.247028 -2.368535,-0.843255 -4.592232,-2.278527 -6.38165,-3.6874069 -0.644313,-0.507058 -1.144748,-1.099196 -1.772547,-1.630598 -0.911458,-0.771799 -2.050661,-1.318023 -3.04912,-2.056323 -0.47272,-0.34969 -0.867597,-0.782403 -1.347425,-1.205597 -0.476217,-0.419821 -1.110404,-0.715767 -1.489014,-1.134383 -0.297633,-0.329083 -0.588517,-0.848195 -0.850844,-1.27645 -0.287635,-0.469225 -0.548996,-0.958453 -0.780116,-1.418159 -0.483444,-0.961224 -1.013763,-1.900879 -1.489012,-2.836196 -0.876994,-1.726516 -1.437196,-3.733796 -1.843522,-5.743607 -0.06314,-0.312576 -0.05676,-0.695764 -0.141947,-0.992675 -0.162313,-0.565504 -0.558998,-1.07823 -0.709019,-1.63072 -0.277391,-1.021113 -0.341978,-2.22671 -0.425363,-3.332774 -0.08073,-1.067384 -0.14412,-2.202128 -0.14195,-3.261559 0.0026,-1.209815 0.411628,-2.013547 0.567313,-2.907412 0.120979,-0.694077 0.03338,-1.377068 0.07097,-2.127057 0.05085,-1.018461 0.371138,-2.028488 0.283656,-3.119972 1.201743,0.263171 2.261295,-0.170869 3.403509,-0.07122 z"
         id="path9702" />
      <path
         id="path9674"
         d="m -48.32786,-45.498926 c -0.283296,0.177496 -0.119778,0.459223 -0.141948,0.709139 -0.06857,0.778788 -0.240278,1.599631 -0.283658,2.339859 -0.04302,0.73336 0.0423,1.478167 -0.07073,2.198272 -0.148695,0.946162 -0.575505,1.82858 -0.638286,2.765222 -0.03808,0.570324 0.04941,1.209815 0.07098,1.843763 0.04061,1.200416 0.0635,2.297563 0.283655,3.61631 0.109053,0.653227 0.131465,1.330193 0.283655,1.843641 0.158098,0.533693 0.562974,0.973757 0.709019,1.488892 0.241604,0.852052 0.20509,1.924016 0.425363,2.836317 0.231842,0.959899 0.680222,2.039574 1.063649,2.90717 0.358246,0.810841 0.706852,1.370561 1.134503,2.127178 0.471878,0.835423 0.882658,1.669279 1.347426,2.552781 0.525741,1.000266 0.903987,1.623851 1.772429,2.339859 0.414999,0.342339 0.913626,0.660578 1.347426,1.063769 0.221956,0.206054 0.367399,0.481998 0.567066,0.638286 0.898325,0.701307 1.969807,1.191016 2.907414,1.914497 0.881092,0.679737 1.645057,1.568781 2.552662,2.268884 1.840992,1.4204449 3.94684,2.6726779 6.168971,3.4743599 1.126669,1.71953 0.896393,4.822509 0.141947,6.59457405 0.353182,0.07531 1.099919,-0.02157 1.559866,-0.07097 0.383911,-1.20837205 0.355232,-2.56447305 0.212679,-4.18350505 -0.06832,-0.777099 -0.307994,-1.666506 -0.212679,-2.340098 0.06736,-0.475971 0.657445,-1.326218 0.921701,-1.843521 0.152671,-0.298478 0.350169,-0.609366 0.496334,-0.921698 0.631057,-1.3481509 0.85037,-3.3520559 0.709261,-5.3180059 -0.06639,-0.923869 -0.214848,-2.258762 -0.07097,-3.403507 0.0335,-0.267509 0.170026,-0.511762 0.212681,-0.780234 0.290887,-1.831472 0.004,-3.718373 0.07097,-5.743367 -0.253529,-0.344628 -0.256303,-0.785656 -0.354629,-1.134623 -0.213407,-0.759147 -0.476816,-1.471781 -0.638046,-2.339859 -0.07856,-0.422471 -0.04446,-0.874103 -0.141947,-1.347425 -0.08616,-0.418013 -0.306914,-0.910374 -0.425363,-1.347185 -0.374031,-1.379598 -0.831806,-2.62255 -1.559988,-3.758137 -0.72758,-1.134745 -1.205965,-2.25768 -2.056207,-3.261681 -0.576952,-0.681184 -1.090039,-1.146673 -1.843763,-1.701814 -1.0234,-0.753725 -2.160074,-1.443704 -3.261559,-2.198031 -0.753121,-0.515497 -1.475278,-0.981709 -2.269005,-1.347184 -0.859885,-0.395721 -1.770621,-0.55225 -2.69461,-0.921701 -0.656,-0.262568 -1.210415,-0.639611 -1.843763,-0.921941 -1.125464,-0.502122 -2.347328,-0.762642 -3.899845,-0.70914 -0.874585,0.03025 -1.76122,0.05459 -2.552661,0.07085 z m 3.616189,0.212682 c 1.870152,0.163156 3.02261,1.017618 4.396306,1.559986 0.787343,0.311009 1.64614,0.54044 2.410832,0.850847 0.781198,0.317154 1.401407,0.667808 2.056442,1.134623 0.649733,0.462958 1.396831,0.827469 1.914497,1.347184 0.73312,0.220032 1.296935,0.818553 1.914495,1.276451 0.619727,0.459344 1.258736,0.887237 1.77267,1.489012 0.718539,0.841809 1.285727,2.011498 1.843522,2.978144 0.201716,0.349208 0.476932,0.665278 0.638284,0.992675 0.546223,1.10968 0.824817,2.317446 1.205354,3.545336 0.275341,0.88796 0.509594,1.651687 0.354393,2.481807 0.593457,1.168484 0.918565,2.534948 1.063648,4.183501 0.108447,1.23271 0.133027,2.624358 0,3.97094 -0.05025,0.509592 -0.248231,1.021233 -0.283656,1.560107 -0.128332,1.947512 0.347398,3.935392 0.212679,5.530684 -0.128451,1.52396 -0.689739,2.7360609 -1.205234,3.7580199 -0.230637,0.457534 -0.43235,0.980981 -0.638045,1.276449 -0.219913,0.315709 -0.597437,0.476816 -0.779993,0.779751 0.72119,0.284258 0.474647,1.286935 0.567311,2.269366 0.05085,0.538995 0.127007,1.100402 0.141708,1.630601 0.03073,1.103532 0.148214,2.74907505 -1.063529,2.48180505 -0.111221,-0.485249 0.27269,-0.88193305 0.354388,-1.41815705 0.277271,-1.817253 0.10399,-3.983711 -0.779993,-5.247028 -2.368535,-0.843255 -4.592232,-2.278527 -6.38165,-3.6874069 -0.644313,-0.507058 -1.144748,-1.099196 -1.772547,-1.630598 -0.911458,-0.771799 -2.050661,-1.318023 -3.04912,-2.056323 -0.47272,-0.34969 -0.867597,-0.782403 -1.347425,-1.205597 -0.476217,-0.419821 -1.110404,-0.715767 -1.489014,-1.134383 -0.297633,-0.329083 -0.588517,-0.848195 -0.850844,-1.27645 -0.287635,-0.469225 -0.548996,-0.958453 -0.780116,-1.418159 -0.483444,-0.961224 -1.013763,-1.900879 -1.489012,-2.836196 -0.876994,-1.726516 -1.437196,-3.733796 -1.843522,-5.743607 -0.06314,-0.312576 -0.05676,-0.695764 -0.141947,-0.992675 -0.162313,-0.565504 -0.558998,-1.07823 -0.709019,-1.63072 -0.277391,-1.021113 -0.341978,-2.22671 -0.425363,-3.332774 -0.08073,-1.067384 -0.14412,-2.202128 -0.14195,-3.261559 0.0026,-1.209815 0.411628,-2.013547 0.567313,-2.907412 0.120979,-0.694077 0.03338,-1.377068 0.07097,-2.127057 0.05085,-1.018461 0.371138,-2.028488 0.283656,-3.119972 1.201743,0.263171 2.261295,-0.170869 3.403509,-0.07122 z"
         style="fill:#adcf71;fill-opacity:1;fill-rule:evenodd;stroke:url(#linearGradient9718)"
         inkscape:connector-curvature="0" />
      <path
         id="path9676"
         d="m -48.11518,-45.21527 c 0.0876,1.091484 -0.232804,2.10139 -0.283656,3.119972 -0.03759,0.750109 0.05001,1.4331 -0.07097,2.127057 -0.155685,0.893865 -0.564662,1.697596 -0.567313,2.907411 -0.0023,1.059432 0.06122,2.194175 0.14195,3.26156 0.08338,1.106185 0.148093,2.311782 0.425363,3.332774 0.150021,0.55249 0.546706,1.065215 0.709019,1.63072 0.08519,0.296911 0.07869,0.68022 0.141947,0.992675 0.406326,2.009811 0.966528,4.017091 1.843522,5.743607 0.475249,0.935317 1.005689,1.874972 1.489012,2.836196 0.23112,0.459706 0.492481,0.948934 0.780116,1.418159 0.262327,0.428255 0.553211,0.947246 0.850844,1.276451 0.378731,0.418615 1.012797,0.714561 1.489014,1.134382 0.479709,0.423194 0.874705,0.856028 1.347425,1.205597 0.998459,0.7383 2.137662,1.284526 3.04912,2.056325 0.627682,0.531523 1.128234,1.123537 1.772547,1.630598 1.789537,1.4088779 4.013115,2.8441489 6.38165,3.6874039 0.883983,1.263318 1.057264,3.429776 0.779993,5.247028 -0.0817,0.536221 -0.465609,0.93290605 -0.354388,1.41815805 1.211743,0.267269 1.094255,-1.37827105 1.063529,-2.48180905 -0.01484,-0.530195 -0.09086,-1.091602 -0.141708,-1.630595 -0.09266,-0.982311 0.153879,-1.985107 -0.567311,-2.269368 0.182556,-0.302935 0.56008,-0.464045 0.779993,-0.779751 0.205695,-0.295466 0.407408,-0.818913 0.638045,-1.276452 0.515495,-1.021954 1.076902,-2.2340579 1.205357,-3.7581349 0.134716,-1.595295 -0.341134,-3.583174 -0.212685,-5.530687 0.03543,-0.538874 0.233411,-1.050514 0.283658,-1.560107 0.133031,-1.346461 0.10845,-2.738109 0,-3.970939 -0.145084,-1.648554 -0.47019,-3.015018 -1.06365,-4.183501 0.155082,-0.830121 -0.07917,-1.593847 -0.35439,-2.481808 -0.380537,-1.227769 -0.659253,-2.435656 -1.205354,-3.545335 -0.161229,-0.327518 -0.436574,-0.643468 -0.63829,-0.992675 -0.557789,-0.966527 -1.124861,-2.136335 -1.843518,-2.978145 -0.513932,-0.601774 -1.152941,-1.029668 -1.77267,-1.489012 -0.617561,-0.457898 -1.181376,-1.056419 -1.914495,-1.276451 -0.517666,-0.519593 -1.264762,-0.884225 -1.914495,-1.347184 -0.655037,-0.466815 -1.275247,-0.817468 -2.056445,-1.134623 -0.764689,-0.310286 -1.623489,-0.539717 -2.410832,-0.850847 -1.373694,-0.542368 -2.526273,-1.39695 -4.396304,-1.559986 -1.142335,-0.09929 -2.201887,0.334748 -3.40363,0.07134 z m 0.496338,0.283776 c 0.803731,0.783006 1.590352,1.917147 2.198152,2.836196 0.413434,0.625272 0.7577,1.315011 1.205358,1.701694 0.223647,-1.198006 0.06483,-2.261896 -0.212684,-3.261801 -0.120377,-0.433316 -0.382344,-0.990505 -0.212801,-1.276089 0.419097,0.620211 0.669495,1.315854 0.779873,2.127057 0.123634,0.906035 -0.127851,1.923894 0,2.836196 0.08664,0.616355 0.929773,1.292357 1.276451,1.772788 0.424037,0.587676 0.651422,1.229095 1.205357,1.559987 -0.24835,-1.187402 0.234008,-2.305156 0.212802,-3.474483 -0.02098,-1.154385 -0.37861,-2.301057 -0.425364,-3.474481 0.538393,0.422109 0.331253,1.216562 0.425364,1.985469 0.05796,0.472599 0.197378,0.959538 0.21292,1.418159 0.02243,0.670338 -0.166047,1.30525 -0.21292,1.98547 -0.07013,1.020389 0.206897,1.708923 0.283655,2.481807 0.447656,0.558515 0.861813,1.152698 1.276452,1.772788 0.404154,0.604546 0.670218,1.342123 1.205476,1.843522 -0.01663,-0.654794 0.269074,-1.205236 0.425364,-1.701814 0.07868,-0.249916 0.06531,-0.57418 0.14195,-0.850847 0.0676,-0.244132 0.235213,-0.482239 0.283655,-0.70914 0.200028,-0.940016 0.317877,-2.559288 0.212921,-3.545456 -0.05519,-0.51622 -0.305104,-1.032921 -0.354752,-1.559986 -0.09194,-0.975564 -0.14231,-1.638552 -0.496334,-2.268885 0.609486,0.394154 0.57984,1.246326 0.709138,1.843522 0.286666,1.325373 0.548634,2.82041 0.425603,4.467156 -0.09194,1.229336 -0.694799,2.200442 -0.92194,3.332534 -0.118452,0.590206 -0.106162,1.336219 0,1.631081 0.240998,0.669013 0.682026,1.307058 1.063771,1.914496 0.385596,0.613343 0.610207,1.345859 1.134502,1.843522 0.371978,-0.919652 1.111729,-1.879672 1.489009,-3.119973 0.355231,-1.167399 0.711674,-2.700875 0.709022,-4.112527 -5.69e-4,-0.44633 -0.131951,-0.914832 -0.141709,-1.418279 -0.01339,-0.686847 0.02407,-1.1533 -0.07098,-1.772668 -0.126763,-0.826988 -0.680459,-1.621802 -0.638043,-2.410833 0.33089,0.696005 0.863982,1.420086 0.992797,2.410833 0.368122,2.834027 0.295224,6.464918 -0.992797,8.437856 -0.09604,1.063047 -1.170532,1.418399 -1.134502,2.410954 0.008,0.220152 0.253049,0.678412 0.425364,1.063528 0.154962,0.346436 0.350891,0.741674 0.496334,1.063649 0.326316,0.722635 0.808192,1.450814 1.063532,2.056324 0.20063,0.474768 0.06145,0.947487 0.56731,1.205356 0.336191,-0.657927 0.320771,-1.762305 0.70902,-2.481808 0.170507,-0.315226 0.503565,-0.540319 0.709138,-0.850967 0.63744,-0.962429 0.978696,-2.269366 1.134624,-3.616309 0.07736,-0.66817 0.103627,-1.381166 0.21268,-2.056324 0.113151,-0.701187 0.369812,-1.379238 0.425363,-2.056083 0.109655,-1.335014 -0.272087,-2.560373 -0.638043,-3.829112 0.293056,0.09664 0.265337,0.471394 0.354388,0.709019 0.274619,0.731191 0.574539,1.728806 0.638287,2.552781 0.110857,1.437077 -0.468502,2.294913 -0.567311,3.545577 -0.08278,1.0469 -0.120501,1.81653 -0.354393,2.694369 -0.144116,0.540199 -0.253407,1.10016 -0.425602,1.489012 -0.323903,0.732034 -0.994363,1.2256 -1.27645,1.914496 -0.144479,0.353304 -0.187137,0.882658 -0.35439,1.347304 -0.380176,1.056298 -0.505734,1.372851 -0.07097,2.339979 0.327274,0.728058 0.649852,1.314288 0.921698,1.98547 0.135927,0.334868 0.184366,0.745892 0.49634,0.992675 0.193763,-1.017377 0.816864,-1.646143 1.276327,-2.339859 0.700464,-1.057624 0.859166,-2.189475 1.41816,-3.474723 0.588279,-1.352124 0.996893,-2.752931 0.992678,-4.608864 -0.0039,-1.814963 -0.143155,-2.928378 -0.779873,-4.325329 0.325946,-0.06579 0.351616,0.33764 0.425363,0.496337 0.561766,1.207526 0.787824,3.306748 0.638043,5.105202 -0.125802,1.510582 -0.634672,2.453731 -1.063529,3.545336 -0.265581,0.67552 -0.399214,1.368995 -0.638284,1.98547 -0.501763,1.294526 -1.555045,2.195139 -1.914498,3.262041 -0.256181,0.75987 -0.06615,1.212948 0.141709,1.701573 0.306911,0.721671 0.411623,1.441656 0.779992,1.98547 0.620693,-1.134141 1.502388,-2.135733 2.198151,-3.190826 0.234252,-0.354992 0.538995,-0.774812 0.709022,-1.134503 0.395476,-0.836025 0.418371,-1.821108 0.638284,-2.765463 0.104471,-0.448499 0.284016,-0.90242 0.354387,-1.347305 0.0823,-0.519593 -0.05916,-1.116789 0.283656,-1.418158 0.07833,1.526488 -0.376919,2.717384 -0.638043,3.97082 -0.172076,0.825662 -0.344027,1.482746 -0.709019,2.198392 -0.514534,1.007858 -1.153782,1.773873 -1.77267,2.623273 -0.218464,0.300285 -0.500797,0.546466 -0.638285,0.850968 -0.399697,0.886393 0.135203,1.678679 0.425606,2.552782 0.22485,0.676724 0.298958,1.384416 0.638042,1.9852269 0.359331,-0.7985509 1.041598,-1.2746449 0.992678,-2.4815649 0.274497,-0.623706 0.728779,-1.067625 0.77999,-1.914737 0.619971,-0.787343 0.593221,-2.475782 0.850846,-3.403507 0.03073,0.864583 -0.0222,1.719166 -0.212679,2.481807 -0.255339,1.022438 -0.884469,1.978962 -1.134502,2.978145 -0.08315,0.331855 -0.03965,0.688535 -0.14195,0.992673 -0.218105,0.649855 -0.895429,1.0748549 -0.992552,1.8435209 -0.02214,0.174245 -0.01455,0.397409 0,0.567311 0.03567,0.423436 0.392947,0.96954 -0.141947,1.347309 -0.134722,-0.172679 -0.02135,-0.593222 -0.141708,-0.779996 -0.382587,-0.605992 -0.662991,-1.268979 -1.276333,-1.701813 -0.545138,-0.3848769 -1.286693,-0.5583939 -1.985469,-0.8509689 -1.410207,-0.590447 -2.538806,-1.287537 -3.758141,-1.914496 -1.023159,-0.5261 -2.019929,-1.095218 -2.62363,-1.914494 0.380173,0.03434 0.566105,0.427291 0.851085,0.638285 0.289801,0.21449 0.669377,0.446091 0.992436,0.638045 2.052346,1.217528 4.408349,2.159714 6.665546,3.1200929 0.215937,0.328724 0.671304,0.793008 0.921943,0.850847 -0.122187,-0.9652029 -0.415242,-1.7591719 -0.709261,-2.5525399 -0.39825,-0.0999 -0.548031,-0.471273 -0.850844,-0.709018 -0.281611,-0.221239 -0.59346,-0.344508 -0.921703,-0.496339 -0.328602,-0.152069 -0.667808,-0.210513 -1.063771,-0.354388 -0.69251,-0.251965 -1.339711,-0.768064 -1.985468,-1.06365 -0.67094,-0.307394 -1.411652,-0.455126 -2.127177,-0.709259 -0.678893,-0.240999 -1.344049,-0.577313 -1.985471,-0.850727 -1.798934,-0.766497 -3.324819,-1.426232 -4.396182,-2.623514 -0.184604,-0.206296 -0.579842,-0.42705 -0.425364,-0.780114 1.125225,1.512871 2.744016,2.254545 4.608867,3.049119 0.93616,0.398732 2.11151,0.919893 2.978262,1.205115 0.17846,0.05904 0.378974,0.0106 0.567194,0.07097 0.959775,0.308118 1.800864,0.931461 2.694485,1.347305 0.487182,0.22666 1.042564,0.365233 1.489134,0.567192 0.462599,0.209306 0.774211,0.539355 1.205356,0.709258 -0.161229,-0.913988 -0.6319,-1.581193 -0.9217,-2.339979 -0.136402,-0.357039 -0.113027,-0.840242 -0.354388,-1.205356 -0.364151,-0.550562 -1.243916,-0.755532 -1.985468,-0.992795 -1.563243,-0.499832 -3.206134,-1.052924 -4.751058,-1.418158 -2.304792,-0.544778 -4.10903,-1.834725 -5.743606,-2.552782 -0.539594,-0.901938 -1.754833,-1.128718 -2.198032,-2.127177 0.303661,-0.0635 0.396082,0.290042 0.567313,0.425484 0.220273,0.174363 0.48477,0.328361 0.709019,0.496337 0.432594,0.324264 0.810359,0.732396 1.276451,1.063649 0.901097,0.640214 2.050299,1.020389 3.119973,1.559866 1.048223,0.528631 2.281656,0.846147 3.545454,1.134623 1.233075,0.281486 2.369624,0.886635 3.474486,1.205477 0.280401,0.08085 0.560321,0.117005 0.850844,0.212681 0.267749,0.08857 0.519835,0.232323 0.779992,0.212802 -0.315224,-0.682023 -0.555138,-1.390439 -0.850965,-2.056199 -0.299319,-0.674556 -0.580204,-1.398878 -0.921701,-1.98547 -0.406084,-0.697692 -1.835088,-1.152939 -2.765461,-1.347304 -0.927124,-0.193523 -1.914134,-0.307154 -2.907292,-0.567312 -0.568154,-0.148817 -1.186679,-0.387647 -1.772789,-0.567191 -0.598761,-0.183762 -1.232589,-0.354389 -1.772425,-0.567312 -0.803011,-0.316552 -1.622526,-0.917121 -2.269128,-1.347424 -1.074253,-0.714201 -1.573965,-1.181257 -2.410832,-2.268885 -0.158216,-0.681666 -0.924834,-1.468648 -0.567314,-2.198032 0.526464,1.992821 1.772308,3.34844 3.261685,4.32533 0.293172,0.192196 0.568033,0.41018 0.850844,0.567311 0.923629,0.512484 2.095366,0.876875 3.332775,1.27621 2.266717,0.731673 4.733461,1.026053 6.736162,1.843642 -0.418013,-1.061359 -0.893627,-1.910519 -1.347184,-2.765463 -0.171953,-0.324144 -0.228226,-0.729986 -0.425363,-0.992675 -0.195691,-0.26052 -0.843377,-0.660819 -1.276333,-0.9217 -0.570082,-0.343544 -1.563118,-0.398733 -2.340098,-0.638165 -2.323469,-0.71637 -5.392352,-1.203308 -7.090792,-2.481808 -0.797346,-0.600087 -1.120646,-1.27139 -1.559746,-2.269005 -0.391503,-0.371379 -1.058104,-0.824096 -0.992673,-1.418159 0.356195,0.160626 0.423795,0.522607 0.638043,0.779994 0.217141,0.260278 0.52827,0.431629 0.70914,0.709139 0.255942,0.392828 0.321733,0.81301 0.56731,1.134382 0.995567,1.30272 2.959228,1.916183 4.537892,2.3401 0.880128,0.236059 1.791346,0.507665 2.694486,0.779873 0.919533,0.277269 1.895096,0.404155 2.765584,0.709019 0.348847,0.122307 0.607561,0.427653 0.992677,0.496337 -0.713595,-1.555166 -1.476841,-3.061048 -2.481806,-4.325329 -0.690944,-0.151709 -1.266089,-0.503206 -1.914497,-0.709019 -1.240181,-0.393792 -2.614597,-0.467297 -3.758136,-0.992675 -0.881455,-0.405119 -1.483591,-1.304527 -2.269128,-1.914495 -0.405963,-0.315588 -0.870972,-0.524534 -1.276211,-0.780114 -0.408614,-0.257748 -0.966889,-0.486335 -1.134621,-0.992674 0.485129,0.07676 0.801561,0.467056 1.205475,0.709018 0.418615,0.25076 0.866632,0.45573 1.276332,0.780114 0.770594,0.609968 1.398034,1.46925 2.269125,1.914496 1.091846,0.558153 2.400834,0.524775 3.828872,0.9217 0.401022,0.238107 1.033525,0.620091 1.559985,0.496338 -0.27317,-0.677569 -0.772761,-1.251026 -1.205353,-1.914496 -0.64335,-0.986409 -1.129324,-2.324556 -2.481808,-2.481808 -0.846149,-0.582494 -1.90052,-0.784089 -2.836318,-1.205476 -0.961465,-0.432714 -1.789299,-0.983276 -2.623637,-1.489012 -0.246781,-0.303659 -0.505855,-0.734806 -0.709018,-1.063408 -0.128935,-0.209067 -0.489227,-0.364029 -0.354388,-0.567312 0.720224,0.307395 0.891334,1.011473 1.418158,1.489012 1.035209,0.938691 2.456502,1.294526 3.82887,1.843522 0.720228,0.288235 1.332967,0.727214 2.056322,0.921821 -0.126763,-0.351979 -0.376319,-0.698415 -0.567311,-0.921821 -0.228345,-0.267147 -0.299199,-0.488023 -0.496337,-0.779872 -0.113147,-0.167736 -0.254132,-0.288838 -0.354388,-0.425605 -0.235455,-0.320287 -0.46802,-0.611776 -0.709019,-0.9217 -0.497058,-0.638648 -0.914832,-1.374779 -1.418402,-1.843522 -0.477055,-0.444161 -1.364292,-0.625633 -1.985468,-0.921821 -0.512967,-0.244614 -1.10534,-0.409819 -1.559866,-0.850847 1.189088,0.181955 2.011136,1.108475 3.119974,1.134383 -0.794815,-1.568783 -1.884855,-2.842342 -2.978145,-4.112527 0.09061,-0.004 0.09821,-0.09098 0.21268,-0.07097 6.54e-4,0.09339 0.124114,0.06447 0.141708,0.141707 z"
         style="fill:#8eba3f;fill-rule:evenodd"
         inkscape:connector-curvature="0" />
      <path
         id="path9678"
         d="m -47.760789,-45.073442 c -0.114355,-0.02 -0.122068,0.067 -0.212683,0.07097 1.093293,1.270185 2.183329,2.543744 2.978145,4.112526 -1.108717,-0.02591 -1.930762,-0.952428 -3.119971,-1.134382 0.454523,0.440908 1.046899,0.606113 1.559863,0.850847 0.621055,0.296188 1.508413,0.47778 1.985472,0.921821 0.503569,0.468743 0.921339,1.204874 1.418398,1.843521 0.241002,0.309925 0.473564,0.601414 0.709022,0.921701 0.100253,0.136767 0.241238,0.257989 0.354388,0.425604 0.197138,0.29185 0.26811,0.512726 0.496335,0.779873 0.190992,0.223406 0.44055,0.569842 0.567313,0.921821 -0.723358,-0.194607 -1.336219,-0.633707 -2.056322,-0.921821 -1.372492,-0.548996 -2.793782,-0.90483 -3.828873,-1.843522 -0.526703,-0.47766 -0.697934,-1.181738 -1.418158,-1.489012 -0.134718,0.203404 0.225453,0.358245 0.354388,0.567312 0.203163,0.328722 0.462237,0.75987 0.709018,1.063408 0.834462,0.505736 1.662292,1.056419 2.623637,1.489012 0.935798,0.421387 1.990169,0.622982 2.836317,1.205477 1.352486,0.157251 1.838463,1.495398 2.481806,2.481807 0.432595,0.66347 0.932187,1.236927 1.20536,1.914495 -0.526467,0.123753 -1.158964,-0.25835 -1.559989,-0.496337 -1.428159,-0.396925 -2.737143,-0.363667 -3.828869,-0.9217 -0.871094,-0.445125 -1.498655,-1.304407 -2.269128,-1.914496 -0.40958,-0.324264 -0.857714,-0.529354 -1.276329,-0.780114 -0.403914,-0.241962 -0.720349,-0.63226 -1.205478,-0.709018 0.167735,0.506338 0.72601,0.735046 1.134624,0.992674 0.405239,0.25558 0.870245,0.464405 1.276208,0.780114 0.785537,0.609968 1.387672,1.509256 2.269128,1.914496 1.143539,0.525377 2.517958,0.599003 3.758136,0.992674 0.648409,0.205813 1.223431,0.55731 1.914498,0.709019 1.004965,1.26416 1.768207,2.770043 2.481805,4.325329 -0.385116,-0.06869 -0.643829,-0.37403 -0.992674,-0.496337 -0.870488,-0.304743 -1.846051,-0.43175 -2.765583,-0.709019 -0.903146,-0.272208 -1.814481,-0.543814 -2.69449,-0.779873 -1.578783,-0.423917 -3.542322,-1.03738 -4.537889,-2.3401 -0.24558,-0.321372 -0.311372,-0.741554 -0.567313,-1.134382 -0.18087,-0.277511 -0.491999,-0.44886 -0.70914,-0.709139 -0.214248,-0.257387 -0.281849,-0.619368 -0.638043,-0.779993 -0.06543,0.594062 0.601173,1.046778 0.992673,1.418158 0.43922,0.997615 0.7624,1.668917 1.559746,2.269005 1.698443,1.278379 4.767201,1.765318 7.090793,2.481808 0.776983,0.239432 1.770018,0.294621 2.3401,0.638165 0.432953,0.260881 1.08064,0.66118 1.27633,0.9217 0.197137,0.26281 0.253413,0.668531 0.425364,0.992675 0.45356,0.854944 0.929173,1.704103 1.347181,2.765463 -2.002818,-0.817709 -4.469565,-1.11209 -6.736159,-1.843642 -1.237529,-0.399215 -2.409147,-0.763726 -3.332773,-1.27621 -0.282814,-0.157132 -0.557672,-0.375115 -0.850848,-0.567311 -1.489377,-0.976769 -2.73522,-2.332388 -3.261681,-4.32533 -0.357523,0.729384 0.409095,1.516366 0.567311,2.198032 0.836749,1.087628 1.336579,1.554684 2.410835,2.268884 0.646599,0.430183 1.466117,1.030873 2.269125,1.347426 0.539718,0.212922 1.173664,0.38355 1.772428,0.567311 0.58611,0.179544 1.204632,0.418374 1.772787,0.567191 0.993158,0.260038 1.98017,0.373669 2.907292,0.567312 0.930375,0.194365 2.359379,0.649612 2.765461,1.347304 0.341497,0.586471 0.622381,1.310914 0.921701,1.98547 0.295826,0.66576 0.535863,1.374297 0.850969,2.056203 -0.260161,0.01952 -0.512243,-0.124235 -0.779993,-0.212802 -0.290525,-0.09568 -0.570324,-0.131706 -0.850847,-0.212681 -1.104981,-0.318842 -2.241411,-0.92399 -3.474483,-1.205477 -1.263917,-0.288476 -2.497231,-0.605992 -3.545454,-1.134623 -1.069676,-0.539476 -2.218879,-0.919532 -3.119976,-1.559866 -0.466089,-0.331373 -0.843857,-0.739385 -1.276451,-1.063649 -0.224128,-0.168096 -0.488746,-0.321975 -0.709019,-0.496337 -0.171231,-0.135442 -0.263652,-0.488987 -0.56731,-0.425484 0.443196,0.998579 1.658556,1.225239 2.198032,2.127177 1.634575,0.718057 3.438811,2.008004 5.743607,2.552782 1.544804,0.365234 3.187811,0.918206 4.751054,1.418158 0.74155,0.237263 1.621198,0.442113 1.985469,0.992795 0.241361,0.365114 0.218105,0.848437 0.35439,1.205356 0.2898,0.758906 0.760471,1.425992 0.921698,2.339981 -0.431145,-0.169906 -0.742755,-0.499952 -1.205354,-0.709261 -0.446573,-0.201959 -1.001832,-0.340532 -1.489134,-0.567191 -0.893624,-0.415844 -1.73471,-1.039187 -2.69449,-1.347305 -0.188218,-0.06037 -0.388732,-0.01205 -0.567189,-0.07097 -0.866633,-0.285222 -2.042105,-0.806503 -2.978265,-1.205115 -1.86485,-0.794574 -3.483639,-1.536368 -4.608864,-3.049119 -0.15436,0.353063 0.240757,0.573698 0.425363,0.780114 1.071481,1.197283 2.597366,1.857017 4.396183,2.623514 0.641417,0.273534 1.306575,0.609728 1.985469,0.850726 0.715525,0.254134 1.456114,0.401866 2.127176,0.709261 0.645638,0.295585 1.292961,0.811684 1.985472,1.063648 0.395962,0.143878 0.735168,0.202319 1.063767,0.354388 0.328363,0.151831 0.640095,0.2751 0.921701,0.496339 0.302818,0.237866 0.452474,0.609246 0.85085,0.709018 0.294015,0.793369 0.58707,1.58734 0.70926,2.5525409 -0.250641,-0.05784 -0.706009,-0.522126 -0.921945,-0.850844 -2.257072,-0.9603829 -4.613201,-1.9025689 -6.665305,-3.1198549 -0.323181,-0.191954 -0.702755,-0.423676 -0.992436,-0.638045 -0.28498,-0.210874 -0.470912,-0.603943 -0.851085,-0.638285 0.603701,0.819276 1.600471,1.388394 2.62363,1.914494 1.219335,0.626959 2.348056,1.324049 3.758141,1.914496 0.698656,0.292575 1.440209,0.466092 1.985469,0.8509689 0.613342,0.432834 0.893746,1.095821 1.276333,1.701813 0.120379,0.186774 0.007,0.607439 0.141708,0.779996 0.534774,-0.377769 0.177616,-0.923873 0.141947,-1.347309 -0.01455,-0.169902 -0.02214,-0.393066 0,-0.567311 0.09712,-0.768666 0.774447,-1.1936659 0.992552,-1.8435209 0.102305,-0.304138 0.0588,-0.660818 0.14195,-0.992673 0.249917,-0.999183 0.879043,-1.955707 1.134502,-2.978145 0.190628,-0.762762 0.243408,-1.617224 0.212679,-2.481807 -0.257505,0.927725 -0.230875,2.616164 -0.850846,3.403507 -0.05121,0.846991 -0.505493,1.29091 -0.77999,1.914737 0.0488,1.207042 -0.633347,1.683014 -0.992678,2.4815649 -0.339084,-0.6008109 -0.413192,-1.3085029 -0.638042,-1.9852269 -0.290403,-0.874103 -0.825303,-1.666268 -0.425606,-2.552782 0.137488,-0.304623 0.419821,-0.550803 0.638285,-0.850968 0.618888,-0.8494 1.258258,-1.615415 1.77267,-2.623273 0.364992,-0.715646 0.537065,-1.37273 0.709019,-2.198392 0.261124,-1.253436 0.716492,-2.444332 0.638043,-3.97082 -0.342819,0.301369 -0.201353,0.898565 -0.283656,1.418158 -0.07037,0.444885 -0.250036,0.898806 -0.354387,1.347305 -0.219913,0.944234 -0.242808,1.929438 -0.638284,2.765463 -0.170027,0.359571 -0.47477,0.779391 -0.709022,1.134503 -0.695643,1.055093 -1.577338,2.056805 -2.198151,3.190826 -0.368369,-0.543814 -0.473081,-1.263799 -0.779992,-1.98547 -0.207984,-0.488625 -0.39789,-0.941583 -0.141709,-1.701573 0.35933,-1.066902 1.412735,-1.967515 1.914498,-3.262041 0.238948,-0.616355 0.372703,-1.30983 0.638284,-1.98547 0.428857,-1.091605 0.937727,-2.034754 1.063529,-3.545336 0.149661,-1.798454 -0.0764,-3.897676 -0.638043,-5.105202 -0.07375,-0.158697 -0.09953,-0.56213 -0.425363,-0.496337 0.636718,1.396951 0.776013,2.510245 0.779873,4.325329 0.0042,1.855933 -0.404399,3.25674 -0.992678,4.608864 -0.558994,1.285248 -0.717696,2.417099 -1.41816,3.474723 -0.459463,0.693716 -1.082564,1.322482 -1.276327,2.339859 -0.311974,-0.246783 -0.360413,-0.657807 -0.49634,-0.992675 -0.271968,-0.671182 -0.594541,-1.257412 -0.921698,-1.98547 -0.434761,-0.967128 -0.309203,-1.283681 0.07097,-2.339979 0.167253,-0.464525 0.209911,-0.994 0.35439,-1.347304 0.282087,-0.688896 0.952427,-1.182341 1.27645,-1.914496 0.172195,-0.388972 0.281364,-0.948813 0.425602,-1.489012 0.234011,-0.877839 0.271726,-1.647469 0.354393,-2.694369 0.09881,-1.250664 0.678168,-2.1085 0.567311,-3.545577 -0.06375,-0.823975 -0.363668,-1.82147 -0.638287,-2.552781 -0.08917,-0.237625 -0.06146,-0.612378 -0.354388,-0.709019 0.365956,1.268739 0.747698,2.494098 0.638043,3.829112 -0.05555,0.676845 -0.312212,1.354896 -0.425363,2.056083 -0.109053,0.675279 -0.135441,1.388274 -0.21268,2.056324 -0.155928,1.346943 -0.497184,2.653759 -1.134624,3.616309 -0.205573,0.310528 -0.538631,0.53562 -0.709138,0.850967 -0.388249,0.719503 -0.372946,1.823881 -0.70902,2.481808 -0.505856,-0.257989 -0.36668,-0.730588 -0.56731,-1.205356 -0.25534,-0.60551 -0.737216,-1.333689 -1.063532,-2.056324 -0.145562,-0.321975 -0.341372,-0.717213 -0.496334,-1.063649 -0.172437,-0.385116 -0.417411,-0.843376 -0.425364,-1.063528 -0.03603,-0.992434 1.038345,-1.347907 1.134502,-2.410954 1.287898,-1.972938 1.360919,-5.603949 0.992797,-8.437856 -0.128815,-0.990747 -0.661907,-1.714707 -0.992797,-2.410833 -0.04242,0.789031 0.511399,1.583845 0.638043,2.410833 0.09508,0.619368 0.0576,1.085821 0.07098,1.772668 0.0097,0.503447 0.140984,0.971828 0.141709,1.418279 0.0026,1.411652 -0.353791,2.945128 -0.709022,4.112527 -0.37728,1.240301 -1.117147,2.200321 -1.489009,3.119973 -0.524295,-0.497663 -0.748906,-1.230179 -1.134502,-1.843522 -0.381626,-0.607438 -0.822773,-1.245483 -1.063771,-1.914496 -0.106162,-0.294862 -0.118452,-1.040875 0,-1.631081 0.227261,-1.132213 0.830121,-2.103198 0.92194,-3.332534 0.12303,-1.64675 -0.138938,-3.141787 -0.425604,-4.46716 -0.129176,-0.597196 -0.09965,-1.449368 -0.709138,-1.843522 0.354024,0.630333 0.404396,1.293321 0.496334,2.268885 0.04965,0.527065 0.299564,1.043766 0.354752,1.559986 0.105076,0.986168 -0.01276,2.60544 -0.212921,3.545456 -0.04832,0.226901 -0.216059,0.464888 -0.283655,0.70914 -0.07664,0.276667 -0.06315,0.60081 -0.14195,0.850847 -0.15629,0.496578 -0.441995,1.04702 -0.425364,1.701814 -0.535258,-0.501399 -0.801202,-1.238976 -1.205476,-1.843522 -0.414517,-0.62009 -0.828796,-1.214273 -1.276452,-1.772788 -0.07676,-0.772884 -0.353788,-1.461418 -0.283655,-2.481807 0.04687,-0.68022 0.235216,-1.315011 0.21292,-1.98547 -0.01555,-0.458621 -0.15484,-0.94556 -0.21292,-1.418159 -0.09411,-0.768907 0.113029,-1.56336 -0.425364,-1.985469 0.04687,1.173424 0.404398,2.320096 0.425364,3.474481 0.02135,1.169327 -0.46103,2.287081 -0.212802,3.474483 -0.553935,-0.330892 -0.78132,-0.972311 -1.205357,-1.559987 -0.346678,-0.480431 -1.189812,-1.156433 -1.276451,-1.772788 -0.127851,-0.912302 0.123634,-1.930281 0,-2.836196 -0.110378,-0.811203 -0.360776,-1.506846 -0.779873,-2.127057 -0.169543,0.285584 0.09242,0.842773 0.212801,1.276089 0.277513,1.000026 0.436331,2.063795 0.212684,3.261801 -0.447658,-0.386683 -0.791924,-1.076422 -1.205358,-1.701694 -0.6078,-0.919049 -1.394421,-2.05319 -2.198152,-2.836196 -0.01761,-0.07724 -0.141106,-0.04832 -0.141947,-0.141948 z"
         style="fill:#316004;fill-opacity:1;fill-rule:evenodd;stroke:#316004;stroke-width:0.30000001;stroke-miterlimit:4;stroke-dasharray:none"
         inkscape:connector-curvature="0" />
    </g>
  </g>
</svg>
