<?xml version="1.0" encoding="UTF-8" standalone="no"?>
<!-- Created with Inkscape (http://www.inkscape.org/) -->
<svg
   xmlns:dc="http://purl.org/dc/elements/1.1/"
   xmlns:cc="http://creativecommons.org/ns#"
   xmlns:rdf="http://www.w3.org/1999/02/22-rdf-syntax-ns#"
   xmlns:svg="http://www.w3.org/2000/svg"
   xmlns="http://www.w3.org/2000/svg"
   xmlns:xlink="http://www.w3.org/1999/xlink"
   xmlns:sodipodi="http://sodipodi.sourceforge.net/DTD/sodipodi-0.dtd"
   xmlns:inkscape="http://www.inkscape.org/namespaces/inkscape"
   version="1.0"
   width="48"
   height="48"
   id="svg2"
   sodipodi:version="0.32"
   inkscape:version="0.46"
   sodipodi:docname="mushroom.svg"
   inkscape:output_extension="org.inkscape.output.svg.inkscape"
   inkscape:export-filename="/home/rugby471/Desktop/mushroom.png"
   inkscape:export-xdpi="90"
   inkscape:export-ydpi="90">
  <metadata
     id="metadata4687">
    <rdf:RDF>
      <cc:Work
         rdf:about="">
        <dc:format>image/svg+xml</dc:format>
        <dc:type
           rdf:resource="http://purl.org/dc/dcmitype/StillImage" />
        <dc:title>Tango Style 'Shroom</dc:title>
        <dc:creator>
          <cc:Agent>
            <dc:title>Andrew Higginson</dc:title>
          </cc:Agent>
        </dc:creator>
        <cc:license
           rdf:resource="http://creativecommons.org/licenses/by-sa/3.0/" />
      </cc:Work>
      <cc:License
         rdf:about="http://creativecommons.org/licenses/by-sa/3.0/">
        <cc:permits
           rdf:resource="http://creativecommons.org/ns#Reproduction" />
        <cc:permits
           rdf:resource="http://creativecommons.org/ns#Distribution" />
        <cc:requires
           rdf:resource="http://creativecommons.org/ns#Notice" />
        <cc:requires
           rdf:resource="http://creativecommons.org/ns#Attribution" />
        <cc:permits
           rdf:resource="http://creativecommons.org/ns#DerivativeWorks" />
        <cc:requires
           rdf:resource="http://creativecommons.org/ns#ShareAlike" />
      </cc:License>
    </rdf:RDF>
  </metadata>
  <sodipodi:namedview
     inkscape:window-height="480"
     inkscape:window-width="640"
     inkscape:pageshadow="2"
     inkscape:pageopacity="0.0"
     guidetolerance="10.0"
     gridtolerance="10.0"
     objecttolerance="10.0"
     borderopacity="1.0"
     bordercolor="#666666"
     pagecolor="#ffffff"
     id="base"
     showgrid="false"
     inkscape:zoom="5.0030156"
     inkscape:cx="38.780879"
     inkscape:cy="21.531342"
     inkscape:current-layer="svg2" />
  <defs
     id="defs4">
    <inkscape:perspective
       sodipodi:type="inkscape:persp3d"
       inkscape:vp_x="0 : 197.4809 : 1"
       inkscape:vp_y="0 : 1000 : 0"
       inkscape:vp_z="425.03644 : 197.4809 : 1"
       inkscape:persp3d-origin="212.51822 : 131.65393 : 1"
       id="perspective4689" />
    <linearGradient
       id="linearGradient3381">
      <stop
         id="stop3383"
         style="stop-color: rgb(211, 211, 211); stop-opacity: 1;"
         offset="0" />
      <stop
         id="stop3385"
         style="stop-color: rgb(117, 117, 117); stop-opacity: 1;"
         offset="1" />
    </linearGradient>
    <linearGradient
       id="linearGradient3314">
      <stop
         id="stop3316"
         style="stop-color: rgb(120, 68, 33); stop-opacity: 1;"
         offset="0" />
      <stop
         id="stop3318"
         style="stop-color: rgb(77, 44, 21); stop-opacity: 1;"
         offset="1" />
    </linearGradient>
    <linearGradient
       id="linearGradient3260">
      <stop
         id="stop3262"
         style="stop-color:#ef2929;stop-opacity:1;"
         offset="0" />
      <stop
         id="stop3264"
         style="stop-color:#cc0000;stop-opacity:1;"
         offset="1" />
    </linearGradient>
    <linearGradient
       id="linearGradient3250">
      <stop
         id="stop3252"
         style="stop-color: rgb(118, 112, 90); stop-opacity: 1;"
         offset="0" />
      <stop
         id="stop3254"
         style="stop-color: rgb(200, 196, 183); stop-opacity: 0;"
         offset="1" />
    </linearGradient>
    <linearGradient
       id="linearGradient3218">
      <stop
         id="stop3220"
         style="stop-color: rgb(0, 0, 0); stop-opacity: 1;"
         offset="0" />
      <stop
         id="stop3222"
         style="stop-color: rgb(0, 0, 0); stop-opacity: 0;"
         offset="1" />
    </linearGradient>
    <linearGradient
       id="linearGradient3194">
      <stop
         id="stop3196"
         style="stop-color: rgb(172, 167, 147); stop-opacity: 1;"
         offset="0" />
      <stop
         id="stop3198"
         style="stop-color: rgb(172, 167, 147); stop-opacity: 0;"
         offset="1" />
    </linearGradient>
    <linearGradient
       x1="356.49265"
       y1="633.76166"
       x2="400.55402"
       y2="632.59076"
       id="linearGradient3200"
       xlink:href="#linearGradient3194"
       gradientUnits="userSpaceOnUse" />
    <linearGradient
       x1="447"
       y1="600.11218"
       x2="467.01007"
       y2="600.11218"
       id="linearGradient3238"
       xlink:href="#linearGradient3250"
       gradientUnits="userSpaceOnUse" />
    <linearGradient
       x1="500.1911"
       y1="634.13623"
       x2="437.5"
       y2="651.36218"
       id="linearGradient3258"
       xlink:href="#linearGradient3250"
       gradientUnits="userSpaceOnUse" />
    <radialGradient
       cx="276.81726"
       cy="314.04971"
       r="212.51822"
       fx="276.81726"
       fy="314.04971"
       id="radialGradient3268"
       xlink:href="#linearGradient3260"
       gradientUnits="userSpaceOnUse"
       gradientTransform="matrix(0,0.881223,-1.82335,0,869.217,136.145)" />
    <linearGradient
       x1="402.24475"
       y1="659.02386"
       x2="339.53275"
       y2="721.73584"
       id="linearGradient3320"
       xlink:href="#linearGradient3314"
       gradientUnits="userSpaceOnUse" />
    <linearGradient
       x1="397.94601"
       y1="654.96045"
       x2="347.55688"
       y2="705.34955"
       id="linearGradient3328"
       xlink:href="#linearGradient3314"
       gradientUnits="userSpaceOnUse" />
    <radialGradient
       cx="397.00232"
       cy="684.27368"
       r="12.253048"
       fx="397.00232"
       fy="684.27368"
       id="radialGradient3338"
       xlink:href="#linearGradient3314"
       gradientUnits="userSpaceOnUse"
       gradientTransform="matrix(0.983276,0,1.18645e-6,1,7.02466,-1.9125e-6)" />
    <radialGradient
       cx="436.7251"
       cy="537.52686"
       r="212.51822"
       fx="436.7251"
       fy="537.52686"
       id="radialGradient3340"
       xlink:href="#linearGradient3218"
       gradientUnits="userSpaceOnUse"
       gradientTransform="matrix(1.22787e-7,0.178724,-0.995621,6.84013e-7,909.94,480.925)" />
    <linearGradient
       x1="228.16414"
       y1="607.72748"
       x2="299.36841"
       y2="626.80658"
       id="linearGradient3342"
       xlink:href="#linearGradient3250"
       gradientUnits="userSpaceOnUse" />
    <linearGradient
       x1="225.29135"
       y1="383.70978"
       x2="263.27386"
       y2="378.70978"
       id="linearGradient3387"
       xlink:href="#linearGradient3381"
       gradientUnits="userSpaceOnUse" />
    <linearGradient
       x1="226.09561"
       y1="441.87811"
       x2="357.44601"
       y2="441.87811"
       id="linearGradient3413"
       xlink:href="#linearGradient3218"
       gradientUnits="userSpaceOnUse" />
    <filter
       id="filter3415">
      <feGaussianBlur
         id="feGaussianBlur3417"
         stdDeviation="1.9184293"
         inkscape:collect="always" />
    </filter>
    <linearGradient
       x1="225.29135"
       y1="383.70978"
       x2="263.27386"
       y2="378.70978"
       id="linearGradient3508"
       xlink:href="#linearGradient3381"
       gradientUnits="userSpaceOnUse" />
    <linearGradient
       x1="17"
       y1="-50.403683"
       x2="50.519222"
       y2="-48.038208"
       id="linearGradient3518"
       xlink:href="#linearGradient3381"
       gradientUnits="userSpaceOnUse"
       gradientTransform="translate(205.808,355.416)" />
    <linearGradient
       x1="17"
       y1="-50.403683"
       x2="50.519222"
       y2="-48.038208"
       id="linearGradient3522"
       xlink:href="#linearGradient3381"
       gradientUnits="userSpaceOnUse"
       gradientTransform="matrix(0.997115,7.59111e-2,-7.59111e-2,0.997115,201.385,352.471)" />
    <radialGradient
       inkscape:collect="always"
       xlink:href="#linearGradient3260"
       id="radialGradient4719"
       gradientUnits="userSpaceOnUse"
       gradientTransform="matrix(0,0.881223,-1.82335,0,707.909,-204.771)"
       cx="276.81726"
       cy="314.04971"
       fx="276.81726"
       fy="314.04971"
       r="212.51822" />
    <radialGradient
       inkscape:collect="always"
       xlink:href="#linearGradient3218"
       id="radialGradient4722"
       gradientUnits="userSpaceOnUse"
       gradientTransform="matrix(1.22787e-7,0.178724,-0.995621,6.84013e-7,748.632,140.009)"
       cx="436.7251"
       cy="537.52686"
       fx="436.7251"
       fy="537.52686"
       r="212.51822" />
    <radialGradient
       inkscape:collect="always"
       xlink:href="#linearGradient3260"
       id="radialGradient5260"
       gradientUnits="userSpaceOnUse"
       gradientTransform="matrix(0,0.881223,-1.82335,0,707.909,-204.771)"
       cx="276.81726"
       cy="314.04971"
       fx="276.81726"
       fy="314.04971"
       r="212.51822" />
    <radialGradient
       inkscape:collect="always"
       xlink:href="#linearGradient3260"
       id="radialGradient5263"
       gradientUnits="userSpaceOnUse"
       gradientTransform="matrix(0,0.881223,-1.82335,0,707.909,-204.771)"
       cx="276.81726"
       cy="314.04971"
       fx="276.81726"
       fy="314.04971"
       r="212.51822" />
    <radialGradient
       inkscape:collect="always"
       xlink:href="#linearGradient3218"
       id="radialGradient5272"
       gradientUnits="userSpaceOnUse"
       gradientTransform="matrix(1.22787e-7,0.178724,-0.995621,6.84013e-7,748.632,140.009)"
       cx="436.7251"
       cy="537.52686"
       fx="436.7251"
       fy="537.52686"
       r="212.51822" />
    <radialGradient
       inkscape:collect="always"
       xlink:href="#linearGradient3260"
       id="radialGradient5286"
       gradientUnits="userSpaceOnUse"
       gradientTransform="matrix(0,0.881223,-1.82335,0,707.909,-204.771)"
       cx="276.81726"
       cy="314.04971"
       fx="276.81726"
       fy="314.04971"
       r="212.51822" />
    <radialGradient
       inkscape:collect="always"
       xlink:href="#linearGradient3218"
       id="radialGradient5305"
       gradientUnits="userSpaceOnUse"
       gradientTransform="matrix(1.22787e-7,0.178724,-0.995621,6.84013e-7,748.632,140.009)"
       cx="436.7251"
       cy="537.52686"
       fx="436.7251"
       fy="537.52686"
       r="212.51822" />
    <radialGradient
       inkscape:collect="always"
       xlink:href="#linearGradient3260"
       id="radialGradient5307"
       gradientUnits="userSpaceOnUse"
       gradientTransform="matrix(0,0.881223,-1.82335,0,707.909,-204.771)"
       cx="276.81726"
       cy="314.04971"
       fx="276.81726"
       fy="314.04971"
       r="212.51822" />
  </defs>
  <g
     id="g5288"
     transform="matrix(0.1191224,0,0,0.1191224,-1.4306797,0.5983416)">
    <g
       transform="matrix(0.5561179,0,0,1,94.333191,0)"
       id="g5267">
      <path
         style="fill:#eeeeec;fill-opacity:1;fill-rule:evenodd;stroke:#2e3436;stroke-width:12;stroke-linecap:butt;stroke-linejoin:round;stroke-miterlimit:4;stroke-dasharray:none;stroke-opacity:1"
         id="path3284"
         d="M 357.30937,339.46468 C 332.31429,287.57239 324.68971,243.5222 335.65111,223.54059 C 346.34609,204.04464 399.40546,229.01949 419.15716,196.80675 C 438.62758,165.05275 387.49541,2.95653 204.61791,2.00424 C 24.25842,1.06506 -9.71082,169.06068 5.08734,197.75583 C 19.63005,225.95563 68.80993,204.99052 88.60372,220.0734 C 108.3975,235.15629 93.71562,303.60115 73.26822,343.88413 C 53.07448,383.66737 148.67313,393.8462 220.30776,392.90352 C 291.9424,391.96085 381.57646,389.84556 357.30937,339.46468 z" />
      <path
         style="fill:none;fill-opacity:1;fill-rule:evenodd;stroke:#ffffff;stroke-width:12;stroke-linecap:butt;stroke-linejoin:miter;stroke-miterlimit:4;stroke-opacity:1"
         d="M 319.09375,237.97598 C 234.53834,245.87996 174.65282,243.85048 110.09375,241.60098 C 111.13608,271.07774 100.17892,316.55043 84.78125,349.28125 C 83.311208,352.40612 83.39338,353.84867 83.625,354.90625 C 83.85662,355.96383 84.45461,357.27004 86.65625,359.25 C 91.05953,363.20992 101.74293,368.11413 115.8125,371.53125 C 143.95164,378.36549 184.97982,380.68166 220.15625,380.21875 C 255.91836,379.74814 295.91828,378.70679 321.75,372.375 C 334.66586,369.2091 343.41037,364.43428 346.46875,360.78125 C 349.52713,357.12822 350.59997,354.77827 345.875,344.96875 C 345.84338,344.91689 345.81213,344.86481 345.78125,344.8125 C 326.81089,303.79266 318.50922,266.02178 319.09375,237.97598 z"
         id="path5246"
         sodipodi:nodetypes="ccsssssssccc" />
      <path
         style="opacity:0.55128204;fill:url(#radialGradient5305);fill-opacity:1;fill-rule:evenodd;stroke:none;stroke-width:4;stroke-linecap:butt;stroke-linejoin:round;stroke-miterlimit:4;stroke-dasharray:none;stroke-opacity:1"
         id="path2383"
         d="M 357.30937,285.90674 C 332.31429,234.01445 324.68971,243.5222 335.65111,223.54059 C 346.34609,204.04464 399.40546,229.01949 419.15716,196.80675 C 438.62758,165.05275 387.49541,2.95653 204.61791,2.00424 C 24.25842,1.06506 -9.71082,169.06068 5.08734,197.75583 C 19.63005,225.95563 68.80993,204.99052 88.60372,220.0734 C 108.3975,235.15629 93.71562,250.04321 73.26822,290.32619 C 53.07448,330.10943 144.15037,305.2369 215.785,304.29422 C 287.41964,303.35155 381.57646,336.28762 357.30937,285.90674 z"
         sodipodi:nodetypes="csssssssc" />
    </g>
    <g
       transform="matrix(0.8892216,0,0,1,23.542461,0)"
       id="g5274">
      <path
         style="fill:url(#radialGradient5307);fill-opacity:1;fill-rule:evenodd;stroke:#780000;stroke-width:12;stroke-linecap:butt;stroke-linejoin:round;stroke-miterlimit:4;stroke-dasharray:none;stroke-opacity:1"
         id="path2387"
         d="M 303.54551,227.31772 C 343.85843,222.49375 399.40546,229.01949 419.15716,196.80675 C 438.62758,165.05275 387.49541,2.95653 204.61791,2.00424 C 24.25842,1.06506 -9.71082,169.06068 5.08734,197.75583 C 19.63005,225.95563 79.97133,227.94803 116.93219,229.51622 C 153.86104,231.08306 263.85315,232.06743 303.54551,227.31772 z" />
      <path
         style="fill:#ffffff;fill-opacity:1;fill-rule:nonzero;stroke:none;stroke-width:4;stroke-linecap:butt;stroke-linejoin:round;stroke-miterlimit:4;stroke-dasharray:none;stroke-opacity:1"
         id="path3272"
         d="M 72.617135,124.50024 C 67.842233,139.17389 56.741026,148.71825 47.826244,145.81442 C 38.911461,142.91058 35.56138,128.65897 40.344934,113.98813 C 45.119835,99.314482 56.221042,89.77012 65.135825,92.673955 C 74.050607,95.577791 77.400689,109.82941 72.617135,124.50024 L 72.617135,124.50024 z" />
      <path
         style="fill:#ffffff;fill-opacity:1;fill-rule:nonzero;stroke:none;stroke-width:4;stroke-linecap:butt;stroke-linejoin:round;stroke-miterlimit:4;stroke-dasharray:none;stroke-opacity:1"
         id="path3274"
         d="M 145.63855,80.870526 C 136.18635,91.328847 121.38151,93.559127 112.57682,85.851113 C 103.77213,78.143099 104.30414,63.41776 113.76489,52.966921 C 123.21709,42.5086 138.02192,40.27832 146.82662,47.986334 C 155.63131,55.694348 155.0993,70.419687 145.63855,80.870526 L 145.63855,80.870526 z" />
      <path
         style="fill:#ffffff;fill-opacity:1;fill-rule:nonzero;stroke:none;stroke-width:4;stroke-linecap:butt;stroke-linejoin:round;stroke-miterlimit:4;stroke-dasharray:none;stroke-opacity:1"
         id="path3276"
         d="M 282.76254,129.10723 C 288.23572,143.48776 277.94002,157.38299 259.77047,160.13766 C 241.60092,162.89233 222.44291,153.46254 216.98737,139.07934 C 211.51419,124.69881 221.80989,110.80357 239.97944,108.04891 C 258.14899,105.29424 277.307,114.72403 282.76254,129.10723 L 282.76254,129.10723 z" />
      <path
         style="fill:#ffffff;fill-opacity:1;fill-rule:nonzero;stroke:none;stroke-width:4;stroke-linecap:butt;stroke-linejoin:round;stroke-miterlimit:4;stroke-dasharray:none;stroke-opacity:1"
         id="path3278"
         d="M 306.81263,38.724345 C 318.01599,47.542747 317.74863,55.773255 306.21555,57.104468 C 294.68248,58.435682 276.25417,52.363135 265.062,43.543441 C 253.85863,34.725039 254.12599,26.494532 265.65907,25.163318 C 277.19215,23.832104 295.62046,29.904651 306.81263,38.724345 L 306.81263,38.724345 z" />
      <path
         style="fill:#ffffff;fill-opacity:1;fill-rule:nonzero;stroke:none;stroke-width:4;stroke-linecap:butt;stroke-linejoin:round;stroke-miterlimit:4;stroke-dasharray:none;stroke-opacity:1"
         id="path3280"
         d="M 374.03383,167.8066 C 369.39053,181.58678 357.94982,185.18336 348.48476,175.83838 C 339.0197,166.4934 335.11711,147.74815 339.76959,133.97705 C 344.4129,120.19687 355.85361,116.60029 365.31867,125.94527 C 374.78373,135.29025 378.68632,154.0355 374.03383,167.8066 L 374.03383,167.8066 z" />
      <path
         style="fill:#ffffff;fill-opacity:1;fill-rule:nonzero;stroke:none;stroke-width:4;stroke-linecap:butt;stroke-linejoin:round;stroke-miterlimit:4;stroke-dasharray:none;stroke-opacity:1"
         id="path3282"
         d="M 167.41983,169.44296 C 173.6889,185.0436 166.88896,202.76543 152.2344,209.01882 C 137.57984,215.27222 120.62403,207.68744 114.36918,192.08073 C 108.1001,176.4801 114.90004,158.75827 129.5546,152.50487 C 144.20916,146.25147 161.16498,153.83625 167.41983,169.44296 L 167.41983,169.44296 z" />
      <path
         style="fill:#ffffff;fill-opacity:1;fill-rule:nonzero;stroke:none;stroke-width:4;stroke-linecap:butt;stroke-linejoin:round;stroke-miterlimit:4;stroke-dasharray:none;stroke-opacity:1"
         id="path3288"
         d="M 213.40405,73.158806 C 211.8638,79.698668 204.77884,84.58201 197.58214,84.064135 C 190.38543,83.546261 185.80418,77.823421 187.35143,71.284061 C 188.89168,64.744198 195.97664,59.860857 203.17334,60.378731 C 210.37005,60.896606 214.95129,66.619445 213.40405,73.158806 L 213.40405,73.158806 z" />
      <path
         style="fill:#ffffff;fill-opacity:1;fill-rule:nonzero;stroke:none;stroke-width:4;stroke-linecap:butt;stroke-linejoin:round;stroke-miterlimit:4;stroke-dasharray:none;stroke-opacity:1"
         id="path3290"
         d="M 331.06911,87.891332 C 331.92546,94.184205 328.14649,97.810945 322.63002,95.990455 C 317.11355,94.169966 311.95007,87.592125 311.09907,81.301018 C 310.24272,75.008145 314.0217,71.381405 319.53816,73.201895 C 325.05463,75.022385 330.21812,81.600225 331.06911,87.891332 L 331.06911,87.891332 z" />
      <path
         sodipodi:type="inkscape:offset"
         inkscape:radius="-12.624071"
         inkscape:original="M 204.625 2 C 24.265515 1.06082 -9.70441 169.05485 5.09375 197.75 C 19.63646 225.9498 79.97664 227.96306 116.9375 229.53125 C 153.86635 231.09809 263.83889 232.06221 303.53125 227.3125 C 343.84418 222.48853 399.40455 229.02524 419.15625 196.8125 C 438.62666 165.0585 387.5025 2.95229 204.625 2 z "
         style="opacity:0.66239313;fill:none;fill-opacity:1;fill-rule:evenodd;stroke:#ffffff;stroke-width:12;stroke-linecap:butt;stroke-linejoin:round;stroke-miterlimit:4;stroke-dasharray:none;stroke-opacity:1"
         id="path5251"
         d="M 204.5625,14.625 C 118.30625,14.175841 69.604334,53.07901 42.3125,95.59375 C 28.666583,116.85112 20.681329,139.1323 17.0625,157.375 C 13.443671,175.6177 15.814651,191.00337 16.3125,191.96875 C 20.379977,199.856 34.941425,207.30697 55.03125,211.25 C 75.121075,215.19303 98.926225,216.11952 117.46875,216.90625 C 153.55622,218.43739 265.27039,219.18017 302.03125,214.78125 C 323.535,212.20804 347.35967,212.63684 367.3125,209.84375 C 387.26533,207.05066 401.48657,201.50394 408.40625,190.21875 C 409.48496,188.4595 411.78884,174.08755 407.3125,156.15625 C 402.83616,138.22495 393.23925,116.34263 377.65625,95.40625 C 346.49025,53.533482 292.27745,15.081754 204.5625,14.625 z" />
    </g>
  </g>
</svg>
