<?xml version="1.0" encoding="UTF-8" standalone="no"?>
<!-- Created with Inkscape (http://www.inkscape.org/) -->

<svg
   xmlns:dc="http://purl.org/dc/elements/1.1/"
   xmlns:cc="http://creativecommons.org/ns#"
   xmlns:rdf="http://www.w3.org/1999/02/22-rdf-syntax-ns#"
   xmlns:svg="http://www.w3.org/2000/svg"
   xmlns="http://www.w3.org/2000/svg"
   xmlns:xlink="http://www.w3.org/1999/xlink"
   xmlns:sodipodi="http://sodipodi.sourceforge.net/DTD/sodipodi-0.dtd"
   xmlns:inkscape="http://www.inkscape.org/namespaces/inkscape"
   id="svg2"
   version="1.1"
   inkscape:version="0.48.0 r9654"
   width="48"
   height="48"
   sodipodi:docname="Spaceinvaders.svg"
   inkscape:export-filename="G:\Документы\Иконки\SpaceInvaders\Spaceinvaders_noble.png"
   inkscape:export-xdpi="90"
   inkscape:export-ydpi="90">
  <metadata
     id="metadata8">
    <rdf:RDF>
      <cc:Work
         rdf:about="">
        <dc:format>image/svg+xml</dc:format>
        <dc:type
           rdf:resource="http://purl.org/dc/dcmitype/StillImage" />
        <dc:title></dc:title>
      </cc:Work>
    </rdf:RDF>
  </metadata>
  <defs
     id="defs6">
    <linearGradient
       inkscape:collect="always"
       id="linearGradient8967">
      <stop
         style="stop-color:#75507b;stop-opacity:1"
         offset="0"
         id="stop8969" />
      <stop
         style="stop-color:#ad7fa8;stop-opacity:1"
         offset="1"
         id="stop8971" />
    </linearGradient>
    <linearGradient
       inkscape:collect="always"
       id="linearGradient8934">
      <stop
         style="stop-color:#c22f2f;stop-opacity:1"
         offset="0"
         id="stop8936" />
      <stop
         style="stop-color:#df5757;stop-opacity:1"
         offset="1"
         id="stop8938" />
    </linearGradient>
    <linearGradient
       inkscape:collect="always"
       id="linearGradient8573">
      <stop
         style="stop-color:#eeeeec;stop-opacity:0.54263566"
         offset="0"
         id="stop8575" />
      <stop
         style="stop-color:#eeeeec;stop-opacity:0"
         offset="1"
         id="stop8577" />
    </linearGradient>
    <linearGradient
       inkscape:collect="always"
       id="linearGradient8557">
      <stop
         style="stop-color:#709937;stop-opacity:1"
         offset="0"
         id="stop8559" />
      <stop
         style="stop-color:#98bf60;stop-opacity:1"
         offset="1"
         id="stop8561" />
    </linearGradient>
    <linearGradient
       inkscape:collect="always"
       xlink:href="#linearGradient8557"
       id="linearGradient8563"
       x1="21.475767"
       y1="39.263454"
       x2="12.382098"
       y2="6.6481557"
       gradientUnits="userSpaceOnUse"
       gradientTransform="translate(-59.5,-0.5000021)" />
    <linearGradient
       inkscape:collect="always"
       xlink:href="#linearGradient8573"
       id="linearGradient8579"
       x1="13.72532"
       y1="0.37258312"
       x2="34.716621"
       y2="88.672546"
       gradientUnits="userSpaceOnUse"
       gradientTransform="translate(-59.5,-0.5000021)" />
    <radialGradient
       inkscape:collect="always"
       xlink:href="#linearGradient3688"
       id="radialGradient2094"
       gradientUnits="userSpaceOnUse"
       gradientTransform="matrix(2.003784,0,0,1.4,27.98813,-17.4)"
       cx="4.9929786"
       cy="43.5"
       fx="4.9929786"
       fy="43.5"
       r="2.5" />
    <linearGradient
       inkscape:collect="always"
       id="linearGradient3688">
      <stop
         style="stop-color:black;stop-opacity:1;"
         offset="0"
         id="stop3690" />
      <stop
         style="stop-color:black;stop-opacity:0;"
         offset="1"
         id="stop3692" />
    </linearGradient>
    <radialGradient
       inkscape:collect="always"
       xlink:href="#linearGradient3688"
       id="radialGradient2096"
       gradientUnits="userSpaceOnUse"
       gradientTransform="matrix(2.003784,0,0,1.4,-20.01187,-104.4)"
       cx="4.9929786"
       cy="43.5"
       fx="4.9929786"
       fy="43.5"
       r="2.5" />
    <linearGradient
       inkscape:collect="always"
       xlink:href="#linearGradient3702"
       id="linearGradient2098"
       gradientUnits="userSpaceOnUse"
       x1="25.058096"
       y1="47.027729"
       x2="25.058096"
       y2="39.999443" />
    <linearGradient
       id="linearGradient3702">
      <stop
         style="stop-color:black;stop-opacity:0;"
         offset="0"
         id="stop3704" />
      <stop
         id="stop3710"
         offset="0.5"
         style="stop-color:black;stop-opacity:1;" />
      <stop
         style="stop-color:black;stop-opacity:0;"
         offset="1"
         id="stop3706" />
    </linearGradient>
    <linearGradient
       inkscape:collect="always"
       xlink:href="#linearGradient8934"
       id="linearGradient8940"
       x1="30"
       y1="39"
       x2="19"
       y2="6"
       gradientUnits="userSpaceOnUse"
       gradientTransform="translate(-120,0)" />
    <linearGradient
       inkscape:collect="always"
       xlink:href="#linearGradient8573"
       id="linearGradient8950"
       x1="40"
       y1="65"
       x2="16"
       y2="2"
       gradientUnits="userSpaceOnUse"
       gradientTransform="translate(-120,0)" />
    <linearGradient
       inkscape:collect="always"
       xlink:href="#linearGradient8967"
       id="linearGradient8973"
       x1="29"
       y1="39"
       x2="19"
       y2="2"
       gradientUnits="userSpaceOnUse" />
    <linearGradient
       inkscape:collect="always"
       xlink:href="#linearGradient8573"
       id="linearGradient8076"
       x1="17.093966"
       y1="-8.2369003"
       x2="39.829704"
       y2="63.1381"
       gradientUnits="userSpaceOnUse" />
    <radialGradient
       inkscape:collect="always"
       xlink:href="#linearGradient3688"
       id="radialGradient8090"
       gradientUnits="userSpaceOnUse"
       gradientTransform="matrix(2.003784,0,0,1.4,27.98813,-17.4)"
       cx="4.9929786"
       cy="43.5"
       fx="4.9929786"
       fy="43.5"
       r="2.5" />
    <radialGradient
       inkscape:collect="always"
       xlink:href="#linearGradient3688"
       id="radialGradient8092"
       gradientUnits="userSpaceOnUse"
       gradientTransform="matrix(2.003784,0,0,1.4,-20.01187,-104.4)"
       cx="4.9929786"
       cy="43.5"
       fx="4.9929786"
       fy="43.5"
       r="2.5" />
    <linearGradient
       inkscape:collect="always"
       xlink:href="#linearGradient3702"
       id="linearGradient8094"
       gradientUnits="userSpaceOnUse"
       x1="25.058096"
       y1="47.027729"
       x2="25.058096"
       y2="39.999443" />
    <radialGradient
       inkscape:collect="always"
       xlink:href="#linearGradient3688"
       id="radialGradient8108"
       gradientUnits="userSpaceOnUse"
       gradientTransform="matrix(2.003784,0,0,1.4,27.98813,-17.4)"
       cx="4.9929786"
       cy="43.5"
       fx="4.9929786"
       fy="43.5"
       r="2.5" />
    <radialGradient
       inkscape:collect="always"
       xlink:href="#linearGradient3688"
       id="radialGradient8110"
       gradientUnits="userSpaceOnUse"
       gradientTransform="matrix(2.003784,0,0,1.4,-20.01187,-104.4)"
       cx="4.9929786"
       cy="43.5"
       fx="4.9929786"
       fy="43.5"
       r="2.5" />
    <linearGradient
       inkscape:collect="always"
       xlink:href="#linearGradient3702"
       id="linearGradient8112"
       gradientUnits="userSpaceOnUse"
       x1="25.058096"
       y1="47.027729"
       x2="25.058096"
       y2="39.999443" />
  </defs>
  <sodipodi:namedview
     pagecolor="#ffffff"
     bordercolor="#666666"
     borderopacity="1"
     objecttolerance="10"
     gridtolerance="10"
     guidetolerance="10"
     inkscape:pageopacity="0"
     inkscape:pageshadow="2"
     inkscape:window-width="1378"
     inkscape:window-height="849"
     id="namedview4"
     showgrid="false"
     inkscape:showpageshadow="false"
     inkscape:zoom="1"
     inkscape:cx="-170.21757"
     inkscape:cy="-11.09246"
     inkscape:window-x="57"
     inkscape:window-y="22"
     inkscape:window-maximized="0"
     inkscape:current-layer="svg2">
    <inkscape:grid
       type="xygrid"
       id="grid8128"
       empspacing="5"
       visible="true"
       enabled="true"
       snapvisiblegridlinesonly="true" />
  </sodipodi:namedview>
  <g
     id="g2043"
     inkscape:label="Shadow"
     transform="matrix(1.0999996,0,0,0.666665,-2.4,10.562756)"
     style="opacity:0.19767444">
    <g
       style="display:inline"
       id="g2036"
       inkscape:label="Shadow">
      <g
         id="g3712"
         style="opacity:0.4"
         transform="matrix(1.052632,0,0,1.285713,-1.263158,-13.42854)">
        <rect
           y="40"
           x="38"
           height="7"
           width="5"
           id="rect2801"
           style="fill:url(#radialGradient2094);fill-opacity:1;stroke:none" />
        <rect
           transform="scale(-1,-1)"
           y="-47"
           x="-10"
           height="7"
           width="5"
           id="rect3696"
           style="fill:url(#radialGradient2096);fill-opacity:1;stroke:none" />
        <rect
           y="40"
           x="10"
           height="7.0000005"
           width="28"
           id="rect3700"
           style="fill:url(#linearGradient2098);fill-opacity:1;stroke:none" />
      </g>
    </g>
  </g>
  <path
     style="fill:url(#linearGradient8973);fill-opacity:1;stroke:#5c3566;stroke-width:1;stroke-linecap:butt;stroke-linejoin:round;stroke-miterlimit:4;stroke-opacity:1;stroke-dasharray:none"
     d="m 19.55448,4.5378494 0,3.9613869 -5.01038,0 0,4.0092297 -4.01963,0 0,4.001829 -4.05551,0 0,10.01105 8.07514,0 0,3.961393 4.97913,0 0,-3.961393 9.98944,0 0,3.961393 -9.98944,0 0,4.049665 -4.97913,0 0,-4.049665 -4.01963,0 0,4.049665 4.01963,0 0,3.924659 4.97913,0 0,-3.924659 9.98944,0 0,3.924659 5.01505,0 0,-3.924659 -5.01505,0 0,-4.049665 5.01505,0 0,-3.961393 7.98949,0 0,-10.01105 -4.01959,0 0,-4.001829 -3.93865,0 0,-4.0092297 -5.0463,0 0,-3.9613971 -9.95819,0 z m -9.03001,29.9945536 -4.05551,0 0,3.924659 4.05551,0 z m 18.9882,-18.022108 5.01505,0 0,4.996343 -5.01505,0 z m -14.96856,0 4.97912,0 0,4.996343 -4.97912,0 z m 19.98361,13.972443 0,4.049665 3.9699,0 0,-4.049665 z m 3.9699,4.049665 0,3.924659 4.01959,0 0,-3.924659 z"
     id="path8954"
     inkscape:connector-curvature="0"
     sodipodi:nodetypes="ccccccccccccccccccccccccccccccccccccccccccccccccccccccccccccccccccc" />
  <path
     sodipodi:nodetypes="ccccccccccccccccccccccccccccccccccccccccccccccccccccccccccccccccccccccc"
     inkscape:connector-curvature="0"
     id="path8975"
     d="m 13.51286,31.482738 -1.98839,0 0,2.018415 2.01964,0.0301 z m 7.01037,0.03125 0.0392,1.97154 7.91894,-5.76e-4 L 28.5,31.5 z m 13.00449,-2 0,-3.992643 7.98949,0 0,-8.07355 -4.01959,0 0,-4.001829 -3.93865,0 0,-3.9779797 -5.0463,0 0,-3.9613971 -7.95819,0 0,1.02e-5 0,3.9613869 -5.01037,0 0,3.9779797 -4.01963,0 0,4.001829 -4.05551,0 0,8.13605 8.07514,0 0,3.898893 2.97912,0 0,-3.961393 11.98944,0 0.0156,4.023893 z m -3.01505,7.974324 3.01505,0 0,-1.955909 -3.03067,0.01563 z M 15.4908,35.5 l 0.0533,1.988312 3.0184,0.03125 0,-2.002784 z m -5.96633,0.0012 -2.05551,0 0,2.018409 2.05551,0 z m 18.9882,-19.990858 7.01505,0 0,6.996343 -7.01505,0 z m -14.96856,0 6.97912,0 0,6.996343 -6.97912,0 z m 21.98361,16.003693 0,2.018415 2.00115,0.03005 -0.0312,-2.048465 z m 3.9699,3.987165 0,1.987159 2.01959,0 0,-1.987159 z"
     style="fill:none;stroke:url(#linearGradient8076);stroke-width:1;stroke-linecap:butt;stroke-linejoin:round;stroke-miterlimit:4;stroke-opacity:1;stroke-dasharray:none" />
  <text
     xml:space="preserve"
     style="font-size:20px;font-style:normal;font-weight:normal;line-height:125%;letter-spacing:0px;word-spacing:0px;fill:#000000;fill-opacity:1;stroke:none;font-family:Sans"
     x="-311"
     y="-69"
     id="text8114"
     sodipodi:linespacing="125%"><tspan
       sodipodi:role="line"
       id="tspan8116"></tspan></text>
</svg>
