<?xml version="1.0" encoding="UTF-8" standalone="no"?>
<!-- Created with Inkscape (http://www.inkscape.org/) -->

<svg
   xmlns:dc="http://purl.org/dc/elements/1.1/"
   xmlns:cc="http://creativecommons.org/ns#"
   xmlns:rdf="http://www.w3.org/1999/02/22-rdf-syntax-ns#"
   xmlns:svg="http://www.w3.org/2000/svg"
   xmlns="http://www.w3.org/2000/svg"
   xmlns:xlink="http://www.w3.org/1999/xlink"
   xmlns:sodipodi="http://sodipodi.sourceforge.net/DTD/sodipodi-0.dtd"
   xmlns:inkscape="http://www.inkscape.org/namespaces/inkscape"
   id="svg2"
   version="1.1"
   inkscape:version="0.48.0 r9654"
   width="48"
   height="48"
   sodipodi:docname="Spaceinvaders_noble.svg"
   inkscape:export-filename="G:\Документы\Иконки\SpaceInvaders\Spaceinvaders_noble.png"
   inkscape:export-xdpi="90"
   inkscape:export-ydpi="90">
  <metadata
     id="metadata8">
    <rdf:RDF>
      <cc:Work
         rdf:about="">
        <dc:format>image/svg+xml</dc:format>
        <dc:type
           rdf:resource="http://purl.org/dc/dcmitype/StillImage" />
        <dc:title></dc:title>
      </cc:Work>
    </rdf:RDF>
  </metadata>
  <defs
     id="defs6">
    <linearGradient
       inkscape:collect="always"
       id="linearGradient8967">
      <stop
         style="stop-color:#75507b;stop-opacity:1"
         offset="0"
         id="stop8969" />
      <stop
         style="stop-color:#ad7fa8;stop-opacity:1"
         offset="1"
         id="stop8971" />
    </linearGradient>
    <linearGradient
       inkscape:collect="always"
       id="linearGradient8934">
      <stop
         style="stop-color:#c22f2f;stop-opacity:1"
         offset="0"
         id="stop8936" />
      <stop
         style="stop-color:#df5757;stop-opacity:1"
         offset="1"
         id="stop8938" />
    </linearGradient>
    <linearGradient
       inkscape:collect="always"
       id="linearGradient8573">
      <stop
         style="stop-color:#eeeeec;stop-opacity:0.54263566"
         offset="0"
         id="stop8575" />
      <stop
         style="stop-color:#eeeeec;stop-opacity:0"
         offset="1"
         id="stop8577" />
    </linearGradient>
    <linearGradient
       inkscape:collect="always"
       id="linearGradient8557">
      <stop
         style="stop-color:#709937;stop-opacity:1"
         offset="0"
         id="stop8559" />
      <stop
         style="stop-color:#98bf60;stop-opacity:1"
         offset="1"
         id="stop8561" />
    </linearGradient>
    <linearGradient
       inkscape:collect="always"
       xlink:href="#linearGradient8557"
       id="linearGradient8563"
       x1="21.475767"
       y1="39.263454"
       x2="12.382098"
       y2="6.6481557"
       gradientUnits="userSpaceOnUse"
       gradientTransform="translate(-59.5,-0.5000021)" />
    <linearGradient
       inkscape:collect="always"
       xlink:href="#linearGradient8573"
       id="linearGradient8579"
       x1="13.72532"
       y1="0.37258312"
       x2="34.716621"
       y2="88.672546"
       gradientUnits="userSpaceOnUse"
       gradientTransform="translate(-59.5,-0.5000021)" />
    <radialGradient
       inkscape:collect="always"
       xlink:href="#linearGradient3688"
       id="radialGradient2094"
       gradientUnits="userSpaceOnUse"
       gradientTransform="matrix(2.003784,0,0,1.4,27.98813,-17.4)"
       cx="4.9929786"
       cy="43.5"
       fx="4.9929786"
       fy="43.5"
       r="2.5" />
    <linearGradient
       inkscape:collect="always"
       id="linearGradient3688">
      <stop
         style="stop-color:black;stop-opacity:1;"
         offset="0"
         id="stop3690" />
      <stop
         style="stop-color:black;stop-opacity:0;"
         offset="1"
         id="stop3692" />
    </linearGradient>
    <radialGradient
       inkscape:collect="always"
       xlink:href="#linearGradient3688"
       id="radialGradient2096"
       gradientUnits="userSpaceOnUse"
       gradientTransform="matrix(2.003784,0,0,1.4,-20.01187,-104.4)"
       cx="4.9929786"
       cy="43.5"
       fx="4.9929786"
       fy="43.5"
       r="2.5" />
    <linearGradient
       inkscape:collect="always"
       xlink:href="#linearGradient3702"
       id="linearGradient2098"
       gradientUnits="userSpaceOnUse"
       x1="25.058096"
       y1="47.027729"
       x2="25.058096"
       y2="39.999443" />
    <linearGradient
       id="linearGradient3702">
      <stop
         style="stop-color:black;stop-opacity:0;"
         offset="0"
         id="stop3704" />
      <stop
         id="stop3710"
         offset="0.5"
         style="stop-color:black;stop-opacity:1;" />
      <stop
         style="stop-color:black;stop-opacity:0;"
         offset="1"
         id="stop3706" />
    </linearGradient>
    <linearGradient
       inkscape:collect="always"
       xlink:href="#linearGradient8934"
       id="linearGradient8940"
       x1="30"
       y1="39"
       x2="19"
       y2="6"
       gradientUnits="userSpaceOnUse"
       gradientTransform="translate(-120,0)" />
    <linearGradient
       inkscape:collect="always"
       xlink:href="#linearGradient8573"
       id="linearGradient8950"
       x1="40"
       y1="65"
       x2="16"
       y2="2"
       gradientUnits="userSpaceOnUse"
       gradientTransform="translate(-120,0)" />
    <linearGradient
       inkscape:collect="always"
       xlink:href="#linearGradient8967"
       id="linearGradient8973"
       x1="29"
       y1="39"
       x2="19"
       y2="2"
       gradientUnits="userSpaceOnUse"
       gradientTransform="translate(60,0)" />
    <linearGradient
       inkscape:collect="always"
       xlink:href="#linearGradient8573"
       id="linearGradient8076"
       x1="17.093966"
       y1="-8.2369003"
       x2="39.829704"
       y2="63.1381"
       gradientUnits="userSpaceOnUse"
       gradientTransform="translate(60,0)" />
    <radialGradient
       inkscape:collect="always"
       xlink:href="#linearGradient3688"
       id="radialGradient8090"
       gradientUnits="userSpaceOnUse"
       gradientTransform="matrix(2.003784,0,0,1.4,27.98813,-17.4)"
       cx="4.9929786"
       cy="43.5"
       fx="4.9929786"
       fy="43.5"
       r="2.5" />
    <radialGradient
       inkscape:collect="always"
       xlink:href="#linearGradient3688"
       id="radialGradient8092"
       gradientUnits="userSpaceOnUse"
       gradientTransform="matrix(2.003784,0,0,1.4,-20.01187,-104.4)"
       cx="4.9929786"
       cy="43.5"
       fx="4.9929786"
       fy="43.5"
       r="2.5" />
    <linearGradient
       inkscape:collect="always"
       xlink:href="#linearGradient3702"
       id="linearGradient8094"
       gradientUnits="userSpaceOnUse"
       x1="25.058096"
       y1="47.027729"
       x2="25.058096"
       y2="39.999443" />
    <radialGradient
       inkscape:collect="always"
       xlink:href="#linearGradient3688"
       id="radialGradient8108"
       gradientUnits="userSpaceOnUse"
       gradientTransform="matrix(2.003784,0,0,1.4,27.98813,-17.4)"
       cx="4.9929786"
       cy="43.5"
       fx="4.9929786"
       fy="43.5"
       r="2.5" />
    <radialGradient
       inkscape:collect="always"
       xlink:href="#linearGradient3688"
       id="radialGradient8110"
       gradientUnits="userSpaceOnUse"
       gradientTransform="matrix(2.003784,0,0,1.4,-20.01187,-104.4)"
       cx="4.9929786"
       cy="43.5"
       fx="4.9929786"
       fy="43.5"
       r="2.5" />
    <linearGradient
       inkscape:collect="always"
       xlink:href="#linearGradient3702"
       id="linearGradient8112"
       gradientUnits="userSpaceOnUse"
       x1="25.058096"
       y1="47.027729"
       x2="25.058096"
       y2="39.999443" />
    <radialGradient
       inkscape:collect="always"
       xlink:href="#linearGradient3688"
       id="radialGradient8128"
       gradientUnits="userSpaceOnUse"
       gradientTransform="matrix(2.003784,0,0,1.4,27.98813,-17.4)"
       cx="4.9929786"
       cy="43.5"
       fx="4.9929786"
       fy="43.5"
       r="2.5" />
    <radialGradient
       inkscape:collect="always"
       xlink:href="#linearGradient3688"
       id="radialGradient8130"
       gradientUnits="userSpaceOnUse"
       gradientTransform="matrix(2.003784,0,0,1.4,-20.01187,-104.4)"
       cx="4.9929786"
       cy="43.5"
       fx="4.9929786"
       fy="43.5"
       r="2.5" />
    <linearGradient
       inkscape:collect="always"
       xlink:href="#linearGradient3702"
       id="linearGradient8132"
       gradientUnits="userSpaceOnUse"
       x1="25.058096"
       y1="47.027729"
       x2="25.058096"
       y2="39.999443" />
    <radialGradient
       inkscape:collect="always"
       xlink:href="#linearGradient3688"
       id="radialGradient8134"
       gradientUnits="userSpaceOnUse"
       gradientTransform="matrix(2.003784,0,0,1.4,27.98813,-17.4)"
       cx="4.9929786"
       cy="43.5"
       fx="4.9929786"
       fy="43.5"
       r="2.5" />
    <radialGradient
       inkscape:collect="always"
       xlink:href="#linearGradient3688"
       id="radialGradient8136"
       gradientUnits="userSpaceOnUse"
       gradientTransform="matrix(2.003784,0,0,1.4,-20.01187,-104.4)"
       cx="4.9929786"
       cy="43.5"
       fx="4.9929786"
       fy="43.5"
       r="2.5" />
    <linearGradient
       inkscape:collect="always"
       xlink:href="#linearGradient3702"
       id="linearGradient8138"
       gradientUnits="userSpaceOnUse"
       x1="25.058096"
       y1="47.027729"
       x2="25.058096"
       y2="39.999443" />
    <linearGradient
       inkscape:collect="always"
       xlink:href="#linearGradient8573"
       id="linearGradient8140"
       gradientUnits="userSpaceOnUse"
       gradientTransform="translate(-60,0)"
       x1="40"
       y1="65"
       x2="16"
       y2="2" />
    <linearGradient
       inkscape:collect="always"
       xlink:href="#linearGradient8934"
       id="linearGradient8142"
       gradientUnits="userSpaceOnUse"
       gradientTransform="translate(-60,0)"
       x1="30"
       y1="39"
       x2="19"
       y2="6" />
    <linearGradient
       inkscape:collect="always"
       xlink:href="#linearGradient8573"
       id="linearGradient8144"
       gradientUnits="userSpaceOnUse"
       gradientTransform="translate(0.5,-0.5000021)"
       x1="13.72532"
       y1="0.37258312"
       x2="34.716621"
       y2="88.672546" />
    <linearGradient
       inkscape:collect="always"
       xlink:href="#linearGradient8557"
       id="linearGradient8146"
       gradientUnits="userSpaceOnUse"
       gradientTransform="translate(0.5,-0.5000021)"
       x1="21.475767"
       y1="39.263454"
       x2="12.382098"
       y2="6.6481557" />
  </defs>
  <sodipodi:namedview
     pagecolor="#ffffff"
     bordercolor="#666666"
     borderopacity="1"
     objecttolerance="10"
     gridtolerance="10"
     guidetolerance="10"
     inkscape:pageopacity="0"
     inkscape:pageshadow="2"
     inkscape:window-width="1378"
     inkscape:window-height="849"
     id="namedview4"
     showgrid="false"
     inkscape:showpageshadow="false"
     inkscape:zoom="1"
     inkscape:cx="-170.21757"
     inkscape:cy="-11.09246"
     inkscape:window-x="57"
     inkscape:window-y="22"
     inkscape:window-maximized="0"
     inkscape:current-layer="svg2">
    <inkscape:grid
       type="xygrid"
       id="grid8128"
       empspacing="5"
       visible="true"
       enabled="true"
       snapvisiblegridlinesonly="true" />
  </sodipodi:namedview>
  <path
     style="font-size:medium;font-style:normal;font-variant:normal;font-weight:normal;font-stretch:normal;text-indent:0;text-align:start;text-decoration:none;line-height:normal;letter-spacing:normal;word-spacing:normal;text-transform:none;direction:ltr;block-progression:tb;writing-mode:lr-tb;text-anchor:start;baseline-shift:baseline;color:#000000;fill:url(#linearGradient8146);fill-opacity:1;fill-rule:nonzero;stroke:#51751e;stroke-width:1;stroke-linecap:butt;stroke-linejoin:round;stroke-miterlimit:4;stroke-dasharray:none;marker:none;visibility:visible;display:inline;overflow:visible;enable-background:accumulate;font-family:Sans;-inkscape-font-specification:Sans"
     d="m 10.499999,6.4999982 0,0.5 0,3.0000015 0,0.5000003 0.5,0 3,0 0.5,0 0,-0.5000003 0,-3.0000015 0,-0.5 -0.5,0 -3,0 z m 4,4.0000018 0,0.5 0,3 0,0.5 -0.5,0 -3,0 -0.5,0 0,0.5 0,3 0,0.5 -0.499998,0 L 7,18.5 l -0.5,0 0,0.5 0,3 0,0.5 -0.5,0 -3,0 -0.5,0 0,0.5 0,3 0,0.5 0,0.5 0,3 0,0.5 0,0.5 0,3 0,0.5 0.5,0 3,0 0.5,0 0,-0.5 0,-3 0,-0.5 0,-0.5 0,-3 0,-0.5 0.5,0 3.000001,0 0.499998,0 0,0.5 0,3 0,0.5 0,0.5 0,3 0,0.5 0.5,0 3,0 0.5,0 0,-0.5 0,-3 0,-0.5 0.5,0 3,0 0.5,0 0.5,0 3,0 0.5,0 0.5,0 3,0 0.5,0 0.5,0 3,0 0.5,0 0.5,0 3,0 0.5,0 0,0.5 0,3 0,0.5 0.5,0 3,0 0.5,0 0,-0.5 0,-3 0,-0.5 0,-0.5 0,-3 0,-0.5 0.5,0 3.000001,0 0.5,0 0,0.5 0,3 0,0.5 0,0.5 0,3 0,0.5 0.5,0 3,0 0.5,0 0,-0.5 0,-3 0,-0.5 0,-0.5 0,-3 0,-0.5 0,-0.5 0,-3 0,-0.5 -0.5,0 -3,0 -0.5,0 0,-0.5 0,-3 0,-0.5 -0.5,0 -3.000001,0 -0.5,0 0,-0.5 0,-3 0,-0.5 -0.5,0 -3,0 -0.5,0 0,-0.5 0,-3 0,-0.5 -0.5,0 -3,0 -0.5,0 0,0.5 0,3 0,0.5 -0.5,0 -3,0 -0.5,0 -0.5,0 -3,0 -0.5,0 -0.5,0 -3,0 -0.5,0 0,-0.5 0,-3 0,-0.5 -0.5,0 -3,0 z m 20,0 0.5,0 3,0 0.5,0 0,-0.5000003 0,-3.0000015 0,-0.5 -0.5,0 -3,0 -0.5,0 0,0.5 0,3.0000015 z m 0,24 -0.5,0 -3,0 -0.5,0 -0.5,0 -3,0 -0.5,0 0,0.5 0,3 0,0.5 0.5,0 3,0 0.5,0 0.5,0 3,0 0.5,0 0,-0.5 0,-3 z m -20,0 0,0.5 0,3 0,0.5 0.5,0 3,0 0.5,0 0.5,0 3,0 0.5,0 0,-0.5 0,-3 0,-0.5 -0.5,0 -3,0 -0.5,0 -0.5,0 -3,0 z m 2,-16 0.5,0 3,0 0.5,0 0,0.5 0,3 0,0.5 -0.5,0 -3,0 -0.5,0 0,-0.5 0,-3 z m 12,0 0.5,0 3,0 0.5,0 0,0.5 0,3 0,0.5 -0.5,0 -3,0 -0.5,0 0,-0.5 0,-3 z"
     id="rect7368"
     inkscape:connector-curvature="0"
     sodipodi:nodetypes="ccccccccccccccccccccccccccccccccccccccccccccccccccccccccccccccccccccccccccccccccccccccccccccccccccccccccccccccccccccccccccccccccccccccccccccccccccccccccccccccccccccccccccccccccccccccccccccccccccccccccccccccccccccccccccccccccccccc" />
  <path
     sodipodi:nodetypes="ccccccccccccccccccccccccccccccccccccccccccccccccccccccccccccccccccccccccccccccccccccccccccccccccccccccccccccccccccccccccccccccccccccccccccccccccccccccccccccccccccccccccccccccccccccccccccccccccccccccccccccccccccccccccccccccccccc"
     inkscape:connector-curvature="0"
     id="path8555"
     d="m 11.499999,7.4999982 0,0.5 0,1 0,0.5 0.5,0 1.5,0 0,-1.5 0,-0.5 -0.5,0 -1,0 z m 4,4.0000018 0,0.5 0,3 0,0.5 -0.5,0 -3,0 -0.5,0 0,0.5 0,3 0,0.5 -0.5,0 L 8,19.5 l -0.5,0 0,0.5 0,3 0,0.5 -0.5,0 -3,0 -0.5,0 0,0.5 0,2 0,0.5 0,0.5 0,3 0,0.5 0,0.5 0,2 0,0.5 0.5,0 1,0 0.5,0 0,-0.5 0,-2 0,-0.5 0,-0.5 0,-4 0,-0.5 0.5,0 4.999999,0 0.5,0 0,0.5 0,4 0,0.5 0,0.5 0,2 0,0.5 0.5,0 1,0 0.5,0 0,-0.5 0,-3 0,-0.5 0.5,0 4,0 0.5,0 0.5,0 3,0 0.5,0 0.5,0 3,0 0.5,0 0.5,0 3,0 0.5,0 0.5,0 4,0 0.5,0 0,0.5 0,3 0,0.5 0.5,0 1,0 0.5,0 0,-0.5 0,-2 0,-0.5 0,-0.5 0,-4 0,-0.5 0.5,0 5.000001,0 0.5,0 0,0.5 0,4 0,0.5 0,0.5 0,2 0,0.5 0.5,0 1,0 0.5,0 0,-0.5 0,-2 0,-0.5 0,-0.5 0,-3 0,-0.5 0,-0.5 0,-2 0,-0.5 -0.5,0 -3,0 -0.5,0 0,-0.5 0,-3 0,-0.5 -0.5,0 -3.000001,0 -0.5,0 0,-0.5 0,-3 0,-0.5 -0.5,0 -3,0 -0.5,0 0,-0.5 0,-3 0,-0.5 -0.5,0 -1,0 -0.5,0 0,0.5 0,3 0,0.5 -0.5,0 -4,0 -0.5,0 -0.5,0 -3,0 -0.5,0 -0.5,0 -4,0 -0.5,0 0,-0.5 0,-3 0,-0.5 -0.5,0 -1,0 z m 20,-2.0000018 0.5,0 1,0 0.5,0 0,-0.5 0,-1 0,-0.5 -0.5,0 -1,0 -0.5,0 0,0.5 0,1 z m -2,26.0156268 -0.5,0 -2,0 -0.5,0 -0.5,0 -2,0 -0.5,0 0,0.5 0,0.984375 0,0.5 0.5,0 2,0 0.5,0 0.5,0 2,0 0.5,0 0,-0.5 0,-1 z m -18,-0.01563 0,0.515625 0,0.984375 0,0.5 0.5,0 2,0 0.5,0 0.5,0 2,0 0.5,0 0,-0.5 0,-1 0,-0.5 -0.5,0 -2,0 -0.5,0 -0.5,0 -2,0 z m 0,-18 0.5,0 5,0 0.5,0 0,0.5 0,5 0,0.5 -0.5,0 -5,0 -0.5,0 0,-0.5 0,-5 z m 12,0 0.5,0 5,0 0.5,0 0,0.5 0,5 0,0.5 -0.5,0 -5,0 -0.5,0 0,-0.5 0,-5 z"
     style="font-size:medium;font-style:normal;font-variant:normal;font-weight:normal;font-stretch:normal;text-indent:0;text-align:start;text-decoration:none;line-height:normal;letter-spacing:normal;word-spacing:normal;text-transform:none;direction:ltr;block-progression:tb;writing-mode:lr-tb;text-anchor:start;baseline-shift:baseline;opacity:0.53875972;color:#000000;fill:none;stroke:url(#linearGradient8144);stroke-width:1;stroke-linejoin:round;stroke-miterlimit:4;stroke-dasharray:none;marker:none;visibility:visible;display:inline;overflow:visible;enable-background:accumulate;font-family:Sans;-inkscape-font-specification:Sans" />
  <g
     style="opacity:0.19767444"
     transform="matrix(1.0999996,0,0,0.666665,-2.4,10.562756)"
     inkscape:label="Shadow"
     id="g8078">
    <g
       inkscape:label="Shadow"
       id="g8080"
       style="display:inline">
      <g
         transform="matrix(1.052632,0,0,1.285713,-1.263158,-13.42854)"
         style="opacity:0.4"
         id="g8082">
        <rect
           style="fill:url(#radialGradient8134);fill-opacity:1;stroke:none"
           id="rect8084"
           width="5"
           height="7"
           x="38"
           y="40" />
        <rect
           style="fill:url(#radialGradient8136);fill-opacity:1;stroke:none"
           id="rect8086"
           width="5"
           height="7"
           x="-10"
           y="-47"
           transform="scale(-1,-1)" />
        <rect
           style="fill:url(#linearGradient8138);fill-opacity:1;stroke:none"
           id="rect8088"
           width="28"
           height="7.0000005"
           x="10"
           y="40" />
      </g>
    </g>
  </g>
  <text
     xml:space="preserve"
     style="font-size:20px;font-style:normal;font-weight:normal;line-height:125%;letter-spacing:0px;word-spacing:0px;fill:#000000;fill-opacity:1;stroke:none;font-family:Sans"
     x="-311"
     y="-69"
     id="text8114"
     sodipodi:linespacing="125%"><tspan
       sodipodi:role="line"
       id="tspan8116"></tspan></text>
</svg>
