<?xml version="1.0" encoding="UTF-8" standalone="no"?>
<!-- Created with Inkscape (http://www.inkscape.org/) -->

<svg
   xmlns:dc="http://purl.org/dc/elements/1.1/"
   xmlns:cc="http://creativecommons.org/ns#"
   xmlns:rdf="http://www.w3.org/1999/02/22-rdf-syntax-ns#"
   xmlns:svg="http://www.w3.org/2000/svg"
   xmlns="http://www.w3.org/2000/svg"
   xmlns:xlink="http://www.w3.org/1999/xlink"
   xmlns:sodipodi="http://sodipodi.sourceforge.net/DTD/sodipodi-0.dtd"
   xmlns:inkscape="http://www.inkscape.org/namespaces/inkscape"
   version="1.0"
   width="48"
   height="48"
   id="svg11300"
   inkscape:version="0.48.0 r9654"
   sodipodi:docname="gpm-brightness-lcd-disabled.svg">
  <metadata
     id="metadata54">
    <rdf:RDF>
      <cc:Work
         rdf:about="">
        <dc:format>image/svg+xml</dc:format>
        <dc:type
           rdf:resource="http://purl.org/dc/dcmitype/StillImage" />
      </cc:Work>
    </rdf:RDF>
  </metadata>
  <sodipodi:namedview
     pagecolor="#ffffff"
     bordercolor="#666666"
     borderopacity="1"
     objecttolerance="10"
     gridtolerance="10"
     guidetolerance="10"
     inkscape:pageopacity="0"
     inkscape:pageshadow="2"
     inkscape:window-width="1228"
     inkscape:window-height="840"
     id="namedview52"
     showgrid="false"
     inkscape:zoom="3.992207"
     inkscape:cx="-9.1248573"
     inkscape:cy="30.786377"
     inkscape:window-x="0"
     inkscape:window-y="0"
     inkscape:window-maximized="0"
     inkscape:current-layer="svg11300" />
  <defs
     id="defs3">
    <linearGradient
       id="linearGradient2891">
      <stop
         style="stop-color:#000000;stop-opacity:1"
         offset="0"
         id="stop2893" />
      <stop
         style="stop-color:#000000;stop-opacity:0"
         offset="1"
         id="stop2895" />
    </linearGradient>
    <linearGradient
       id="linearGradient2986">
      <stop
         style="stop-color:#a40000;stop-opacity:1"
         offset="0"
         id="stop2988" />
      <stop
         style="stop-color:#690000;stop-opacity:1"
         offset="1"
         id="stop2990" />
    </linearGradient>
    <linearGradient
       id="linearGradient2788">
      <stop
         style="stop-color:#f67f7f;stop-opacity:1"
         offset="0"
         id="stop2790" />
      <stop
         style="stop-color:#ef2929;stop-opacity:1"
         offset="1"
         id="stop2792" />
    </linearGradient>
    <linearGradient
       id="linearGradient2921">
      <stop
         style="stop-color:#ffffff;stop-opacity:1"
         offset="0"
         id="stop2923" />
      <stop
         style="stop-color:#ffffff;stop-opacity:0"
         offset="1"
         id="stop2925" />
    </linearGradient>
    <linearGradient
       id="linearGradient2862">
      <stop
         style="stop-color:#ffffff;stop-opacity:1"
         offset="0"
         id="stop2864" />
      <stop
         style="stop-color:#ffffff;stop-opacity:0"
         offset="1"
         id="stop2866" />
    </linearGradient>
    <linearGradient
       id="linearGradient2854">
      <stop
         style="stop-color:#ffffff;stop-opacity:1"
         offset="0"
         id="stop2856" />
      <stop
         style="stop-color:#ffffff;stop-opacity:0"
         offset="1"
         id="stop2858" />
    </linearGradient>
    <linearGradient
       id="linearGradient5170">
      <stop
         style="stop-color:#000000;stop-opacity:1"
         offset="0"
         id="stop5172" />
      <stop
         style="stop-color:#000000;stop-opacity:0"
         offset="1"
         id="stop5174" />
    </linearGradient>
    <linearGradient
       id="linearGradient5160">
      <stop
         style="stop-color:#ffffff;stop-opacity:1"
         offset="0"
         id="stop5162" />
      <stop
         style="stop-color:#d3d7cf;stop-opacity:1"
         offset="1"
         id="stop5164" />
    </linearGradient>
    <linearGradient
       id="linearGradient5152">
      <stop
         style="stop-color:#ffffff;stop-opacity:1"
         offset="0"
         id="stop5154" />
      <stop
         style="stop-color:#ffffff;stop-opacity:0"
         offset="1"
         id="stop5156" />
    </linearGradient>
    <linearGradient
       x1="23.28125"
       y1="21.40625"
       x2="21.78125"
       y2="55.90625"
       id="linearGradient5158"
       xlink:href="#linearGradient5152"
       gradientUnits="userSpaceOnUse" />
    <radialGradient
       cx="25.90625"
       cy="18.03125"
       r="19.005075"
       fx="25.90625"
       fy="18.03125"
       id="radialGradient5166"
       xlink:href="#linearGradient5160"
       gradientUnits="userSpaceOnUse"
       gradientTransform="matrix(0.73703,0,0,0.73703,6.812572,4.741682)" />
    <radialGradient
       cx="25.3125"
       cy="40.75"
       r="18.0625"
       fx="25.3125"
       fy="40.75"
       id="radialGradient5176"
       xlink:href="#linearGradient5170"
       gradientUnits="userSpaceOnUse"
       gradientTransform="matrix(1,0,0,0.352941,0,26.36765)" />
    <radialGradient
       cx="11"
       cy="19"
       r="10.5"
       fx="11"
       fy="19"
       id="radialGradient8458"
       xlink:href="#linearGradient2891"
       gradientUnits="userSpaceOnUse"
       gradientTransform="matrix(1,0,0,0.238095,0,14.47619)" />
    <linearGradient
       x1="27.762564"
       y1="71.519295"
       x2="24"
       y2="21.605078"
       id="linearGradient8460"
       xlink:href="#linearGradient2788"
       gradientUnits="userSpaceOnUse"
       gradientTransform="translate(5.875264,45.59708)" />
    <linearGradient
       x1="41.185291"
       y1="16.25"
       x2="43.331738"
       y2="37.5"
       id="linearGradient8462"
       xlink:href="#linearGradient2986"
       gradientUnits="userSpaceOnUse"
       gradientTransform="translate(5.875264,45.59708)" />
    <linearGradient
       x1="23.276466"
       y1="21.037874"
       x2="16.77494"
       y2="5.2555733"
       id="linearGradient8464"
       xlink:href="#linearGradient2921"
       gradientUnits="userSpaceOnUse"
       gradientTransform="translate(5.875264,45.59708)" />
    <linearGradient
       x1="14"
       y1="34"
       x2="20.636963"
       y2="8.25"
       id="linearGradient8466"
       xlink:href="#linearGradient2862"
       gradientUnits="userSpaceOnUse"
       gradientTransform="translate(5.875264,45.59708)" />
    <linearGradient
       x1="27.625"
       y1="23.25"
       x2="27.363037"
       y2="0.5"
       id="linearGradient8468"
       xlink:href="#linearGradient2854"
       gradientUnits="userSpaceOnUse"
       gradientTransform="translate(5.875264,45.59708)" />
    <linearGradient
       inkscape:collect="always"
       xlink:href="#linearGradient5152"
       id="linearGradient7005"
       gradientUnits="userSpaceOnUse"
       x1="23.28125"
       y1="21.40625"
       x2="21.78125"
       y2="55.90625" />
    <radialGradient
       inkscape:collect="always"
       xlink:href="#linearGradient5160"
       id="radialGradient7008"
       gradientUnits="userSpaceOnUse"
       gradientTransform="matrix(0.73703,0,0,0.73703,6.812572,4.741682)"
       cx="25.90625"
       cy="18.03125"
       fx="25.90625"
       fy="18.03125"
       r="19.005075" />
    <radialGradient
       inkscape:collect="always"
       xlink:href="#linearGradient5170"
       id="radialGradient7011"
       gradientUnits="userSpaceOnUse"
       gradientTransform="matrix(1.138408,0,0,0.40179086,-3.50346,22.377006)"
       cx="25.3125"
       cy="40.75"
       fx="25.3125"
       fy="40.75"
       r="18.0625" />
  </defs>
  <path
     inkscape:connector-curvature="0"
     id="path5168"
     style="opacity:0.23595503;color:#000000;fill:url(#radialGradient7011);fill-opacity:1;fill-rule:evenodd;stroke:none;stroke-width:1;marker:none;visibility:visible;display:inline;overflow:visible"
     d="m 45.874987,38.749988 a 20.562495,7.257351 0 0 1 -41.124989,0 20.562495,7.257351 0 1 1 41.124989,0 z" />
  <path
     inkscape:connector-curvature="0"
     id="path4263"
     style="color:#000000;fill:url(#radialGradient7008);fill-opacity:1;fill-rule:evenodd;stroke:#888a85;stroke-width:1.01015258;stroke-linecap:butt;stroke-linejoin:miter;stroke-miterlimit:4;stroke-opacity:1;stroke-dasharray:none;stroke-dashoffset:0;marker:none;visibility:visible;display:inline;overflow:visible"
     d="m 23.5625,5.53125 0,5.125 c -2.568896,0.357251 -4.916309,1.417503 -6.84375,2.96875 L 13,9.90625 C 11.095031,8.0012812 9.0459565,10.139706 10.90625,12 l 3.71875,3.71875 c -1.557977,1.918422 -2.604498,4.251118 -2.96875,6.8125 l -5.125,0 c -2.7457353,0 -2.4764516,2.96875 0,2.96875 l 5.03125,0 c 0.193206,2.705867 1.141174,5.183551 2.65625,7.25 l -3.3125,3.3125 C 9.09375,37.875 11.318297,39.837953 13,38.15625 l 3.1875,-3.1875 c 2.017448,1.79689 4.568046,2.987904 7.375,3.375 l 0,4.1875 c 0,2.653123 2.96875,2.657536 2.96875,0 l 0,-4.0625 c 2.92897,-0.213248 5.596537,-1.351537 7.75,-3.09375 l 2.78125,2.78125 c 1.502602,1.679379 3.861517,-0.414371 2.09375,-2.09375 L 36.375,33.28125 C 38.125006,31.116256 39.228658,28.44297 39.4375,25.5 l 4.09375,0 c 2.034853,0 2.304886,-2.96875 0,-2.96875 l -4.1875,0 c -0.391606,-2.79504 -1.584537,-5.333519 -3.375,-7.34375 L 39.15625,12 C 40.74724,10.232233 38.65349,8.4036481 37.0625,9.90625 L 33.75,13.21875 C 31.691357,11.709397 29.225223,10.760857 26.53125,10.5625 l 0,-5.03125 c 0,-2.3881217 -2.96875,-2.2097087 -2.96875,0 z" />
  <path
     inkscape:connector-curvature="0"
     id="path5150"
     style="opacity:0.64606742;color:#000000;fill:none;stroke:url(#linearGradient7005);stroke-width:1;stroke-linecap:butt;stroke-linejoin:miter;stroke-miterlimit:4;stroke-opacity:1;stroke-dasharray:none;stroke-dashoffset:0;marker:none;visibility:visible;display:inline;overflow:visible"
     d="M 25.09375,4.6875 C 24.802565,4.69625 24.4375,4.830562 24.4375,5.53125 l 0,5.125 c 6.13e-4,0.436942 -0.318105,0.808779 -0.75,0.875 -2.405343,0.334506 -4.598633,1.32644 -6.40625,2.78125 -0.352791,0.288307 -0.866923,0.261248 -1.1875,-0.0625 L 12.375,10.53125 c -0.723506,-0.7235054 -1.04024,-0.525436 -1.1875,-0.375 -0.14726,0.150436 -0.351919,0.523081 0.34375,1.21875 L 15.25,15.09375 c 0.323748,0.320577 0.350807,0.834709 0.0625,1.1875 -1.459044,1.796601 -2.439691,3.973193 -2.78125,6.375 -0.06622,0.431895 -0.438058,0.750613 -0.875,0.75 l -5.125,0 c -0.5271548,0 -0.8092283,0.13919 -0.9375,0.25 -0.1282717,0.11081 -0.1301139,0.199742 -0.125,0.3125 0.010228,0.225517 0.1774716,0.65625 1.0625,0.65625 l 5.03125,0 c 0.458154,0.0032 0.837967,0.355835 0.875,0.8125 0.181308,2.539231 1.080176,4.844717 2.5,6.78125 0.261379,0.354891 0.221388,0.848104 -0.09375,1.15625 l -3.3125,3.3125 c -0.332795,0.332795 -0.398528,0.591129 -0.40625,0.75 -0.0077,0.158871 0.03411,0.258371 0.125,0.34375 0.181769,0.170758 0.543527,0.331473 1.125,-0.25 l 3.1875,-3.1875 c 0.332936,-0.333706 0.86915,-0.347455 1.21875,-0.03125 1.886004,1.679816 4.270573,2.792774 6.90625,3.15625 0.431895,0.06622 0.750613,0.438058 0.75,0.875 l 0,4.1875 c 0,0.996883 0.409858,1.09359 0.625,1.09375 0.215142,1.6e-4 0.59375,-0.09411 0.59375,-1.09375 l 0,-4.0625 c 0.0032,-0.458154 0.355835,-0.837967 0.8125,-0.875 2.74054,-0.199529 5.227664,-1.270122 7.25,-2.90625 0.352791,-0.288307 0.866923,-0.261248 1.1875,0.0625 l 2.78125,2.78125 c 0.01067,0.01015 0.0211,0.02058 0.03125,0.03125 0.476332,0.532371 0.772583,0.370124 1,0.15625 0.113708,-0.106937 0.188922,-0.229386 0.1875,-0.375 -0.0014,-0.145614 -0.03946,-0.335928 -0.34375,-0.625 C 38.55183,36.7086 38.5414,36.69817 38.53125,36.6875 L 35.75,33.90625 c -0.323748,-0.320577 -0.350807,-0.834709 -0.0625,-1.1875 1.640602,-2.029646 2.679046,-4.519901 2.875,-7.28125 0.03703,-0.456665 0.416846,-0.809349 0.875,-0.8125 l 4.09375,0 c 0.587579,0 0.735773,-0.343419 0.75,-0.65625 0.0071,-0.156416 -0.03909,-0.285448 -0.125,-0.375 -0.08591,-0.08955 -0.238522,-0.1875 -0.625,-0.1875 l -4.1875,0 c -0.436942,6.13e-4 -0.808779,-0.318105 -0.875,-0.75 -0.367586,-2.623598 -1.4819,-4.995134 -3.15625,-6.875 -0.316205,-0.3496 -0.302456,-0.885814 0.03125,-1.21875 L 38.5,11.40625 c 0.0153,-0.017 0.01703,-0.01482 0.03125,-0.03125 0.510895,-0.590681 0.332822,-0.834609 0.15625,-1 -0.181485,-0.169993 -0.506589,-0.308013 -1.03125,0.1875 L 34.375,13.84375 c -0.308146,0.315138 -0.801359,0.355129 -1.15625,0.09375 -1.929591,-1.414735 -4.22243,-2.313895 -6.75,-2.5 -0.456665,-0.03703 -0.809349,-0.416846 -0.8125,-0.875 l 0,-5.03125 c 0,-0.4177553 -0.123623,-0.5893215 -0.21875,-0.6875 C 25.34237,4.745571 25.239343,4.6831252 25.09375,4.6875 z" />
  <g
     id="g8450"
     transform="matrix(0.678383,0.02055786,-0.0177511,0.689201,6.327009,-23.28831)">
    <path
       inkscape:connector-curvature="0"
       id="path2894"
       style="opacity:0.3;fill:url(#radialGradient8458);fill-opacity:1;stroke:none"
       transform="matrix(2.095238,0,0,2.6,6.827644,36.69709)"
       d="m 21.5,19 a 10.5,2.5 0 1 1 -21,0 10.5,2.5 0 1 1 21,0 z" />
    <path
       inkscape:connector-curvature="0"
       id="path1937"
       style="fill:url(#linearGradient8460);fill-opacity:1;stroke:url(#linearGradient8462);stroke-width:1;stroke-linecap:square;stroke-linejoin:round;stroke-miterlimit:4;stroke-opacity:1;stroke-dasharray:none;stroke-dashoffset:0"
       d="m 29.875264,48.097083 c -11.315997,0 -20.5000005,9.183996 -20.5000005,20.5 0,11.316004 9.1840025,20.5 20.5000005,20.5 11.315997,0 20.5,-9.183996 20.5,-20.5 0,-11.316004 -9.184003,-20.5 -20.5,-20.5 z m 0,7 c 7.452012,0 13.5,6.047989 13.5,13.5 10e-7,2.460112 -0.661315,4.763003 -1.8125,6.75 l -18.4375,-18.4375 c 1.986997,-1.151185 4.289888,-1.8125 6.75,-1.8125 z m -11.6875,6.75 18.4375,18.4375 c -1.986997,1.151185 -4.289888,1.8125 -6.75,1.8125 -7.452011,-10e-7 -13.5,-6.047989 -13.5,-13.5 0,-2.460112 0.661315,-4.763003 1.8125,-6.75 z" />
    <path
       inkscape:connector-curvature="0"
       id="path2912"
       style="opacity:0.25;fill:url(#linearGradient8464);fill-opacity:1;stroke:none"
       d="m 29.875264,48.597083 c -11.046768,0 -20.0000005,8.953225 -20.0000005,20 0,0.959954 0.056782,1.888666 0.1875005,2.8125 1.786087,2.693358 4.381076,3.688103 7.40625,3.6875 -1.025469,-1.945375 -1.59375,-4.15173 -1.59375,-6.5 0,-2.549286 0.681652,-4.940228 1.875,-7 0.07794,-0.138405 0.217265,-0.23129 0.375,-0.25 0.152222,-0.01304 0.301998,0.04457 0.40625,0.15625 l 10.59375,10.59375 c 2.026165,-0.82311 4.005918,-1.681141 5.96875,-2.53125 l -12.3125,-12.3125 c -0.109589,-0.10808 -0.174589,-0.253428 -0.15625,-0.40625 0.01834,-0.152822 0.117952,-0.295917 0.25,-0.375 2.059772,-1.193348 4.450714,-1.875 7,-1.875 6.964432,0 12.744209,5.113784 13.8125,11.78125 2.65477,-0.635115 4.790079,-0.557216 6.125,0.8125 -0.724477,-10.38757 -9.365566,-18.59375 -19.9375,-18.59375 z" />
    <path
       inkscape:connector-curvature="0"
       id="path8446"
       style="opacity:0.7;fill:none;stroke:#ffffff;stroke-width:1.00000048;stroke-linecap:square;stroke-linejoin:round;stroke-miterlimit:4;stroke-opacity:1;stroke-dasharray:none;stroke-dashoffset:0"
       d="m 29.875276,49.097084 c -10.764003,0 -19.50001,8.736001 -19.50001,19.50001 0,10.764009 8.736006,19.50001 19.50001,19.50001 10.764003,0 19.50001,-8.736001 19.50001,-19.50001 0,-10.764009 -8.736007,-19.50001 -19.50001,-19.50001 z" />
    <path
       inkscape:connector-curvature="0"
       id="path2847"
       style="opacity:0.7;fill:none;stroke:url(#linearGradient8466);stroke-width:1;stroke-linecap:square;stroke-linejoin:round;stroke-miterlimit:4;stroke-opacity:1;stroke-dashoffset:0"
       d="m 18.031514,60.847083 c 0.320083,-0.05459 0.646673,0.05038 0.875,0.28125 l 18.4375,18.4375 c 0.229198,0.220555 0.339172,0.537375 0.29592,0.852504 -0.04325,0.315128 -0.234523,0.590601 -0.51467,0.741246 -2.132548,1.235511 -4.611541,1.9375 -7.25,1.9375 -7.990467,-10e-7 -14.5,-6.509533 -14.5,-14.5 0,-2.638459 0.701989,-5.117452 1.9375,-7.25 0.149472,-0.268757 0.414787,-0.453324 0.71875,-0.5 l 0,0 z" />
    <path
       inkscape:connector-curvature="0"
       id="path2850"
       style="opacity:0.7;fill:none;stroke:url(#linearGradient8468);stroke-width:1;stroke-linecap:square;stroke-linejoin:round;stroke-miterlimit:4;stroke-opacity:1;stroke-dashoffset:0"
       d="m 29.875264,54.097083 c 7.990468,0 14.5,6.509533 14.5,14.5 10e-7,2.63846 -0.701989,5.117452 -1.9375,7.25 -0.150645,0.280147 -0.426118,0.471417 -0.741246,0.51467 -0.315129,0.04325 -0.631949,-0.06672 -0.852504,-0.29592 l -18.4375,-18.4375 c -0.229198,-0.220555 -0.339172,-0.537375 -0.29592,-0.852504 0.04325,-0.315128 0.234523,-0.590601 0.51467,-0.741246 2.132548,-1.235511 4.611541,-1.9375 7.25,-1.9375 z" />
  </g>
</svg>
