<?xml version="1.0" encoding="UTF-8" standalone="no"?>
<!-- Created with Inkscape (http://www.inkscape.org/) -->

<svg
   xmlns:dc="http://purl.org/dc/elements/1.1/"
   xmlns:cc="http://creativecommons.org/ns#"
   xmlns:rdf="http://www.w3.org/1999/02/22-rdf-syntax-ns#"
   xmlns:svg="http://www.w3.org/2000/svg"
   xmlns="http://www.w3.org/2000/svg"
   xmlns:xlink="http://www.w3.org/1999/xlink"
   xmlns:sodipodi="http://sodipodi.sourceforge.net/DTD/sodipodi-0.dtd"
   xmlns:inkscape="http://www.inkscape.org/namespaces/inkscape"
   width="48"
   height="48"
   id="svg2"
   sodipodi:version="0.32"
   inkscape:version="0.48.0 r9654"
   sodipodi:docname="weather-hurricane.svg"
   inkscape:output_extension="org.inkscape.output.svg.inkscape"
   version="1.0"
   inkscape:export-filename="C:\icons\Tango\gnome-icon-theme-2.23.92\48x48\status\weather-hurricane.png"
   inkscape:export-xdpi="90"
   inkscape:export-ydpi="90">
  <defs
     id="defs4">
    <linearGradient
       inkscape:collect="always"
       xlink:href="#linearGradient6525"
       id="linearGradient7854"
       gradientUnits="userSpaceOnUse"
       gradientTransform="matrix(0.5138242,0,-0.00223666,0.597575,73.065114,17.300904)"
       x1="8.5469341"
       y1="30.281681"
       x2="30.85088"
       y2="48.301884" />
    <radialGradient
       inkscape:collect="always"
       xlink:href="#linearGradient5060"
       id="radialGradient7847"
       gradientUnits="userSpaceOnUse"
       gradientTransform="matrix(-2.774389,0,0,1.969706,112.7623,-872.8854)"
       cx="605.71429"
       cy="486.64789"
       fx="605.71429"
       fy="486.64789"
       r="117.14286" />
    <radialGradient
       inkscape:collect="always"
       xlink:href="#linearGradient5060"
       id="radialGradient7845"
       gradientUnits="userSpaceOnUse"
       gradientTransform="matrix(2.774389,0,0,1.969706,-1891.633,-872.8854)"
       cx="605.71429"
       cy="486.64789"
       fx="605.71429"
       fy="486.64789"
       r="117.14286" />
    <linearGradient
       inkscape:collect="always"
       xlink:href="#linearGradient5048"
       id="linearGradient7843"
       gradientUnits="userSpaceOnUse"
       gradientTransform="matrix(2.774389,0,0,1.969706,-1892.179,-872.8854)"
       x1="302.85715"
       y1="366.64789"
       x2="302.85715"
       y2="609.50507" />
    <linearGradient
       id="linearGradient6525"
       gradientUnits="userSpaceOnUse"
       x1="4.1914001"
       y1="11.1133"
       x2="47.319698"
       y2="56.052299">
      <stop
         offset="0"
         style="stop-color:#ffffff;stop-opacity:1;"
         id="stop6529" />
      <stop
         offset="1"
         style="stop-color:#ffffff;stop-opacity:0.34020618;"
         id="stop6531" />
    </linearGradient>
    <linearGradient
       inkscape:collect="always"
       xlink:href="#linearGradient6525"
       id="linearGradient7996"
       gradientUnits="userSpaceOnUse"
       gradientTransform="matrix(0.5138242,0,-0.00223666,0.597575,123.06511,17.300904)"
       x1="8.5469341"
       y1="30.281681"
       x2="30.85088"
       y2="48.301884" />
    <radialGradient
       inkscape:collect="always"
       xlink:href="#linearGradient5060"
       id="radialGradient7994"
       gradientUnits="userSpaceOnUse"
       gradientTransform="matrix(-2.774389,0,0,1.969706,112.7623,-872.8854)"
       cx="605.71429"
       cy="486.64789"
       fx="605.71429"
       fy="486.64789"
       r="117.14286" />
    <linearGradient
       id="linearGradient5060"
       inkscape:collect="always">
      <stop
         id="stop5062"
         offset="0"
         style="stop-color:black;stop-opacity:1;" />
      <stop
         id="stop5064"
         offset="1"
         style="stop-color:black;stop-opacity:0;" />
    </linearGradient>
    <radialGradient
       inkscape:collect="always"
       xlink:href="#linearGradient5060"
       id="radialGradient7992"
       gradientUnits="userSpaceOnUse"
       gradientTransform="matrix(2.774389,0,0,1.969706,-1891.633,-872.8854)"
       cx="605.71429"
       cy="486.64789"
       fx="605.71429"
       fy="486.64789"
       r="117.14286" />
    <linearGradient
       id="linearGradient5048">
      <stop
         id="stop5050"
         offset="0"
         style="stop-color:black;stop-opacity:0;" />
      <stop
         style="stop-color:black;stop-opacity:1;"
         offset="0.5"
         id="stop5056" />
      <stop
         id="stop5052"
         offset="1"
         style="stop-color:black;stop-opacity:0;" />
    </linearGradient>
    <linearGradient
       inkscape:collect="always"
       xlink:href="#linearGradient5048"
       id="linearGradient7990"
       gradientUnits="userSpaceOnUse"
       gradientTransform="matrix(2.774389,0,0,1.969706,-1892.179,-872.8854)"
       x1="302.85715"
       y1="366.64789"
       x2="302.85715"
       y2="609.50507" />
    <linearGradient
       id="linearGradient6478">
      <stop
         style="stop-color:#52534f;stop-opacity:1;"
         offset="0"
         id="stop6480" />
      <stop
         style="stop-color:#ffffff;stop-opacity:1;"
         offset="1"
         id="stop6482" />
    </linearGradient>
    <linearGradient
       id="linearGradient6342">
      <stop
         style="stop-color:#2e3436;stop-opacity:1;"
         offset="0"
         id="stop6344" />
      <stop
         id="stop6350"
         offset="1"
         style="stop-color:#a1a59b;stop-opacity:1;" />
    </linearGradient>
    <radialGradient
       inkscape:collect="always"
       xlink:href="#linearGradient6342"
       id="radialGradient6466"
       gradientUnits="userSpaceOnUse"
       gradientTransform="matrix(0.3598936,0,0,0.3316809,47.318926,10.390346)"
       cx="75.233162"
       cy="14.497484"
       fx="75.233162"
       fy="14.497484"
       r="14.915096" />
    <linearGradient
       inkscape:collect="always"
       xlink:href="#linearGradient6478"
       id="linearGradient6484"
       x1="5.0580163"
       y1="9.1273212"
       x2="5.0580163"
       y2="26.114611"
       gradientUnits="userSpaceOnUse" />
    <linearGradient
       inkscape:collect="always"
       xlink:href="#linearGradient6342"
       id="linearGradient6305"
       x1="4.8000002"
       y1="12.425841"
       x2="4.8000002"
       y2="24.934668"
       gradientUnits="userSpaceOnUse" />
    <radialGradient
       inkscape:collect="always"
       xlink:href="#linearGradient6342"
       id="radialGradient6655"
       gradientUnits="userSpaceOnUse"
       gradientTransform="matrix(0.3598936,0,0,0.3316809,47.318926,10.390346)"
       cx="75.233162"
       cy="14.497484"
       fx="75.233162"
       fy="14.497484"
       r="14.915096" />
    <linearGradient
       inkscape:collect="always"
       xlink:href="#linearGradient6342"
       id="linearGradient6657"
       gradientUnits="userSpaceOnUse"
       x1="4.8000002"
       y1="12.425841"
       x2="4.8000002"
       y2="24.934668" />
    <linearGradient
       inkscape:collect="always"
       xlink:href="#linearGradient6478"
       id="linearGradient6659"
       gradientUnits="userSpaceOnUse"
       x1="5.0580163"
       y1="9.1273212"
       x2="5.0580163"
       y2="26.114611" />
    <radialGradient
       inkscape:collect="always"
       xlink:href="#linearGradient6342"
       id="radialGradient6673"
       gradientUnits="userSpaceOnUse"
       gradientTransform="matrix(0.3598936,0,0,0.3316809,47.318926,10.390346)"
       cx="75.233162"
       cy="14.497484"
       fx="75.233162"
       fy="14.497484"
       r="14.915096" />
    <linearGradient
       inkscape:collect="always"
       xlink:href="#linearGradient6342"
       id="linearGradient6675"
       gradientUnits="userSpaceOnUse"
       x1="4.8000002"
       y1="12.425841"
       x2="4.8000002"
       y2="24.934668" />
    <linearGradient
       inkscape:collect="always"
       xlink:href="#linearGradient6478"
       id="linearGradient6677"
       gradientUnits="userSpaceOnUse"
       x1="5.0580163"
       y1="9.1273212"
       x2="5.0580163"
       y2="26.114611" />
  </defs>
  <sodipodi:namedview
     id="base"
     pagecolor="#ffffff"
     bordercolor="#666666"
     borderopacity="1.0"
     gridtolerance="10000"
     guidetolerance="10"
     objecttolerance="10"
     inkscape:pageopacity="0.0"
     inkscape:pageshadow="2"
     inkscape:zoom="1"
     inkscape:cx="75"
     inkscape:cy="3.3072434"
     inkscape:document-units="px"
     inkscape:current-layer="layer1"
     showgrid="false"
     inkscape:snap-bbox="true"
     inkscape:snap-nodes="false"
     inkscape:window-width="644"
     inkscape:window-height="654"
     inkscape:window-x="727"
     inkscape:window-y="116"
     inkscape:showpageshadow="false"
     showguides="true"
     inkscape:guide-bbox="true"
     inkscape:window-maximized="0" />
  <metadata
     id="metadata7">
    <rdf:RDF>
      <cc:Work
         rdf:about="">
        <dc:format>image/svg+xml</dc:format>
        <dc:type
           rdf:resource="http://purl.org/dc/dcmitype/StillImage" />
      </cc:Work>
    </rdf:RDF>
  </metadata>
  <g
     inkscape:label="Layer 1"
     inkscape:groupmode="layer"
     id="layer1">
    <g
       id="g6636"
       inkscape:export-filename="C:\icons\Tango\gnome-icon-theme-2.23.92\48x48\status\weather-hurricane.png"
       inkscape:export-xdpi="90"
       inkscape:export-ydpi="90">
      <path
         id="path6286"
         d="m 23.640385,0.5 c -8.68574,0 -17.1363932,9.905865 -17.1363932,23.5 0,3.255253 0.919148,6.294712 2.4703924,8.90625 -3.9599121,-1.216327 -7.203043,-3.820942 -8.47438422,-8.5625 0,8.679964 9.16195442,17.125 22.76513602,17.125 0.251604,0.01074 0.496266,0.03125 0.750499,0.03125 3.282418,0 6.348163,-0.927696 8.974716,-2.5 -1.211964,3.974478 -3.83976,7.225489 -8.599467,8.5 8.68574,0 17.136393,-9.155863 17.136393,-22.75 l -0.03127,0 c 0.01075,-0.251437 0.03127,-0.495936 0.03127,-0.75 0,-3.280236 -0.928313,-6.343943 -2.501663,-8.96875 3.977123,1.21116 7.199025,3.837208 8.474384,8.59375 C 47.5,14.945035 38.369314,6.5 24.766134,6.5 l 0,0.03125 C 24.514529,6.5205133 24.269868,6.5 24.015635,6.5 20.783214,6.5 17.765868,7.4092492 15.166001,8.9375 16.43121,4.9731098 19.041679,1.7314003 23.640385,0.5 z"
         style="fill:#babdb6;fill-rule:evenodd;stroke:#888a85;stroke-width:1px;stroke-linecap:round;stroke-linejoin:round;stroke-opacity:1"
         inkscape:connector-curvature="0" />
      <path
         sodipodi:nodetypes="ccccccccccccc"
         id="path6326"
         d="M 16.570701,3.9133758 C 8.3611265,9.6089915 5.0168143,23.95567 9.5087288,31.837799 10.705748,34.019121 9.0793621,33.976591 8.063474,33.670777 6.3588455,32.978836 5.1166105,32.291419 3.7910828,31.490446 c 6.7186392,9.772423 22.0562182,10.912963 28.4988882,6.709252 1.365377,-0.602587 1.973334,0.378243 1.602696,1.314853 -0.571348,1.600405 -1.277859,3.154358 -2.524514,4.816659 8.827365,-5.499749 11.575434,-20.819436 6.879921,-28.608858 -0.728723,-1.533589 0.570768,-1.985839 1.780524,-1.420877 1.410116,0.496565 2.850109,1.21443 4.241466,2.269226 C 39.003532,8.3677096 24.492982,4.9106268 16.111847,9.5248889 14.641829,10.491148 13.910046,9.5667378 14.387311,8.2207011 14.817545,6.9521637 15.418476,5.4951409 16.570701,3.9133758 z"
         style="opacity:0.5;fill:none;stroke:#ffffff;stroke-width:1;stroke-linecap:butt;stroke-linejoin:miter;stroke-miterlimit:7;stroke-opacity:1;stroke-dasharray:none"
         inkscape:connector-curvature="0" />
      <path
         transform="matrix(1.0109797,0,0,1.0539625,-50.661439,7.491847)"
         d="m 70.766468,13.980377 c 0.514624,-2.141419 2.77507,-3.40648 4.883702,-2.890235 2.343488,0.573744 3.725841,3.05262 3.151169,5.362713 -0.6344,2.550189 -3.336891,4.052508 -5.853099,3.417815 -2.761338,-0.696525 -4.386191,-3.627601 -3.689957,-6.354389 0.760061,-2.976767 3.924495,-4.7266233 6.86616,-3.9673965 3.196323,0.8249525 5.073565,4.2273425 4.249951,7.3880285 -0.89115,3.419866 -4.535932,5.426794 -7.919641,4.537455 -3.64727,-0.95861 -5.786111,-4.850073 -4.829756,-8.460679 1.027291,-3.8784155 5.169588,-6.151329 9.010846,-5.1267121 4.113193,1.0971531 6.522274,5.4943151 5.428191,9.5698691 -1.168163,4.351502 -5.824103,6.898788 -10.137494,5.73407 C 67.333293,21.950631 64.645819,17.032107 65.882303,12.47743 67.195795,7.63909 72.380609,4.8094975 77.179929,6.1188485 82.266626,7.506602 85.240221,12.961317 83.856934,18.008554 82.39389,23.346797 76.66575,26.466233 71.3674,25.007967 65.774498,23.468631 62.507424,17.463624 64.041685,11.911038 65.658293,6.0604332 71.94353,2.6439638 77.753404,4.255211 c 6.111287,1.6948378 9.67887,8.263594 7.989669,14.333743 C 83.96907,24.96384 77.113575,28.684221 70.780226,26.91612 64.138881,25.062035 60.264054,17.916647 62.111981,11.317232 64.047045,4.4066273 71.485418,0.37573559 78.353706,2.304394 85.536321,4.3213172 89.724864,12.055706 87.714586,19.195625 85.614942,26.652948 77.581563,31.000699 70.167309,28.907933 62.432626,26.724721 57.924137,18.38943 60.100245,10.698185 c 0.744056,-2.6297918 2.2143,-5.0336306 4.20991,-6.9001856"
         sodipodi:t0="0.36000001"
         sodipodi:argument="-36.920555"
         sodipodi:radius="15.16314"
         sodipodi:revolution="9.5100002"
         sodipodi:expansion="1.35"
         sodipodi:cy="15.103185"
         sodipodi:cx="74.415283"
         id="path6336"
         style="opacity:0.5;fill:none;stroke:url(#radialGradient6466);stroke-width:0.96876001px;stroke-linecap:round;stroke-linejoin:miter;stroke-opacity:1"
         sodipodi:type="spiral" />
      <path
         transform="matrix(0.6395484,0,0,0.6395484,20.930168,12.053073)"
         d="m 10.272612,18.680254 a 5.4726114,5.4726114 0 1 1 -10.94522324,0 5.4726114,5.4726114 0 1 1 10.94522324,0 z"
         sodipodi:ry="5.4726114"
         sodipodi:rx="5.4726114"
         sodipodi:cy="18.680254"
         sodipodi:cx="4.8000002"
         id="path6462"
         style="fill:url(#linearGradient6305);fill-opacity:1;fill-rule:evenodd;stroke:#888a85;stroke-width:1.56360328;stroke-linecap:round;stroke-linejoin:round;stroke-miterlimit:7;stroke-opacity:1;stroke-dasharray:none;stroke-dashoffset:0"
         sodipodi:type="arc" />
      <path
         transform="matrix(0.4568203,0,0,0.4568203,21.807262,15.466481)"
         d="m 10.272612,18.680254 a 5.4726114,5.4726114 0 1 1 -10.94522324,0 5.4726114,5.4726114 0 1 1 10.94522324,0 z"
         sodipodi:ry="5.4726114"
         sodipodi:rx="5.4726114"
         sodipodi:cy="18.680254"
         sodipodi:cx="4.8000002"
         id="path6476"
         style="opacity:0.75;fill:none;stroke:url(#linearGradient6484);stroke-width:2.18904448;stroke-linecap:round;stroke-linejoin:round;stroke-miterlimit:7;stroke-opacity:1;stroke-dasharray:none;stroke-dashoffset:0"
         sodipodi:type="arc" />
    </g>
  </g>
</svg>
