<?xml version="1.0" encoding="UTF-8" standalone="no"?>
<!-- Created with Inkscape (http://www.inkscape.org/) -->

<svg
   xmlns:dc="http://purl.org/dc/elements/1.1/"
   xmlns:cc="http://creativecommons.org/ns#"
   xmlns:rdf="http://www.w3.org/1999/02/22-rdf-syntax-ns#"
   xmlns:svg="http://www.w3.org/2000/svg"
   xmlns="http://www.w3.org/2000/svg"
   xmlns:xlink="http://www.w3.org/1999/xlink"
   xmlns:sodipodi="http://sodipodi.sourceforge.net/DTD/sodipodi-0.dtd"
   xmlns:inkscape="http://www.inkscape.org/namespaces/inkscape"
   width="48px"
   height="48px"
   id="svg9067"
   sodipodi:version="0.32"
   inkscape:version="0.91 r13725"
   sodipodi:docname="application-x-bittorrent.svg"
   inkscape:output_extension="org.inkscape.output.svg.inkscape"
   version="1.1">
  <defs
     id="defs9069">
    <linearGradient
       id="linearGradient8596"
       inkscape:collect="always">
      <stop
         id="stop8598"
         offset="0"
         style="stop-color:#000000;stop-opacity:0.412" />
      <stop
         id="stop8600"
         offset="1"
         style="stop-color:#000000;stop-opacity:0;" />
    </linearGradient>
    <radialGradient
       inkscape:collect="always"
       xlink:href="#linearGradient4163"
       id="radialGradient15305"
       cx="34.780205"
       cy="25.81551"
       fx="34.780205"
       fy="25.81551"
       r="4.4842029"
       gradientTransform="matrix(0.4321673,0,0,0.4379955,17.253513,32.070752)"
       gradientUnits="userSpaceOnUse" />
    <radialGradient
       inkscape:collect="always"
       xlink:href="#linearGradient4163"
       id="radialGradient15301"
       cx="42.457531"
       cy="18.234585"
       fx="42.457531"
       fy="18.234585"
       r="7.2179499"
       gradientTransform="matrix(0.4568749,-7.3523955e-3,5.5954836e-3,0.329709,16.165662,33.056622)"
       gradientUnits="userSpaceOnUse" />
    <radialGradient
       inkscape:collect="always"
       xlink:href="#linearGradient4163"
       id="radialGradient15303"
       cx="39.020916"
       cy="5.4132447"
       fx="39.020916"
       fy="5.4132447"
       r="5.1177464"
       gradientTransform="matrix(0.4460635,0,0,0.2506847,16.964739,33.137032)"
       gradientUnits="userSpaceOnUse" />
    <radialGradient
       inkscape:collect="always"
       xlink:href="#linearGradient4163"
       id="radialGradient5512"
       cx="17.412275"
       cy="31.623114"
       fx="17.412275"
       fy="31.623114"
       r="18.098307"
       gradientTransform="matrix(0.427855,0,0,0.326978,16.92637,34.659542)"
       gradientUnits="userSpaceOnUse" />
    <radialGradient
       inkscape:collect="always"
       xlink:href="#linearGradient4163"
       id="radialGradient9957"
       gradientUnits="userSpaceOnUse"
       gradientTransform="matrix(0.422752,0,0,0.435884,16.894932,30.925242)"
       cx="9.9090576"
       cy="12.579687"
       fx="9.9090576"
       fy="12.579687"
       r="21.574232" />
    <radialGradient
       inkscape:collect="always"
       xlink:href="#linearGradient4163"
       id="radialGradient4609"
       cx="9.9090576"
       cy="12.579687"
       fx="9.9090576"
       fy="12.579687"
       r="21.574232"
       gradientTransform="matrix(0.642339,0,0,0.664097,8.9912392,9.339322)"
       gradientUnits="userSpaceOnUse" />
    <radialGradient
       inkscape:collect="always"
       xlink:href="#linearGradient4163"
       id="radialGradient18888"
       gradientUnits="userSpaceOnUse"
       gradientTransform="matrix(0.652031,0,0,0.650588,8.5473412,9.874872)"
       cx="20.064526"
       cy="25.52681"
       fx="20.064526"
       fy="25.52681"
       r="19.537107" />
    <linearGradient
       id="linearGradient4163">
      <stop
         style="stop-color:#3b74bc;stop-opacity:1.0000000;"
         offset="0.0000000"
         id="stop4165" />
      <stop
         style="stop-color:#2d5990;stop-opacity:1.0000000;"
         offset="1.0000000"
         id="stop4167" />
    </linearGradient>
    <radialGradient
       inkscape:collect="always"
       xlink:href="#linearGradient4163"
       id="radialGradient5502"
       cx="20.064526"
       cy="25.52681"
       fx="20.064526"
       fy="25.52681"
       r="19.537107"
       gradientTransform="matrix(0.652031,0,0,0.650588,8.5473412,9.874872)"
       gradientUnits="userSpaceOnUse" />
    <linearGradient
       inkscape:collect="always"
       id="linearGradient3816">
      <stop
         style="stop-color:#000000;stop-opacity:1;"
         offset="0"
         id="stop3818" />
      <stop
         style="stop-color:#000000;stop-opacity:0;"
         offset="1"
         id="stop3820" />
    </linearGradient>
    <radialGradient
       inkscape:collect="always"
       xlink:href="#linearGradient3816"
       id="radialGradient18884"
       gradientUnits="userSpaceOnUse"
       cx="31.112698"
       cy="19.008621"
       fx="31.112698"
       fy="19.008621"
       r="8.6620579" />
    <linearGradient
       id="linearGradient3671">
      <stop
         style="stop-color:#ffffff;stop-opacity:1;"
         offset="0"
         id="stop3673" />
      <stop
         id="stop3691"
         offset="0.47533694"
         style="stop-color:#ffffff;stop-opacity:1;" />
      <stop
         style="stop-color:#ffffff;stop-opacity:0;"
         offset="1"
         id="stop3675" />
    </linearGradient>
    <linearGradient
       inkscape:collect="always"
       id="linearGradient3656">
      <stop
         style="stop-color:#ffffff;stop-opacity:1;"
         offset="0"
         id="stop3658" />
      <stop
         style="stop-color:#ffffff;stop-opacity:0;"
         offset="1"
         id="stop3660" />
    </linearGradient>
    <linearGradient
       id="linearGradient3683">
      <stop
         id="stop3685"
         offset="0"
         style="stop-color:#f6f6f5;stop-opacity:1;" />
      <stop
         id="stop3689"
         offset="1"
         style="stop-color:#d3d7cf;stop-opacity:1" />
    </linearGradient>
    <linearGradient
       id="linearGradient3702">
      <stop
         style="stop-color:black;stop-opacity:0;"
         offset="0"
         id="stop3704" />
      <stop
         id="stop3710"
         offset="0.5"
         style="stop-color:black;stop-opacity:1;" />
      <stop
         style="stop-color:black;stop-opacity:0;"
         offset="1"
         id="stop3706" />
    </linearGradient>
    <radialGradient
       inkscape:collect="always"
       xlink:href="#linearGradient3671"
       id="radialGradient17144"
       gradientUnits="userSpaceOnUse"
       gradientTransform="matrix(0.407336,-0.279828,0.751029,1.09325,370.815,41.5621)"
       cx="-26.305403"
       cy="10.108011"
       fx="-26.305403"
       fy="10.108011"
       r="7.0421038" />
    <linearGradient
       inkscape:collect="always"
       xlink:href="#linearGradient8596"
       id="linearGradient17146"
       gradientUnits="userSpaceOnUse"
       gradientTransform="matrix(0.922306,0,0,0.918575,393.553,51.3257)"
       x1="-19.031248"
       y1="12.617871"
       x2="-28.789402"
       y2="14.069944" />
    <filter
       style="color-interpolation-filters:sRGB"
       inkscape:collect="always"
       id="filter3913-4"
       x="-0.092477873"
       width="1.1849558"
       y="-1.6646018"
       height="4.3292036">
      <feGaussianBlur
         inkscape:collect="always"
         stdDeviation="1.3871681"
         id="feGaussianBlur3915-1" />
    </filter>
    <filter
       style="color-interpolation-filters:sRGB"
       inkscape:collect="always"
       id="filter3871-0"
       x="-0.053244837"
       width="1.1064897"
       y="-0.9584071"
       height="2.9168141">
      <feGaussianBlur
         inkscape:collect="always"
         stdDeviation="0.79867257"
         id="feGaussianBlur3873-5" />
    </filter>
    <radialGradient
       inkscape:collect="always"
       xlink:href="#linearGradient3-paper-sheet-orig-08-5"
       id="radialGradient17484"
       gradientUnits="userSpaceOnUse"
       gradientTransform="matrix(3.854,0,0,1.86639,442.334,21.2596)"
       cx="-30.249996"
       cy="35.357208"
       fx="-30.249996"
       fy="35.357208"
       r="18.000002" />
    <linearGradient
       id="linearGradient3-paper-sheet-orig-08-5">
      <stop
         style="stop-color: rgb(255, 255, 255); stop-opacity: 1;"
         offset="0"
         id="stop6-paper-sheet-orig-1-4" />
      <stop
         style="stop-color: rgb(211, 215, 207); stop-opacity: 1;"
         offset="1"
         id="stop7-paper-sheet-orig-2-6" />
    </linearGradient>
    <linearGradient
       inkscape:collect="always"
       xlink:href="#linearGradient10-paper-sheet-orig-3"
       id="linearGradient17486"
       gradientUnits="userSpaceOnUse"
       gradientTransform="translate(356,50)"
       x1="-40.278805"
       y1="70.736046"
       x2="-52.75"
       y2="3.8729248" />
    <linearGradient
       inkscape:collect="always"
       id="linearGradient10-paper-sheet-orig-3">
      <stop
         style="stop-color: rgb(85, 87, 83); stop-opacity: 1;"
         offset="0"
         id="stop15-paper-sheet-orig-7" />
      <stop
         style="stop-color: rgb(186, 189, 182); stop-opacity: 1;"
         offset="1"
         id="stop16-paper-sheet-orig-8" />
    </linearGradient>
    <radialGradient
       inkscape:collect="always"
       xlink:href="#linearGradient3656"
       id="radialGradient17488"
       gradientUnits="userSpaceOnUse"
       gradientTransform="matrix(3.23437,0,0,1.52429,-8.93747,-6.07875)"
       cx="4"
       cy="5.2999997"
       fx="4"
       fy="5.2999997"
       r="17" />
    <linearGradient
       inkscape:collect="always"
       xlink:href="#linearGradient3656"
       id="linearGradient17490"
       gradientUnits="userSpaceOnUse"
       x1="-26.753757"
       y1="11.566258"
       x2="-24.75"
       y2="9.687501" />
  </defs>
  <sodipodi:namedview
     id="base"
     pagecolor="#ffffff"
     bordercolor="#666666"
     borderopacity="1.0"
     inkscape:pageopacity="0.0"
     inkscape:pageshadow="2"
     inkscape:zoom="19.79899"
     inkscape:cx="26.95593"
     inkscape:cy="33.077425"
     inkscape:current-layer="layer1"
     showgrid="true"
     inkscape:grid-bbox="true"
     inkscape:document-units="px"
     inkscape:window-width="1920"
     inkscape:window-height="1017"
     inkscape:window-x="-5"
     inkscape:window-y="-5"
     inkscape:window-maximized="1" />
  <metadata
     id="metadata9072">
    <rdf:RDF>
      <cc:Work
         rdf:about="">
        <dc:format>image/svg+xml</dc:format>
        <dc:type
           rdf:resource="http://purl.org/dc/dcmitype/StillImage" />
      </cc:Work>
    </rdf:RDF>
  </metadata>
  <g
     id="layer1"
     inkscape:label="Layer 1"
     inkscape:groupmode="layer">
    <g
       id="use15217"
       style="display:inline"
       transform="translate(-699.99955,-50.00049)">
      <g
         transform="translate(400.044,1.01491)"
         id="g17470"
         style="display:inline">
        <rect
           style="display:inline;opacity:0.475;fill:#000000;fill-opacity:1;stroke:none;filter:url(#filter3913-4)"
           id="rect17472"
           width="36"
           height="2"
           x="306"
           y="91"
           rx="7.5241151"
           ry="2"
           transform="matrix(1.1189,0,0,1.17678,-38.2578,-16.0867)" />
        <rect
           style="opacity:0.71499999;fill:#000000;fill-opacity:1;stroke:none;filter:url(#filter3871-0)"
           id="rect17474"
           width="36"
           height="2"
           x="306"
           y="91"
           rx="6.3920398"
           ry="2"
           transform="matrix(1.01334,0,0,1,-4.05753,0)" />
      </g>
      <g
         transform="translate(404.044,-0.985092)"
         id="g17476">
        <path
           inkscape:connector-curvature="0"
           sodipodi:nodetypes="ccsccccccc"
           id="path17478"
           d="m 304.52386,53.5 c 0,0 17.47614,0 18.97614,0 3.87705,0.07294 6.5,2.5 9,5 2.5,2.5 4.60768,5.252625 5,9 0,1.5 0,24.97614 0,24.97614 0,1.12122 -0.90264,2.02386 -2.02385,2.02386 l -30.95229,0 C 303.40264,94.5 302.5,93.59736 302.5,92.47614 l 0,-36.952282 C 302.5,54.402641 303.40264,53.5 304.52386,53.5 Z"
           style="display:inline;fill:url(#radialGradient17484);fill-opacity:1;stroke:url(#linearGradient17486);stroke-width:1;stroke-miterlimit:4" />
        <path
           transform="translate(296,50)"
           d="m 8.53125,3.9863281 c -0.8581697,0 -1.5449219,0.6867521 -1.5449219,1.5449219 l 0,36.9375 c 0,0.85817 0.6867521,1.544922 1.5449219,1.544922 l 30.9375,0 c 0.858169,0 1.544922,-0.686754 1.544922,-1.544922 l 0,-24.96875 c 0,-1.39197 -0.500651,-4.299479 -2.357422,-6.15625 l -5,-5 C 31.799479,4.4869792 28.89197,3.9863281 27.5,3.9863281 l -18.96875,0 z"
           id="path17480"
           style="display:inline;fill:url(#radialGradient17488);fill-opacity:1;stroke:none"
           inkscape:original="M 8.53125 3.5 C 7.410033 3.5 6.5 4.4100329 6.5 5.53125 L 6.5 42.46875 C 6.5 43.589967 7.4100329 44.5 8.53125 44.5 L 39.46875 44.5 C 40.589967 44.5 41.5 43.589966 41.5 42.46875 C 41.5 42.46875 41.5 19 41.5 17.5 C 41.5 16 41 13 39 11 C 37 9 36 8 34 6 C 32 4 29 3.5 27.5 3.5 C 26 3.5 8.5312499 3.5 8.53125 3.5 z "
           inkscape:radius="-0.4861359"
           sodipodi:type="inkscape:offset" />
        <path
           transform="translate(356,50)"
           d="m -51.46875,4.4941406 c -0.583166,0 -1.037109,0.4539436 -1.037109,1.0371094 l 0,36.9375 c 0,0.583165 0.453945,1.037109 1.037109,1.037109 l 30.9375,0 c 0.583165,0 1.037109,-0.453945 1.037109,-1.037109 l 0,-24.96875 c 0,-1.279029 -0.501953,-4.089844 -2.208984,-5.796875 l -5,-5 C -28.410156,4.9960937 -31.220971,4.4941406 -32.5,4.4941406 l -18.96875,0 z"
           id="path17482"
           style="display:inline;fill:none;stroke:url(#linearGradient17490);stroke-width:1;stroke-miterlimit:4"
           inkscape:original="M -51.46875 3.5 C -52.589967 3.5 -53.5 4.4100329 -53.5 5.53125 L -53.5 42.46875 C -53.5 43.589967 -52.589966 44.5 -51.46875 44.5 L -20.53125 44.5 C -19.410033 44.5 -18.5 43.589966 -18.5 42.46875 C -18.5 42.46875 -18.5 19 -18.5 17.5 C -18.5 16 -19 13 -21 11 C -23 9 -24 8 -26 6 C -28 4 -31 3.5 -32.5 3.5 C -34 3.5 -51.468749 3.5 -51.46875 3.5 z "
           inkscape:radius="-0.99436891"
           sodipodi:type="inkscape:offset" />
      </g>
    </g>
    <path
       transform="matrix(1.7894131,0,0,0.346338,-31.172841,32.416592)"
       sodipodi:type="arc"
       style="opacity:0.6;fill:url(#radialGradient18884);fill-opacity:1;fill-rule:evenodd;stroke:none;stroke-width:1px;stroke-linecap:round;stroke-linejoin:round;marker:none;marker-start:none;marker-mid:none;marker-end:none;stroke-miterlimit:4;stroke-dasharray:none;stroke-dashoffset:0;stroke-opacity:1;visibility:visible;display:inline;overflow:visible"
       id="path4306"
       sodipodi:cx="31.112698"
       sodipodi:cy="19.008621"
       sodipodi:rx="8.6620579"
       sodipodi:ry="8.6620579"
       d="M 39.774755,19.008621 A 8.6620579,8.6620579 0 1 1 22.45064,19.008621 A 8.6620579,8.6620579 0 1 1 39.774755,19.008621 z" />
    <path
       sodipodi:nodetypes="ccccc"
       id="path9959"
       d="M 36.540103,33.626362 C 23.953685,49.107372 0.9477097,28.961282 17.939375,16.055072 C 26.944557,10.905402 29.35494,20.925752 23.762434,21.845142 C 27.206219,14.185102 9.9071742,21.118162 16.586223,30.657882 C 21.314871,38.144922 30.893698,39.982902 36.540103,33.626362 z"
       style="fill:url(#radialGradient5502);fill-opacity:1;fill-rule:evenodd;stroke:#204a87;stroke-width:2.5;stroke-linecap:butt;stroke-linejoin:miter;stroke-miterlimit:4;stroke-dasharray:none;stroke-opacity:1;display:inline" />
    <path
       style="fill:url(#radialGradient18888);fill-opacity:1;fill-rule:evenodd;stroke:#eeeeec;stroke-width:1;stroke-linecap:butt;stroke-linejoin:miter;stroke-miterlimit:4;stroke-dasharray:none;stroke-opacity:0.57647059;display:inline"
       d="M 36.540103,33.626362 C 23.953685,49.107372 1.0727097,28.617532 18.064375,15.711322 C 27.069557,10.561652 28.51119,21.113252 23.887434,21.501392 C 25.424969,13.935102 9.9071742,21.118162 16.586223,30.657882 C 21.314871,38.144922 30.893698,39.982902 36.540103,33.626362 z"
       id="path2829"
       sodipodi:nodetypes="ccccc" />
    <path
       style="fill:url(#radialGradient4609);fill-opacity:1;fill-rule:evenodd;stroke:#204a87;stroke-width:2.5;stroke-linecap:butt;stroke-linejoin:miter;stroke-miterlimit:4;stroke-dasharray:none;stroke-opacity:1;display:inline"
       d="M 36.671294,33.117422 C 22.864042,51.014252 -0.8873651,28.598822 16.205631,13.457632 C 25.031074,6.132442 30.804367,19.192232 19.475042,20.176452 C 23.25286,11.321062 11.167076,18.757162 15.332866,27.920272 C 20.520174,36.575682 30.477207,40.465912 36.671294,33.117422 z"
       id="path7300"
       sodipodi:nodetypes="ccccc" />
    <path
       sodipodi:nodetypes="ccccc"
       id="path2827"
       d="M 36.666065,33.092612 C 22.864146,51.194292 -0.4690172,27.578812 16.429278,13.795322 C 25.2513,6.547902 30.000628,18.732212 19.52065,20.060732 C 23.297008,11.103972 10.818146,18.846152 14.982326,28.114162 C 20.16763,36.868642 30.474371,40.525212 36.666065,33.092612 z"
       style="opacity:1;fill:url(#radialGradient9957);fill-opacity:1;fill-rule:evenodd;stroke:#eeeeec;stroke-width:1;stroke-linecap:butt;stroke-linejoin:miter;stroke-miterlimit:4;stroke-dasharray:none;stroke-opacity:0.57647059;display:inline" />
    <path
       style="fill:#204a87;fill-opacity:1;fill-rule:evenodd;stroke:none;stroke-width:3;stroke-linecap:butt;stroke-linejoin:miter;stroke-miterlimit:4;stroke-dasharray:none;stroke-opacity:1;display:inline"
       d="M 20.278632,20.032412 C 19.420379,20.011342 18.51713,20.158072 17.585687,20.547982 L 17.50087,20.589232 L 17.437258,20.630482 C 13.899738,22.855042 12.907195,26.221612 13.01675,29.283912 C 13.126305,32.346212 14.226523,35.309542 16.779924,37.419892 C 19.333327,39.530232 22.809055,40.831702 26.597509,40.554542 C 30.3605,40.279232 33.169302,38.628542 36.807868,34.627722 C 36.811443,34.623792 37.521785,33.814182 37.516572,33.815222 C 37.162613,33.885802 37.361561,34.329972 37.333529,34.018352 C 37.297289,33.615522 37.954594,33.394112 37.519481,33.388452 C 36.961362,33.381192 36.683422,32.216632 36.661724,32.236642 C 32.134176,36.411162 23.442848,36.168662 19.61796,31.170572 C 18.19864,28.629482 19.183817,27.247752 20.045384,26.862322 C 20.479964,26.667912 20.656623,26.703242 20.851147,26.944812 C 21.045673,27.186392 21.17655,27.957782 20.768557,29.604512 L 20.429288,30.986232 L 22.017383,30.883752 C 23.811847,30.679862 25.117009,29.521252 25.66452,28.222162 C 26.212031,26.923062 26.094721,25.429202 25.558498,24.097622 C 25.022278,22.766032 24.049019,21.314202 22.653511,20.609852 C 21.955757,20.257682 21.136883,20.053492 20.278632,20.032412 z M 20.236223,22.241572 C 20.783145,22.254742 21.259012,22.390552 21.699319,22.612782 C 22.579933,23.057252 23.294278,23.903742 23.671317,24.840032 C 24.048356,25.776322 24.071977,26.760022 23.777338,27.459122 C 23.623005,27.825312 23.396807,28.137392 23.056393,28.366522 C 23.118288,27.246122 22.98144,26.273652 22.441468,25.603072 C 21.648925,24.618842 20.243311,24.475172 19.197213,24.943152 C 17.10502,25.879112 15.760865,28.910052 17.670504,32.243592 L 17.691709,32.305452 L 17.734117,32.346702 C 20.562712,36.092322 25.465655,37.971272 30.11742,37.667362 C 28.870089,38.157492 27.635374,38.487962 26.449078,38.574762 C 23.230259,38.810252 20.269205,37.711712 18.094591,35.914432 C 15.919976,34.117142 14.575642,31.651042 14.489862,29.253292 C 14.404995,26.881082 15.475757,24.521982 18.455062,22.612782 C 19.116851,22.345272 19.708612,22.228872 20.236223,22.241572 z"
       id="path5522"
       sodipodi:nodetypes="ccccsssssssscsscccsssccssscssccccssscc" />
    <path
       sodipodi:nodetypes="ccccsc"
       id="path2831"
       d="M 36.616054,33.447102 C 21.249823,49.159442 7.1948297,30.275852 18.080202,22.213012 C 23.625628,19.000002 26.833466,28.000002 22.274363,29.299842 C 23.992275,22.417232 15.470277,25.158742 17.976171,30.956642 C 21.095028,37.091892 29.270725,37.647372 34.300943,35.237552 C 35.214139,34.800072 35.872215,34.142272 36.616054,33.447102 z"
       style="fill:url(#radialGradient5512);fill-opacity:1;fill-rule:evenodd;stroke:#eeeeec;stroke-width:1;stroke-linecap:square;stroke-linejoin:miter;stroke-miterlimit:4;stroke-dasharray:none;stroke-opacity:0.57575755;display:inline" />
    <path
       style="fill:url(#radialGradient15303);fill-opacity:1;fill-rule:evenodd;stroke:#204a87;stroke-width:1.0329783;stroke-linecap:butt;stroke-linejoin:miter;stroke-miterlimit:4;stroke-dasharray:none;stroke-opacity:1;display:inline"
       d="M 30.517117,13.146032 C 32.864665,13.666992 33.070106,14.299012 34.314408,14.467862 C 34.730196,14.524282 35.752931,14.436382 35.904875,14.069002 C 36.688548,13.284232 36.781043,12.031172 35.529123,11.530862 C 34.363831,11.372732 31.627929,12.543392 30.517117,13.146032 z"
       id="path12626"
       sodipodi:nodetypes="ccccc" />
    <path
       sodipodi:nodetypes="ccccc"
       id="path13523"
       d="M 30.515755,17.531722 C 33.53537,19.791152 33.412109,20.785452 35.083532,21.837322 C 35.642041,22.188802 37.165634,22.745452 37.626129,22.346862 C 39.267657,21.798902 40.228228,20.157942 38.764929,18.650792 C 37.19964,17.665722 32.505699,17.447402 30.515755,17.531722 z"
       style="fill:url(#radialGradient15301);fill-opacity:1;fill-rule:evenodd;stroke:#204a87;stroke-width:1.03025436;stroke-linecap:butt;stroke-linejoin:miter;stroke-miterlimit:4;stroke-dasharray:none;stroke-opacity:1;display:inline" />
    <path
       style="fill:url(#radialGradient15305);fill-opacity:1;fill-rule:evenodd;stroke:#204a87;stroke-width:1.03447068;stroke-linecap:butt;stroke-linejoin:miter;stroke-miterlimit:4;stroke-dasharray:none;stroke-opacity:1;display:inline"
       d="M 28.517863,22.517372 C 29.876257,24.763002 29.587944,25.418622 30.382447,26.524912 C 30.647932,26.894592 31.458358,27.626422 31.824788,27.457762 C 32.943919,27.456892 33.881764,26.548312 33.31184,25.176562 C 32.567786,24.140522 29.750239,22.915192 28.517863,22.517372 z"
       id="path13527"
       sodipodi:nodetypes="ccccc" />
    <path
       style="fill:none;fill-opacity:1;fill-rule:evenodd;stroke:#eeeeec;stroke-width:0.51512718;stroke-linecap:butt;stroke-linejoin:miter;stroke-miterlimit:4;stroke-dasharray:none;stroke-opacity:0.57647059;display:inline"
       d="M 32.581388,18.266112 C 34.14656,19.850542 34.234744,20.327662 35.486044,21.122702 C 35.904173,21.388372 37.206235,22.030082 37.550981,21.728802 C 38.779905,21.314632 39.243074,20.396542 38.147582,19.257382 C 36.975735,18.512822 34.071149,18.202372 32.581388,18.266112 z"
       id="path15307"
       sodipodi:nodetypes="ccccc" />
    <path
       sodipodi:nodetypes="ccccc"
       id="path16196"
       d="M 32.304286,13.029122 C 33.428202,13.442562 33.776587,13.817642 34.560282,13.906592 C 34.82216,13.936312 35.611614,13.781292 35.700849,13.539302 C 36.179584,13.014592 36.157336,12.307832 35.363336,12.003002 C 34.629399,11.919702 32.991357,12.617562 32.304286,13.029122 z"
       style="fill:none;fill-opacity:1;fill-rule:evenodd;stroke:#eeeeec;stroke-width:0.51648915;stroke-linecap:butt;stroke-linejoin:miter;stroke-miterlimit:4;stroke-dasharray:none;stroke-opacity:0.57647059;display:inline" />
    <path
       style="fill:none;fill-opacity:1;fill-rule:evenodd;stroke:#eeeeec;stroke-width:0.51723534;stroke-linecap:butt;stroke-linejoin:miter;stroke-miterlimit:4;stroke-dasharray:none;stroke-opacity:0.57647059;display:inline"
       d="M 29.694857,23.628922 C 30.232855,24.906482 30.380697,25.414252 30.908115,26.146512 C 31.084355,26.391202 31.721228,26.781852 31.973884,26.664682 C 32.738404,26.651392 32.787268,26.222802 32.710087,25.377852 C 32.21616,24.692082 30.531215,23.881492 29.694857,23.628922 z"
       id="path17083"
       sodipodi:nodetypes="ccccc" />
    <path
       sodipodi:nodetypes="cccc"
       id="path18879"
       d="M 33.353357,34.455122 C 34.956266,33.019602 36.522429,32.111392 38.083391,28.528782 C 38.142595,30.027802 38.660763,33.392582 37.075741,34.946572 C 36.283567,34.749412 34.145531,34.652282 33.353357,34.455122 z"
       style="fill:#204a87;fill-opacity:1;fill-rule:evenodd;stroke:none;stroke-width:1px;stroke-linecap:butt;stroke-linejoin:miter;stroke-opacity:1;display:inline" />
    <path
       style="fill:#eeeeec;fill-opacity:0.57647059;fill-rule:evenodd;stroke:none;stroke-width:1px;stroke-linecap:butt;stroke-linejoin:miter;stroke-opacity:1;display:inline"
       d="M 34.519745,34.602722 C 35.368743,33.934362 37.05542,32.576242 37.639531,31.022702 C 37.32574,33.149162 36.648356,34.101292 36.000628,34.789762 C 35.208454,34.592602 35.311919,34.799882 34.519745,34.602722 z"
       id="path18881"
       sodipodi:nodetypes="cccc" />
    <g
       transform="translate(-335.77879,-50.868685)"
       id="use15225"
       style="display:inline">
      <path
         inkscape:connector-curvature="0"
         sodipodi:nodetypes="ccccc"
         id="path17142"
         d="m 364.60088,55.014353 c 0.9223,0 3.00844,6.195662 2.08614,10.32925 4.29496,-0.427759 8.85338,0.08818 9.31298,0.937647 -0.32087,-1.158872 -2.67669,-4.711833 -7,-4.28125 0.86466,-3.875239 -3.18657,-6.617298 -4.39912,-6.985647 z"
         style="display:inline;opacity:0.87854201;fill:url(#linearGradient17146);fill-opacity:1;stroke:none" />
      <path
         inkscape:connector-curvature="0"
         sodipodi:nodetypes="ccccczc"
         id="path17140"
         d="m 363.5,54 c -1.38889,0 -0.0421,0.497088 1.34375,1.125 1.38582,0.627912 4.97288,3.215052 4.15625,6.875 4.32331,-0.430583 6.67913,3.122378 7,4.28125 0.32087,1.158872 1,2.607639 1,1.21875 0.0283,-3.805581 -2.84543,-6.431701 -4.84375,-8.65625 C 370.15793,56.619201 367.15379,54.476761 363.5,54 Z"
         style="display:inline;fill:url(#radialGradient17144);fill-opacity:1;stroke:none" />
    </g>
  </g>
</svg>
