<?xml version="1.0" encoding="UTF-8" standalone="no"?>
<!-- Created with Inkscape (http://www.inkscape.org/) -->

<svg
   xmlns:dc="http://purl.org/dc/elements/1.1/"
   xmlns:cc="http://creativecommons.org/ns#"
   xmlns:rdf="http://www.w3.org/1999/02/22-rdf-syntax-ns#"
   xmlns:svg="http://www.w3.org/2000/svg"
   xmlns="http://www.w3.org/2000/svg"
   xmlns:xlink="http://www.w3.org/1999/xlink"
   xmlns:sodipodi="http://sodipodi.sourceforge.net/DTD/sodipodi-0.dtd"
   xmlns:inkscape="http://www.inkscape.org/namespaces/inkscape"
   width="48px"
   height="48px"
   id="svg7723"
   sodipodi:version="0.32"
   inkscape:version="0.91 r13725"
   sodipodi:docname="application-x-theme.svg"
   inkscape:output_extension="org.inkscape.output.svg.inkscape"
   version="1.1">
  <defs
     id="defs7725">
    <linearGradient
       id="linearGradient8718"
       inkscape:collect="always">
      <stop
         id="stop8720"
         offset="0"
         style="stop-color:black;stop-opacity:0.412" />
      <stop
         id="stop8722"
         offset="1"
         style="stop-color:black;stop-opacity:0;" />
    </linearGradient>
    <linearGradient
       id="linearGradient3186">
      <stop
         style="stop-color:#555753;stop-opacity:1"
         offset="0"
         id="stop3188" />
      <stop
         style="stop-color:#888a85;stop-opacity:1"
         offset="1"
         id="stop3190" />
    </linearGradient>
    <linearGradient
       inkscape:collect="always"
       xlink:href="#linearGradient3186"
       id="linearGradient3192"
       x1="26.084017"
       y1="25.422512"
       x2="26.084017"
       y2="28.000019"
       gradientUnits="userSpaceOnUse"
       gradientTransform="translate(-8.127351,0.12500735)" />
    <linearGradient
       id="linearGradient3178">
      <stop
         style="stop-color:#babdb6;stop-opacity:1"
         offset="0"
         id="stop3180" />
      <stop
         style="stop-color:#d3d7cf;stop-opacity:1"
         offset="1"
         id="stop3182" />
    </linearGradient>
    <linearGradient
       inkscape:collect="always"
       xlink:href="#linearGradient3178"
       id="linearGradient3184"
       x1="38.5"
       y1="26.71874"
       x2="26.499989"
       y2="23.999994"
       gradientUnits="userSpaceOnUse"
       gradientTransform="translate(-8.127351,0.12500735)" />
    <linearGradient
       inkscape:collect="always"
       id="linearGradient2931">
      <stop
         style="stop-color:white;stop-opacity:1;"
         offset="0"
         id="stop2933" />
      <stop
         style="stop-color:white;stop-opacity:0;"
         offset="1"
         id="stop2935" />
    </linearGradient>
    <linearGradient
       inkscape:collect="always"
       xlink:href="#linearGradient2931"
       id="linearGradient3162"
       gradientUnits="userSpaceOnUse"
       x1="26.282013"
       y1="28"
       x2="26.229612"
       y2="34.544891" />
    <linearGradient
       inkscape:collect="always"
       id="linearGradient2848">
      <stop
         style="stop-color:black;stop-opacity:1;"
         offset="0"
         id="stop2850" />
      <stop
         style="stop-color:black;stop-opacity:0;"
         offset="1"
         id="stop2852" />
    </linearGradient>
    <linearGradient
       inkscape:collect="always"
       xlink:href="#linearGradient2848"
       id="linearGradient3160"
       gradientUnits="userSpaceOnUse"
       gradientTransform="matrix(-1,0,0,1,58.98437,1)"
       x1="29.258053"
       y1="33.980518"
       x2="29.150778"
       y2="35.607071" />
    <linearGradient
       id="linearGradient2907">
      <stop
         style="stop-color:#c17d11;stop-opacity:1"
         offset="0"
         id="stop2909" />
      <stop
         style="stop-color:#e9b96e;stop-opacity:1;"
         offset="1"
         id="stop2911" />
    </linearGradient>
    <linearGradient
       inkscape:collect="always"
       xlink:href="#linearGradient2907"
       id="linearGradient3158"
       gradientUnits="userSpaceOnUse"
       x1="28.747845"
       y1="28.779314"
       x2="28.747845"
       y2="32.069237"
       gradientTransform="translate(0,1)" />
    <linearGradient
       inkscape:collect="always"
       id="linearGradient2951">
      <stop
         style="stop-color:white;stop-opacity:1;"
         offset="0"
         id="stop2953" />
      <stop
         style="stop-color:white;stop-opacity:0;"
         offset="1"
         id="stop2955" />
    </linearGradient>
    <linearGradient
       inkscape:collect="always"
       xlink:href="#linearGradient2951"
       id="linearGradient3156"
       gradientUnits="userSpaceOnUse"
       x1="28.5"
       y1="44"
       x2="28"
       y2="30.375" />
    <linearGradient
       id="linearGradient2872">
      <stop
         style="stop-color:black;stop-opacity:1;"
         offset="0"
         id="stop2874" />
      <stop
         style="stop-color:#d42828;stop-opacity:1;"
         offset="1"
         id="stop2876" />
    </linearGradient>
    <linearGradient
       inkscape:collect="always"
       xlink:href="#linearGradient2872"
       id="linearGradient3154"
       gradientUnits="userSpaceOnUse"
       x1="27.510536"
       y1="25.361137"
       x2="28.028599"
       y2="20.057837" />
    <linearGradient
       inkscape:collect="always"
       id="linearGradient7099">
      <stop
         style="stop-color:#495356;stop-opacity:1"
         offset="0"
         id="stop7101" />
      <stop
         style="stop-color:#1e2224;stop-opacity:1"
         offset="1"
         id="stop7103" />
    </linearGradient>
    <linearGradient
       inkscape:collect="always"
       xlink:href="#linearGradient7099"
       id="linearGradient3152"
       gradientUnits="userSpaceOnUse"
       x1="29.410439"
       y1="20.646769"
       x2="30.096174"
       y2="25.904074" />
    <linearGradient
       id="linearGradient2899">
      <stop
         style="stop-color:#8f5902;stop-opacity:1;"
         offset="0"
         id="stop2901" />
      <stop
         style="stop-color:#633d00;stop-opacity:1;"
         offset="1"
         id="stop2903" />
    </linearGradient>
    <linearGradient
       inkscape:collect="always"
       xlink:href="#linearGradient2899"
       id="linearGradient3150"
       gradientUnits="userSpaceOnUse"
       x1="32"
       y1="37.25"
       x2="32"
       y2="34.270741"
       gradientTransform="translate(0,1)" />
    <linearGradient
       id="linearGradient2915">
      <stop
         style="stop-color:#e9b96e;stop-opacity:1;"
         offset="0"
         id="stop2917" />
      <stop
         style="stop-color:#c17d11;stop-opacity:1"
         offset="1"
         id="stop2919" />
    </linearGradient>
    <linearGradient
       inkscape:collect="always"
       xlink:href="#linearGradient2915"
       id="linearGradient3148"
       gradientUnits="userSpaceOnUse"
       x1="27.65625"
       y1="40.4375"
       x2="32.469254"
       y2="40.4375"
       gradientTransform="translate(0,1)" />
    <linearGradient
       inkscape:collect="always"
       id="linearGradient5225">
      <stop
         style="stop-color:black;stop-opacity:1;"
         offset="0"
         id="stop5227" />
      <stop
         style="stop-color:black;stop-opacity:0;"
         offset="1"
         id="stop5229" />
    </linearGradient>
    <radialGradient
       inkscape:collect="always"
       xlink:href="#linearGradient5225"
       id="radialGradient3146"
       gradientUnits="userSpaceOnUse"
       gradientTransform="matrix(1,0,0,0.24763,0,32.1168)"
       cx="23.9375"
       cy="42.6875"
       fx="23.9375"
       fy="42.6875"
       r="23.75956" />
    <linearGradient
       id="linearGradient2875">
      <stop
         style="stop-color:#ef2929;stop-opacity:1;"
         offset="0"
         id="stop2877" />
      <stop
         style="stop-color:#c00;stop-opacity:1"
         offset="1"
         id="stop2879" />
    </linearGradient>
    <linearGradient
       inkscape:collect="always"
       xlink:href="#linearGradient2875"
       id="linearGradient2881"
       x1="25.3125"
       y1="10.663662"
       x2="25.3125"
       y2="17.750229"
       gradientUnits="userSpaceOnUse" />
    <linearGradient
       id="linearGradient3671">
      <stop
         style="stop-color:#ffffff;stop-opacity:1;"
         offset="0"
         id="stop3673" />
      <stop
         id="stop3691"
         offset="0.47533694"
         style="stop-color:#ffffff;stop-opacity:1;" />
      <stop
         style="stop-color:#ffffff;stop-opacity:0;"
         offset="1"
         id="stop3675" />
    </linearGradient>
    <linearGradient
       id="linearGradient3683">
      <stop
         id="stop3685"
         offset="0"
         style="stop-color:#f6f6f5;stop-opacity:1;" />
      <stop
         id="stop3689"
         offset="1"
         style="stop-color:#d3d7cf;stop-opacity:1" />
    </linearGradient>
    <linearGradient
       id="linearGradient3702">
      <stop
         style="stop-color:black;stop-opacity:0;"
         offset="0"
         id="stop3704" />
      <stop
         id="stop3710"
         offset="0.5"
         style="stop-color:black;stop-opacity:1;" />
      <stop
         style="stop-color:black;stop-opacity:0;"
         offset="1"
         id="stop3706" />
    </linearGradient>
    <radialGradient
       inkscape:collect="always"
       xlink:href="#linearGradient3671"
       id="radialGradient17144"
       gradientUnits="userSpaceOnUse"
       gradientTransform="matrix(0.407336,-0.279828,0.751029,1.09325,370.815,41.5621)"
       cx="-26.305403"
       cy="10.108011"
       fx="-26.305403"
       fy="10.108011"
       r="7.0421038" />
    <linearGradient
       inkscape:collect="always"
       xlink:href="#linearGradient8718"
       id="linearGradient17146"
       gradientUnits="userSpaceOnUse"
       gradientTransform="matrix(0.922306,0,0,0.918575,393.553,51.3257)"
       x1="-19.031248"
       y1="12.617871"
       x2="-28.789402"
       y2="14.069944" />
    <filter
       style="color-interpolation-filters:sRGB"
       inkscape:collect="always"
       id="filter3913-4"
       x="-0.092477873"
       width="1.1849558"
       y="-1.6646018"
       height="4.3292036">
      <feGaussianBlur
         inkscape:collect="always"
         stdDeviation="1.3871681"
         id="feGaussianBlur3915-1" />
    </filter>
    <filter
       style="color-interpolation-filters:sRGB"
       inkscape:collect="always"
       id="filter3871-0"
       x="-0.053244837"
       width="1.1064897"
       y="-0.9584071"
       height="2.9168141">
      <feGaussianBlur
         inkscape:collect="always"
         stdDeviation="0.79867257"
         id="feGaussianBlur3873-5" />
    </filter>
    <radialGradient
       inkscape:collect="always"
       xlink:href="#linearGradient3-paper-sheet-orig-08-5"
       id="radialGradient17484"
       gradientUnits="userSpaceOnUse"
       gradientTransform="matrix(3.854,0,0,1.86639,442.334,21.2596)"
       cx="-30.249996"
       cy="35.357208"
       fx="-30.249996"
       fy="35.357208"
       r="18.000002" />
    <linearGradient
       id="linearGradient3-paper-sheet-orig-08-5">
      <stop
         style="stop-color: rgb(255, 255, 255); stop-opacity: 1;"
         offset="0"
         id="stop6-paper-sheet-orig-1-4" />
      <stop
         style="stop-color: rgb(211, 215, 207); stop-opacity: 1;"
         offset="1"
         id="stop7-paper-sheet-orig-2-6" />
    </linearGradient>
    <linearGradient
       inkscape:collect="always"
       xlink:href="#linearGradient10-paper-sheet-orig-3"
       id="linearGradient17486"
       gradientUnits="userSpaceOnUse"
       gradientTransform="translate(356,50)"
       x1="-40.278805"
       y1="70.736046"
       x2="-52.75"
       y2="3.8729248" />
    <linearGradient
       inkscape:collect="always"
       id="linearGradient10-paper-sheet-orig-3">
      <stop
         style="stop-color: rgb(85, 87, 83); stop-opacity: 1;"
         offset="0"
         id="stop15-paper-sheet-orig-7" />
      <stop
         style="stop-color: rgb(186, 189, 182); stop-opacity: 1;"
         offset="1"
         id="stop16-paper-sheet-orig-8" />
    </linearGradient>
    <radialGradient
       inkscape:collect="always"
       xlink:href="#linearGradient2931"
       id="radialGradient17488"
       gradientUnits="userSpaceOnUse"
       gradientTransform="matrix(3.23437,0,0,1.52429,-8.93747,-6.07875)"
       cx="4"
       cy="5.2999997"
       fx="4"
       fy="5.2999997"
       r="17" />
    <linearGradient
       inkscape:collect="always"
       xlink:href="#linearGradient2931"
       id="linearGradient17490"
       gradientUnits="userSpaceOnUse"
       x1="-26.753757"
       y1="11.566258"
       x2="-24.75"
       y2="9.687501" />
  </defs>
  <sodipodi:namedview
     id="base"
     pagecolor="#ffffff"
     bordercolor="#666666"
     borderopacity="1.0"
     inkscape:pageopacity="0.0"
     inkscape:pageshadow="2"
     inkscape:zoom="9.8994949"
     inkscape:cx="36.678092"
     inkscape:cy="30.694702"
     inkscape:current-layer="use15225"
     showgrid="true"
     inkscape:grid-bbox="true"
     inkscape:document-units="px"
     inkscape:window-width="1920"
     inkscape:window-height="1017"
     inkscape:window-x="-5"
     inkscape:window-y="-5"
     inkscape:window-maximized="1" />
  <metadata
     id="metadata7728">
    <rdf:RDF>
      <cc:Work
         rdf:about="">
        <dc:format>image/svg+xml</dc:format>
        <dc:type
           rdf:resource="http://purl.org/dc/dcmitype/StillImage" />
      </cc:Work>
    </rdf:RDF>
  </metadata>
  <g
     id="layer1"
     inkscape:label="Layer 1"
     inkscape:groupmode="layer">
    <g
       id="use15217"
       style="display:inline"
       transform="translate(-699.99955,-50.00049)">
      <g
         transform="translate(400.044,1.01491)"
         id="g17470"
         style="display:inline">
        <rect
           style="display:inline;opacity:0.475;fill:#000000;fill-opacity:1;stroke:none;filter:url(#filter3913-4)"
           id="rect17472"
           width="36"
           height="2"
           x="306"
           y="91"
           rx="7.5241151"
           ry="2"
           transform="matrix(1.1189,0,0,1.17678,-38.2578,-16.0867)" />
        <rect
           style="opacity:0.71499999;fill:#000000;fill-opacity:1;stroke:none;filter:url(#filter3871-0)"
           id="rect17474"
           width="36"
           height="2"
           x="306"
           y="91"
           rx="6.3920398"
           ry="2"
           transform="matrix(1.01334,0,0,1,-4.05753,0)" />
      </g>
      <g
         transform="translate(404.044,-0.985092)"
         id="g17476">
        <path
           inkscape:connector-curvature="0"
           sodipodi:nodetypes="ccsccccccc"
           id="path17478"
           d="m 304.52386,53.5 c 0,0 17.47614,0 18.97614,0 3.87705,0.07294 6.5,2.5 9,5 2.5,2.5 4.60768,5.252625 5,9 0,1.5 0,24.97614 0,24.97614 0,1.12122 -0.90264,2.02386 -2.02385,2.02386 l -30.95229,0 C 303.40264,94.5 302.5,93.59736 302.5,92.47614 l 0,-36.952282 C 302.5,54.402641 303.40264,53.5 304.52386,53.5 Z"
           style="display:inline;fill:url(#radialGradient17484);fill-opacity:1;stroke:url(#linearGradient17486);stroke-width:1;stroke-miterlimit:4" />
        <path
           transform="translate(296,50)"
           d="m 8.53125,3.9863281 c -0.8581697,0 -1.5449219,0.6867521 -1.5449219,1.5449219 l 0,36.9375 c 0,0.85817 0.6867521,1.544922 1.5449219,1.544922 l 30.9375,0 c 0.858169,0 1.544922,-0.686754 1.544922,-1.544922 l 0,-24.96875 c 0,-1.39197 -0.500651,-4.299479 -2.357422,-6.15625 l -5,-5 C 31.799479,4.4869792 28.89197,3.9863281 27.5,3.9863281 l -18.96875,0 z"
           id="path17480"
           style="display:inline;fill:url(#radialGradient17488);fill-opacity:1;stroke:none"
           inkscape:original="M 8.53125 3.5 C 7.410033 3.5 6.5 4.4100329 6.5 5.53125 L 6.5 42.46875 C 6.5 43.589967 7.4100329 44.5 8.53125 44.5 L 39.46875 44.5 C 40.589967 44.5 41.5 43.589966 41.5 42.46875 C 41.5 42.46875 41.5 19 41.5 17.5 C 41.5 16 41 13 39 11 C 37 9 36 8 34 6 C 32 4 29 3.5 27.5 3.5 C 26 3.5 8.5312499 3.5 8.53125 3.5 z "
           inkscape:radius="-0.4861359"
           sodipodi:type="inkscape:offset" />
        <path
           transform="translate(356,50)"
           d="m -51.46875,4.4941406 c -0.583166,0 -1.037109,0.4539436 -1.037109,1.0371094 l 0,36.9375 c 0,0.583165 0.453945,1.037109 1.037109,1.037109 l 30.9375,0 c 0.583165,0 1.037109,-0.453945 1.037109,-1.037109 l 0,-24.96875 c 0,-1.279029 -0.501953,-4.089844 -2.208984,-5.796875 l -5,-5 C -28.410156,4.9960937 -31.220971,4.4941406 -32.5,4.4941406 l -18.96875,0 z"
           id="path17482"
           style="display:inline;fill:none;stroke:url(#linearGradient17490);stroke-width:1;stroke-miterlimit:4"
           inkscape:original="M -51.46875 3.5 C -52.589967 3.5 -53.5 4.4100329 -53.5 5.53125 L -53.5 42.46875 C -53.5 43.589967 -52.589966 44.5 -51.46875 44.5 L -20.53125 44.5 C -19.410033 44.5 -18.5 43.589966 -18.5 42.46875 C -18.5 42.46875 -18.5 19 -18.5 17.5 C -18.5 16 -19 13 -21 11 C -23 9 -24 8 -26 6 C -28 4 -31 3.5 -32.5 3.5 C -34 3.5 -51.468749 3.5 -51.46875 3.5 z "
           inkscape:radius="-0.99436891"
           sodipodi:type="inkscape:offset" />
      </g>
    </g>
    <g
       style="display:inline"
       id="g3051"
       transform="translate(-5.127351,-2.8749927)">
      <path
         sodipodi:nodetypes="ccccscccscccc"
         id="path5267"
         d="m 33,7.0625 -20,0 0.03125,12.032491 c 0,0.994482 0.960783,0.985338 0.953125,-0.07129 -0.445468,-7.242897 1.514005,-6.274 1.5,-9.8552357 C 15.482241,8.6870091 16,8.7150938 16,9.0514625 l 0,17.1401765 c 0,0.994481 1,0.994481 1,0 0.03125,-5.930326 1.4375,-2.567402 1.5,-8.021661 0.0069,-0.605054 1.640625,-1.521523 1.765625,-1.261934 L 23,23.968681 36.375,24.963162 C 36.375,16.012831 35,7.0625 33,7.0625 Z"
         style="opacity:1;fill:url(#linearGradient2881);fill-opacity:1;fill-rule:evenodd;stroke:none;stroke-width:1px;stroke-linecap:butt;stroke-linejoin:miter;stroke-opacity:1"
         inkscape:connector-curvature="0" />
      <rect
         ry="0.109375"
         rx="0.109375"
         y="8.4375"
         x="13.28125"
         height="9.875"
         width="0.21875"
         id="rect2867"
         style="opacity:0.3;fill:#ffffff;fill-opacity:1;stroke:none;stroke-width:1.00199997;stroke-linecap:round;stroke-linejoin:miter;stroke-miterlimit:4;stroke-dasharray:none;stroke-dashoffset:1.20000052;stroke-opacity:1" />
      <rect
         ry="0.109375"
         rx="0.109375"
         y="9"
         x="16.265625"
         height="16.5625"
         width="0.21875"
         id="rect2869"
         style="opacity:0.3;fill:#ffffff;fill-opacity:1;stroke:none;stroke-width:1.00199997;stroke-linecap:round;stroke-linejoin:miter;stroke-miterlimit:4;stroke-dasharray:none;stroke-dashoffset:1.20000052;stroke-opacity:1" />
      <ellipse
         transform="translate(-0.125,-0.242188)"
         id="path2871"
         style="opacity:0.3;fill:#ffffff;fill-opacity:1;stroke:none;stroke-width:1.00199997;stroke-linecap:round;stroke-linejoin:miter;stroke-miterlimit:4;stroke-dasharray:none;stroke-dashoffset:1.20000052;stroke-opacity:1"
         cx="13.46875"
         cy="19.007812"
         rx="0.2265625"
         ry="0.2421875" />
      <ellipse
         transform="translate(2.859375,7.078124)"
         id="path2873"
         style="opacity:0.3;fill:#ffffff;fill-opacity:1;stroke:none;stroke-width:1.00199997;stroke-linecap:round;stroke-linejoin:miter;stroke-miterlimit:4;stroke-dasharray:none;stroke-dashoffset:1.20000052;stroke-opacity:1"
         cx="13.46875"
         cy="19.007812"
         rx="0.2265625"
         ry="0.2421875" />
    </g>
    <g
       style="display:inline"
       id="g3136"
       transform="translate(-5.127351,-5.8749855)">
      <ellipse
         transform="matrix(0.230912,0,0,0.424911,23.95891,27.3616)"
         id="path11126"
         style="opacity:0.3;fill:url(#radialGradient3146);fill-opacity:1;fill-rule:evenodd;stroke:none;stroke-width:1px;stroke-linecap:butt;stroke-linejoin:miter;stroke-opacity:1"
         cx="23.9375"
         cy="42.6875"
         rx="23.75956"
         ry="5.8835783" />
      <path
         sodipodi:nodetypes="czzzcc"
         id="path5257"
         d="m 31.011062,32.499991 c 0,0 1.517508,7.753133 1.488939,9.924081 -0.0281,2.135359 -0.680343,4.013415 -3.030619,4.013415 -2.319352,0 -2.937846,-1.733065 -2.96877,-4.013415 -0.03092,-2.280058 1.457038,-9.861581 1.457038,-9.861581 l 3.053412,-0.0625 z"
         style="fill:url(#linearGradient3148);fill-opacity:1;fill-rule:evenodd;stroke:url(#linearGradient3150);stroke-width:0.99999982px;stroke-linecap:butt;stroke-linejoin:miter;stroke-opacity:1"
         inkscape:connector-curvature="0" />
      <path
         sodipodi:nodetypes="cccccccccc"
         id="path5265"
         d="m 22.5,27.5 c -0.04151,-4.4375 -2.083009,-8.0625 -2,-8 1.494165,1.3125 3.486385,1.5 4.482495,3.9375 0,0.0625 1.99222,-1.4375 1.556421,-3 C 27.970825,21 28.157595,22.145833 28.966935,23 l 0.99611,-3 2.487474,3 3.058919,-3 c 0,0 0.928306,4.9375 0.990562,7.5 l -14,0 z"
         style="fill:url(#linearGradient3152);fill-opacity:1;fill-rule:evenodd;stroke:url(#linearGradient3154);stroke-width:1.00000012px;stroke-linecap:butt;stroke-linejoin:miter;stroke-opacity:1"
         inkscape:connector-curvature="0" />
      <path
         d="m 30.167969,32.517578 -1.361328,0.02734 c -0.105303,0.542588 -0.300876,1.520946 -0.597657,3.267578 -0.368451,2.168433 -0.721265,4.705741 -0.708984,5.611328 0.01428,1.053126 0.191629,1.886694 0.474609,2.337891 0.28298,0.451197 0.581825,0.67578 1.494141,0.675781 0.910451,0 1.237533,-0.252426 1.539062,-0.732422 0.30153,-0.479996 0.47943,-1.311715 0.492188,-2.28125 0.01099,-0.834927 -0.350461,-3.401038 -0.726562,-5.599609 -0.301067,-1.759937 -0.496299,-2.742718 -0.605469,-3.306641 z"
         id="path2945"
         style="opacity:0.6;fill:none;fill-opacity:1;fill-rule:evenodd;stroke:url(#linearGradient3156);stroke-width:0.99999982px;stroke-linecap:butt;stroke-linejoin:miter;stroke-opacity:1"
         inkscape:original="M 31 31.5 L 27.96875 31.5625 C 27.96875 31.5625 26.469079 39.157442 26.5 41.4375 C 26.530924 43.71785 27.149399 45.437498 29.46875 45.4375 C 31.819026 45.4375 32.4719 43.572859 32.5 41.4375 C 32.528569 39.266552 30.999999 31.500001 31 31.5 z "
         inkscape:radius="-1.0008699"
         sodipodi:type="inkscape:offset"
         transform="translate(0,1)" />
      <path
         sodipodi:nodetypes="ccccccc"
         id="path5259"
         d="M 22.504711,32.995289 22.5,28.5 l 14,0 0.0047,4.495289 C 36.504711,33.995289 36,34.520833 35,34.5 l -11,0 c -1,0 -1.5,-0.5 -1.495289,-1.504711 z"
         style="fill:url(#linearGradient3158);fill-opacity:1;fill-rule:evenodd;stroke:#8f5902;stroke-width:1px;stroke-linecap:butt;stroke-linejoin:miter;stroke-opacity:1"
         inkscape:connector-curvature="0" />
      <path
         sodipodi:nodetypes="cccc"
         id="path2846"
         d="m 27.984375,35 2.984375,-0.0078 c 0.24411,1.325862 0.191772,0.976583 0.394695,2.323039 C 30.723043,35.335164 28.484375,35 27.984375,35 Z"
         style="display:inline;overflow:visible;visibility:visible;opacity:0.3608247;fill:url(#linearGradient3160);fill-opacity:1;fill-rule:nonzero;stroke:none;stroke-width:1;stroke-linecap:butt;stroke-linejoin:miter;stroke-miterlimit:10;stroke-dasharray:none;stroke-dashoffset:0;stroke-opacity:1;marker:none;marker-start:none;marker-mid:none;marker-end:none"
         inkscape:connector-curvature="0" />
      <path
         sodipodi:nodetypes="cccccccccccccccc"
         id="path2870"
         d="m 21.743534,20.953166 1.06066,4.154252 0.132582,-2.408583 c 0.997897,0.258109 1.304331,1.810757 1.988738,2.695845 0.753849,-0.515041 1.777995,-1.109781 2.474874,-1.966641 l 1.988737,1.458408 1.458408,-1.900349 2.121321,2.032932 2.740039,-1.856156 -0.441942,-2.12132 -2.828427,2.740039 -2.298097,-2.784233 c -0.33512,1.038524 -0.691851,2.120271 -0.972272,3.049398 -0.762837,-0.796294 -1.231027,-1.887221 -2.12132,-2.717942 -0.350634,0.852409 -0.628231,1.802608 -2.342292,2.717942 -0.61328,-1.33897 -1.35884,-2.569002 -2.961009,-3.093592 z"
         style="display:inline;overflow:visible;visibility:visible;opacity:1;fill:#ef2929;fill-opacity:1;fill-rule:nonzero;stroke:none;stroke-width:1;stroke-linecap:butt;stroke-linejoin:miter;stroke-miterlimit:10;stroke-dasharray:none;stroke-dashoffset:0;stroke-opacity:1;marker:none;marker-start:none;marker-mid:none;marker-end:none"
         inkscape:connector-curvature="0" />
      <path
         d="m 23.492188,28.492188 0,3.507812 a 0.99228672,0.99228672 0 0 1 0,0.0039 c -0.0016,0.335457 0.065,0.404918 0.08008,0.419922 0.01507,0.015 0.09154,0.08398 0.427734,0.08398 l 11,0 a 0.99228672,0.99228672 0 0 1 0.02148,0 c 0.324415,0.0068 0.382271,-0.05593 0.398438,-0.07227 0.01617,-0.01634 0.08789,-0.100912 0.08789,-0.435547 l 0,-3.507812 -12.015624,0 z"
         id="path2929"
         style="opacity:0.6;fill:none;fill-opacity:1;fill-rule:evenodd;stroke:url(#linearGradient3162);stroke-width:1px;stroke-linecap:butt;stroke-linejoin:miter;stroke-opacity:1"
         inkscape:original="M 22.5 27.5 L 22.5 32 C 22.495289 33.004711 23 33.5 24 33.5 L 35 33.5 C 36 33.520833 36.5 33 36.5 32 L 36.5 27.5 L 22.5 27.5 z "
         inkscape:radius="-0.9921875"
         sodipodi:type="inkscape:offset"
         transform="translate(0,1)" />
    </g>
    <path
       style="display:inline;fill:url(#linearGradient3184);fill-opacity:1;stroke:url(#linearGradient3192);stroke-width:0.9999997;stroke-linecap:round;stroke-linejoin:miter;stroke-miterlimit:4;stroke-dashoffset:1.20000052;stroke-opacity:1"
       d="m 31.372649,25.650895 0,0.948224 c 0,0.568342 -0.457546,1.025888 -1.025888,1.025888 l -11.948224,0 c -0.568342,0 -1.025888,-0.457546 -1.025888,-1.025888 l 0,-0.948224 14,0 z"
       id="rect3176"
       inkscape:connector-curvature="0" />
    <g
       transform="translate(-335.77855,-50.86946)"
       id="use15225"
       style="display:inline">
      <path
         inkscape:connector-curvature="0"
         sodipodi:nodetypes="ccccc"
         id="path17142"
         d="m 364.60088,55.014353 c 0.9223,0 3.00844,6.195662 2.08614,10.32925 4.29496,-0.427759 8.85338,0.08818 9.31298,0.937647 -0.32087,-1.158872 -2.67669,-4.711833 -7,-4.28125 0.86466,-3.875239 -3.18657,-6.617298 -4.39912,-6.985647 z"
         style="display:inline;opacity:0.87854201;fill:url(#linearGradient17146);fill-opacity:1;stroke:none" />
      <path
         inkscape:connector-curvature="0"
         sodipodi:nodetypes="ccccczc"
         id="path17140"
         d="m 363.5,54 c -1.38889,0 -0.0421,0.497088 1.34375,1.125 1.38582,0.627912 4.97288,3.215052 4.15625,6.875 4.32331,-0.430583 6.67913,3.122378 7,4.28125 0.32087,1.158872 1,2.607639 1,1.21875 0.0283,-3.805581 -2.84543,-6.431701 -4.84375,-8.65625 C 370.15793,56.619201 367.15379,54.476761 363.5,54 Z"
         style="display:inline;fill:url(#radialGradient17144);fill-opacity:1;stroke:none" />
    </g>
  </g>
</svg>
