<?xml version="1.0" encoding="UTF-8" standalone="no"?>
<!-- Created with Inkscape (http://www.inkscape.org/) -->
<svg
   xmlns:dc="http://purl.org/dc/elements/1.1/"
   xmlns:cc="http://web.resource.org/cc/"
   xmlns:rdf="http://www.w3.org/1999/02/22-rdf-syntax-ns#"
   xmlns:svg="http://www.w3.org/2000/svg"
   xmlns="http://www.w3.org/2000/svg"
   xmlns:xlink="http://www.w3.org/1999/xlink"
   xmlns:sodipodi="http://inkscape.sourceforge.net/DTD/sodipodi-0.dtd"
   xmlns:inkscape="http://www.inkscape.org/namespaces/inkscape"
   width="48"
   height="48"
   id="svg3077"
   sodipodi:version="0.32"
   inkscape:version="0.43"
   sodipodi:docbase="/home/lapo/Desktop"
   sodipodi:docname="dvd-video.svg"
   version="1.0"
   inkscape:export-filename="/home/lapo/Desktop/dvd-video.png"
   inkscape:export-xdpi="90"
   inkscape:export-ydpi="90">
  <defs
     id="defs3">
    <linearGradient
       inkscape:collect="always"
       id="linearGradient2685">
      <stop
         style="stop-color:#000000;stop-opacity:1;"
         offset="0"
         id="stop2687" />
      <stop
         style="stop-color:#000000;stop-opacity:0;"
         offset="1"
         id="stop2689" />
    </linearGradient>
    <linearGradient
       inkscape:collect="always"
       id="linearGradient2636">
      <stop
         style="stop-color:#000000"
         offset="0"
         id="stop2638" />
      <stop
         style="stop-color:#2e3436;stop-opacity:0"
         offset="1"
         id="stop2640" />
    </linearGradient>
    <linearGradient
       id="linearGradient6064">
      <stop
         style="stop-color:#000000;stop-opacity:0;"
         offset="0"
         id="stop6066" />
      <stop
         id="stop6074"
         offset="0.26020408"
         style="stop-color:#000000;stop-opacity:0;" />
      <stop
         id="stop6072"
         offset="0.5596453"
         style="stop-color:#000000;stop-opacity:1;" />
      <stop
         style="stop-color:#000000;stop-opacity:0;"
         offset="1"
         id="stop6068" />
    </linearGradient>
    <linearGradient
       inkscape:collect="always"
       id="linearGradient5828">
      <stop
         style="stop-color:#2e3436;stop-opacity:1;"
         offset="0"
         id="stop5830" />
      <stop
         style="stop-color:#2e3436;stop-opacity:0;"
         offset="1"
         id="stop5832" />
    </linearGradient>
    <linearGradient
       inkscape:collect="always"
       id="linearGradient23419">
      <stop
         style="stop-color:#000000;stop-opacity:1;"
         offset="0"
         id="stop23421" />
      <stop
         style="stop-color:#000000;stop-opacity:0;"
         offset="1"
         id="stop23423" />
    </linearGradient>
    <linearGradient
       id="linearGradient3435"
       gradientUnits="userSpaceOnUse"
       x1="12.2744"
       y1="32.4165"
       x2="35.391201"
       y2="14.2033">
      <stop
         offset="0.0000000"
         style="stop-color:#ffffc8;stop-opacity:1.0000000;"
         id="stop3437" />
      <stop
         offset="1.0000000"
         style="stop-color:#9a91ef;stop-opacity:0.0000000;"
         id="stop3439" />
    </linearGradient>
    <linearGradient
       y2="14.2033"
       x2="35.391201"
       y1="32.4165"
       x1="12.2744"
       gradientUnits="userSpaceOnUse"
       id="linearGradient3421">
      <stop
         id="stop3423"
         style="stop-color:#ffffff;stop-opacity:1.0000000;"
         offset="0.0000000" />
      <stop
         id="stop3427"
         style="stop-color:#b8c04c;stop-opacity:0.0000000;"
         offset="1.0000000" />
    </linearGradient>
    <linearGradient
       id="linearGradient3406"
       gradientUnits="userSpaceOnUse"
       x1="12.2744"
       y1="32.4165"
       x2="35.391201"
       y2="14.2033">
      <stop
         offset="0.0000000"
         style="stop-color:#b307ff;stop-opacity:0.82178217;"
         id="stop3408" />
      <stop
         offset="1.0000000"
         style="stop-color:#f0ff8b;stop-opacity:0.64356434;"
         id="stop3410" />
      <stop
         offset="1.0000000"
         style="stop-color:#ffffff;stop-opacity:0.0000000;"
         id="stop3412" />
    </linearGradient>
    <linearGradient
       y2="14.2033"
       x2="35.391201"
       y1="32.4165"
       x1="12.2744"
       gradientUnits="userSpaceOnUse"
       id="linearGradient3394">
      <stop
         id="stop3396"
         style="stop-color:#fff307;stop-opacity:1.0000000;"
         offset="0.0000000" />
      <stop
         id="stop3398"
         style="stop-color:#166eff;stop-opacity:1.0000000;"
         offset="0.50000000" />
      <stop
         id="stop3400"
         style="stop-color:#ffffff;stop-opacity:0.0000000;"
         offset="1.0000000" />
    </linearGradient>
    <linearGradient
       inkscape:collect="always"
       id="linearGradient6036">
      <stop
         style="stop-color:#ffffff;stop-opacity:1;"
         offset="0"
         id="stop6038" />
      <stop
         style="stop-color:#ffffff;stop-opacity:0;"
         offset="1"
         id="stop6040" />
    </linearGradient>
    <linearGradient
       inkscape:collect="always"
       id="linearGradient6028">
      <stop
         style="stop-color:#ffffff;stop-opacity:1;"
         offset="0"
         id="stop6030" />
      <stop
         style="stop-color:#ffffff;stop-opacity:0;"
         offset="1"
         id="stop6032" />
    </linearGradient>
    <linearGradient
       id="linearGradient4236">
      <stop
         style="stop-color:#ffffff;stop-opacity:0.32673267;"
         offset="0.0000000"
         id="stop4238" />
      <stop
         style="stop-color:#ffffff;stop-opacity:0.60396039;"
         offset="1.0000000"
         id="stop4240" />
    </linearGradient>
    <linearGradient
       id="aigrd2"
       gradientUnits="userSpaceOnUse"
       x1="12.2744"
       y1="32.4165"
       x2="35.391201"
       y2="14.2033">
      <stop
         offset="0"
         style="stop-color:#FBFBFB"
         id="stop3043" />
      <stop
         offset="0.5"
         style="stop-color:#B6B6B6"
         id="stop3045" />
      <stop
         offset="1"
         style="stop-color:#E4E4E4"
         id="stop3047" />
    </linearGradient>
    <linearGradient
       id="aigrd1"
       gradientUnits="userSpaceOnUse"
       x1="14.9966"
       y1="11.1885"
       x2="32.511002"
       y2="34.307499">
      <stop
         offset="0"
         style="stop-color:#EBEBEB"
         id="stop3034" />
      <stop
         offset="0.5"
         style="stop-color:#FFFFFF"
         id="stop3036" />
      <stop
         offset="1"
         style="stop-color:#EBEBEB"
         id="stop3038" />
    </linearGradient>
    <linearGradient
       inkscape:collect="always"
       xlink:href="#linearGradient6028"
       id="linearGradient23353"
       gradientUnits="userSpaceOnUse"
       x1="28.702885"
       y1="31.494707"
       x2="17.742729"
       y2="18.366575" />
    <radialGradient
       inkscape:collect="always"
       xlink:href="#linearGradient3435"
       id="radialGradient23368"
       gradientUnits="userSpaceOnUse"
       gradientTransform="matrix(-5.04822e-2,1.387847e-2,-0.12844,-0.467196,35.41257,39.44172)"
       cx="133.84108"
       cy="23.914305"
       fx="133.84108"
       fy="23.914305"
       r="21.333334" />
    <radialGradient
       inkscape:collect="always"
       xlink:href="#linearGradient3435"
       id="radialGradient23371"
       gradientUnits="userSpaceOnUse"
       gradientTransform="matrix(0.105916,-1.91424e-2,0.104789,0.579807,17.13693,7.115158)"
       cx="35.511295"
       cy="21.618015"
       fx="35.511295"
       fy="21.618015"
       r="21.333334" />
    <radialGradient
       inkscape:collect="always"
       xlink:href="#linearGradient3435"
       id="radialGradient23374"
       gradientUnits="userSpaceOnUse"
       gradientTransform="matrix(5.184267e-3,-0.12286,0.544548,2.297824e-2,0.957234,26.30756)"
       cx="16.885271"
       cy="33.377594"
       fx="16.885271"
       fy="33.377594"
       r="21.333334" />
    <radialGradient
       inkscape:collect="always"
       xlink:href="#linearGradient3421"
       id="radialGradient23377"
       gradientUnits="userSpaceOnUse"
       gradientTransform="matrix(0.15845,-0.158988,0.432907,0.431441,-2.723645,15.00107)"
       cx="53.556889"
       cy="48.23827"
       fx="53.556889"
       fy="48.23827"
       r="21.333334" />
    <radialGradient
       inkscape:collect="always"
       xlink:href="#linearGradient3406"
       id="radialGradient23380"
       gradientUnits="userSpaceOnUse"
       gradientTransform="matrix(0.769501,-1.2425,0.6703,0.415141,-21.77857,41.36563)"
       cx="26.137741"
       cy="38.807304"
       fx="26.137741"
       fy="38.807304"
       r="21.333334" />
    <radialGradient
       inkscape:collect="always"
       xlink:href="#linearGradient3394"
       id="radialGradient23383"
       gradientUnits="userSpaceOnUse"
       gradientTransform="matrix(0.848684,0.95802,-0.782119,0.692834,18.69147,-20.52578)"
       cx="37.751469"
       cy="27.569166"
       fx="37.751469"
       fy="27.569166"
       r="21.333334" />
    <linearGradient
       inkscape:collect="always"
       xlink:href="#linearGradient6036"
       id="linearGradient23387"
       gradientUnits="userSpaceOnUse"
       x1="10.50172"
       y1="3.6100161"
       x2="48.798885"
       y2="54.698483" />
    <linearGradient
       inkscape:collect="always"
       xlink:href="#linearGradient4236"
       id="linearGradient23390"
       gradientUnits="userSpaceOnUse"
       gradientTransform="matrix(1.25,0,0,1.25,-5.652995,-2.604165)"
       x1="21.125"
       y1="14.625"
       x2="29"
       y2="28" />
    <linearGradient
       inkscape:collect="always"
       xlink:href="#linearGradient4236"
       id="linearGradient23393"
       gradientUnits="userSpaceOnUse"
       gradientTransform="matrix(1.25,0,0,1.25,-5.652995,-2.604165)"
       x1="21.125"
       y1="14.625"
       x2="29"
       y2="28" />
    <linearGradient
       inkscape:collect="always"
       xlink:href="#aigrd2"
       id="linearGradient23397"
       gradientUnits="userSpaceOnUse"
       gradientTransform="matrix(1.190476,0,0,1.190476,-4.224424,-2.500001)"
       x1="12.2744"
       y1="32.4165"
       x2="35.391201"
       y2="14.2033" />
    <linearGradient
       inkscape:collect="always"
       xlink:href="#aigrd1"
       id="linearGradient23400"
       gradientUnits="userSpaceOnUse"
       gradientTransform="matrix(1.190476,0,0,1.190476,-4.224424,-2.5)"
       x1="14.9966"
       y1="11.1885"
       x2="32.511002"
       y2="34.307499" />
    <radialGradient
       inkscape:collect="always"
       xlink:href="#linearGradient23419"
       id="radialGradient23425"
       cx="23.334524"
       cy="41.63604"
       fx="23.334524"
       fy="41.63604"
       r="22.627417"
       gradientTransform="matrix(1,0,0,0.25,0,31.22703)"
       gradientUnits="userSpaceOnUse" />
    <radialGradient
       inkscape:collect="always"
       xlink:href="#linearGradient5828"
       id="radialGradient5834"
       cx="13.755026"
       cy="23.952759"
       fx="13.755026"
       fy="23.952759"
       r="6.984375"
       gradientTransform="matrix(-2.238036,1.662877e-16,-2.392089e-5,-2.966497,48.06145,96.05579)"
       gradientUnits="userSpaceOnUse" />
    <radialGradient
       inkscape:collect="always"
       xlink:href="#linearGradient6064"
       id="radialGradient6070"
       cx="23.574247"
       cy="25.294958"
       fx="23.574247"
       fy="25.294958"
       r="16.000092"
       gradientTransform="matrix(1.877149,3.358548e-16,3.06134e-8,1.486728,-20.04267,-12.55129)"
       gradientUnits="userSpaceOnUse" />
    <radialGradient
       inkscape:collect="always"
       xlink:href="#linearGradient2636"
       id="radialGradient2642"
       cx="23.001322"
       cy="29.405449"
       fx="23.001322"
       fy="29.405449"
       r="18.968855"
       gradientTransform="matrix(1.650805,7.167993e-17,-3.129929e-17,0.758978,-15.7669,8.430143)"
       gradientUnits="userSpaceOnUse" />
    <radialGradient
       inkscape:collect="always"
       xlink:href="#linearGradient2685"
       id="radialGradient2691"
       cx="24.34375"
       cy="34"
       fx="24.34375"
       fy="34"
       r="20.34375"
       gradientTransform="matrix(1.438182,1.451909e-16,-6.423187e-17,0.636246,-10.667,12.36763)"
       gradientUnits="userSpaceOnUse" />
  </defs>
  <sodipodi:namedview
     id="base"
     pagecolor="#ffffff"
     bordercolor="#666666"
     borderopacity="0.25490196"
     inkscape:pageopacity="0.0"
     inkscape:pageshadow="2"
     inkscape:zoom="1"
     inkscape:cx="25.00152"
     inkscape:cy="14.196381"
     inkscape:current-layer="layer3"
     showgrid="false"
     inkscape:grid-bbox="false"
     inkscape:document-units="px"
     inkscape:window-width="958"
     inkscape:window-height="863"
     inkscape:window-x="0"
     inkscape:window-y="48"
     inkscape:showpageshadow="false"
     fill="#2e3436"
     inkscape:grid-points="true"
     gridspacingx="0.5px"
     gridspacingy="0.5px"
     gridempspacing="2" />
  <metadata
     id="metadata4">
    <rdf:RDF>
      <cc:Work
         rdf:about="">
        <dc:format>image/svg+xml</dc:format>
        <dc:type
           rdf:resource="http://purl.org/dc/dcmitype/StillImage" />
        <dc:title>Media CD-ROM</dc:title>
        <dc:creator>
          <cc:Agent>
            <dc:title>Jakub Steiner</dc:title>
          </cc:Agent>
        </dc:creator>
        <dc:source>http://jimmac.musichall.cz</dc:source>
        <dc:subject>
          <rdf:Bag>
            <rdf:li>cdrom</rdf:li>
            <rdf:li>media</rdf:li>
            <rdf:li>removable</rdf:li>
            <rdf:li>cd</rdf:li>
            <rdf:li>audio</rdf:li>
          </rdf:Bag>
        </dc:subject>
        <cc:license
           rdf:resource="http://creativecommons.org/licenses/by-sa/2.0/" />
      </cc:Work>
      <cc:License
         rdf:about="http://creativecommons.org/licenses/by-sa/2.0/">
        <cc:permits
           rdf:resource="http://web.resource.org/cc/Reproduction" />
        <cc:permits
           rdf:resource="http://web.resource.org/cc/Distribution" />
        <cc:requires
           rdf:resource="http://web.resource.org/cc/Notice" />
        <cc:requires
           rdf:resource="http://web.resource.org/cc/Attribution" />
        <cc:permits
           rdf:resource="http://web.resource.org/cc/DerivativeWorks" />
        <cc:requires
           rdf:resource="http://web.resource.org/cc/ShareAlike" />
      </cc:License>
    </rdf:RDF>
  </metadata>
  <g
     id="layer1"
     inkscape:label="Layer 1"
     inkscape:groupmode="layer"
     style="display:inline">
    <path
       sodipodi:type="arc"
       style="opacity:0.55;color:#000000;fill:url(#radialGradient23425);fill-opacity:1;fill-rule:evenodd;stroke:none;stroke-width:2;stroke-linecap:butt;stroke-linejoin:miter;marker:none;marker-start:none;marker-mid:none;marker-end:none;stroke-miterlimit:4;stroke-dasharray:none;stroke-dashoffset:0;stroke-opacity:1;visibility:visible;display:inline;overflow:visible"
       id="path23417"
       sodipodi:cx="23.334524"
       sodipodi:cy="41.63604"
       sodipodi:rx="22.627417"
       sodipodi:ry="5.6568542"
       d="M 45.961941 41.63604 A 22.627417 5.6568542 0 1 1  0.70710754,41.63604 A 22.627417 5.6568542 0 1 1  45.961941 41.63604 z"
       inkscape:r_cx="true"
       inkscape:r_cy="true"
       transform="matrix(1,0,0,1.066291,1,-2.885106)" />
    <path
       inkscape:r_cy="true"
       inkscape:r_cx="true"
       id="path3040"
       d="M 24.347006,4.1666669 C 12.799386,4.1666669 3.5136719,13.452381 3.5136719,25 C 3.5136719,36.54762 12.799386,45.833335 24.347006,45.833335 C 35.894626,45.833335 45.180341,36.54762 45.180341,25 C 45.180341,13.452381 35.894626,4.1666669 24.347006,4.1666669 L 24.347006,4.1666669 z M 24.347006,30.000001 C 21.608911,30.000001 19.347006,27.738096 19.347006,25 C 19.347006,22.261905 21.608911,20 24.347006,20 C 27.085101,20 29.347006,22.261905 29.347006,25 C 29.347006,27.738096 27.085101,30.000001 24.347006,30.000001 z "
       style="fill:url(#linearGradient23400);fill-rule:nonzero;stroke:none;stroke-miterlimit:4" />
    <path
       inkscape:r_cy="true"
       inkscape:r_cx="true"
       id="path3049"
       d="M 24.347006,4.1666665 C 12.799386,4.1666665 3.513672,13.452381 3.513672,25 C 3.513672,36.54762 12.799386,45.833335 24.347006,45.833335 C 35.894626,45.833335 45.180341,36.54762 45.180341,25 C 45.180341,13.452381 35.894626,4.1666665 24.347006,4.1666665 L 24.347006,4.1666665 z M 24.347006,30.000001 C 21.608911,30.000001 19.347006,27.738096 19.347006,25 C 19.347006,22.261905 21.608911,20 24.347006,20 C 27.085101,20 29.347006,22.261905 29.347006,25 C 29.347006,27.738096 27.085101,30.000001 24.347006,30.000001 z "
       style="fill:url(#linearGradient23397);fill-rule:nonzero;stroke:#808080;stroke-miterlimit:4;stroke-opacity:1" />
    <path
       inkscape:r_cy="true"
       inkscape:r_cx="true"
       id="path3051"
       d="M 24.347006,14.895835 C 18.70442,14.895835 14.24284,19.488638 14.24284,25 C 14.24284,30.642588 18.835644,35.104166 24.347006,35.104166 C 29.989592,35.104166 34.451172,30.511364 34.451172,25 C 34.451172,19.357414 29.858368,14.895835 24.347006,14.895835 L 24.347006,14.895835 z M 24.347006,30.511364 C 21.328879,30.511364 18.835644,28.018129 18.835644,25 C 18.835644,21.981873 21.328879,19.488638 24.347006,19.488638 C 27.365133,19.488638 29.858368,21.981873 29.858368,25 C 29.858368,28.018129 27.365133,30.511364 24.347006,30.511364 z "
       style="opacity:0.10999995;fill-rule:nonzero;stroke:none;stroke-miterlimit:4" />
    <path
       inkscape:r_cy="true"
       inkscape:r_cx="true"
       style="fill:url(#linearGradient23393);fill-opacity:1;fill-rule:nonzero;stroke:none;stroke-miterlimit:4;stroke-opacity:1"
       d="M 29.922111,5.6692337 L 26.325518,19.663896 C 27.450222,19.963413 28.349661,20.659366 28.960646,21.622438 L 41.352866,14.073153 C 38.817618,9.9434382 34.748656,6.9050853 29.922111,5.6692337 z "
       id="path3916" />
    <path
       inkscape:r_cy="true"
       inkscape:r_cx="true"
       id="path4214"
       d="M 17.307824,43.766057 L 22.043079,30.114558 C 20.946815,29.723566 20.107654,28.956005 19.577936,27.945951 L 6.6068752,34.450599 C 8.7939325,38.774811 12.599255,42.137482 17.307824,43.766057 z "
       style="fill:url(#linearGradient23390);fill-opacity:1;fill-rule:nonzero;stroke:none;stroke-miterlimit:4;stroke-opacity:1" />
    <path
       inkscape:r_cy="true"
       inkscape:r_cx="true"
       style="opacity:0.54644811;fill:none;fill-rule:nonzero;stroke:url(#linearGradient23387);stroke-miterlimit:4;stroke-opacity:1"
       d="M 24.347002,5.2023655 C 13.373458,5.2023655 4.5493711,14.026454 4.5493711,24.999997 C 4.5493711,35.973541 13.373458,44.797628 24.347002,44.797628 C 35.320546,44.797628 44.144633,35.973541 44.144633,24.999997 C 44.144633,14.026454 35.320546,5.2023655 24.347002,5.2023655 L 24.347002,5.2023655 z "
       id="path5264"
       sodipodi:nodetypes="cccccc" />
    <path
       inkscape:r_cy="true"
       inkscape:r_cx="true"
       sodipodi:type="arc"
       style="opacity:0.67213111;color:#000000;fill:none;fill-opacity:0.31638417;fill-rule:nonzero;stroke:url(#linearGradient23353);stroke-width:0.93053865;stroke-linecap:butt;stroke-linejoin:miter;marker:none;marker-start:none;marker-mid:none;marker-end:none;stroke-miterlimit:4;stroke-dashoffset:0;stroke-opacity:1;visibility:visible;display:inline;overflow:visible"
       id="path6026"
       sodipodi:cx="24.306795"
       sodipodi:cy="24.930641"
       sodipodi:rx="6.0987959"
       sodipodi:ry="6.0987959"
       d="M 30.405591 24.930641 A 6.0987959 6.0987959 0 1 1  18.207999,24.930641 A 6.0987959 6.0987959 0 1 1  30.405591 24.930641 z"
       transform="translate(8.838835e-2,8.838865e-2)" />
    <path
       inkscape:r_cy="true"
       inkscape:r_cx="true"
       style="opacity:0.1142857;fill:url(#radialGradient23383);fill-opacity:1;fill-rule:nonzero;stroke:none;stroke-miterlimit:4;stroke-opacity:1"
       d="M 24.347006,4.1666665 C 12.799386,4.1666665 3.513672,13.452381 3.513672,25 C 3.513672,36.54762 12.799386,45.833335 24.347006,45.833335 C 35.894626,45.833335 45.180341,36.54762 45.180341,25 C 45.180341,13.452381 35.894626,4.1666665 24.347006,4.1666665 L 24.347006,4.1666665 z M 24.347006,30.000001 C 21.608911,30.000001 19.347006,27.738096 19.347006,25 C 19.347006,22.261905 21.608911,20 24.347006,20 C 27.085101,20 29.347006,22.261905 29.347006,25 C 29.347006,27.738096 27.085101,30.000001 24.347006,30.000001 z "
       id="path3390" />
    <path
       inkscape:r_cy="true"
       inkscape:r_cx="true"
       id="path3404"
       d="M 24.347006,4.1666665 C 12.799386,4.1666665 3.513672,13.452381 3.513672,25 C 3.513672,36.54762 12.799386,45.833335 24.347006,45.833335 C 35.894626,45.833335 45.180341,36.54762 45.180341,25 C 45.180341,13.452381 35.894626,4.1666665 24.347006,4.1666665 L 24.347006,4.1666665 z M 24.347006,30.000001 C 21.608911,30.000001 19.347006,27.738096 19.347006,25 C 19.347006,22.261905 21.608911,20 24.347006,20 C 27.085101,20 29.347006,22.261905 29.347006,25 C 29.347006,27.738096 27.085101,30.000001 24.347006,30.000001 z "
       style="opacity:0.09714284;fill:url(#radialGradient23380);fill-opacity:1;fill-rule:nonzero;stroke:none;stroke-miterlimit:4;stroke-opacity:1" />
    <path
       inkscape:r_cy="true"
       inkscape:r_cx="true"
       style="opacity:0.71428576;fill:url(#radialGradient23377);fill-opacity:1;fill-rule:nonzero;stroke:none;stroke-miterlimit:4;stroke-opacity:1"
       d="M 24.347006,4.1666665 C 12.799386,4.1666665 3.513672,13.452381 3.513672,25 C 3.513672,36.54762 12.799386,45.833335 24.347006,45.833335 C 35.894626,45.833335 45.180341,36.54762 45.180341,25 C 45.180341,13.452381 35.894626,4.1666665 24.347006,4.1666665 L 24.347006,4.1666665 z M 24.347006,30.000001 C 21.608911,30.000001 19.347006,27.738096 19.347006,25 C 19.347006,22.261905 21.608911,20 24.347006,20 C 27.085101,20 29.347006,22.261905 29.347006,25 C 29.347006,27.738096 27.085101,30.000001 24.347006,30.000001 z "
       id="path3419" />
    <path
       inkscape:r_cy="true"
       inkscape:r_cx="true"
       id="path3431"
       d="M 24.347006,4.1666665 C 12.799386,4.1666665 3.513672,13.452381 3.513672,25 C 3.513672,36.54762 12.799386,45.833335 24.347006,45.833335 C 35.894626,45.833335 45.180341,36.54762 45.180341,25 C 45.180341,13.452381 35.894626,4.1666665 24.347006,4.1666665 L 24.347006,4.1666665 z M 24.347006,30.000001 C 21.608911,30.000001 19.347006,27.738096 19.347006,25 C 19.347006,22.261905 21.608911,20 24.347006,20 C 27.085101,20 29.347006,22.261905 29.347006,25 C 29.347006,27.738096 27.085101,30.000001 24.347006,30.000001 z "
       style="opacity:0.62285713;fill:url(#radialGradient23374);fill-opacity:1;fill-rule:nonzero;stroke:none;stroke-miterlimit:4;stroke-opacity:1" />
    <path
       inkscape:r_cy="true"
       inkscape:r_cx="true"
       style="opacity:0.37142861;fill:url(#radialGradient23371);fill-opacity:1;fill-rule:nonzero;stroke:none;stroke-miterlimit:4;stroke-opacity:1"
       d="M 24.347006,4.1666665 C 12.799386,4.1666665 3.513672,13.452381 3.513672,25 C 3.513672,36.54762 12.799386,45.833335 24.347006,45.833335 C 35.894626,45.833335 45.180341,36.54762 45.180341,25 C 45.180341,13.452381 35.894626,4.1666665 24.347006,4.1666665 L 24.347006,4.1666665 z M 24.347006,30.000001 C 21.608911,30.000001 19.347006,27.738096 19.347006,25 C 19.347006,22.261905 21.608911,20 24.347006,20 C 27.085101,20 29.347006,22.261905 29.347006,25 C 29.347006,27.738096 27.085101,30.000001 24.347006,30.000001 z "
       id="path3441" />
    <path
       inkscape:r_cy="true"
       inkscape:r_cx="true"
       id="path3445"
       d="M 24.347006,4.1666665 C 12.799386,4.1666665 3.513672,13.452381 3.513672,25 C 3.513672,36.54762 12.799386,45.833335 24.347006,45.833335 C 35.894626,45.833335 45.180341,36.54762 45.180341,25 C 45.180341,13.452381 35.894626,4.1666665 24.347006,4.1666665 L 24.347006,4.1666665 z M 24.347006,30.000001 C 21.608911,30.000001 19.347006,27.738096 19.347006,25 C 19.347006,22.261905 21.608911,20 24.347006,20 C 27.085101,20 29.347006,22.261905 29.347006,25 C 29.347006,27.738096 27.085101,30.000001 24.347006,30.000001 z "
       style="opacity:0.23428572;fill:url(#radialGradient23368);fill-opacity:1;fill-rule:nonzero;stroke:none;stroke-miterlimit:4;stroke-opacity:1" />
    <path
       inkscape:r_cy="true"
       inkscape:r_cx="true"
       id="path2666"
       d="M 24.347006,4.1666665 C 12.799386,4.1666665 3.513672,13.452381 3.513672,25 C 3.513672,36.54762 12.799386,45.833335 24.347006,45.833335 C 35.894626,45.833335 45.180341,36.54762 45.180341,25 C 45.180341,13.452381 35.894626,4.1666665 24.347006,4.1666665 L 24.347006,4.1666665 z M 24.347006,30.000001 C 21.608911,30.000001 19.347006,27.738096 19.347006,25 C 19.347006,22.261905 21.608911,20 24.347006,20 C 27.085101,20 29.347006,22.261905 29.347006,25 C 29.347006,27.738096 27.085101,30.000001 24.347006,30.000001 z "
       style="opacity:0.23428572;fill:url(#radialGradient23368);fill-opacity:1;fill-rule:nonzero;stroke:none;stroke-miterlimit:4;stroke-opacity:1;display:inline" />
  </g>
  <g
     inkscape:groupmode="layer"
     id="layer3"
     inkscape:label="Video"
     style="display:inline">
    <path
       style="opacity:0.7;fill:url(#radialGradient5834);fill-opacity:1;stroke:none;stroke-width:0.40000001;stroke-linecap:round;stroke-linejoin:round;stroke-miterlimit:4;stroke-dasharray:none;stroke-opacity:1;display:inline"
       d="M 18,5.65625 C 17.658654,5.7674462 17.333022,5.8715807 17,6 L 17,7 L 16,7 L 16,6.4375 C 15.664629,6.5878398 15.325323,6.738602 15,6.90625 L 15,13 L 7.875,13 C 7.6352398,13.329248 7.407516,13.656078 7.1875,14 L 15,14 L 15,23 L 4.09375,23 C 4.0621893,23.328431 4.0471604,23.667077 4.03125,24 L 15,24 L 15,33 L 5.625,33 C 5.7698776,33.340935 5.8998904,33.66903 6.0625,34 L 15,34 L 15,43 L 14.84375,43 C 15.533624,43.362901 16.265567,43.716789 17,44 C 17.333022,44.128419 17.658654,44.232554 18,44.34375 L 18,5.65625 z M 16,8 L 17,8 L 17,9 L 16,9 L 16,8 z M 16,10 L 17,10 L 17,11 L 16,11 L 16,10 z M 16,12 L 17,12 L 17,13 L 16,13 L 16,12 z M 16,14 L 17,14 L 17,15 L 16,15 L 16,14 z M 16,16 L 17,16 L 17,17 L 16,17 L 16,16 z M 16,18 L 17,18 L 17,19 L 16,19 L 16,18 z M 16,20 L 17,20 L 17,21 L 16,21 L 16,20 z M 16,22 L 17,22 L 17,23 L 16,23 L 16,22 z M 16,24 L 17,24 L 17,25 L 16,25 L 16,24 z M 16,26 L 17,26 L 17,27 L 16,27 L 16,26 z M 16,28 L 17,28 L 17,29 L 16,29 L 16,28 z M 16,30 L 17,30 L 17,31 L 16,31 L 16,30 z M 16,32 L 17,32 L 17,33 L 16,33 L 16,32 z M 16,34 L 17,34 L 17,35 L 16,35 L 16,34 z M 16,36 L 17,36 L 17,37 L 16,37 L 16,36 z M 16,38 L 17,38 L 17,39 L 16,39 L 16,38 z M 16,40 L 17,40 L 17,41 L 16,41 L 16,40 z M 16,42 L 17,42 L 17,43 L 16,43 L 16,42 z "
       id="rect1388" />
  </g>
</svg>
