<?xml version="1.0" encoding="UTF-8" standalone="no"?>
<!-- Created with Inkscape (http://www.inkscape.org/) -->
<svg
   xmlns:svg="http://www.w3.org/2000/svg"
   xmlns="http://www.w3.org/2000/svg"
   xmlns:xlink="http://www.w3.org/1999/xlink"
   version="1.0"
   width="48"
   height="48"
   id="svg2684">
  <defs
     id="defs2686">
    <linearGradient
       id="linearGradient3649">
      <stop
         style="stop-color:#ffffff;stop-opacity:1"
         offset="0"
         id="stop3651" />
      <stop
         style="stop-color:#eeeeec;stop-opacity:0.19607843"
         offset="1"
         id="stop3653" />
    </linearGradient>
    <linearGradient
       id="linearGradient3356">
      <stop
         style="stop-color:#555753;stop-opacity:1"
         offset="0"
         id="stop3358" />
      <stop
         style="stop-color:#2e3436;stop-opacity:1"
         offset="1"
         id="stop3360" />
    </linearGradient>
    <linearGradient
       id="linearGradient3704">
      <stop
         style="stop-color:#eeeeec;stop-opacity:1"
         offset="0"
         id="stop3706" />
      <stop
         style="stop-color:#2e3436;stop-opacity:1"
         offset="1"
         id="stop3708" />
    </linearGradient>
    <linearGradient
       id="linearGradient3453">
      <stop
         style="stop-color:#eeeeec;stop-opacity:1"
         offset="0"
         id="stop3455" />
      <stop
         style="stop-color:#eeeeec;stop-opacity:0"
         offset="1"
         id="stop3457" />
    </linearGradient>
    <linearGradient
       id="linearGradient3479">
      <stop
         style="stop-color:#babdb6;stop-opacity:1"
         offset="0"
         id="stop3481" />
      <stop
         style="stop-color:#ffffff;stop-opacity:0"
         offset="1"
         id="stop3483" />
    </linearGradient>
    <linearGradient
       id="linearGradient3505">
      <stop
         style="stop-color:#555753;stop-opacity:1"
         offset="0"
         id="stop3507" />
      <stop
         style="stop-color:#2e3436;stop-opacity:1"
         offset="1"
         id="stop3509" />
    </linearGradient>
    <linearGradient
       id="linearGradient3389">
      <stop
         style="stop-color:#eeeeec;stop-opacity:1"
         offset="0"
         id="stop3391" />
      <stop
         style="stop-color:#eeeeec;stop-opacity:0.29411766"
         offset="1"
         id="stop3393" />
    </linearGradient>
    <linearGradient
       x1="27.046633"
       y1="31.068466"
       x2="24.042566"
       y2="44.744698"
       id="linearGradient2359"
       xlink:href="#linearGradient3389"
       gradientUnits="userSpaceOnUse"
       gradientTransform="matrix(1,0,0,1.0227043,0,-1.7605941)" />
    <linearGradient
       id="linearGradient3422">
      <stop
         style="stop-color:#babdb6;stop-opacity:1"
         offset="0"
         id="stop3424" />
      <stop
         style="stop-color:#ffffff;stop-opacity:0"
         offset="1"
         id="stop3426" />
    </linearGradient>
    <radialGradient
       cx="9.4331875"
       cy="67.936577"
       r="9.796875"
       fx="7.6304936"
       fy="64.277374"
       id="radialGradient3428"
       xlink:href="#linearGradient3422"
       gradientUnits="userSpaceOnUse"
       gradientTransform="matrix(0.7470175,0.4161558,-0.1551084,0.278426,13.849656,16.235423)" />
    <linearGradient
       id="linearGradient3383">
      <stop
         style="stop-color:#ffffff;stop-opacity:1"
         offset="0"
         id="stop3385" />
      <stop
         style="stop-color:#ffffff;stop-opacity:0"
         offset="1"
         id="stop3387" />
    </linearGradient>
    <radialGradient
       cx="8.5104361"
       cy="20.591095"
       r="10.483515"
       fx="10.693726"
       fy="22.914587"
       id="radialGradient3411"
       xlink:href="#linearGradient3383"
       gradientUnits="userSpaceOnUse"
       gradientTransform="matrix(0.6677151,0.496971,-0.1189369,0.1598002,8.2664944,31.190101)" />
    <radialGradient
       cx="27.5"
       cy="37.5"
       r="1"
       fx="27.5"
       fy="38.78109"
       id="radialGradient3986"
       xlink:href="#linearGradient3501"
       gradientUnits="userSpaceOnUse"
       gradientTransform="matrix(0.5,0,0,1.5,13.75,-18.75)" />
    <radialGradient
       cx="27.5"
       cy="37.5"
       r="1"
       fx="27.5"
       fy="38.78109"
       id="radialGradient3984"
       xlink:href="#linearGradient3501"
       gradientUnits="userSpaceOnUse"
       gradientTransform="matrix(0.5,0,0,1.5,13.75,-18.75)" />
    <radialGradient
       cx="27.5"
       cy="37.5"
       r="1"
       fx="27.5"
       fy="38.78109"
       id="radialGradient3982"
       xlink:href="#linearGradient3501"
       gradientUnits="userSpaceOnUse"
       gradientTransform="matrix(0.5,0,0,1.5,13.75,-18.75)" />
    <linearGradient
       id="linearGradient3501">
      <stop
         style="stop-color:#2e3436;stop-opacity:1"
         offset="0"
         id="stop3503" />
      <stop
         style="stop-color:#2e3436;stop-opacity:0"
         offset="1"
         id="stop3505" />
    </linearGradient>
    <radialGradient
       cx="27.5"
       cy="37.5"
       r="1"
       fx="27.5"
       fy="38.78109"
       id="radialGradient3980"
       xlink:href="#linearGradient3501"
       gradientUnits="userSpaceOnUse"
       gradientTransform="matrix(0.5,0,0,1.5,13.75,-18.75)" />
    <linearGradient
       id="linearGradient3433">
      <stop
         style="stop-color:#eeeeec;stop-opacity:1"
         offset="0"
         id="stop3435" />
      <stop
         style="stop-color:#000000;stop-opacity:1"
         offset="1"
         id="stop3437" />
    </linearGradient>
    <radialGradient
       cx="17.258368"
       cy="19.512949"
       r="10.483515"
       fx="12.999953"
       fy="19.740644"
       id="radialGradient3376"
       xlink:href="#linearGradient3433"
       gradientUnits="userSpaceOnUse"
       gradientTransform="matrix(0.4775772,0.4672855,-0.5611963,0.5735563,23.707465,17.188054)" />
    <linearGradient
       id="linearGradient3342">
      <stop
         style="stop-color:#888a85;stop-opacity:1"
         offset="0"
         id="stop3345" />
      <stop
         style="stop-color:#555753;stop-opacity:1"
         offset="1"
         id="stop3347" />
    </linearGradient>
    <linearGradient
       x1="15.5"
       y1="33.065689"
       x2="25.090815"
       y2="43.5"
       id="linearGradient3349"
       xlink:href="#linearGradient3342"
       gradientUnits="userSpaceOnUse" />
    <linearGradient
       id="linearGradient3497">
      <stop
         style="stop-color:#555753;stop-opacity:1"
         offset="0"
         id="stop3499" />
      <stop
         style="stop-color:#2e3436;stop-opacity:1"
         offset="1"
         id="stop3501" />
    </linearGradient>
    <linearGradient
       x1="19.817204"
       y1="27.31498"
       x2="12.502855"
       y2="39.791191"
       id="linearGradient2368"
       xlink:href="#linearGradient3497"
       gradientUnits="userSpaceOnUse"
       gradientTransform="matrix(0.7663985,-0.6900724,0.6586218,0.7972934,-20.255201,21.897253)" />
    <linearGradient
       id="linearGradient3340">
      <stop
         style="stop-color:#d3d7cf;stop-opacity:1"
         offset="0"
         id="stop3342" />
      <stop
         style="stop-color:#2e3436;stop-opacity:1"
         offset="1"
         id="stop3344" />
    </linearGradient>
    <radialGradient
       cx="19.756857"
       cy="30.102192"
       r="12.534315"
       fx="19.756857"
       fy="30.102192"
       id="radialGradient2366"
       xlink:href="#linearGradient3340"
       gradientUnits="userSpaceOnUse"
       gradientTransform="matrix(0,0.8115223,-0.8414662,0,45.776206,17.033021)" />
    <linearGradient
       id="linearGradient3626">
      <stop
         style="stop-color:#000000;stop-opacity:1"
         offset="0"
         id="stop3628" />
      <stop
         style="stop-color:#000000;stop-opacity:0"
         offset="1"
         id="stop3630" />
    </linearGradient>
    <radialGradient
       cx="24"
       cy="40.5"
       r="24"
       fx="24"
       fy="40.5"
       id="radialGradient3752"
       xlink:href="#linearGradient3626"
       gradientUnits="userSpaceOnUse"
       gradientTransform="matrix(1,0,0,0.1458333,0,34.59375)" />
    <linearGradient
       id="linearGradient3529">
      <stop
         style="stop-color:#ffffff;stop-opacity:1"
         offset="0"
         id="stop3531" />
      <stop
         style="stop-color:#ffffff;stop-opacity:1"
         offset="0.5"
         id="stop3537" />
      <stop
         style="stop-color:#eeeeec;stop-opacity:0.29411766"
         offset="1"
         id="stop3533" />
    </linearGradient>
    <linearGradient
       id="linearGradient4452">
      <stop
         style="stop-color:#d3d7cf;stop-opacity:1"
         offset="0"
         id="stop4454" />
      <stop
         style="stop-color:#888a85;stop-opacity:1"
         offset="1"
         id="stop4456" />
    </linearGradient>
    <linearGradient
       id="linearGradient4346">
      <stop
         style="stop-color:#eeeeec;stop-opacity:1"
         offset="0"
         id="stop4348" />
      <stop
         style="stop-color:#729fcf;stop-opacity:1"
         offset="1"
         id="stop4350" />
    </linearGradient>
    <linearGradient
       id="linearGradient4101">
      <stop
         style="stop-color:#000000;stop-opacity:1"
         offset="0"
         id="stop4103" />
      <stop
         style="stop-color:#000000;stop-opacity:0"
         offset="1"
         id="stop4105" />
    </linearGradient>
    <linearGradient
       id="linearGradient4052">
      <stop
         style="stop-color:#888a85;stop-opacity:1"
         offset="0"
         id="stop4054" />
      <stop
         style="stop-color:#555753;stop-opacity:1"
         offset="1"
         id="stop4056" />
    </linearGradient>
    <linearGradient
       id="linearGradient3675">
      <stop
         style="stop-color:#eeeeec;stop-opacity:1"
         offset="0"
         id="stop3677" />
      <stop
         style="stop-color:#eeeeec;stop-opacity:0"
         offset="1"
         id="stop3679" />
    </linearGradient>
    <linearGradient
       id="linearGradient3662">
      <stop
         style="stop-color:#3465a4;stop-opacity:1"
         offset="0"
         id="stop3664" />
      <stop
         style="stop-color:#729fcf;stop-opacity:1"
         offset="1"
         id="stop3666" />
    </linearGradient>
    <linearGradient
       id="linearGradient3635">
      <stop
         style="stop-color:#000000;stop-opacity:1"
         offset="0"
         id="stop3637" />
      <stop
         style="stop-color:#000000;stop-opacity:1"
         offset="0.64999998"
         id="stop3639" />
      <stop
         style="stop-color:#000000;stop-opacity:0"
         offset="1"
         id="stop3641" />
    </linearGradient>
    <linearGradient
       id="linearGradient3581">
      <stop
         style="stop-color:#ffffff;stop-opacity:1"
         offset="0"
         id="stop3583" />
      <stop
         style="stop-color:#ffffff;stop-opacity:1"
         offset="0.64999998"
         id="stop3605" />
      <stop
         style="stop-color:#ffffff;stop-opacity:0"
         offset="1"
         id="stop3585" />
    </linearGradient>
    <linearGradient
       x1="24"
       y1="38"
       x2="24"
       y2="41"
       id="linearGradient4426"
       xlink:href="#linearGradient4101"
       gradientUnits="userSpaceOnUse" />
    <radialGradient
       cx="45"
       cy="38"
       r="1.5"
       fx="45"
       fy="38"
       id="radialGradient4428"
       xlink:href="#linearGradient4101"
       gradientUnits="userSpaceOnUse"
       gradientTransform="matrix(2.0500308,0,0,2.0500308,-47.251387,-39.901171)" />
    <radialGradient
       cx="45"
       cy="38"
       r="1.5"
       fx="45"
       fy="38"
       id="radialGradient4430"
       xlink:href="#linearGradient4101"
       gradientUnits="userSpaceOnUse"
       gradientTransform="matrix(-2.0500308,0,0,2.0500308,95.25139,-39.901171)" />
    <radialGradient
       cx="14"
       cy="20"
       r="3"
       fx="14"
       fy="20"
       id="radialGradient4434"
       xlink:href="#linearGradient3635"
       gradientUnits="userSpaceOnUse"
       gradientTransform="matrix(2.3233496,0,0,2.3233496,-18.526894,-76.466991)" />
    <radialGradient
       cx="34"
       cy="20"
       r="3"
       fx="34"
       fy="20"
       id="radialGradient4436"
       xlink:href="#linearGradient3635"
       gradientUnits="userSpaceOnUse"
       gradientTransform="matrix(2.3250092,0,0,2.3250092,-45.050311,-76.500182)" />
    <linearGradient
       x1="24"
       y1="20"
       x2="24"
       y2="14"
       id="linearGradient4438"
       xlink:href="#linearGradient3635"
       gradientUnits="userSpaceOnUse"
       gradientTransform="matrix(1,0,0,1.1666667,0,-53.333333)" />
    <radialGradient
       cx="14"
       cy="20"
       r="3"
       fx="14"
       fy="20"
       id="radialGradient4440"
       xlink:href="#linearGradient3581"
       gradientUnits="userSpaceOnUse"
       gradientTransform="matrix(2.3233496,0,0,2.3233496,-18.526894,-26.466991)" />
    <radialGradient
       cx="34"
       cy="20"
       r="3"
       fx="34"
       fy="20"
       id="radialGradient4442"
       xlink:href="#linearGradient3581"
       gradientUnits="userSpaceOnUse"
       gradientTransform="matrix(2.3250092,0,0,2.3250092,-45.050311,-26.500182)" />
    <linearGradient
       x1="24"
       y1="20"
       x2="24"
       y2="14"
       id="linearGradient4444"
       xlink:href="#linearGradient3581"
       gradientUnits="userSpaceOnUse"
       gradientTransform="matrix(1,0,0,1.1666667,0,-3.3333333)" />
    <linearGradient
       x1="24"
       y1="38"
       x2="24"
       y2="41"
       id="linearGradient10093"
       xlink:href="#linearGradient4101"
       gradientUnits="userSpaceOnUse" />
    <radialGradient
       cx="45"
       cy="38"
       r="1.5"
       fx="45"
       fy="38"
       id="radialGradient10095"
       xlink:href="#linearGradient4101"
       gradientUnits="userSpaceOnUse"
       gradientTransform="matrix(2.0500308,0,0,2.0500308,-47.251387,-39.901171)" />
    <radialGradient
       cx="45"
       cy="38"
       r="1.5"
       fx="45"
       fy="38"
       id="radialGradient10097"
       xlink:href="#linearGradient4101"
       gradientUnits="userSpaceOnUse"
       gradientTransform="matrix(-2.0500308,0,0,2.0500308,95.25139,-39.901171)" />
    <radialGradient
       cx="14"
       cy="20"
       r="3"
       fx="14"
       fy="20"
       id="radialGradient10101"
       xlink:href="#linearGradient3635"
       gradientUnits="userSpaceOnUse"
       gradientTransform="matrix(2.3233496,0,0,2.3233496,-18.526894,-76.466991)" />
    <radialGradient
       cx="34"
       cy="20"
       r="3"
       fx="34"
       fy="20"
       id="radialGradient10103"
       xlink:href="#linearGradient3635"
       gradientUnits="userSpaceOnUse"
       gradientTransform="matrix(2.3250092,0,0,2.3250092,-45.050311,-76.500182)" />
    <linearGradient
       x1="24"
       y1="20"
       x2="24"
       y2="14"
       id="linearGradient10105"
       xlink:href="#linearGradient3635"
       gradientUnits="userSpaceOnUse"
       gradientTransform="matrix(1,0,0,1.1666667,0,-53.333333)" />
    <radialGradient
       cx="14"
       cy="20"
       r="3"
       fx="14"
       fy="20"
       id="radialGradient10107"
       xlink:href="#linearGradient3581"
       gradientUnits="userSpaceOnUse"
       gradientTransform="matrix(2.3233496,0,0,2.3233496,-18.526894,-26.466991)" />
    <radialGradient
       cx="34"
       cy="20"
       r="3"
       fx="34"
       fy="20"
       id="radialGradient10109"
       xlink:href="#linearGradient3581"
       gradientUnits="userSpaceOnUse"
       gradientTransform="matrix(2.3250092,0,0,2.3250092,-45.050311,-26.500182)" />
    <linearGradient
       x1="24"
       y1="20"
       x2="24"
       y2="14"
       id="linearGradient10111"
       xlink:href="#linearGradient3581"
       gradientUnits="userSpaceOnUse"
       gradientTransform="matrix(1,0,0,1.1666667,0,-3.3333333)" />
    <linearGradient
       x1="24"
       y1="12"
       x2="24"
       y2="38"
       id="linearGradient4889"
       xlink:href="#linearGradient4452"
       gradientUnits="userSpaceOnUse"
       gradientTransform="translate(54,32)" />
    <linearGradient
       x1="78"
       y1="24"
       x2="78"
       y2="36"
       id="linearGradient4751"
       xlink:href="#linearGradient3529"
       gradientUnits="userSpaceOnUse"
       gradientTransform="translate(0,33)"
       spreadMethod="reflect" />
    <linearGradient
       x1="21.517305"
       y1="17.051916"
       x2="23.5"
       y2="29.006401"
       id="linearGradient4754"
       xlink:href="#linearGradient3675"
       gradientUnits="userSpaceOnUse"
       gradientTransform="translate(54,32)" />
    <linearGradient
       x1="7.5"
       y1="23"
       x2="9.5"
       y2="27"
       id="linearGradient4770"
       xlink:href="#linearGradient4052"
       gradientUnits="userSpaceOnUse"
       gradientTransform="matrix(1,0,0,0.7142861,54,39.142848)" />
    <linearGradient
       x1="23.5"
       y1="12.468769"
       x2="23.5"
       y2="29"
       id="linearGradient4775"
       xlink:href="#linearGradient3662"
       gradientUnits="userSpaceOnUse"
       gradientTransform="translate(54,32)" />
    <radialGradient
       cx="24"
       cy="40.5"
       r="24"
       fx="34.868992"
       fy="39.556511"
       id="radialGradient4441"
       xlink:href="#linearGradient3626"
       gradientUnits="userSpaceOnUse"
       gradientTransform="matrix(1,0,0,0.1458333,0,34.59375)" />
    <linearGradient
       x1="16.97543"
       y1="33"
       x2="10.305349"
       y2="42.777863"
       id="linearGradient4443"
       xlink:href="#linearGradient3505"
       gradientUnits="userSpaceOnUse"
       gradientTransform="matrix(0.7206452,-0.6955393,0.7023575,0.7391551,-6.2535996,14.588464)" />
    <radialGradient
       cx="6.8653107"
       cy="27.699711"
       r="10.271023"
       fx="6.8653107"
       fy="27.699711"
       id="radialGradient4445"
       xlink:href="#linearGradient3479"
       gradientUnits="userSpaceOnUse"
       gradientTransform="matrix(-8.5861627e-2,0.128437,-0.6954368,-0.4649074,30.203383,49.383309)" />
    <linearGradient
       x1="21.940926"
       y1="34.081852"
       x2="14.677274"
       y2="44.691303"
       id="linearGradient4447"
       xlink:href="#linearGradient3453"
       gradientUnits="userSpaceOnUse" />
    <radialGradient
       cx="21.606197"
       cy="38.297729"
       r="5.4873896"
       fx="18.682728"
       fy="37.614277"
       id="radialGradient4449"
       xlink:href="#linearGradient3704"
       gradientUnits="userSpaceOnUse"
       gradientTransform="matrix(1.3495093,0.3773801,-0.3045414,1.4274039,4.0054821,-24.820081)" />
    <linearGradient
       x1="11.15362"
       y1="36.413475"
       x2="25.948906"
       y2="44.372898"
       id="linearGradient4451"
       xlink:href="#linearGradient3356"
       gradientUnits="userSpaceOnUse" />
    <linearGradient
       x1="12.408402"
       y1="36.590809"
       x2="25.416071"
       y2="43.609634"
       id="linearGradient4453"
       xlink:href="#linearGradient3649"
       gradientUnits="userSpaceOnUse" />
    <radialGradient
       cx="27.5"
       cy="37.5"
       r="1"
       fx="27.5"
       fy="38.78109"
       id="radialGradient4455"
       xlink:href="#linearGradient3501"
       gradientUnits="userSpaceOnUse"
       gradientTransform="matrix(0.5,0,0,1.5,13.75,-18.75)" />
    <radialGradient
       cx="27.5"
       cy="37.5"
       r="1"
       fx="27.5"
       fy="38.78109"
       id="radialGradient4457"
       xlink:href="#linearGradient3501"
       gradientUnits="userSpaceOnUse"
       gradientTransform="matrix(0.5,0,0,1.5,13.75,-18.75)" />
    <radialGradient
       cx="27.5"
       cy="37.5"
       r="1"
       fx="27.5"
       fy="38.78109"
       id="radialGradient4459"
       xlink:href="#linearGradient3501"
       gradientUnits="userSpaceOnUse"
       gradientTransform="matrix(0.5,0,0,1.5,13.75,-18.75)" />
    <radialGradient
       cx="27.5"
       cy="37.5"
       r="1"
       fx="27.5"
       fy="38.78109"
       id="radialGradient4461"
       xlink:href="#linearGradient3501"
       gradientUnits="userSpaceOnUse"
       gradientTransform="matrix(0.5,0,0,1.5,13.75,-18.75)" />
    <radialGradient
       cx="27.5"
       cy="37.5"
       r="1"
       fx="27.5"
       fy="38.78109"
       id="radialGradient4463"
       xlink:href="#linearGradient3501"
       gradientUnits="userSpaceOnUse"
       gradientTransform="matrix(0.5,0,0,1.5,13.75,-18.75)" />
    <radialGradient
       cx="27.5"
       cy="37.5"
       r="1"
       fx="27.5"
       fy="38.78109"
       id="radialGradient4465"
       xlink:href="#linearGradient3501"
       gradientUnits="userSpaceOnUse"
       gradientTransform="matrix(0.5,0,0,1.5,13.75,-18.75)" />
    <radialGradient
       cx="27.5"
       cy="37.5"
       r="1"
       fx="27.5"
       fy="38.78109"
       id="radialGradient4467"
       xlink:href="#linearGradient3501"
       gradientUnits="userSpaceOnUse"
       gradientTransform="matrix(0.5,0,0,1.5,13.75,-18.75)" />
    <radialGradient
       cx="27.5"
       cy="37.5"
       r="1"
       fx="27.5"
       fy="38.78109"
       id="radialGradient4469"
       xlink:href="#linearGradient3501"
       gradientUnits="userSpaceOnUse"
       gradientTransform="matrix(0.5,0,0,1.5,13.75,-18.75)" />
    <linearGradient
       x1="21.517305"
       y1="17.051916"
       x2="23.5"
       y2="29.006401"
       id="linearGradient3075"
       xlink:href="#linearGradient3675"
       gradientUnits="userSpaceOnUse"
       gradientTransform="translate(0,-11)" />
    <linearGradient
       x1="7.5"
       y1="23"
       x2="9.5"
       y2="27"
       id="linearGradient3091"
       xlink:href="#linearGradient4052"
       gradientUnits="userSpaceOnUse"
       gradientTransform="matrix(1,0,0,0.7142861,0,-3.857152)" />
    <linearGradient
       x1="23.5"
       y1="12.468769"
       x2="23.5"
       y2="29"
       id="linearGradient3095"
       xlink:href="#linearGradient3662"
       gradientUnits="userSpaceOnUse"
       gradientTransform="translate(0,-11)" />
    <linearGradient
       x1="78"
       y1="24"
       x2="78"
       y2="36"
       id="linearGradient3098"
       xlink:href="#linearGradient3529"
       gradientUnits="userSpaceOnUse"
       gradientTransform="translate(-54,-10)"
       spreadMethod="reflect" />
    <linearGradient
       x1="24"
       y1="4.9289322"
       x2="24"
       y2="42.99818"
       id="linearGradient3112"
       xlink:href="#linearGradient4346"
       gradientUnits="userSpaceOnUse"
       gradientTransform="translate(0,-11)" />
    <linearGradient
       x1="78"
       y1="24"
       x2="78"
       y2="36"
       id="linearGradient3685"
       xlink:href="#linearGradient3529"
       gradientUnits="userSpaceOnUse"
       gradientTransform="translate(-54,-10)"
       spreadMethod="reflect" />
    <linearGradient
       x1="21.517305"
       y1="17.051916"
       x2="23.5"
       y2="29.006401"
       id="linearGradient3688"
       xlink:href="#linearGradient3675"
       gradientUnits="userSpaceOnUse"
       gradientTransform="translate(0,-11)" />
    <linearGradient
       x1="7.5"
       y1="23"
       x2="9.5"
       y2="27"
       id="linearGradient3705"
       xlink:href="#linearGradient4052"
       gradientUnits="userSpaceOnUse"
       gradientTransform="matrix(1,0,0,0.7142861,0,-3.857152)" />
    <linearGradient
       x1="23.5"
       y1="12.468769"
       x2="23.5"
       y2="29"
       id="linearGradient3709"
       xlink:href="#linearGradient3662"
       gradientUnits="userSpaceOnUse"
       gradientTransform="translate(0,-11)" />
    <linearGradient
       x1="24"
       y1="12"
       x2="24"
       y2="38"
       id="linearGradient3723"
       xlink:href="#linearGradient4452"
       gradientUnits="userSpaceOnUse"
       gradientTransform="translate(0,-11)" />
  </defs>
  <g
     id="layer1">
    <path
       d="M 21.563523,35.5 C 10.020587,36 1.0205868,32 6.5205868,25.5"
       style="fill:none;fill-rule:evenodd;stroke:#000000;stroke-width:1px;stroke-linecap:butt;stroke-linejoin:miter;stroke-opacity:1"
       id="path3732" />
    <path
       d="M 6.0205868,35 C 0.0205868,29 6.5205868,25.5 6.5205868,25.5"
       style="fill:none;fill-rule:evenodd;stroke:#000000;stroke-width:1px;stroke-linecap:butt;stroke-linejoin:miter;stroke-opacity:1"
       id="path3517" />
    <g
       transform="translate(0,-11)"
       style="opacity:0.35"
       id="g4352">
      <path
         d="M 3,38 L 45,38 L 45,41 L 3,41 L 3,38 z "
         style="opacity:1;fill:url(#linearGradient4426);fill-opacity:1;stroke:none;stroke-width:0.25;stroke-linecap:round;stroke-linejoin:round;stroke-miterlimit:4;stroke-opacity:1"
         id="path4354" />
      <path
         d="M 45,38 L 48,38 L 48,41 L 45,41 L 45,38 z "
         style="opacity:1;fill:url(#radialGradient4428);fill-opacity:1;stroke:none;stroke-width:0.25;stroke-linecap:round;stroke-linejoin:round;stroke-miterlimit:4;stroke-opacity:1"
         id="path4356" />
      <path
         d="M 3,38 L 0,38 L 0,41 L 3,41 L 3,38 z "
         style="opacity:1;fill:url(#radialGradient4430);fill-opacity:1;stroke:none;stroke-width:0.25;stroke-linecap:round;stroke-linejoin:round;stroke-miterlimit:4;stroke-opacity:1"
         id="path4358" />
    </g>
    <path
       d="M 12.5,26.5 C 12.5,26.5 14,27.5 15.5,27.5 C 15.5,27.5 19.5,27.5 19.5,27.5 C 20.5,27.5 19.5,26.5 20.5,26.5 C 21.5,26.5 20.5,27.5 21.5,27.5 C 21.5,27.5 26.5,27.5 26.5,27.5 C 27.5,27.5 26.5,26.5 27.5,26.5 C 28.5,26.5 27.5,27.5 28.5,27.5 C 28.5,27.5 32.5,27.5 32.5,27.5 C 34,27.5 35.5,26.5 35.5,26.5"
       style="fill:none;fill-rule:evenodd;stroke:#2e3436;stroke-width:1px;stroke-linecap:round;stroke-linejoin:round;stroke-opacity:1"
       id="path4360" />
    <path
       d="M 12.5,1.5 C 12.5,1.5 14,0.5 15.5,0.5 C 15.5,0.5 19.5,0.5 19.5,0.5 C 20.5,0.5 19.5,1.5 20.5,1.5 C 21.5,1.5 20.5,0.5 21.5,0.5 C 21.5,0.5 26.5,0.5 26.5,0.5 C 27.5,0.5 26.5,1.5 27.5,1.5 C 28.5,1.5 27.5,0.5 28.5,0.5 C 28.5,0.5 32.5,0.5 32.5,0.5 C 34,0.5 35.5,1.5 35.5,1.5"
       style="fill:none;fill-rule:evenodd;stroke:#2e3436;stroke-width:1px;stroke-linecap:round;stroke-linejoin:round;stroke-opacity:1"
       id="path4362" />
    <path
       d="M 0.5,1.5 C 0.5,1.5 47.5,1.5 47.5,1.5 L 47.5,26.5 L 0.5,26.5 L 0.5,1.5 z "
       style="fill:url(#linearGradient3723);fill-opacity:1;stroke:#888a85;stroke-linecap:round;stroke-linejoin:round"
       id="path4364" />
    <g
       transform="matrix(1.0588236,0,0,1,-1.41177,-11)"
       style="opacity:0.3"
       id="g4366">
      <rect
         width="7"
         height="7"
         x="7"
         y="-37"
         transform="scale(1,-1)"
         style="opacity:0.5;fill:url(#radialGradient4434);fill-opacity:1;stroke:none;stroke-linecap:square;stroke-linejoin:round"
         id="rect4368" />
      <rect
         width="7"
         height="7"
         x="34"
         y="-37"
         transform="scale(1,-1)"
         style="opacity:0.5;fill:url(#radialGradient4436);fill-opacity:1;stroke:none;stroke-linecap:square;stroke-linejoin:round"
         id="rect4370" />
      <rect
         width="20"
         height="7"
         x="14"
         y="-37"
         transform="scale(1,-1)"
         style="opacity:0.5;fill:url(#linearGradient4438);fill-opacity:1;stroke:none;stroke-linecap:square;stroke-linejoin:round"
         id="rect4372" />
    </g>
    <g
       transform="matrix(1.0588236,0,0,1,-1.41177,-11)"
       style="opacity:0.8"
       id="g4374">
      <rect
         width="7"
         height="7"
         x="7"
         y="13"
         style="opacity:0.5;fill:url(#radialGradient4440);fill-opacity:1;stroke:none;stroke-linecap:square;stroke-linejoin:round"
         id="rect4376" />
      <rect
         width="7"
         height="7"
         x="34"
         y="13"
         style="opacity:0.5;fill:url(#radialGradient4442);fill-opacity:1;stroke:none;stroke-linecap:square;stroke-linejoin:round"
         id="rect4378" />
      <rect
         width="20"
         height="7"
         x="14"
         y="13"
         style="opacity:0.5;fill:url(#linearGradient4444);fill-opacity:1;stroke:none;stroke-linecap:square;stroke-linejoin:round"
         id="rect4380" />
    </g>
    <path
       d="M 1,19 L 8,19 C 10,19 12,23 14,23 L 34,23 C 36,23 38,19 40,19 L 47,19 L 47,9 L 40,9 C 38,9 36,5 34,5 L 14,5 C 12,5 10,9 8,9 L 1,9 L 1,19 z "
       style="fill:#2e3436;fill-rule:evenodd;stroke:none;stroke-width:1px;stroke-linecap:butt;stroke-linejoin:miter;stroke-opacity:1"
       id="path4390" />
    <path
       d="M 2.5,8.5 L 8,8.5 C 10,8.5 11.5,4.5 14,4.5 L 34,4.5 C 36.5,4.5 38,8.5 40,8.5 L 45.5,8.5"
       style="opacity:0.35;fill:none;fill-rule:evenodd;stroke:#ffffff;stroke-width:1px;stroke-linecap:square;stroke-linejoin:miter;stroke-opacity:1"
       id="path4384" />
    <path
       d="M 2.5,19.5 L 8,19.5 C 10,19.5 11.5,23.5 14,23.5 L 34,23.5 C 36.5,23.5 38,19.5 40,19.5 L 45.5,19.5"
       style="opacity:0.35;fill:none;fill-rule:evenodd;stroke:#ffffff;stroke-width:1px;stroke-linecap:square;stroke-linejoin:miter;stroke-opacity:1"
       id="path4386" />
    <path
       d="M 13.5,8 L 33.5,8 C 33.777,8 34,8.223 34,8.5 L 34,17.5 C 34,17.777 33.777,18 33.5,18 L 13.5,18 C 13.223,18 13,17.777 13,17.5 L 13,8.5 C 13,8.223 13.223,8 13.5,8 z "
       style="opacity:0.8;fill:url(#linearGradient3709);fill-opacity:1;stroke:none;stroke-linecap:square;stroke-linejoin:round"
       id="rect4392" />
    <path
       d="M 19.80573,19 L 19.80573,19.486834 L 20.21767,19.486834 L 20.21767,19 L 19.80573,19 z M 22.80164,19 L 22.80164,19.486834 L 23.21357,19.486834 L 23.21357,19 L 22.80164,19 z M 20.74196,19.711527 L 20.74196,20.048566 L 21.19134,20.048566 L 21.19134,21.321825 C 21.19134,21.566679 21.25236,21.740753 21.34114,21.846108 C 21.42991,21.951463 21.54919,21.995903 21.75307,21.995903 L 22.23991,21.995903 L 22.23991,21.658864 L 21.86542,21.658864 C 21.76982,21.658865 21.71817,21.637621 21.67817,21.583967 C 21.63818,21.530315 21.60328,21.450593 21.60328,21.321825 L 21.60328,19.711527 L 20.74196,19.711527 z M 19.35635,19.748976 L 19.35635,20.086015 L 19.80573,20.086015 L 19.80573,21.059684 L 19.244,21.059684 L 19.244,21.396723 L 20.74196,21.396723 L 20.74196,21.059684 L 20.21767,21.059684 L 20.21767,19.748976 L 19.35635,19.748976 z M 22.35225,19.748976 L 22.35225,20.086015 L 22.80164,20.086015 L 22.80164,21.059684 L 22.23991,21.059684 L 22.23991,21.396723 L 23.73786,21.396723 L 23.73786,21.059684 L 23.21357,21.059684 L 23.21357,19.748976 L 22.35225,19.748976 z M 23.73786,19.748976 L 24.26214,21.396723 L 24.78643,21.396723 L 25.31071,19.748976 L 24.89877,19.748976 L 24.52428,21.022235 L 24.18724,19.748976 L 23.73786,19.748976 z M 26.35927,19.748976 C 26.11832,19.748977 25.93704,19.818563 25.79754,19.973669 C 25.65804,20.128777 25.57285,20.380458 25.57285,20.647747 C 25.57285,20.923818 25.65317,21.137075 25.79754,21.284376 C 25.94289,21.430703 26.16005,21.47162 26.43417,21.47162 C 26.54928,21.471621 26.63036,21.492106 26.73376,21.47162 C 26.83716,21.451134 26.9713,21.400246 27.0708,21.359274 L 27.0708,20.947337 C 26.96642,21.008796 26.82936,21.068843 26.73376,21.097132 C 26.63816,21.125421 26.5327,21.134581 26.43417,21.134581 C 26.28492,21.13458 26.2097,21.085644 26.13458,21.022235 C 26.05947,20.958828 25.98576,20.888862 25.98479,20.760093 L 27.10825,20.760093 L 27.10825,20.572849 C 27.10825,20.311415 27.05562,20.117071 26.921,19.973669 C 26.78736,19.829295 26.60217,19.748977 26.35927,19.748976 z M 28.41896,19.748976 C 28.30287,19.748977 28.20619,19.772171 28.11937,19.823873 C 28.03254,19.874601 27.97407,19.954918 27.93212,20.048566 L 27.93212,19.786425 L 27.48274,19.786425 L 27.48274,21.434171 L 27.93212,21.434171 L 27.93212,20.685196 C 27.93212,20.577891 27.92334,20.475733 27.93212,20.423054 C 27.94188,20.370378 27.98361,20.347778 28.00702,20.310708 C 28.04409,20.250226 28.0895,20.192131 28.15682,20.160913 C 28.2251,20.128722 28.29078,20.123465 28.38151,20.123464 C 28.45662,20.123465 28.54377,20.139451 28.6062,20.160913 C 28.66961,20.182374 28.70917,20.192888 28.756,20.23581 L 28.756,19.823873 C 28.70527,19.79656 28.66278,19.800081 28.6062,19.786425 C 28.5506,19.771793 28.47749,19.748977 28.41896,19.748976 z M 26.35927,20.086015 C 26.46853,20.086016 26.52836,20.102383 26.58397,20.160913 C 26.64055,20.218469 26.69436,20.309895 26.69631,20.423054 L 25.98479,20.423054 C 25.99552,20.31282 26.07605,20.257868 26.13458,20.198361 C 26.19311,20.137881 26.26074,20.086016 26.35927,20.086015 z "
       style="font-size:4px;font-style:normal;font-weight:normal;fill:#eeeeec;fill-opacity:1;stroke:none;stroke-width:1px;stroke-linecap:butt;stroke-linejoin:miter;stroke-opacity:1;font-family:Bitstream Vera Sans Mono"
       id="path4394" />
    <rect
       width="1.5"
       height="2.5000014"
       rx="1"
       ry="1"
       x="7.75"
       y="12.75"
       style="fill:#2e3436;fill-opacity:1;stroke:url(#linearGradient3705);stroke-width:0.5;stroke-linecap:round;stroke-linejoin:round;stroke-miterlimit:4;stroke-dasharray:none;stroke-opacity:1"
       id="rect4396" />
    <path
       d="M -14.969461,10.690741 L -14.646696,10.690741 L -14.238145,11.780208 L -13.827451,10.690741 L -13.504685,10.690741 L -13.504685,12.2917 L -13.71593,12.2917 L -13.71593,10.885901 L -14.12877,11.983947 L -14.346449,11.983947 L -14.759288,10.885901 L -14.759288,12.2917 L -14.969461,12.2917 L -14.969461,10.690741 M -13.073616,10.690741 L -12.85701,10.690741 L -12.85701,12.2917 L -13.073616,12.2917 L -13.073616,10.690741 M -11.227098,10.814057 L -11.227098,11.042459 C -11.300016,10.974547 -11.377937,10.923791 -11.460861,10.890191 C -11.543073,10.856593 -11.630645,10.839793 -11.723577,10.839792 C -11.906586,10.839793 -12.046701,10.895911 -12.143923,11.008145 C -12.241146,11.119666 -12.289758,11.281227 -12.289757,11.492829 C -12.289758,11.703717 -12.241146,11.865279 -12.143923,11.977513 C -12.046701,12.089034 -11.906586,12.144794 -11.723577,12.144794 C -11.630645,12.144794 -11.543073,12.127994 -11.460861,12.094395 C -11.377937,12.060796 -11.300016,12.01004 -11.227098,11.942127 L -11.227098,12.168385 C -11.302876,12.219856 -11.383299,12.258459 -11.468368,12.284194 C -11.552724,12.30993 -11.642083,12.322797 -11.736445,12.322797 C -11.978788,12.322797 -12.169659,12.248808 -12.309059,12.100829 C -12.44846,11.952136 -12.51816,11.749469 -12.518159,11.492829 C -12.51816,11.235476 -12.44846,11.032809 -12.309059,10.884829 C -12.169659,10.736137 -11.978788,10.66179 -11.736445,10.661788 C -11.640653,10.66179 -11.550579,10.674658 -11.466223,10.700392 C -11.381154,10.725414 -11.301446,10.763302 -11.227098,10.814057"
       transform="matrix(0,-1.0688429,0.9355912,0,0,0)"
       style="font-size:2.19609189px;font-style:normal;font-weight:normal;fill:#eeeeec;fill-opacity:1;stroke:none;stroke-width:1px;stroke-linecap:butt;stroke-linejoin:miter;stroke-opacity:1;font-family:Bitstream Vera Sans Mono"
       id="text4398" />
    <path
       d="M 12.628765,11.841589 L 12.873372,11.841589 L 12.873372,11.123333 L 12.645814,11.179667 L 12.645814,10.982499 L 12.874855,10.927648 L 13.086106,10.927648 L 13.086106,11.841589 L 13.330713,11.841589 L 13.330713,12.034309 L 12.628765,12.034309 L 12.628765,11.841589 M 13.724308,11.841589 L 14.190544,11.841589 L 14.190544,12.034309 L 13.487855,12.034309 L 13.487855,11.847519 L 13.606452,11.721509 C 13.747286,11.57178 13.832775,11.47962 13.862919,11.445029 C 13.89998,11.402532 13.926664,11.364976 13.942972,11.332361 C 13.959279,11.299254 13.967432,11.266639 13.967433,11.234518 C 13.967432,11.185104 13.95236,11.147054 13.922218,11.120369 C 13.892568,11.093191 13.850317,11.079602 13.795467,11.079601 C 13.756428,11.079602 13.712448,11.087508 13.663527,11.10332 C 13.6151,11.11864 13.564449,11.141124 13.511574,11.170772 L 13.511574,10.966933 C 13.564449,10.947662 13.616088,10.933085 13.666492,10.9232 C 13.71739,10.912824 13.766064,10.907636 13.812515,10.907635 C 13.929629,10.907636 14.021542,10.935061 14.088254,10.989911 C 14.155458,11.04427 14.189061,11.11864 14.189062,11.213023 C 14.189061,11.256509 14.181648,11.297277 14.166825,11.335326 C 14.152493,11.373377 14.127538,11.415627 14.09196,11.462077 C 14.065769,11.49568 13.99387,11.571286 13.876261,11.688895 C 13.812515,11.752641 13.761864,11.803539 13.724308,11.841589 M 14.648626,11.246378 L 14.895457,11.246378 L 14.895457,11.516928 L 14.648626,11.516928 L 14.648626,11.246378 M 14.648626,11.762277 L 14.895457,11.762277 L 14.895457,12.034309 L 14.648626,12.034309 L 14.648626,11.762277 M 15.593699,11.48209 C 15.593699,11.455901 15.602593,11.433911 15.620383,11.416121 C 15.638172,11.398332 15.659915,11.389437 15.685612,11.389436 C 15.711802,11.389437 15.733791,11.398332 15.751582,11.416121 C 15.769371,11.433911 15.778265,11.455901 15.778266,11.48209 C 15.778265,11.507787 15.769371,11.52953 15.751582,11.547319 C 15.733791,11.565109 15.711802,11.574004 15.685612,11.574003 C 15.659915,11.574004 15.638172,11.565356 15.620383,11.54806 C 15.602593,11.530271 15.593699,11.508281 15.593699,11.48209 M 15.685612,11.092943 C 15.635208,11.092944 15.598393,11.123829 15.575168,11.185597 C 15.551942,11.247367 15.54033,11.346198 15.54033,11.48209 C 15.54033,11.61749 15.551942,11.716073 15.575168,11.777843 C 15.598393,11.839612 15.635208,11.870497 15.685612,11.870497 C 15.736509,11.870497 15.773571,11.839612 15.796797,11.777843 C 15.820022,11.716073 15.831634,11.61749 15.831635,11.48209 C 15.831634,11.346198 15.820022,11.247367 15.796797,11.185597 C 15.773571,11.123829 15.736509,11.092944 15.685612,11.092943 M 15.320184,11.48209 C 15.320184,11.290359 15.350574,11.146807 15.411355,11.051434 C 15.472136,10.955569 15.563555,10.907636 15.685612,10.907635 C 15.808162,10.907636 15.899828,10.955322 15.960609,11.050693 C 16.02139,11.146066 16.05178,11.289865 16.051781,11.48209 C 16.05178,11.673823 16.02139,11.817375 15.960609,11.912747 C 15.899828,12.008119 15.808162,12.055805 15.685612,12.055805 C 15.563555,12.055805 15.472136,12.008119 15.411355,11.912747 C 15.350574,11.816881 15.320184,11.673329 15.320184,11.48209 M 16.281564,11.841589 L 16.526171,11.841589 L 16.526171,11.123333 L 16.298612,11.179667 L 16.298612,10.982499 L 16.527653,10.927648 L 16.738905,10.927648 L 16.738905,11.841589 L 16.983512,11.841589 L 16.983512,12.034309 L 16.281564,12.034309 L 16.281564,11.841589"
       transform="scale(1.1481718,0.8709498)"
       style="font-size:1.51804614px;font-style:normal;font-weight:normal;fill:#204a87;fill-opacity:1;stroke:none;stroke-width:1px;stroke-linecap:butt;stroke-linejoin:miter;stroke-opacity:1;font-family:Bitstream Vera Sans"
       id="text4402" />
    <path
       d="M 20.798754,10.7151 L 20.695707,11.168064 L 20.902543,11.168064 L 20.798754,10.7151 M 20.665311,10.514936 L 20.932938,10.514936 L 21.231702,11.62177 L 21.013004,11.62177 L 20.9448,11.348212 L 20.651967,11.348212 L 20.585246,11.62177 L 20.366548,11.62177 L 20.665311,10.514936"
       transform="scale(1.1068353,0.9034768)"
       style="font-size:1.51828313px;font-style:normal;font-weight:normal;fill:#204a87;fill-opacity:1;stroke:none;stroke-width:1px;stroke-linecap:butt;stroke-linejoin:miter;stroke-opacity:1;font-family:Bitstream Vera Sans Mono"
       id="text4406" />
    <path
       d="M 18.470552,11.276055 L 19.533076,11.276055 L 19.533076,11.434641 L 19.097432,11.434641 L 19.097432,12.66881 L 18.908062,12.66881 L 18.908062,11.434641 L 18.470552,11.434641 L 18.470552,11.276055 M 20.150627,11.744349 C 20.06356,11.74435 19.997638,11.778244 19.952861,11.846031 C 19.908084,11.913819 19.885695,12.014256 19.885696,12.147343 C 19.885695,12.279809 19.908084,12.380247 19.952861,12.448656 C 19.997638,12.516443 20.06356,12.550337 20.150627,12.550337 C 20.238315,12.550337 20.304547,12.516443 20.349325,12.448656 C 20.394102,12.380247 20.41649,12.279809 20.416491,12.147343 C 20.41649,12.014256 20.394102,11.913819 20.349325,11.846031 C 20.304547,11.778244 20.238315,11.74435 20.150627,11.744349 M 20.150627,11.598824 C 20.29553,11.598825 20.406229,11.645778 20.482724,11.739685 C 20.559839,11.833593 20.598397,11.969479 20.598398,12.147343 C 20.598397,12.32583 20.56015,12.462027 20.483657,12.555934 C 20.407162,12.64922 20.296152,12.695863 20.150627,12.695863 C 20.005723,12.695863 19.895024,12.64922 19.81853,12.555934 C 19.742036,12.462027 19.703789,12.32583 19.703789,12.147343 C 19.703789,11.969479 19.742036,11.833593 19.81853,11.739685 C 19.895024,11.645778 20.005723,11.598825 20.150627,11.598824 M 21.29804,11.327362 L 21.29804,11.624011 L 21.687974,11.624011 L 21.687974,11.757409 L 21.29804,11.757409 L 21.29804,12.324586 C 21.29804,12.401702 21.312654,12.455497 21.341885,12.48597 C 21.371113,12.516443 21.422109,12.53168 21.494873,12.53168 L 21.687974,12.53168 L 21.687974,12.66881 L 21.478082,12.66881 C 21.349347,12.66881 21.258549,12.643001 21.205688,12.591383 C 21.152825,12.539765 21.126394,12.450833 21.126395,12.324586 L 21.126395,11.757409 L 20.847471,11.757409 L 20.847471,11.624011 L 21.126395,11.624011 L 21.126395,11.327362 L 21.29804,11.327362 M 22.529411,12.143612 L 22.472507,12.143612 C 22.372379,12.143612 22.296818,12.161337 22.245822,12.196785 C 22.195448,12.231612 22.170261,12.283852 22.170261,12.353504 C 22.170261,12.416317 22.189229,12.465136 22.227165,12.499963 C 22.265101,12.53479 22.317652,12.552203 22.384818,12.552203 C 22.479347,12.552203 22.553664,12.519553 22.607771,12.454253 C 22.661876,12.388331 22.689239,12.297533 22.689862,12.181859 L 22.689862,12.143612 L 22.529411,12.143612 M 22.862441,12.072715 L 22.862441,12.66881 L 22.689862,12.66881 L 22.689862,12.513956 C 22.653169,12.576146 22.606837,12.622167 22.550866,12.652018 C 22.495516,12.681248 22.42804,12.695863 22.348437,12.695863 C 22.242091,12.695863 22.157201,12.666011 22.093767,12.606309 C 22.030332,12.545984 21.998615,12.465447 21.998615,12.364699 C 21.998615,12.248403 22.037484,12.160093 22.115223,12.099767 C 22.193582,12.039443 22.308323,12.009281 22.459447,12.00928 L 22.689862,12.00928 L 22.689862,11.982228 C 22.689239,11.898893 22.668095,11.838569 22.626428,11.801253 C 22.58476,11.763318 22.518216,11.74435 22.426797,11.744349 C 22.368337,11.74435 22.309256,11.752746 22.249554,11.769536 C 22.189851,11.786329 22.131703,11.810894 22.07511,11.843232 L 22.07511,11.671586 C 22.138544,11.647333 22.199179,11.629298 22.257017,11.617481 C 22.315475,11.605044 22.372068,11.598825 22.426797,11.598824 C 22.513241,11.598825 22.586936,11.611574 22.647884,11.637071 C 22.709451,11.66257 22.759204,11.700817 22.797141,11.751812 C 22.820772,11.782908 22.837563,11.821466 22.847515,11.867486 C 22.857464,11.912886 22.86244,11.981295 22.862441,12.072715 M 23.61992,12.29007 C 23.619919,12.367187 23.633912,12.425335 23.661898,12.464514 C 23.690505,12.503694 23.732484,12.523284 23.787834,12.523284 L 23.988398,12.523284 L 23.988398,12.66881 L 23.771043,12.66881 C 23.668428,12.66881 23.588824,12.635849 23.532231,12.569927 C 23.47626,12.504005 23.448274,12.41072 23.448274,12.29007 L 23.448274,11.341355 L 23.173082,11.341355 L 23.173082,11.207024 L 23.61992,11.207024 L 23.61992,12.29007 M 25.772953,11.969168 C 25.772952,11.934964 25.784768,11.905423 25.808401,11.880546 C 25.832655,11.855671 25.861573,11.843233 25.895157,11.843232 C 25.929983,11.843233 25.959834,11.855671 25.984711,11.880546 C 26.009586,11.905423 26.022025,11.934964 26.022025,11.969168 C 26.022025,12.003995 26.009586,12.033535 25.984711,12.057789 C 25.960456,12.082044 25.930605,12.094171 25.895157,12.09417 C 25.86033,12.094171 25.8311,12.082355 25.807468,12.058722 C 25.784457,12.03509 25.772952,12.005239 25.772953,11.969168 M 25.897022,11.400125 C 25.809333,11.400126 25.743723,11.447391 25.70019,11.541919 C 25.657278,11.63645 25.635822,11.780421 25.635823,11.973832 C 25.635822,12.166623 25.657278,12.310282 25.70019,12.404812 C 25.743723,12.499341 25.809333,12.546606 25.897022,12.546606 C 25.985332,12.546606 26.050943,12.499341 26.093855,12.404812 C 26.137388,12.310282 26.159154,12.166623 26.159155,11.973832 C 26.159154,11.780421 26.137388,11.63645 26.093855,11.541919 C 26.050943,11.447391 25.985332,11.400126 25.897022,11.400125 M 25.897022,11.250868 C 26.045657,11.25087 26.15791,11.311816 26.233784,11.433708 C 26.310277,11.555602 26.348524,11.735643 26.348525,11.973832 C 26.348524,12.2114 26.310277,12.39113 26.233784,12.513023 C 26.15791,12.634916 26.045657,12.695863 25.897022,12.695863 C 25.748387,12.695863 25.636133,12.634916 25.560261,12.513023 C 25.484389,12.39113 25.446453,12.2114 25.446453,11.973832 C 25.446453,11.735643 25.484389,11.555602 25.560261,11.433708 C 25.636133,11.311816 25.748387,11.25087 25.897022,11.250868 M 26.922232,11.969168 C 26.922232,11.934964 26.934048,11.905423 26.957681,11.880546 C 26.981934,11.855671 27.010853,11.843233 27.044436,11.843232 C 27.079262,11.843233 27.109114,11.855671 27.133991,11.880546 C 27.158866,11.905423 27.171304,11.934964 27.171305,11.969168 C 27.171304,12.003995 27.158866,12.033535 27.133991,12.057789 C 27.109736,12.082044 27.079884,12.094171 27.044436,12.09417 C 27.009609,12.094171 26.98038,12.082355 26.956748,12.058722 C 26.933737,12.03509 26.922232,12.005239 26.922232,11.969168 M 27.046302,11.400125 C 26.958613,11.400126 26.893002,11.447391 26.849469,11.541919 C 26.806558,11.63645 26.785102,11.780421 26.785102,11.973832 C 26.785102,12.166623 26.806558,12.310282 26.849469,12.404812 C 26.893002,12.499341 26.958613,12.546606 27.046302,12.546606 C 27.134612,12.546606 27.200223,12.499341 27.243135,12.404812 C 27.286667,12.310282 27.308434,12.166623 27.308435,11.973832 C 27.308434,11.780421 27.286667,11.63645 27.243135,11.541919 C 27.200223,11.447391 27.134612,11.400126 27.046302,11.400125 M 27.046302,11.250868 C 27.194936,11.25087 27.30719,11.311816 27.383063,11.433708 C 27.459556,11.555602 27.497804,11.735643 27.497805,11.973832 C 27.497804,12.2114 27.459556,12.39113 27.383063,12.513023 C 27.30719,12.634916 27.194936,12.695863 27.046302,12.695863 C 26.897667,12.695863 26.785413,12.634916 26.709541,12.513023 C 26.633668,12.39113 26.595732,12.2114 26.595732,11.973832 C 26.595732,11.735643 26.633668,11.555602 26.709541,11.433708 C 26.785413,11.311816 26.897667,11.25087 27.046302,11.250868 M 28.071511,11.969168 C 28.07151,11.934964 28.083327,11.905423 28.106959,11.880546 C 28.131213,11.855671 28.160132,11.843233 28.193715,11.843232 C 28.228541,11.843233 28.258392,11.855671 28.283269,11.880546 C 28.308145,11.905423 28.320583,11.934964 28.320583,11.969168 C 28.320583,12.003995 28.308145,12.033535 28.283269,12.057789 C 28.259014,12.082044 28.229163,12.094171 28.193715,12.09417 C 28.158888,12.094171 28.129658,12.082355 28.106026,12.058722 C 28.083016,12.03509 28.07151,12.005239 28.071511,11.969168 M 28.195581,11.400125 C 28.107892,11.400126 28.042281,11.447391 27.998748,11.541919 C 27.955836,11.63645 27.934381,11.780421 27.934381,11.973832 C 27.934381,12.166623 27.955836,12.310282 27.998748,12.404812 C 28.042281,12.499341 28.107892,12.546606 28.195581,12.546606 C 28.28389,12.546606 28.349501,12.499341 28.392413,12.404812 C 28.435946,12.310282 28.457713,12.166623 28.457713,11.973832 C 28.457713,11.780421 28.435946,11.63645 28.392413,11.541919 C 28.349501,11.447391 28.28389,11.400126 28.195581,11.400125 M 28.195581,11.250868 C 28.344215,11.25087 28.456469,11.311816 28.532342,11.433708 C 28.608835,11.555602 28.647082,11.735643 28.647083,11.973832 C 28.647082,12.2114 28.608835,12.39113 28.532342,12.513023 C 28.456469,12.634916 28.344215,12.695863 28.195581,12.695863 C 28.046945,12.695863 27.934692,12.634916 27.85882,12.513023 C 27.782947,12.39113 27.745011,12.2114 27.745011,11.973832 C 27.745011,11.735643 27.782947,11.555602 27.85882,11.433708 C 27.934692,11.311816 28.046945,11.25087 28.195581,11.250868 M 29.118175,12.510224 L 29.758115,12.510224 L 29.758115,12.66881 L 28.912014,12.66881 L 28.912014,12.510224 C 29.02831,12.387709 29.129991,12.279498 29.217058,12.18559 C 29.304124,12.091683 29.364138,12.025451 29.397099,11.986892 C 29.459289,11.91102 29.501268,11.849763 29.523035,11.803119 C 29.544801,11.755855 29.555684,11.707658 29.555685,11.658526 C 29.555684,11.580789 29.532674,11.519843 29.486654,11.475687 C 29.441254,11.431533 29.378753,11.409455 29.299149,11.409454 C 29.242556,11.409455 29.183164,11.419716 29.120974,11.440238 C 29.058783,11.460762 28.992861,11.491857 28.923208,11.533524 L 28.923208,11.343221 C 28.987264,11.312749 29.050076,11.289739 29.111645,11.27419 C 29.173835,11.258643 29.235093,11.25087 29.295418,11.250868 C 29.431614,11.25087 29.541069,11.287251 29.623783,11.360012 C 29.707118,11.432154 29.748785,11.526995 29.748786,11.644534 C 29.748785,11.704237 29.734792,11.76394 29.706808,11.823642 C 29.679443,11.883346 29.634666,11.949267 29.572476,12.021408 C 29.537649,12.061832 29.486964,12.117803 29.420421,12.189322 C 29.354498,12.260841 29.25375,12.367809 29.118175,12.510224"
       transform="scale(0.9745238,1.0261422)"
       style="font-size:1.91048992px;font-style:normal;font-weight:normal;fill:#204a87;fill-opacity:1;stroke:none;stroke-width:1px;stroke-linecap:butt;stroke-linejoin:miter;stroke-opacity:1;font-family:Bitstream Vera Sans Mono"
       id="text4410" />
    <path
       d="M 21.083813,15.754325 C 21.083812,15.729836 21.09213,15.709274 21.108765,15.692639 C 21.125399,15.676005 21.14573,15.667687 21.169758,15.667687 C 21.194248,15.667687 21.21481,15.676005 21.231445,15.692639 C 21.248079,15.709274 21.256396,15.729836 21.256397,15.754325 C 21.256396,15.778354 21.248079,15.798685 21.231445,15.815319 C 21.21481,15.831954 21.194248,15.840271 21.169758,15.840271 C 21.14573,15.840271 21.125399,15.832185 21.108765,15.816012 C 21.09213,15.799378 21.083812,15.778816 21.083813,15.754325 M 21.169758,15.390444 C 21.122626,15.390445 21.088202,15.419324 21.066485,15.477082 C 21.044767,15.534842 21.033909,15.627256 21.033909,15.754325 C 21.033909,15.880934 21.044767,15.973117 21.066485,16.030876 C 21.088202,16.088635 21.122626,16.117514 21.169758,16.117514 C 21.217351,16.117514 21.252006,16.088635 21.273724,16.030876 C 21.295441,15.973117 21.3063,15.880934 21.3063,15.754325 C 21.3063,15.627256 21.295441,15.534842 21.273724,15.477082 C 21.252006,15.419324 21.217351,15.390445 21.169758,15.390444 M 20.828056,15.754325 C 20.828056,15.575042 20.856473,15.44081 20.913308,15.35163 C 20.970143,15.261989 21.055626,15.217168 21.169758,15.217167 C 21.284351,15.217168 21.370066,15.261758 21.426901,15.350937 C 21.483735,15.440117 21.512153,15.57458 21.512154,15.754325 C 21.512153,15.93361 21.483735,16.067841 21.426901,16.157021 C 21.370066,16.246201 21.284351,16.290791 21.169758,16.290791 C 21.055626,16.290791 20.970143,16.246201 20.913308,16.157021 C 20.856473,16.067379 20.828056,15.933148 20.828056,15.754325 M 21.937722,15.754325 C 21.937722,15.729836 21.946039,15.709274 21.962674,15.692639 C 21.979308,15.676005 21.999639,15.667687 22.023667,15.667687 C 22.048157,15.667687 22.068719,15.676005 22.085354,15.692639 C 22.101988,15.709274 22.110305,15.729836 22.110306,15.754325 C 22.110305,15.778354 22.101988,15.798685 22.085354,15.815319 C 22.068719,15.831954 22.048157,15.840271 22.023667,15.840271 C 21.999639,15.840271 21.979308,15.832185 21.962674,15.816012 C 21.946039,15.799378 21.937722,15.778816 21.937722,15.754325 M 22.023667,15.390444 C 21.976536,15.390445 21.942111,15.419324 21.920394,15.477082 C 21.898676,15.534842 21.887818,15.627256 21.887818,15.754325 C 21.887818,15.880934 21.898676,15.973117 21.920394,16.030876 C 21.942111,16.088635 21.976536,16.117514 22.023667,16.117514 C 22.07126,16.117514 22.105916,16.088635 22.127633,16.030876 C 22.14935,15.973117 22.160209,15.880934 22.16021,15.754325 C 22.160209,15.627256 22.14935,15.534842 22.127633,15.477082 C 22.105916,15.419324 22.07126,15.390445 22.023667,15.390444 M 21.681965,15.754325 C 21.681965,15.575042 21.710382,15.44081 21.767217,15.35163 C 21.824052,15.261989 21.909535,15.217168 22.023667,15.217167 C 22.138261,15.217168 22.223975,15.261758 22.28081,15.350937 C 22.337644,15.440117 22.366062,15.57458 22.366063,15.754325 C 22.366062,15.93361 22.337644,16.067841 22.28081,16.157021 C 22.223975,16.246201 22.138261,16.290791 22.023667,16.290791 C 21.909535,16.290791 21.824052,16.246201 21.767217,16.157021 C 21.710382,16.067379 21.681965,15.933148 21.681965,15.754325 M 22.761827,15.533917 L 22.992632,15.533917 L 22.992632,15.786901 L 22.761827,15.786901 L 22.761827,15.533917 M 22.761827,16.01632 L 22.992632,16.01632 L 22.992632,16.270691 L 22.761827,16.270691 L 22.761827,16.01632 M 23.64554,15.754325 C 23.64554,15.729836 23.653857,15.709274 23.670492,15.692639 C 23.687126,15.676005 23.707458,15.667687 23.731486,15.667687 C 23.755975,15.667687 23.776537,15.676005 23.793172,15.692639 C 23.809806,15.709274 23.818124,15.729836 23.818124,15.754325 C 23.818124,15.778354 23.809806,15.798685 23.793172,15.815319 C 23.776537,15.831954 23.755975,15.840271 23.731486,15.840271 C 23.707458,15.840271 23.687126,15.832185 23.670492,15.816012 C 23.653857,15.799378 23.64554,15.778816 23.64554,15.754325 M 23.731486,15.390444 C 23.684354,15.390445 23.64993,15.419324 23.628213,15.477082 C 23.606495,15.534842 23.595636,15.627256 23.595636,15.754325 C 23.595636,15.880934 23.606495,15.973117 23.628213,16.030876 C 23.64993,16.088635 23.684354,16.117514 23.731486,16.117514 C 23.779079,16.117514 23.813734,16.088635 23.835452,16.030876 C 23.857169,15.973117 23.868027,15.880934 23.868028,15.754325 C 23.868027,15.627256 23.857169,15.534842 23.835452,15.477082 C 23.813734,15.419324 23.779079,15.390445 23.731486,15.390444 M 23.389783,15.754325 C 23.389783,15.575042 23.418201,15.44081 23.475036,15.35163 C 23.53187,15.261989 23.617354,15.217168 23.731486,15.217167 C 23.846079,15.217168 23.931793,15.261758 23.988629,15.350937 C 24.045463,15.440117 24.07388,15.57458 24.073881,15.754325 C 24.07388,15.93361 24.045463,16.067841 23.988629,16.157021 C 23.931793,16.246201 23.846079,16.290791 23.731486,16.290791 C 23.617354,16.290791 23.53187,16.246201 23.475036,16.157021 C 23.418201,16.067379 23.389783,15.933148 23.389783,15.754325 M 24.499449,15.754325 C 24.499449,15.729836 24.507766,15.709274 24.524401,15.692639 C 24.541035,15.676005 24.561367,15.667687 24.585395,15.667687 C 24.609884,15.667687 24.630446,15.676005 24.647081,15.692639 C 24.663715,15.709274 24.672033,15.729836 24.672033,15.754325 C 24.672033,15.778354 24.663715,15.798685 24.647081,15.815319 C 24.630446,15.831954 24.609884,15.840271 24.585395,15.840271 C 24.561367,15.840271 24.541035,15.832185 24.524401,15.816012 C 24.507766,15.799378 24.499449,15.778816 24.499449,15.754325 M 24.585395,15.390444 C 24.538263,15.390445 24.503839,15.419324 24.482122,15.477082 C 24.460404,15.534842 24.449545,15.627256 24.449546,15.754325 C 24.449545,15.880934 24.460404,15.973117 24.482122,16.030876 C 24.503839,16.088635 24.538263,16.117514 24.585395,16.117514 C 24.632988,16.117514 24.667643,16.088635 24.689361,16.030876 C 24.711078,15.973117 24.721936,15.880934 24.721937,15.754325 C 24.721936,15.627256 24.711078,15.534842 24.689361,15.477082 C 24.667643,15.419324 24.632988,15.390445 24.585395,15.390444 M 24.243692,15.754325 C 24.243692,15.575042 24.27211,15.44081 24.328945,15.35163 C 24.385779,15.261989 24.471263,15.217168 24.585395,15.217167 C 24.699988,15.217168 24.785702,15.261758 24.842538,15.350937 C 24.899372,15.440117 24.927789,15.57458 24.92779,15.754325 C 24.927789,15.93361 24.899372,16.067841 24.842538,16.157021 C 24.785702,16.246201 24.699988,16.290791 24.585395,16.290791 C 24.471263,16.290791 24.385779,16.246201 24.328945,16.157021 C 24.27211,16.067379 24.243692,15.933148 24.243692,15.754325 M 25.517625,15.185977 L 25.517625,16.605462 L 25.360289,16.605462 L 25.360289,15.185977 L 25.517625,15.185977 M 26.207268,15.754325 C 26.207267,15.729836 26.215585,15.709274 26.23222,15.692639 C 26.248854,15.676005 26.269185,15.667687 26.293213,15.667687 C 26.317703,15.667687 26.338265,15.676005 26.3549,15.692639 C 26.371534,15.709274 26.379851,15.729836 26.379852,15.754325 C 26.379851,15.778354 26.371534,15.798685 26.3549,15.815319 C 26.338265,15.831954 26.317703,15.840271 26.293213,15.840271 C 26.269185,15.840271 26.248854,15.832185 26.23222,15.816012 C 26.215585,15.799378 26.207267,15.778816 26.207268,15.754325 M 26.293213,15.390444 C 26.246081,15.390445 26.211657,15.419324 26.18994,15.477082 C 26.168222,15.534842 26.157364,15.627256 26.157364,15.754325 C 26.157364,15.880934 26.168222,15.973117 26.18994,16.030876 C 26.211657,16.088635 26.246081,16.117514 26.293213,16.117514 C 26.340806,16.117514 26.375462,16.088635 26.397179,16.030876 C 26.418896,15.973117 26.429755,15.880934 26.429755,15.754325 C 26.429755,15.627256 26.418896,15.534842 26.397179,15.477082 C 26.375462,15.419324 26.340806,15.390445 26.293213,15.390444 M 25.951511,15.754325 C 25.951511,15.575042 25.979928,15.44081 26.036763,15.35163 C 26.093598,15.261989 26.179081,15.217168 26.293213,15.217167 C 26.407807,15.217168 26.493521,15.261758 26.550356,15.350937 C 26.60719,15.440117 26.635608,15.57458 26.635609,15.754325 C 26.635608,15.93361 26.60719,16.067841 26.550356,16.157021 C 26.493521,16.246201 26.407807,16.290791 26.293213,16.290791 C 26.179081,16.290791 26.093598,16.246201 26.036763,16.157021 C 25.979928,16.067379 25.951511,15.933148 25.951511,15.754325 M 27.061177,15.754325 C 27.061176,15.729836 27.069494,15.709274 27.086129,15.692639 C 27.102763,15.676005 27.123094,15.667687 27.147122,15.667687 C 27.171612,15.667687 27.192174,15.676005 27.208809,15.692639 C 27.225443,15.709274 27.23376,15.729836 27.233761,15.754325 C 27.23376,15.778354 27.225443,15.798685 27.208809,15.815319 C 27.192174,15.831954 27.171612,15.840271 27.147122,15.840271 C 27.123094,15.840271 27.102763,15.832185 27.086129,15.816012 C 27.069494,15.799378 27.061176,15.778816 27.061177,15.754325 M 27.147122,15.390444 C 27.09999,15.390445 27.065566,15.419324 27.043849,15.477082 C 27.022131,15.534842 27.011273,15.627256 27.011273,15.754325 C 27.011273,15.880934 27.022131,15.973117 27.043849,16.030876 C 27.065566,16.088635 27.09999,16.117514 27.147122,16.117514 C 27.194715,16.117514 27.229371,16.088635 27.251088,16.030876 C 27.272805,15.973117 27.283664,15.880934 27.283664,15.754325 C 27.283664,15.627256 27.272805,15.534842 27.251088,15.477082 C 27.229371,15.419324 27.194715,15.390445 27.147122,15.390444 M 26.80542,15.754325 C 26.80542,15.575042 26.833837,15.44081 26.890672,15.35163 C 26.947507,15.261989 27.03299,15.217168 27.147122,15.217167 C 27.261716,15.217168 27.34743,15.261758 27.404265,15.350937 C 27.461099,15.440117 27.489517,15.57458 27.489518,15.754325 C 27.489517,15.93361 27.461099,16.067841 27.404265,16.157021 C 27.34743,16.246201 27.261716,16.290791 27.147122,16.290791 C 27.03299,16.290791 26.947507,16.246201 26.890672,16.157021 C 26.833837,16.067379 26.80542,15.933148 26.80542,15.754325 M 27.885282,15.533917 L 28.116087,15.533917 L 28.116087,15.786901 L 27.885282,15.786901 L 27.885282,15.533917 M 27.885282,16.01632 L 28.116087,16.01632 L 28.116087,16.270691 L 27.885282,16.270691 L 27.885282,16.01632 M 28.808502,15.807695 L 28.698991,15.807695 L 28.698991,15.627487 L 28.808502,15.627487 C 28.859329,15.627487 28.898606,15.617553 28.92633,15.597683 C 28.954516,15.577353 28.968609,15.548935 28.96861,15.512431 C 28.968609,15.47408 28.954516,15.444276 28.92633,15.42302 C 28.898606,15.401303 28.859329,15.390445 28.808502,15.390444 C 28.769688,15.390445 28.728101,15.395296 28.683743,15.404999 C 28.639383,15.414703 28.593407,15.428796 28.545814,15.447279 L 28.545814,15.261526 C 28.593407,15.247202 28.640308,15.236344 28.686515,15.228949 C 28.732722,15.221095 28.777081,15.217168 28.819592,15.217167 C 28.92864,15.217168 29.013661,15.240964 29.074655,15.288557 C 29.135648,15.336151 29.166145,15.401765 29.166146,15.485399 C 29.166145,15.546856 29.148586,15.597222 29.11347,15.636497 C 29.078351,15.675312 29.028217,15.700726 28.963065,15.712739 C 29.036996,15.725677 29.093369,15.75525 29.132183,15.801457 C 29.170997,15.847202 29.190404,15.907503 29.190405,15.982358 C 29.190404,16.082628 29.15829,16.159101 29.094063,16.211777 C 29.029834,16.264453 28.936495,16.290791 28.814047,16.290791 C 28.761832,16.290791 28.710311,16.286401 28.659484,16.277622 C 28.609118,16.268843 28.560831,16.256136 28.514624,16.239501 L 28.514624,16.049589 C 28.558059,16.071307 28.604959,16.087942 28.655325,16.099493 C 28.705691,16.110583 28.758598,16.116128 28.814047,16.116128 C 28.869495,16.116128 28.913392,16.103421 28.945737,16.078007 C 28.978082,16.052131 28.994254,16.017476 28.994255,15.974041 C 28.994254,15.920903 28.978082,15.880009 28.945737,15.851361 C 28.913392,15.82225 28.867647,15.807695 28.808502,15.807695 M 29.708849,15.809081 C 29.663104,15.809081 29.626138,15.823637 29.597952,15.852747 C 29.569765,15.881396 29.555672,15.919517 29.555672,15.96711 C 29.555672,16.014703 29.569765,16.053055 29.597952,16.082166 C 29.626138,16.111276 29.663104,16.125831 29.708849,16.125831 C 29.754594,16.125831 29.79156,16.111045 29.819747,16.081472 C 29.848394,16.0519 29.862719,16.013779 29.862719,15.96711 C 29.862719,15.919517 29.848625,15.881396 29.82044,15.852747 C 29.792253,15.823637 29.755056,15.809081 29.708849,15.809081 M 29.557059,15.722442 C 29.504844,15.704422 29.465106,15.676236 29.437844,15.637883 C 29.410582,15.59907 29.396951,15.551708 29.396951,15.495796 C 29.396951,15.409852 29.424906,15.341927 29.480817,15.292022 C 29.536727,15.24212 29.612738,15.217168 29.708849,15.217167 C 29.805422,15.217168 29.881664,15.24212 29.937575,15.292022 C 29.993485,15.341927 30.02144,15.409852 30.021441,15.495796 C 30.02144,15.551245 30.00804,15.598377 29.981241,15.63719 C 29.95444,15.675543 29.915395,15.70396 29.864105,15.722442 C 29.921402,15.740002 29.966223,15.771423 29.998568,15.816705 C 30.030913,15.861989 30.047085,15.916282 30.047086,15.979586 C 30.047085,16.078931 30.017744,16.155635 29.959061,16.209697 C 29.900378,16.26376 29.816974,16.290791 29.708849,16.290791 C 29.601186,16.290791 29.518013,16.26376 29.45933,16.209697 C 29.400647,16.155635 29.371306,16.078931 29.371306,15.979586 C 29.371306,15.91582 29.387709,15.861295 29.420516,15.816012 C 29.453323,15.770729 29.498837,15.73954 29.557059,15.722442 M 29.578545,15.512431 C 29.578545,15.553094 29.590096,15.585439 29.6132,15.609466 C 29.636766,15.633032 29.668649,15.644815 29.708849,15.644814 C 29.749511,15.644815 29.781394,15.633032 29.804498,15.609466 C 29.828063,15.585439 29.839846,15.553094 29.839847,15.512431 C 29.839846,15.472231 29.828063,15.440579 29.804498,15.417475 C 29.781394,15.39391 29.749511,15.382127 29.708849,15.382126 C 29.669111,15.382127 29.637459,15.39391 29.613893,15.417475 C 29.590327,15.441041 29.578545,15.472693 29.578545,15.512431"
       transform="scale(1.084713,0.9219028)"
       style="font-size:1.41948533px;font-style:normal;font-weight:normal;fill:#204a87;fill-opacity:1;stroke:none;stroke-width:1px;stroke-linecap:butt;stroke-linejoin:miter;stroke-opacity:1;font-family:Bitstream Vera Sans Mono"
       id="text4414" />
    <path
       d="M 14.5,16 L 32.5,16 L 32.5,17 L 14.5,17 L 14.5,16 z "
       style="fill:none;fill-opacity:1;stroke:#204a87;stroke-width:0.25;stroke-linecap:round;stroke-linejoin:round;stroke-miterlimit:4;stroke-opacity:1"
       id="rect4418" />
    <path
       d="M 29.5,9.5 L 32.504277,9.5 L 32.504277,10.5 L 29.5,10.5 L 29.5,9.5 z "
       style="fill:none;fill-opacity:1;stroke:#204a87;stroke-width:0.24999997;stroke-linecap:round;stroke-linejoin:round;stroke-miterlimit:4;stroke-opacity:1"
       id="rect4420" />
    <path
       d="M 30.5,9.5 L 32.5,9.5 L 32.5,10.5 L 30.5,10.5 L 30.5,9.5 z "
       style="fill:#204a87;fill-opacity:1;stroke:none;stroke-width:0.25;stroke-linecap:round;stroke-linejoin:round;stroke-miterlimit:4;stroke-opacity:1"
       id="rect4422" />
    <path
       d="M 33.5,8.5 L 33.5,11 C 27,14 20,13 13.5,16 L 13.5,8.5 L 33.5,8.5 z "
       style="opacity:0.25;fill:url(#linearGradient3688);fill-opacity:1;stroke:none;stroke-linecap:square;stroke-linejoin:round"
       id="path4424" />
    <rect
       width="45"
       height="23"
       x="1.5"
       y="2.5"
       style="opacity:0.35;fill:none;fill-opacity:1;stroke:url(#linearGradient3685);stroke-linecap:square;stroke-linejoin:round"
       id="rect4900" />
    <g
       transform="translate(0.5205868,-4.5)"
       id="g4424">
      <g
         transform="translate(-0.4570638,3.5000036)"
         id="g3754">
        <path
           d="M 48 40.5 A 24 3.5 0 1 1  0,40.5 A 24 3.5 0 1 1  48 40.5 z"
           transform="matrix(0.4375,0,0,0.9285712,22,1.642864)"
           style="opacity:0.35;fill:url(#radialGradient4441);fill-opacity:1;stroke:none;stroke-width:1;stroke-miterlimit:4;stroke-dasharray:none;stroke-opacity:1"
           id="path3742" />
        <path
           d="M 20.5,37.654919 C 20.5,37.654919 29.019728,39.351307 33.307022,38.04746 C 36.696426,37.016679 41.893993,33.479331 41.936477,31.135684 C 41.957064,29.999996 32.016066,25.259476 31.942916,30.998253 C 31.942916,30.998253 29.111163,32.177836 29.092876,33.61253 C 27.669874,33.568916 20.518286,36.220227 20.518286,36.220227 L 20.5,37.654919 z "
           style="fill:#2e3436;fill-opacity:1;fill-rule:evenodd;stroke:url(#linearGradient4443);stroke-width:0.99999982px;stroke-linecap:round;stroke-linejoin:round;stroke-opacity:1"
           id="path3575" />
        <path
           d="M 17.5,34.59375 C 16.993149,34.640557 16.544818,34.830182 16.1875,35.1875 C 16.1875,35.1875 14.1875,37.1875 13.1875,38.1875 C 13.005638,38.370727 12.758159,38.473779 12.5,38.473779 C 12.241841,38.473779 11.994362,38.370727 11.8125,38.1875 C 11.790792,38.165792 11.147197,37.72131 10.375,37.3125 C 9.6028025,36.90369 8.647708,36.433514 7.71875,36 C 6.2628829,35.320595 5.4365731,34.94866 4.90625,34.71875 C 5.2897066,35.23977 5.866804,36.079919 7.21875,37.625 C 8.9348844,39.586297 11.197392,41.754946 12.9375,42.625 C 14.354351,43.333425 16.552157,43.922254 18.5625,44.125 C 20.572843,44.327746 22.451591,44.032273 22.96875,43.6875 C 27.314706,40.790196 21.047954,34.266099 17.5,34.59375 z "
           transform="matrix(0.7206452,-0.6955391,0.7023576,0.739155,-6.2536006,14.58846)"
           style="opacity:0.6;fill:url(#radialGradient4445);fill-opacity:1;fill-rule:evenodd;stroke:url(#linearGradient4447);stroke-width:0.98957229px;stroke-linecap:round;stroke-linejoin:round;stroke-opacity:1"
           id="path3581" />
        <path
           d="M 28.400728 38 A 6.9007277 7.5 0 1 1  14.599272,38 A 6.9007277 7.5 0 1 1  28.400728 38 z"
           transform="matrix(0.8659103,0.6503432,-0.60449,0.8013128,40.296465,-11.432265)"
           style="fill:url(#radialGradient4449);fill-opacity:1;stroke:url(#linearGradient4451);stroke-width:0.95915133;stroke-linecap:round;stroke-linejoin:round;stroke-miterlimit:4;stroke-dasharray:none;stroke-opacity:1"
           id="path3573" />
        <path
           d="M 21.5,31.4375 C 18.238154,31.4375 15.53125,34.324208 15.53125,38 C 15.53125,41.675792 18.238154,44.5625 21.5,44.5625 C 24.761846,44.5625 27.46875,41.675792 27.46875,38 C 27.46875,34.324208 24.761846,31.4375 21.5,31.4375 z "
           transform="matrix(0.8645887,0.6464772,-0.6035674,0.7965493,40.299771,-11.168134)"
           style="opacity:0.75;fill:none;fill-opacity:1;stroke:url(#linearGradient4453);stroke-width:0.9627499;stroke-linecap:round;stroke-linejoin:round;stroke-miterlimit:4;stroke-dasharray:none;stroke-opacity:1"
           id="path3626" />
      </g>
      <g
         id="g4414">
        <path
           d="M 28 37.5 A 0.5 1.5 0 1 1  27,37.5 A 0.5 1.5 0 1 1  28 37.5 z"
           transform="matrix(-1.9987498,5.915046e-2,-2.3360442e-2,-0.9997043,91.341343,68.86242)"
           style="opacity:0.85;fill:url(#radialGradient4455);fill-opacity:1;stroke:none;stroke-width:1.22474492;stroke-linecap:round;stroke-linejoin:round;stroke-miterlimit:4;stroke-dasharray:none;stroke-dashoffset:0;stroke-opacity:0.49803922"
           id="path3868" />
        <path
           d="M 28 37.5 A 0.5 1.5 0 1 1  27,37.5 A 0.5 1.5 0 1 1  28 37.5 z"
           transform="matrix(-5.915046e-2,1.9987498,0.9997043,2.3360442e-2,3.13758,-19.341636)"
           style="opacity:0.85;fill:url(#radialGradient4457);fill-opacity:1;stroke:none;stroke-width:1.22474492;stroke-linecap:round;stroke-linejoin:round;stroke-miterlimit:4;stroke-dasharray:none;stroke-dashoffset:0;stroke-opacity:0.49803922"
           id="path3872" />
        <path
           d="M 28 37.5 A 0.5 1.5 0 1 1  27,37.5 A 0.5 1.5 0 1 1  28 37.5 z"
           transform="matrix(5.915046e-2,-1.9987498,-0.9997043,-2.3360442e-2,67.862127,92.341636)"
           style="opacity:0.85;fill:url(#radialGradient4459);fill-opacity:1;stroke:none;stroke-width:1.22474492;stroke-linecap:round;stroke-linejoin:round;stroke-miterlimit:4;stroke-dasharray:none;stroke-dashoffset:0;stroke-opacity:0.49803922"
           id="path3876" />
        <path
           d="M 28 37.5 A 0.5 1.5 0 1 1  27,37.5 A 0.5 1.5 0 1 1  28 37.5 z"
           transform="matrix(1.3821265,-1.4450695,-0.7269403,-0.6866675,22.251489,99.489442)"
           style="opacity:0.85;fill:url(#radialGradient4461);fill-opacity:1;stroke:none;stroke-width:1.22474492;stroke-linecap:round;stroke-linejoin:round;stroke-miterlimit:4;stroke-dasharray:none;stroke-dashoffset:0;stroke-opacity:0.49803922"
           id="path3880" />
        <path
           d="M 28 37.5 A 0.5 1.5 0 1 1  27,37.5 A 0.5 1.5 0 1 1  28 37.5 z"
           transform="matrix(1.4450695,1.3821265,0.6866675,-0.7269403,-27.489736,23.251782)"
           style="opacity:0.85;fill:url(#radialGradient4463);fill-opacity:1;stroke:none;stroke-width:1.22474492;stroke-linecap:round;stroke-linejoin:round;stroke-miterlimit:4;stroke-dasharray:none;stroke-dashoffset:0;stroke-opacity:0.49803922"
           id="path3884" />
        <path
           d="M 28 37.5 A 0.5 1.5 0 1 1  27,37.5 A 0.5 1.5 0 1 1  28 37.5 z"
           transform="matrix(-1.3821265,1.4450695,0.7269403,0.6866675,48.747925,-26.489442)"
           style="opacity:0.85;fill:url(#radialGradient4465);fill-opacity:1;stroke:none;stroke-width:1.22474492;stroke-linecap:round;stroke-linejoin:round;stroke-miterlimit:4;stroke-dasharray:none;stroke-dashoffset:0;stroke-opacity:0.49803922"
           id="path3888" />
        <path
           d="M 28 37.5 A 0.5 1.5 0 1 1  27,37.5 A 0.5 1.5 0 1 1  28 37.5 z"
           transform="matrix(-1.4450695,-1.3821265,-0.6866675,0.7269403,98.489147,49.748218)"
           style="opacity:0.85;fill:url(#radialGradient4467);fill-opacity:1;stroke:none;stroke-width:1.22474492;stroke-linecap:round;stroke-linejoin:round;stroke-miterlimit:4;stroke-dasharray:none;stroke-dashoffset:0;stroke-opacity:0.49803922"
           id="path3892" />
        <path
           d="M 28 37.5 A 0.5 1.5 0 1 1  27,37.5 A 0.5 1.5 0 1 1  28 37.5 z"
           transform="matrix(-1.9987498,-5.915046e-2,-2.3360442e-2,0.9997043,91.369071,4.1377264)"
           style="opacity:0.85;fill:url(#radialGradient4469);fill-opacity:1;stroke:none;stroke-width:1.22474492;stroke-linecap:round;stroke-linejoin:round;stroke-miterlimit:4;stroke-dasharray:none;stroke-dashoffset:0;stroke-opacity:0.49803922"
           id="path4409" />
      </g>
    </g>
    <g
       transform="translate(2.0205868,2)"
       id="g3448">
      <path
         d="M 48 40.5 A 24 3.5 0 1 1  0,40.5 A 24 3.5 0 1 1  48 40.5 z"
         transform="matrix(0.375,0,0,0.7142859,12,14.51466)"
         style="opacity:0.5;fill:url(#radialGradient3752);fill-opacity:1;stroke:none;stroke-width:1;stroke-miterlimit:4;stroke-dasharray:none;stroke-opacity:1"
         id="path3750" />
      <path
         d="M 18.5,30.500001 C 18,30.500001 16.973194,30.780105 16.3125,31.375 C 15.577999,32.036352 15,33.000001 15,34.000001 C 14.5,34.500001 14,36 14,37 C 11.5,34.5 4.4894983,32.490999 4.5,32.5 L 3.5,33.5 C 3.5,33.499999 9.5993075,40.993809 13.5,43.15625 C 15.174421,44.084505 17,45 18.5,44 C 20.5,44 21,44 22,44 C 24,44 25.225245,43.774757 26.5,42.500002 C 28.5,40.500002 27.5,36.500001 25.09375,33.90625 C 23.091881,31.74839 21,30.500001 18.5,30.500001 z "
         style="fill:url(#radialGradient2366);fill-opacity:1;stroke:url(#linearGradient2368);stroke-width:1.00000024;stroke-linecap:round;stroke-linejoin:round;stroke-miterlimit:4;stroke-dasharray:none;stroke-opacity:1"
         id="path2454" />
      <path
         d="M 22,43 C 28,43 25,38 23.5,36 C 21.156925,32.8759 16.5,31.5 16,34"
         style="opacity:0.35;fill:none;fill-opacity:1;fill-rule:evenodd;stroke:#ffffff;stroke-width:1px;stroke-linecap:round;stroke-linejoin:round;stroke-opacity:1"
         id="path3427" />
      <path
         d="M 22.5,43 C 25.5,43 25.5,38.5 21,35 C 19.576975,33.893203 17,33 16,34"
         style="opacity:0.75;fill:none;fill-opacity:1;fill-rule:evenodd;stroke:url(#linearGradient3349);stroke-width:1px;stroke-linecap:round;stroke-linejoin:round;stroke-opacity:1"
         id="path2371" />
      <path
         d="M 4.5,34 C 4.5,34 10,40 13,42.215691 C 14.428496,43.270726 16.5,44.5 18.5,43.5 C 23,43.5 24,44 24,41 C 24,35 15.5,32.5 15,35 C 15,35 14.5,36 14,37.5 C 10.5,34.5 4.5,33 4.5,33 L 4.5,34 z "
         style="fill:url(#radialGradient3376);fill-opacity:1;fill-rule:evenodd;stroke:none;stroke-width:1px;stroke-linecap:butt;stroke-linejoin:miter;stroke-opacity:1"
         id="path3354" />
      <g
         transform="translate(-5.2552083,-1.9775627)"
         style="opacity:0.85"
         id="g3922">
        <path
           d="M 28 37.5 A 0.5 1.5 0 1 1  27,37.5 A 0.5 1.5 0 1 1  28 37.5 z"
           transform="matrix(1.4450695,1.3821265,0.6866675,-0.7269403,-40.247536,28.542739)"
           style="opacity:1;fill:url(#radialGradient3980);fill-opacity:1;stroke:none;stroke-width:1.22474492;stroke-linecap:round;stroke-linejoin:round;stroke-miterlimit:4;stroke-dasharray:none;stroke-dashoffset:0;stroke-opacity:0.49803922"
           id="path3906" />
        <path
           d="M 28 37.5 A 0.5 1.5 0 1 1  27,37.5 A 0.5 1.5 0 1 1  28 37.5 z"
           transform="matrix(1.2892044,1.3382779,0.6126036,-0.7038777,-35.548152,27.342772)"
           style="opacity:0.9;fill:url(#radialGradient3982);fill-opacity:1;stroke:none;stroke-width:1.22474492;stroke-linecap:round;stroke-linejoin:round;stroke-miterlimit:4;stroke-dasharray:none;stroke-dashoffset:0;stroke-opacity:0.49803922"
           id="path3910" />
        <path
           d="M 28 37.5 A 0.5 1.5 0 1 1  27,37.5 A 0.5 1.5 0 1 1  28 37.5 z"
           transform="matrix(1.5892335,0.9124446,0.7502828,-0.68353,-44.961922,41.917753)"
           style="opacity:1;fill:url(#radialGradient3984);fill-opacity:1;stroke:none;stroke-width:1.22474492;stroke-linecap:round;stroke-linejoin:round;stroke-miterlimit:4;stroke-dasharray:none;stroke-dashoffset:0;stroke-opacity:0.49803922"
           id="path3914" />
        <path
           d="M 28 37.5 A 0.5 1.5 0 1 1  27,37.5 A 0.5 1.5 0 1 1  28 37.5 z"
           transform="matrix(1.6206454,0.5494105,0.8415332,-0.633093,-48.625244,52.62098)"
           style="opacity:0.9;fill:url(#radialGradient3986);fill-opacity:1;stroke:none;stroke-width:1.22474492;stroke-linecap:round;stroke-linejoin:round;stroke-miterlimit:4;stroke-dasharray:none;stroke-dashoffset:0;stroke-opacity:0.49803922"
           id="path3918" />
      </g>
      <path
         d="M 4.5,34 C 4.5,34 10,40 13,42.215691 C 14.428496,43.270726 17,45 18.5,43 C 18.5,41 17,40 14.5,38 C 10.5,35 5,33.5 5,33.5 L 4.5,34 z "
         style="opacity:0.8;fill:url(#radialGradient3411);fill-opacity:1;fill-rule:evenodd;stroke:none;stroke-width:1px;stroke-linecap:butt;stroke-linejoin:miter;stroke-opacity:1"
         id="path3379" />
      <path
         d="M 16.5,34.5 C 15.993149,34.54787 15.857318,34.63457 15.5,35 C 15,36 14.5,37.5 14.5,38.5 C 11,35.5 7.681875,34.631484 4.90625,33.746421 C 5.2897066,34.27927 6.0295125,35.029513 7.5,36.5 C 9.5,38.499999 12,41 13.5,42 C 15,43 17,44 18.5,43 C 23,43 23.5,43.5 23.5,41 C 23.5,37.5 20,34.5 16.5,34.5 z "
         style="opacity:0.5;fill:url(#radialGradient3428);fill-opacity:1;fill-rule:evenodd;stroke:url(#linearGradient2359);stroke-width:0.99999994px;stroke-linecap:round;stroke-linejoin:round;stroke-opacity:1"
         id="path3451" />
    </g>
  </g>
</svg>
