<?xml version="1.0" standalone="no"?>
<!-- Laoism.deviantART.com 2013-6-26ver.1 -->
<!DOCTYPE svg PUBLIC "-//W3C//DTD SVG 1.1//EN" "http://www.w3.org/Graphics/SVG/1.1/DTD/svg11.dtd">
<svg id="tango7-zip-16" viewBox="0 0 16 16" style="background-color:#ffffff00" version="1.1"
	xmlns="http://www.w3.org/2000/svg" xmlns:xlink="http://www.w3.org/1999/xlink" xml:space="preserve"
	x="0px" y="0px" width="16px" height="16px"
>
	<defs>
		<radialGradient id="shade" cx="50%" cy="50%" r="50%">
			<stop stop-color="#000000" stop-opacity="0.3" offset="0"/>
			<stop stop-color="#000000" stop-opacity="0" offset="1"/>
		</radialGradient>
		<linearGradient id="bg1" x1="0" y1="0" x2="30%" y2="1">
			<stop stop-color="#a8aba4" stop-opacity="1" offset="0"/>
			<stop stop-color="#888a85" stop-opacity="1" offset="50%"/>
			<stop stop-color="#555753" stop-opacity="1" offset="1"/>
		</linearGradient>
		<linearGradient id="bg2" x1="0.2" y1="0" x2="0.6" y2="1">
			<stop stop-color="#d3d7cf" stop-opacity="1" offset="0"/>
			<stop stop-color="#eeeeec" stop-opacity="1" offset="50%"/>
		</linearGradient>
		<linearGradient id="yin" x1="0.2" y1="0.3" x2="0.7" y2="1">
			<stop stop-color="#555753" stop-opacity="1" offset="0"/>
			<stop stop-color="#2e3436" stop-opacity="1" offset="1"/>
		</linearGradient>
		<linearGradient id="yang" x1="0" y1="0" x2="0.5" y2="1">
			<stop stop-color="#eeeeec" stop-opacity="1" offset="0"/>
			<stop stop-color="#ffffff" stop-opacity="1" offset="1"/>
		</linearGradient>
	</defs>
	<g id="bg">
		<rect x="0" y="14" width="16" height="2" fill="url(#shade)"/>
		<rect x="0" y="1" width="16" height="14" fill="url(#bg1)" rx="1.5" ry="1.5"/>
		<rect x="1" y="2" width="14" height="12" fill="#ffffff" rx="0.5" ry="0.5"/>
		<rect x="2" y="3" width="12" height="10" fill="url(#bg2)"/>
	</g>
	<g id="7z">
		<path d="M 14 13 L 10 13 L 10 12 L 12.3 7.3 L 10 7.3 L 10 6 L 14 6 L 14 7 L 11.8 11.7 L 14 11.7 L 14 13 Z" fill="url(#yin)"/>
		<rect x="2" y="3" width="7" height="10" fill="url(#yin)"/>
		<path d="M 5.7 12 L 4.3 12 L 6.4 5.2 L 4.5 5.2 L 4.5 6.7 L 3 6.4 L 3 4 L 8 4 L 8 4.5 L 5.7 12 Z" fill="url(#yang)"/>
	</g>
</svg>